G04*
G04 #@! TF.GenerationSoftware,Altium Limited,Altium Designer,24.9.1 (31)*
G04*
G04 Layer_Color=2752767*
%FSLAX25Y25*%
%MOIN*%
G70*
G04*
G04 #@! TF.SameCoordinates,2A645F15-B05F-45B5-8E7C-29DD8EA82903*
G04*
G04*
G04 #@! TF.FilePolarity,Positive*
G04*
G01*
G75*
%ADD14C,0.00500*%
%ADD19C,0.00400*%
%ADD126C,0.00667*%
D14*
X116500Y385000D02*
Y384000D01*
X118500D01*
Y385000D01*
X119500D01*
Y387000D01*
X118500D01*
Y388000D01*
X116500D01*
Y387000D01*
X115500D01*
Y385000D01*
X116500D01*
Y375000D02*
Y374000D01*
X118500D01*
Y375000D01*
X119500D01*
Y377000D01*
X118500D01*
Y378000D01*
X116500D01*
Y377000D01*
X115500D01*
Y375000D01*
X116500D01*
Y365000D02*
Y364000D01*
X118500D01*
Y365000D01*
X119500D01*
Y367000D01*
X118500D01*
Y368000D01*
X116500D01*
Y367000D01*
X115500D01*
Y365000D01*
X116500D01*
X39945Y378500D02*
X40945Y379500D01*
X41945D01*
X40945Y380500D01*
X41945Y381500D01*
X40945D01*
X39945Y382500D01*
X38945Y381500D01*
X37945D01*
X38945Y380500D01*
X37945Y379500D01*
X38945D01*
X39945Y378500D01*
Y379300D02*
X40545Y379900D01*
X41145D01*
X40545Y380500D01*
X41145Y381100D01*
X40545D01*
X39945Y381700D01*
X39345Y381100D01*
X38745D01*
X39345Y380500D01*
X38745Y379900D01*
X39345D01*
X39945Y379300D01*
X99000Y378500D02*
X100000Y379500D01*
X101000D01*
X100000Y380500D01*
X101000Y381500D01*
X100000D01*
X99000Y382500D01*
X98000Y381500D01*
X97000D01*
X98000Y380500D01*
X97000Y379500D01*
X98000D01*
X99000Y378500D01*
Y379300D02*
X99600Y379900D01*
X100200D01*
X99600Y380500D01*
X100200Y381100D01*
X99600D01*
X99000Y381700D01*
X98400Y381100D01*
X97800D01*
X98400Y380500D01*
X97800Y379900D01*
X98400D01*
X99000Y379300D01*
X69500Y369500D02*
X70500Y371500D01*
X69500Y373500D01*
X71500Y372500D01*
X73500Y373500D01*
X72500Y371500D01*
X73500Y369500D01*
X71500Y370500D01*
X69500Y369500D01*
X70300Y370300D02*
X70900Y371500D01*
X70300Y372700D01*
X71500Y372100D01*
X72700Y372700D01*
X72100Y371500D01*
X72700Y370300D01*
X71500Y370900D01*
X70300Y370300D01*
X65500Y359500D02*
X66500Y361500D01*
X65500Y363500D01*
X67500Y362500D01*
X69500Y363500D01*
X68500Y361500D01*
X69500Y359500D01*
X67500Y360500D01*
X65500Y359500D01*
X66300Y360300D02*
X66900Y361500D01*
X66300Y362700D01*
X67500Y362100D01*
X68700Y362700D01*
X68100Y361500D01*
X68700Y360300D01*
X67500Y360900D01*
X66300Y360300D01*
X73500Y359500D02*
X74500Y361500D01*
X73500Y363500D01*
X75500Y362500D01*
X77500Y363500D01*
X76500Y361500D01*
X77500Y359500D01*
X75500Y360500D01*
X73500Y359500D01*
X74300Y360300D02*
X74900Y361500D01*
X74300Y362700D01*
X75500Y362100D01*
X76700Y362700D01*
X76100Y361500D01*
X76700Y360300D01*
X75500Y360900D01*
X74300Y360300D01*
X61500Y369500D02*
X62500Y371500D01*
X61500Y373500D01*
X63500Y372500D01*
X65500Y373500D01*
X64500Y371500D01*
X65500Y369500D01*
X63500Y370500D01*
X61500Y369500D01*
X62300Y370300D02*
X62900Y371500D01*
X62300Y372700D01*
X63500Y372100D01*
X64700Y372700D01*
X64100Y371500D01*
X64700Y370300D01*
X63500Y370900D01*
X62300Y370300D01*
X77500Y369500D02*
X78500Y371500D01*
X77500Y373500D01*
X79500Y372500D01*
X81500Y373500D01*
X80500Y371500D01*
X81500Y369500D01*
X79500Y370500D01*
X77500Y369500D01*
X78300Y370300D02*
X78900Y371500D01*
X78300Y372700D01*
X79500Y372100D01*
X80700Y372700D01*
X80100Y371500D01*
X80700Y370300D01*
X79500Y370900D01*
X78300Y370300D01*
X57500Y359500D02*
X58500Y361500D01*
X57500Y363500D01*
X59500Y362500D01*
X61500Y363500D01*
X60500Y361500D01*
X61500Y359500D01*
X59500Y360500D01*
X57500Y359500D01*
X58300Y360300D02*
X58900Y361500D01*
X58300Y362700D01*
X59500Y362100D01*
X60700Y362700D01*
X60100Y361500D01*
X60700Y360300D01*
X59500Y360900D01*
X58300Y360300D01*
X81500Y359500D02*
X82500Y361500D01*
X81500Y363500D01*
X83500Y362500D01*
X85500Y363500D01*
X84500Y361500D01*
X85500Y359500D01*
X83500Y360500D01*
X81500Y359500D01*
X82300Y360300D02*
X82900Y361500D01*
X82300Y362700D01*
X83500Y362100D01*
X84700Y362700D01*
X84100Y361500D01*
X84700Y360300D01*
X83500Y360900D01*
X82300Y360300D01*
X53500Y369500D02*
X54500Y371500D01*
X53500Y373500D01*
X55500Y372500D01*
X57500Y373500D01*
X56500Y371500D01*
X57500Y369500D01*
X55500Y370500D01*
X53500Y369500D01*
X54300Y370300D02*
X54900Y371500D01*
X54300Y372700D01*
X55500Y372100D01*
X56700Y372700D01*
X56100Y371500D01*
X56700Y370300D01*
X55500Y370900D01*
X54300Y370300D01*
X228990Y246842D02*
Y245842D01*
X230990D01*
Y246842D01*
X231990D01*
Y248842D01*
X230990D01*
Y249842D01*
X228990D01*
Y248842D01*
X227990D01*
Y246842D01*
X228990D01*
Y236842D02*
Y235842D01*
X230990D01*
Y236842D01*
X231990D01*
Y238842D01*
X230990D01*
Y239842D01*
X228990D01*
Y238842D01*
X227990D01*
Y236842D01*
X228990D01*
Y226842D02*
Y225842D01*
X230990D01*
Y226842D01*
X231990D01*
Y228842D01*
X230990D01*
Y229842D01*
X228990D01*
Y228842D01*
X227990D01*
Y226842D01*
X228990D01*
Y216842D02*
Y215842D01*
X230990D01*
Y216842D01*
X231990D01*
Y218842D01*
X230990D01*
Y219842D01*
X228990D01*
Y218842D01*
X227990D01*
Y216842D01*
X228990D01*
Y206842D02*
Y205842D01*
X230990D01*
Y206842D01*
X231990D01*
Y208842D01*
X230990D01*
Y209842D01*
X228990D01*
Y208842D01*
X227990D01*
Y206842D01*
X228990D01*
X229000Y296839D02*
Y295839D01*
X231000D01*
Y296839D01*
X232000D01*
Y298839D01*
X231000D01*
Y299839D01*
X229000D01*
Y298839D01*
X228000D01*
Y296839D01*
X229000D01*
Y286839D02*
Y285839D01*
X231000D01*
Y286839D01*
X232000D01*
Y288839D01*
X231000D01*
Y289839D01*
X229000D01*
Y288839D01*
X228000D01*
Y286839D01*
X229000D01*
Y276839D02*
Y275839D01*
X231000D01*
Y276839D01*
X232000D01*
Y278839D01*
X231000D01*
Y279839D01*
X229000D01*
Y278839D01*
X228000D01*
Y276839D01*
X229000D01*
Y266839D02*
Y265839D01*
X231000D01*
Y266839D01*
X232000D01*
Y268839D01*
X231000D01*
Y269839D01*
X229000D01*
Y268839D01*
X228000D01*
Y266839D01*
X229000D01*
Y256839D02*
Y255839D01*
X231000D01*
Y256839D01*
X232000D01*
Y258839D01*
X231000D01*
Y259839D01*
X229000D01*
Y258839D01*
X228000D01*
Y256839D01*
X229000D01*
Y346839D02*
Y345839D01*
X231000D01*
Y346839D01*
X232000D01*
Y348839D01*
X231000D01*
Y349839D01*
X229000D01*
Y348839D01*
X228000D01*
Y346839D01*
X229000D01*
Y336839D02*
Y335839D01*
X231000D01*
Y336839D01*
X232000D01*
Y338839D01*
X231000D01*
Y339839D01*
X229000D01*
Y338839D01*
X228000D01*
Y336839D01*
X229000D01*
Y326839D02*
Y325839D01*
X231000D01*
Y326839D01*
X232000D01*
Y328839D01*
X231000D01*
Y329839D01*
X229000D01*
Y328839D01*
X228000D01*
Y326839D01*
X229000D01*
Y316839D02*
Y315839D01*
X231000D01*
Y316839D01*
X232000D01*
Y318839D01*
X231000D01*
Y319839D01*
X229000D01*
Y318839D01*
X228000D01*
Y316839D01*
X229000D01*
Y306839D02*
Y305839D01*
X231000D01*
Y306839D01*
X232000D01*
Y308839D01*
X231000D01*
Y309839D01*
X229000D01*
Y308839D01*
X228000D01*
Y306839D01*
X229000D01*
X249000Y346000D02*
X250000D01*
X251000Y347000D01*
X252000Y346000D01*
X253000D01*
Y347000D01*
X252000Y348000D01*
X253000Y349000D01*
Y350000D01*
X252000D01*
X251000Y349000D01*
X250000Y350000D01*
X249000D01*
Y349000D01*
X250000Y348000D01*
X249000Y347000D01*
Y346000D01*
Y336000D02*
X250000D01*
X251000Y337000D01*
X252000Y336000D01*
X253000D01*
Y337000D01*
X252000Y338000D01*
X253000Y339000D01*
Y340000D01*
X252000D01*
X251000Y339000D01*
X250000Y340000D01*
X249000D01*
Y339000D01*
X250000Y338000D01*
X249000Y337000D01*
Y336000D01*
Y326000D02*
X250000D01*
X251000Y327000D01*
X252000Y326000D01*
X253000D01*
Y327000D01*
X252000Y328000D01*
X253000Y329000D01*
Y330000D01*
X252000D01*
X251000Y329000D01*
X250000Y330000D01*
X249000D01*
Y329000D01*
X250000Y328000D01*
X249000Y327000D01*
Y326000D01*
Y316000D02*
X250000D01*
X251000Y317000D01*
X252000Y316000D01*
X253000D01*
Y317000D01*
X252000Y318000D01*
X253000Y319000D01*
Y320000D01*
X252000D01*
X251000Y319000D01*
X250000Y320000D01*
X249000D01*
Y319000D01*
X250000Y318000D01*
X249000Y317000D01*
Y316000D01*
Y306000D02*
X250000D01*
X251000Y307000D01*
X252000Y306000D01*
X253000D01*
Y307000D01*
X252000Y308000D01*
X253000Y309000D01*
Y310000D01*
X252000D01*
X251000Y309000D01*
X250000Y310000D01*
X249000D01*
Y309000D01*
X250000Y308000D01*
X249000Y307000D01*
Y306000D01*
Y296000D02*
X250000D01*
X251000Y297000D01*
X252000Y296000D01*
X253000D01*
Y297000D01*
X252000Y298000D01*
X253000Y299000D01*
Y300000D01*
X252000D01*
X251000Y299000D01*
X250000Y300000D01*
X249000D01*
Y299000D01*
X250000Y298000D01*
X249000Y297000D01*
Y296000D01*
Y286000D02*
X250000D01*
X251000Y287000D01*
X252000Y286000D01*
X253000D01*
Y287000D01*
X252000Y288000D01*
X253000Y289000D01*
Y290000D01*
X252000D01*
X251000Y289000D01*
X250000Y290000D01*
X249000D01*
Y289000D01*
X250000Y288000D01*
X249000Y287000D01*
Y286000D01*
Y276000D02*
X250000D01*
X251000Y277000D01*
X252000Y276000D01*
X253000D01*
Y277000D01*
X252000Y278000D01*
X253000Y279000D01*
Y280000D01*
X252000D01*
X251000Y279000D01*
X250000Y280000D01*
X249000D01*
Y279000D01*
X250000Y278000D01*
X249000Y277000D01*
Y276000D01*
Y266000D02*
X250000D01*
X251000Y267000D01*
X252000Y266000D01*
X253000D01*
Y267000D01*
X252000Y268000D01*
X253000Y269000D01*
Y270000D01*
X252000D01*
X251000Y269000D01*
X250000Y270000D01*
X249000D01*
Y269000D01*
X250000Y268000D01*
X249000Y267000D01*
Y266000D01*
Y256000D02*
X250000D01*
X251000Y257000D01*
X252000Y256000D01*
X253000D01*
Y257000D01*
X252000Y258000D01*
X253000Y259000D01*
Y260000D01*
X252000D01*
X251000Y259000D01*
X250000Y260000D01*
X249000D01*
Y259000D01*
X250000Y258000D01*
X249000Y257000D01*
Y256000D01*
Y246000D02*
X250000D01*
X251000Y247000D01*
X252000Y246000D01*
X253000D01*
Y247000D01*
X252000Y248000D01*
X253000Y249000D01*
Y250000D01*
X252000D01*
X251000Y249000D01*
X250000Y250000D01*
X249000D01*
Y249000D01*
X250000Y248000D01*
X249000Y247000D01*
Y246000D01*
Y236000D02*
X250000D01*
X251000Y237000D01*
X252000Y236000D01*
X253000D01*
Y237000D01*
X252000Y238000D01*
X253000Y239000D01*
Y240000D01*
X252000D01*
X251000Y239000D01*
X250000Y240000D01*
X249000D01*
Y239000D01*
X250000Y238000D01*
X249000Y237000D01*
Y236000D01*
Y226000D02*
X250000D01*
X251000Y227000D01*
X252000Y226000D01*
X253000D01*
Y227000D01*
X252000Y228000D01*
X253000Y229000D01*
Y230000D01*
X252000D01*
X251000Y229000D01*
X250000Y230000D01*
X249000D01*
Y229000D01*
X250000Y228000D01*
X249000Y227000D01*
Y226000D01*
Y216000D02*
X250000D01*
X251000Y217000D01*
X252000Y216000D01*
X253000D01*
Y217000D01*
X252000Y218000D01*
X253000Y219000D01*
Y220000D01*
X252000D01*
X251000Y219000D01*
X250000Y220000D01*
X249000D01*
Y219000D01*
X250000Y218000D01*
X249000Y217000D01*
Y216000D01*
Y206000D02*
X250000D01*
X251000Y207000D01*
X252000Y206000D01*
X253000D01*
Y207000D01*
X252000Y208000D01*
X253000Y209000D01*
Y210000D01*
X252000D01*
X251000Y209000D01*
X250000Y210000D01*
X249000D01*
Y209000D01*
X250000Y208000D01*
X249000Y207000D01*
Y206000D01*
Y196000D02*
X250000D01*
X251000Y197000D01*
X252000Y196000D01*
X253000D01*
Y197000D01*
X252000Y198000D01*
X253000Y199000D01*
Y200000D01*
X252000D01*
X251000Y199000D01*
X250000Y200000D01*
X249000D01*
Y199000D01*
X250000Y198000D01*
X249000Y197000D01*
Y196000D01*
Y186000D02*
X250000D01*
X251000Y187000D01*
X252000Y186000D01*
X253000D01*
Y187000D01*
X252000Y188000D01*
X253000Y189000D01*
Y190000D01*
X252000D01*
X251000Y189000D01*
X250000Y190000D01*
X249000D01*
Y189000D01*
X250000Y188000D01*
X249000Y187000D01*
Y186000D01*
Y176000D02*
X250000D01*
X251000Y177000D01*
X252000Y176000D01*
X253000D01*
Y177000D01*
X252000Y178000D01*
X253000Y179000D01*
Y180000D01*
X252000D01*
X251000Y179000D01*
X250000Y180000D01*
X249000D01*
Y179000D01*
X250000Y178000D01*
X249000Y177000D01*
Y176000D01*
Y166000D02*
X250000D01*
X251000Y167000D01*
X252000Y166000D01*
X253000D01*
Y167000D01*
X252000Y168000D01*
X253000Y169000D01*
Y170000D01*
X252000D01*
X251000Y169000D01*
X250000Y170000D01*
X249000D01*
Y169000D01*
X250000Y168000D01*
X249000Y167000D01*
Y166000D01*
X349000D02*
X350000D01*
X351000Y167000D01*
X352000Y166000D01*
X353000D01*
Y167000D01*
X352000Y168000D01*
X353000Y169000D01*
Y170000D01*
X352000D01*
X351000Y169000D01*
X350000Y170000D01*
X349000D01*
Y169000D01*
X350000Y168000D01*
X349000Y167000D01*
Y166000D01*
Y176000D02*
X350000D01*
X351000Y177000D01*
X352000Y176000D01*
X353000D01*
Y177000D01*
X352000Y178000D01*
X353000Y179000D01*
Y180000D01*
X352000D01*
X351000Y179000D01*
X350000Y180000D01*
X349000D01*
Y179000D01*
X350000Y178000D01*
X349000Y177000D01*
Y176000D01*
Y186000D02*
X350000D01*
X351000Y187000D01*
X352000Y186000D01*
X353000D01*
Y187000D01*
X352000Y188000D01*
X353000Y189000D01*
Y190000D01*
X352000D01*
X351000Y189000D01*
X350000Y190000D01*
X349000D01*
Y189000D01*
X350000Y188000D01*
X349000Y187000D01*
Y186000D01*
Y196000D02*
X350000D01*
X351000Y197000D01*
X352000Y196000D01*
X353000D01*
Y197000D01*
X352000Y198000D01*
X353000Y199000D01*
Y200000D01*
X352000D01*
X351000Y199000D01*
X350000Y200000D01*
X349000D01*
Y199000D01*
X350000Y198000D01*
X349000Y197000D01*
Y196000D01*
Y206000D02*
X350000D01*
X351000Y207000D01*
X352000Y206000D01*
X353000D01*
Y207000D01*
X352000Y208000D01*
X353000Y209000D01*
Y210000D01*
X352000D01*
X351000Y209000D01*
X350000Y210000D01*
X349000D01*
Y209000D01*
X350000Y208000D01*
X349000Y207000D01*
Y206000D01*
Y216000D02*
X350000D01*
X351000Y217000D01*
X352000Y216000D01*
X353000D01*
Y217000D01*
X352000Y218000D01*
X353000Y219000D01*
Y220000D01*
X352000D01*
X351000Y219000D01*
X350000Y220000D01*
X349000D01*
Y219000D01*
X350000Y218000D01*
X349000Y217000D01*
Y216000D01*
Y226000D02*
X350000D01*
X351000Y227000D01*
X352000Y226000D01*
X353000D01*
Y227000D01*
X352000Y228000D01*
X353000Y229000D01*
Y230000D01*
X352000D01*
X351000Y229000D01*
X350000Y230000D01*
X349000D01*
Y229000D01*
X350000Y228000D01*
X349000Y227000D01*
Y226000D01*
Y236000D02*
X350000D01*
X351000Y237000D01*
X352000Y236000D01*
X353000D01*
Y237000D01*
X352000Y238000D01*
X353000Y239000D01*
Y240000D01*
X352000D01*
X351000Y239000D01*
X350000Y240000D01*
X349000D01*
Y239000D01*
X350000Y238000D01*
X349000Y237000D01*
Y236000D01*
Y246000D02*
X350000D01*
X351000Y247000D01*
X352000Y246000D01*
X353000D01*
Y247000D01*
X352000Y248000D01*
X353000Y249000D01*
Y250000D01*
X352000D01*
X351000Y249000D01*
X350000Y250000D01*
X349000D01*
Y249000D01*
X350000Y248000D01*
X349000Y247000D01*
Y246000D01*
Y256000D02*
X350000D01*
X351000Y257000D01*
X352000Y256000D01*
X353000D01*
Y257000D01*
X352000Y258000D01*
X353000Y259000D01*
Y260000D01*
X352000D01*
X351000Y259000D01*
X350000Y260000D01*
X349000D01*
Y259000D01*
X350000Y258000D01*
X349000Y257000D01*
Y256000D01*
Y266000D02*
X350000D01*
X351000Y267000D01*
X352000Y266000D01*
X353000D01*
Y267000D01*
X352000Y268000D01*
X353000Y269000D01*
Y270000D01*
X352000D01*
X351000Y269000D01*
X350000Y270000D01*
X349000D01*
Y269000D01*
X350000Y268000D01*
X349000Y267000D01*
Y266000D01*
Y276000D02*
X350000D01*
X351000Y277000D01*
X352000Y276000D01*
X353000D01*
Y277000D01*
X352000Y278000D01*
X353000Y279000D01*
Y280000D01*
X352000D01*
X351000Y279000D01*
X350000Y280000D01*
X349000D01*
Y279000D01*
X350000Y278000D01*
X349000Y277000D01*
Y276000D01*
Y286000D02*
X350000D01*
X351000Y287000D01*
X352000Y286000D01*
X353000D01*
Y287000D01*
X352000Y288000D01*
X353000Y289000D01*
Y290000D01*
X352000D01*
X351000Y289000D01*
X350000Y290000D01*
X349000D01*
Y289000D01*
X350000Y288000D01*
X349000Y287000D01*
Y286000D01*
Y296000D02*
X350000D01*
X351000Y297000D01*
X352000Y296000D01*
X353000D01*
Y297000D01*
X352000Y298000D01*
X353000Y299000D01*
Y300000D01*
X352000D01*
X351000Y299000D01*
X350000Y300000D01*
X349000D01*
Y299000D01*
X350000Y298000D01*
X349000Y297000D01*
Y296000D01*
Y306000D02*
X350000D01*
X351000Y307000D01*
X352000Y306000D01*
X353000D01*
Y307000D01*
X352000Y308000D01*
X353000Y309000D01*
Y310000D01*
X352000D01*
X351000Y309000D01*
X350000Y310000D01*
X349000D01*
Y309000D01*
X350000Y308000D01*
X349000Y307000D01*
Y306000D01*
Y316000D02*
X350000D01*
X351000Y317000D01*
X352000Y316000D01*
X353000D01*
Y317000D01*
X352000Y318000D01*
X353000Y319000D01*
Y320000D01*
X352000D01*
X351000Y319000D01*
X350000Y320000D01*
X349000D01*
Y319000D01*
X350000Y318000D01*
X349000Y317000D01*
Y316000D01*
Y326000D02*
X350000D01*
X351000Y327000D01*
X352000Y326000D01*
X353000D01*
Y327000D01*
X352000Y328000D01*
X353000Y329000D01*
Y330000D01*
X352000D01*
X351000Y329000D01*
X350000Y330000D01*
X349000D01*
Y329000D01*
X350000Y328000D01*
X349000Y327000D01*
Y326000D01*
Y336000D02*
X350000D01*
X351000Y337000D01*
X352000Y336000D01*
X353000D01*
Y337000D01*
X352000Y338000D01*
X353000Y339000D01*
Y340000D01*
X352000D01*
X351000Y339000D01*
X350000Y340000D01*
X349000D01*
Y339000D01*
X350000Y338000D01*
X349000Y337000D01*
Y336000D01*
Y346000D02*
X350000D01*
X351000Y347000D01*
X352000Y346000D01*
X353000D01*
Y347000D01*
X352000Y348000D01*
X353000Y349000D01*
Y350000D01*
X352000D01*
X351000Y349000D01*
X350000Y350000D01*
X349000D01*
Y349000D01*
X350000Y348000D01*
X349000Y347000D01*
Y346000D01*
X229000Y166839D02*
Y165839D01*
X231000D01*
Y166839D01*
X232000D01*
Y168839D01*
X231000D01*
Y169839D01*
X229000D01*
Y168839D01*
X228000D01*
Y166839D01*
X229000D01*
Y176839D02*
Y175839D01*
X231000D01*
Y176839D01*
X232000D01*
Y178839D01*
X231000D01*
Y179839D01*
X229000D01*
Y178839D01*
X228000D01*
Y176839D01*
X229000D01*
Y186839D02*
Y185839D01*
X231000D01*
Y186839D01*
X232000D01*
Y188839D01*
X231000D01*
Y189839D01*
X229000D01*
Y188839D01*
X228000D01*
Y186839D01*
X229000D01*
Y196839D02*
Y195839D01*
X231000D01*
Y196839D01*
X232000D01*
Y198839D01*
X231000D01*
Y199839D01*
X229000D01*
Y198839D01*
X228000D01*
Y196839D01*
X229000D01*
X370890Y246842D02*
Y245842D01*
X372890D01*
Y246842D01*
X373890D01*
Y248842D01*
X372890D01*
Y249842D01*
X370890D01*
Y248842D01*
X369890D01*
Y246842D01*
X370890D01*
Y236842D02*
Y235842D01*
X372890D01*
Y236842D01*
X373890D01*
Y238842D01*
X372890D01*
Y239842D01*
X370890D01*
Y238842D01*
X369890D01*
Y236842D01*
X370890D01*
Y226842D02*
Y225842D01*
X372890D01*
Y226842D01*
X373890D01*
Y228842D01*
X372890D01*
Y229842D01*
X370890D01*
Y228842D01*
X369890D01*
Y226842D01*
X370890D01*
Y216842D02*
Y215842D01*
X372890D01*
Y216842D01*
X373890D01*
Y218842D01*
X372890D01*
Y219842D01*
X370890D01*
Y218842D01*
X369890D01*
Y216842D01*
X370890D01*
Y206842D02*
Y205842D01*
X372890D01*
Y206842D01*
X373890D01*
Y208842D01*
X372890D01*
Y209842D01*
X370890D01*
Y208842D01*
X369890D01*
Y206842D01*
X370890D01*
X370900Y296839D02*
Y295839D01*
X372900D01*
Y296839D01*
X373900D01*
Y298839D01*
X372900D01*
Y299839D01*
X370900D01*
Y298839D01*
X369900D01*
Y296839D01*
X370900D01*
Y286839D02*
Y285839D01*
X372900D01*
Y286839D01*
X373900D01*
Y288839D01*
X372900D01*
Y289839D01*
X370900D01*
Y288839D01*
X369900D01*
Y286839D01*
X370900D01*
Y276839D02*
Y275839D01*
X372900D01*
Y276839D01*
X373900D01*
Y278839D01*
X372900D01*
Y279839D01*
X370900D01*
Y278839D01*
X369900D01*
Y276839D01*
X370900D01*
Y266839D02*
Y265839D01*
X372900D01*
Y266839D01*
X373900D01*
Y268839D01*
X372900D01*
Y269839D01*
X370900D01*
Y268839D01*
X369900D01*
Y266839D01*
X370900D01*
Y256839D02*
Y255839D01*
X372900D01*
Y256839D01*
X373900D01*
Y258839D01*
X372900D01*
Y259839D01*
X370900D01*
Y258839D01*
X369900D01*
Y256839D01*
X370900D01*
Y346839D02*
Y345839D01*
X372900D01*
Y346839D01*
X373900D01*
Y348839D01*
X372900D01*
Y349839D01*
X370900D01*
Y348839D01*
X369900D01*
Y346839D01*
X370900D01*
Y336839D02*
Y335839D01*
X372900D01*
Y336839D01*
X373900D01*
Y338839D01*
X372900D01*
Y339839D01*
X370900D01*
Y338839D01*
X369900D01*
Y336839D01*
X370900D01*
Y326839D02*
Y325839D01*
X372900D01*
Y326839D01*
X373900D01*
Y328839D01*
X372900D01*
Y329839D01*
X370900D01*
Y328839D01*
X369900D01*
Y326839D01*
X370900D01*
Y316839D02*
Y315839D01*
X372900D01*
Y316839D01*
X373900D01*
Y318839D01*
X372900D01*
Y319839D01*
X370900D01*
Y318839D01*
X369900D01*
Y316839D01*
X370900D01*
Y306839D02*
Y305839D01*
X372900D01*
Y306839D01*
X373900D01*
Y308839D01*
X372900D01*
Y309839D01*
X370900D01*
Y308839D01*
X369900D01*
Y306839D01*
X370900D01*
Y176839D02*
Y175839D01*
X372900D01*
Y176839D01*
X373900D01*
Y178839D01*
X372900D01*
Y179839D01*
X370900D01*
Y178839D01*
X369900D01*
Y176839D01*
X370900D01*
Y186839D02*
Y185839D01*
X372900D01*
Y186839D01*
X373900D01*
Y188839D01*
X372900D01*
Y189839D01*
X370900D01*
Y188839D01*
X369900D01*
Y186839D01*
X370900D01*
Y196839D02*
Y195839D01*
X372900D01*
Y196839D01*
X373900D01*
Y198839D01*
X372900D01*
Y199839D01*
X370900D01*
Y198839D01*
X369900D01*
Y196839D01*
X370900D01*
X229000Y156839D02*
Y155839D01*
X231000D01*
Y156839D01*
X232000D01*
Y158839D01*
X231000D01*
Y159839D01*
X229000D01*
Y158839D01*
X228000D01*
Y156839D01*
X229000D01*
X370900Y166839D02*
Y165839D01*
X372900D01*
Y166839D01*
X373900D01*
Y168839D01*
X372900D01*
Y169839D01*
X370900D01*
Y168839D01*
X369900D01*
Y166839D01*
X370900D01*
X350000Y157000D02*
Y156000D01*
X352000D01*
Y157000D01*
X353000D01*
Y159000D01*
X352000D01*
Y160000D01*
X350000D01*
Y159000D01*
X349000D01*
Y157000D01*
X350000D01*
X250000D02*
Y156000D01*
X252000D01*
Y157000D01*
X253000D01*
Y159000D01*
X252000D01*
Y160000D01*
X250000D01*
Y159000D01*
X249000D01*
Y157000D01*
X250000D01*
X370900Y156839D02*
Y155839D01*
X372900D01*
Y156839D01*
X373900D01*
Y158839D01*
X372900D01*
Y159839D01*
X370900D01*
Y158839D01*
X369900D01*
Y156839D01*
X370900D01*
X301000Y61000D02*
X302000Y62000D01*
X303000D01*
X302000Y63000D01*
X303000Y64000D01*
X302000D01*
X301000Y65000D01*
X300000Y64000D01*
X299000D01*
X300000Y63000D01*
X299000Y62000D01*
X300000D01*
X301000Y61000D01*
X260212D02*
X261212Y62000D01*
X262212D01*
X261212Y63000D01*
X262212Y64000D01*
X261212D01*
X260212Y65000D01*
X259212Y64000D01*
X258212D01*
X259212Y63000D01*
X258212Y62000D01*
X259212D01*
X260212Y61000D01*
X9000Y181815D02*
Y180815D01*
X11000D01*
Y181815D01*
X12000D01*
Y183815D01*
X11000D01*
Y184815D01*
X9000D01*
Y183815D01*
X8000D01*
Y181815D01*
X9000D01*
Y191657D02*
Y190657D01*
X11000D01*
Y191657D01*
X12000D01*
Y193657D01*
X11000D01*
Y194657D01*
X9000D01*
Y193657D01*
X8000D01*
Y191657D01*
X9000D01*
Y201500D02*
Y200500D01*
X11000D01*
Y201500D01*
X12000D01*
Y203500D01*
X11000D01*
Y204500D01*
X9000D01*
Y203500D01*
X8000D01*
Y201500D01*
X9000D01*
Y139315D02*
Y138315D01*
X11000D01*
Y139315D01*
X12000D01*
Y141315D01*
X11000D01*
Y142315D01*
X9000D01*
Y141315D01*
X8000D01*
Y139315D01*
X9000D01*
Y149157D02*
Y148157D01*
X11000D01*
Y149157D01*
X12000D01*
Y151157D01*
X11000D01*
Y152157D01*
X9000D01*
Y151157D01*
X8000D01*
Y149157D01*
X9000D01*
Y159000D02*
Y158000D01*
X11000D01*
Y159000D01*
X12000D01*
Y161000D01*
X11000D01*
Y162000D01*
X9000D01*
Y161000D01*
X8000D01*
Y159000D01*
X9000D01*
X65500Y329100D02*
X67500Y331100D01*
X69500Y329100D01*
X67500Y327100D01*
X65500Y329100D01*
X122024Y305166D02*
X124024Y307166D01*
X126024Y305166D01*
X124024Y303166D01*
X122024Y305166D01*
X65969Y281500D02*
X67968Y283500D01*
X69968Y281500D01*
X67968Y279500D01*
X65969Y281500D01*
X114000Y328832D02*
X116000Y330832D01*
X118000Y328832D01*
X116000Y326832D01*
X114000Y328832D01*
Y281500D02*
X116000Y283500D01*
X118000Y281500D01*
X116000Y279500D01*
X114000Y281500D01*
X153500Y261600D02*
X155500Y263600D01*
X157500Y261600D01*
X155500Y259600D01*
X153500Y261600D01*
X210024Y237666D02*
X212024Y239666D01*
X214024Y237666D01*
X212024Y235666D01*
X210024Y237666D01*
X153969Y214000D02*
X155968Y216000D01*
X157968Y214000D01*
X155968Y212000D01*
X153969Y214000D01*
X202000Y261332D02*
X204000Y263332D01*
X206000Y261332D01*
X204000Y259331D01*
X202000Y261332D01*
Y214000D02*
X204000Y216000D01*
X206000Y214000D01*
X204000Y212000D01*
X202000Y214000D01*
X114000Y214169D02*
X116000Y216168D01*
X118000Y214169D01*
X116000Y212169D01*
X114000Y214169D01*
Y261500D02*
X116000Y263500D01*
X118000Y261500D01*
X116000Y259500D01*
X114000Y261500D01*
X65969Y214169D02*
X67968Y216168D01*
X69968Y214169D01*
X67968Y212169D01*
X65969Y214169D01*
X122024Y237834D02*
X124024Y239834D01*
X126024Y237834D01*
X124024Y235834D01*
X122024Y237834D01*
X65500Y261769D02*
X67500Y263769D01*
X69500Y261769D01*
X67500Y259769D01*
X65500Y261769D01*
X54900Y68500D02*
X56900Y70500D01*
X58900Y68500D01*
X56900Y66500D01*
X54900Y68500D01*
X102232D02*
X104232Y70500D01*
X106231Y68500D01*
X104232Y66500D01*
X102232Y68500D01*
X54900Y116532D02*
X56900Y118532D01*
X58900Y116532D01*
X56900Y114532D01*
X54900Y116532D01*
X78566Y60476D02*
X80566Y62476D01*
X82566Y60476D01*
X80566Y58476D01*
X78566Y60476D01*
X102500Y117000D02*
X104500Y119000D01*
X106500Y117000D01*
X104500Y115000D01*
X102500Y117000D01*
X191753Y68500D02*
X193753Y70500D01*
X195753Y68500D01*
X193753Y66500D01*
X191753Y68500D01*
X239085D02*
X241085Y70500D01*
X243085Y68500D01*
X241085Y66500D01*
X239085Y68500D01*
X191753Y116532D02*
X193753Y118532D01*
X195753Y116532D01*
X193753Y114532D01*
X191753Y116532D01*
X215419Y60476D02*
X217419Y62476D01*
X219419Y60476D01*
X217419Y58476D01*
X215419Y60476D01*
X239353Y117000D02*
X241353Y119000D01*
X243353Y117000D01*
X241353Y115000D01*
X239353Y117000D01*
X202031Y281500D02*
X204031Y283500D01*
X206031Y281500D01*
X204031Y279500D01*
X202031Y281500D01*
Y328832D02*
X204031Y330832D01*
X206031Y328832D01*
X204031Y326832D01*
X202031Y328832D01*
X154000Y281500D02*
X156000Y283500D01*
X158000Y281500D01*
X156000Y279500D01*
X154000Y281500D01*
X210055Y305166D02*
X212055Y307166D01*
X214055Y305166D01*
X212055Y303166D01*
X210055Y305166D01*
X153532Y329100D02*
X155532Y331100D01*
X157531Y329100D01*
X155532Y327100D01*
X153532Y329100D01*
X123157Y68500D02*
X125157Y70500D01*
X127157Y68500D01*
X125157Y66500D01*
X123157Y68500D01*
X170488D02*
X172488Y70500D01*
X174488Y68500D01*
X172488Y66500D01*
X170488Y68500D01*
X123157Y116532D02*
X125157Y118532D01*
X127157Y116532D01*
X125157Y114532D01*
X123157Y116532D01*
X146823Y60476D02*
X148823Y62476D01*
X150823Y60476D01*
X148823Y58476D01*
X146823Y60476D01*
X170757Y117000D02*
X172757Y119000D01*
X174757Y117000D01*
X172757Y115000D01*
X170757Y117000D01*
X18000Y79685D02*
X20000Y81685D01*
X22000Y79685D01*
X20000Y77685D01*
X18000Y79685D01*
Y60000D02*
X20000Y62000D01*
X22000Y60000D01*
X20000Y58000D01*
X18000Y60000D01*
X152185Y20500D02*
X154185Y22500D01*
X156185Y20500D01*
X154185Y18500D01*
X152185Y20500D01*
X132500D02*
X134500Y22500D01*
X136500Y20500D01*
X134500Y18500D01*
X132500Y20500D01*
X65600Y194300D02*
X67600Y196300D01*
X69600Y194300D01*
X67600Y192300D01*
X65600Y194300D01*
X122124Y170366D02*
X124124Y172366D01*
X126124Y170366D01*
X124124Y168366D01*
X122124Y170366D01*
X66069Y146700D02*
X68068Y148700D01*
X70069Y146700D01*
X68068Y144700D01*
X66069Y146700D01*
X114100Y194032D02*
X116100Y196031D01*
X118100Y194032D01*
X116100Y192032D01*
X114100Y194032D01*
Y146700D02*
X116100Y148700D01*
X118100Y146700D01*
X116100Y144700D01*
X114100Y146700D01*
X202000Y146900D02*
X204000Y148900D01*
X206000Y146900D01*
X204000Y144900D01*
X202000Y146900D01*
Y194231D02*
X204000Y196231D01*
X206000Y194231D01*
X204000Y192232D01*
X202000Y194231D01*
X153969Y146900D02*
X155968Y148900D01*
X157968Y146900D01*
X155968Y144900D01*
X153969Y146900D01*
X210024Y170566D02*
X212024Y172566D01*
X214024Y170566D01*
X212024Y168566D01*
X210024Y170566D01*
X153500Y194500D02*
X155500Y196500D01*
X157500Y194500D01*
X155500Y192500D01*
X153500Y194500D01*
X88000Y20500D02*
X90000Y22500D01*
X92000Y20500D01*
X90000Y18500D01*
X88000Y20500D01*
X107685D02*
X109685Y22500D01*
X111685Y20500D01*
X109685Y18500D01*
X107685Y20500D01*
X334573Y377011D02*
Y376011D01*
X336573D01*
Y377011D01*
X337573D01*
Y379011D01*
X336573D01*
Y380011D01*
X334573D01*
Y379011D01*
X333573D01*
Y377011D01*
X334573D01*
X324573D02*
Y376011D01*
X326573D01*
Y377011D01*
X327573D01*
Y379011D01*
X326573D01*
Y380011D01*
X324573D01*
Y379011D01*
X323573D01*
Y377011D01*
X324573D01*
X314573D02*
Y376011D01*
X316573D01*
Y377011D01*
X317573D01*
Y379011D01*
X316573D01*
Y380011D01*
X314573D01*
Y379011D01*
X313573D01*
Y377011D01*
X314573D01*
X304573D02*
Y376011D01*
X306573D01*
Y377011D01*
X307573D01*
Y379011D01*
X306573D01*
Y380011D01*
X304573D01*
Y379011D01*
X303573D01*
Y377011D01*
X304573D01*
X294573D02*
Y376011D01*
X296573D01*
Y377011D01*
X297573D01*
Y379011D01*
X296573D01*
Y380011D01*
X294573D01*
Y379011D01*
X293573D01*
Y377011D01*
X294573D01*
X284573D02*
Y376011D01*
X286573D01*
Y377011D01*
X287573D01*
Y379011D01*
X286573D01*
Y380011D01*
X284573D01*
Y379011D01*
X283573D01*
Y377011D01*
X284573D01*
X274573D02*
Y376011D01*
X276573D01*
Y377011D01*
X277573D01*
Y379011D01*
X276573D01*
Y380011D01*
X274573D01*
Y379011D01*
X273573D01*
Y377011D01*
X274573D01*
X264573D02*
Y376011D01*
X266573D01*
Y377011D01*
X267573D01*
Y379011D01*
X266573D01*
Y380011D01*
X264573D01*
Y379011D01*
X263573D01*
Y377011D01*
X264573D01*
X324500Y387000D02*
Y386000D01*
X326500D01*
Y387000D01*
X327500D01*
Y389000D01*
X326500D01*
Y390000D01*
X324500D01*
Y389000D01*
X323500D01*
Y387000D01*
X324500D01*
X314500D02*
Y386000D01*
X316500D01*
Y387000D01*
X317500D01*
Y389000D01*
X316500D01*
Y390000D01*
X314500D01*
Y389000D01*
X313500D01*
Y387000D01*
X314500D01*
X304500D02*
Y386000D01*
X306500D01*
Y387000D01*
X307500D01*
Y389000D01*
X306500D01*
Y390000D01*
X304500D01*
Y389000D01*
X303500D01*
Y387000D01*
X304500D01*
X294500D02*
Y386000D01*
X296500D01*
Y387000D01*
X297500D01*
Y389000D01*
X296500D01*
Y390000D01*
X294500D01*
Y389000D01*
X293500D01*
Y387000D01*
X294500D01*
X284500D02*
Y386000D01*
X286500D01*
Y387000D01*
X287500D01*
Y389000D01*
X286500D01*
Y390000D01*
X284500D01*
Y389000D01*
X283500D01*
Y387000D01*
X284500D01*
X274500D02*
Y386000D01*
X276500D01*
Y387000D01*
X277500D01*
Y389000D01*
X276500D01*
Y390000D01*
X274500D01*
Y389000D01*
X273500D01*
Y387000D01*
X274500D01*
X264500D02*
Y386000D01*
X266500D01*
Y387000D01*
X267500D01*
Y389000D01*
X266500D01*
Y390000D01*
X264500D01*
Y389000D01*
X263500D01*
Y387000D01*
X264500D01*
X334500D02*
Y386000D01*
X336500D01*
Y387000D01*
X337500D01*
Y389000D01*
X336500D01*
Y390000D01*
X334500D01*
Y389000D01*
X333500D01*
Y387000D01*
X334500D01*
X135815Y372000D02*
X137815Y374000D01*
X139815Y372000D01*
X137815Y370000D01*
X135815Y372000D01*
X155500D02*
X157500Y374000D01*
X159500Y372000D01*
X157500Y370000D01*
X155500Y372000D01*
X324610Y80000D02*
X325610Y82000D01*
X324610Y84000D01*
X326610Y83000D01*
X328610Y84000D01*
X327610Y82000D01*
X328610Y80000D01*
X326610Y81000D01*
X324610Y80000D01*
X338390D02*
X339390Y82000D01*
X338390Y84000D01*
X340390Y83000D01*
X342390Y84000D01*
X341390Y82000D01*
X342390Y80000D01*
X340390Y81000D01*
X338390Y80000D01*
X311486Y53832D02*
Y52832D01*
X313486D01*
Y53832D01*
X314486D01*
Y55832D01*
X313486D01*
Y56832D01*
X311486D01*
Y55832D01*
X310486D01*
Y53832D01*
X311486D01*
X321486D02*
Y52832D01*
X323486D01*
Y53832D01*
X324486D01*
Y55832D01*
X323486D01*
Y56832D01*
X321486D01*
Y55832D01*
X320486D01*
Y53832D01*
X321486D01*
X331486D02*
Y52832D01*
X333486D01*
Y53832D01*
X334486D01*
Y55832D01*
X333486D01*
Y56832D01*
X331486D01*
Y55832D01*
X330486D01*
Y53832D01*
X331486D01*
X311500Y44000D02*
Y43000D01*
X313500D01*
Y44000D01*
X314500D01*
Y46000D01*
X313500D01*
Y47000D01*
X311500D01*
Y46000D01*
X310500D01*
Y44000D01*
X311500D01*
X321500D02*
Y43000D01*
X323500D01*
Y44000D01*
X324500D01*
Y46000D01*
X323500D01*
Y47000D01*
X321500D01*
Y46000D01*
X320500D01*
Y44000D01*
X321500D01*
X331500D02*
Y43000D01*
X333500D01*
Y44000D01*
X334500D01*
Y46000D01*
X333500D01*
Y47000D01*
X331500D01*
Y46000D01*
X330500D01*
Y44000D01*
X331500D01*
X385500Y269000D02*
Y268000D01*
X387500D01*
Y269000D01*
X388500D01*
Y271000D01*
X387500D01*
Y272000D01*
X385500D01*
Y271000D01*
X384500D01*
Y269000D01*
X385500D01*
Y199000D02*
Y198000D01*
X387500D01*
Y199000D01*
X388500D01*
Y201000D01*
X387500D01*
Y202000D01*
X385500D01*
Y201000D01*
X384500D01*
Y199000D01*
X385500D01*
Y209000D02*
Y208000D01*
X387500D01*
Y209000D01*
X388500D01*
Y211000D01*
X387500D01*
Y212000D01*
X385500D01*
Y211000D01*
X384500D01*
Y209000D01*
X385500D01*
Y219000D02*
Y218000D01*
X387500D01*
Y219000D01*
X388500D01*
Y221000D01*
X387500D01*
Y222000D01*
X385500D01*
Y221000D01*
X384500D01*
Y219000D01*
X385500D01*
Y229000D02*
Y228000D01*
X387500D01*
Y229000D01*
X388500D01*
Y231000D01*
X387500D01*
Y232000D01*
X385500D01*
Y231000D01*
X384500D01*
Y229000D01*
X385500D01*
Y239000D02*
Y238000D01*
X387500D01*
Y239000D01*
X388500D01*
Y241000D01*
X387500D01*
Y242000D01*
X385500D01*
Y241000D01*
X384500D01*
Y239000D01*
X385500D01*
Y249000D02*
Y248000D01*
X387500D01*
Y249000D01*
X388500D01*
Y251000D01*
X387500D01*
Y252000D01*
X385500D01*
Y251000D01*
X384500D01*
Y249000D01*
X385500D01*
Y259000D02*
Y258000D01*
X387500D01*
Y259000D01*
X388500D01*
Y261000D01*
X387500D01*
Y262000D01*
X385500D01*
Y261000D01*
X384500D01*
Y259000D01*
X385500D01*
X9000Y116343D02*
Y115343D01*
X11000D01*
Y116343D01*
X12000D01*
Y118343D01*
X11000D01*
Y119343D01*
X9000D01*
Y118343D01*
X8000D01*
Y116343D01*
X9000D01*
Y106500D02*
Y105500D01*
X11000D01*
Y106500D01*
X12000D01*
Y108500D01*
X11000D01*
Y109500D01*
X9000D01*
Y108500D01*
X8000D01*
Y106500D01*
X9000D01*
X216000Y19500D02*
X218000Y21500D01*
X220000Y19500D01*
X218000Y17500D01*
X216000Y19500D01*
X196315D02*
X198315Y21500D01*
X200315Y19500D01*
X198315Y17500D01*
X196315Y19500D01*
X370500Y71000D02*
X372500Y73000D01*
X374500Y71000D01*
X372500Y69000D01*
X370500Y71000D01*
Y51315D02*
X372500Y53315D01*
X374500Y51315D01*
X372500Y49315D01*
X370500Y51315D01*
X9000Y306657D02*
Y305657D01*
X11000D01*
Y306657D01*
X12000D01*
Y308657D01*
X11000D01*
Y309657D01*
X9000D01*
Y308657D01*
X8000D01*
Y306657D01*
X9000D01*
Y316500D02*
Y315500D01*
X11000D01*
Y316500D01*
X12000D01*
Y318500D01*
X11000D01*
Y319500D01*
X9000D01*
Y318500D01*
X8000D01*
Y316500D01*
X9000D01*
Y336657D02*
Y335657D01*
X11000D01*
Y336657D01*
X12000D01*
Y338657D01*
X11000D01*
Y339657D01*
X9000D01*
Y338657D01*
X8000D01*
Y336657D01*
X9000D01*
Y346500D02*
Y345500D01*
X11000D01*
Y346500D01*
X12000D01*
Y348500D01*
X11000D01*
Y349500D01*
X9000D01*
Y348500D01*
X8000D01*
Y346500D01*
X9000D01*
X385000Y307000D02*
Y306000D01*
X387000D01*
Y307000D01*
X388000D01*
Y309000D01*
X387000D01*
Y310000D01*
X385000D01*
Y309000D01*
X384000D01*
Y307000D01*
X385000D01*
Y317000D02*
Y316000D01*
X387000D01*
Y317000D01*
X388000D01*
Y319000D01*
X387000D01*
Y320000D01*
X385000D01*
Y319000D01*
X384000D01*
Y317000D01*
X385000D01*
Y327000D02*
Y326000D01*
X387000D01*
Y327000D01*
X388000D01*
Y329000D01*
X387000D01*
Y330000D01*
X385000D01*
Y329000D01*
X384000D01*
Y327000D01*
X385000D01*
Y337000D02*
Y336000D01*
X387000D01*
Y337000D01*
X388000D01*
Y339000D01*
X387000D01*
Y340000D01*
X385000D01*
Y339000D01*
X384000D01*
Y337000D01*
X385000D01*
Y347000D02*
Y346000D01*
X387000D01*
Y347000D01*
X388000D01*
Y349000D01*
X387000D01*
Y350000D01*
X385000D01*
Y349000D01*
X384000D01*
Y347000D01*
X385000D01*
X324721Y120000D02*
X325721Y122000D01*
X324721Y124000D01*
X326720Y123000D01*
X328720Y124000D01*
X327720Y122000D01*
X328720Y120000D01*
X326720Y121000D01*
X324721Y120000D01*
X338500D02*
X339500Y122000D01*
X338500Y124000D01*
X340500Y123000D01*
X342500Y124000D01*
X341500Y122000D01*
X342500Y120000D01*
X340500Y121000D01*
X338500Y120000D01*
X290500Y49500D02*
X288500Y53500D01*
X292500D01*
X290500Y49500D01*
X280500D02*
X278500Y53500D01*
X282500D01*
X280500Y49500D01*
X270500D02*
X268500Y53500D01*
X272500D01*
X270500Y49500D01*
X251014Y377168D02*
Y376168D01*
X253014D01*
Y377168D01*
X254014D01*
Y379168D01*
X253014D01*
Y380168D01*
X251014D01*
Y379168D01*
X250014D01*
Y377168D01*
X251014D01*
X241014D02*
Y376168D01*
X243014D01*
Y377168D01*
X244014D01*
Y379168D01*
X243014D01*
Y380168D01*
X241014D01*
Y379168D01*
X240014D01*
Y377168D01*
X241014D01*
X231014D02*
Y376168D01*
X233014D01*
Y377168D01*
X234014D01*
Y379168D01*
X233014D01*
Y380168D01*
X231014D01*
Y379168D01*
X230014D01*
Y377168D01*
X231014D01*
X251000Y387000D02*
Y386000D01*
X253000D01*
Y387000D01*
X254000D01*
Y389000D01*
X253000D01*
Y390000D01*
X251000D01*
Y389000D01*
X250000D01*
Y387000D01*
X251000D01*
X241000D02*
Y386000D01*
X243000D01*
Y387000D01*
X244000D01*
Y389000D01*
X243000D01*
Y390000D01*
X241000D01*
Y389000D01*
X240000D01*
Y387000D01*
X241000D01*
X231000D02*
Y386000D01*
X233000D01*
Y387000D01*
X234000D01*
Y389000D01*
X233000D01*
Y390000D01*
X231000D01*
Y389000D01*
X230000D01*
Y387000D01*
X231000D01*
X372016Y17685D02*
Y21685D01*
X376016D01*
Y17685D01*
X372016D01*
X17685D02*
Y21685D01*
X21685D01*
Y17685D01*
X17685D01*
X372016Y372016D02*
Y376016D01*
X376016D01*
Y372016D01*
X372016D01*
X17685D02*
Y376016D01*
X21685D01*
Y372016D01*
X17685D01*
X43500Y20500D02*
X45500Y22500D01*
X47500Y20500D01*
X45500Y18500D01*
X43500Y20500D01*
X63185D02*
X65185Y22500D01*
X67185Y20500D01*
X65185Y18500D01*
X63185Y20500D01*
X9000Y286500D02*
Y285500D01*
X11000D01*
Y286500D01*
X12000D01*
Y288500D01*
X11000D01*
Y289500D01*
X9000D01*
Y288500D01*
X8000D01*
Y286500D01*
X9000D01*
Y276657D02*
Y275657D01*
X11000D01*
Y276657D01*
X12000D01*
Y278657D01*
X11000D01*
Y279657D01*
X9000D01*
Y278657D01*
X8000D01*
Y276657D01*
X9000D01*
X8811Y233350D02*
Y232350D01*
X10811D01*
Y233350D01*
X11811D01*
Y235350D01*
X10811D01*
Y236350D01*
X8811D01*
Y235350D01*
X7811D01*
Y233350D01*
X8811D01*
Y223508D02*
Y222508D01*
X10811D01*
Y223508D01*
X11811D01*
Y225508D01*
X10811D01*
Y226508D01*
X8811D01*
Y225508D01*
X7811D01*
Y223508D01*
X8811D01*
X8711Y243250D02*
Y242250D01*
X10711D01*
Y243250D01*
X11711D01*
Y245250D01*
X10711D01*
Y246250D01*
X8711D01*
Y245250D01*
X7711D01*
Y243250D01*
X8711D01*
Y253050D02*
Y252050D01*
X10711D01*
Y253050D01*
X11711D01*
Y255050D01*
X10711D01*
Y256050D01*
X8711D01*
Y255050D01*
X7711D01*
Y253050D01*
X8711D01*
X386500Y141500D02*
Y145500D01*
X390500D01*
Y141500D01*
X386500D01*
X387300Y142300D02*
Y144700D01*
X389700D01*
Y142300D01*
X387300D01*
X386500Y131500D02*
Y135500D01*
X390500D01*
Y131500D01*
X386500D01*
X387300Y132300D02*
Y134700D01*
X389700D01*
Y132300D01*
X387300D01*
X356500Y131500D02*
Y135500D01*
X360500D01*
Y131500D01*
X356500D01*
X357300Y132300D02*
Y134700D01*
X359700D01*
Y132300D01*
X357300D01*
X356500Y141500D02*
Y145500D01*
X360500D01*
Y141500D01*
X356500D01*
X357300Y142300D02*
Y144700D01*
X359700D01*
Y142300D01*
X357300D01*
X97500Y344000D02*
X95500Y348000D01*
X99500D01*
X97500Y344000D01*
Y344800D02*
X96300Y347200D01*
X98700D01*
X97500Y344800D01*
X147500Y377000D02*
X145500Y381000D01*
X149500D01*
X147500Y377000D01*
Y377800D02*
X146300Y380200D01*
X148700D01*
X147500Y377800D01*
X132500Y350700D02*
X130500Y354700D01*
X134500D01*
X132500Y350700D01*
Y351500D02*
X131300Y353900D01*
X133700D01*
X132500Y351500D01*
X130500Y364076D02*
X128500Y368076D01*
X132500D01*
X130500Y364076D01*
Y364876D02*
X129300Y367276D01*
X131700D01*
X130500Y364876D01*
X129000Y352000D02*
X127000Y356000D01*
X131000D01*
X129000Y352000D01*
Y352800D02*
X127800Y355200D01*
X130200D01*
X129000Y352800D01*
X143500Y356500D02*
X141500Y360500D01*
X145500D01*
X143500Y356500D01*
Y357300D02*
X142300Y359700D01*
X144700D01*
X143500Y357300D01*
X143000Y352000D02*
X141000Y356000D01*
X145000D01*
X143000Y352000D01*
Y352800D02*
X141800Y355200D01*
X144200D01*
X143000Y352800D01*
X69000Y387500D02*
X67000Y391500D01*
X71000D01*
X69000Y387500D01*
Y388300D02*
X67800Y390700D01*
X70200D01*
X69000Y388300D01*
X245000Y280500D02*
X243000Y284500D01*
X247000D01*
X245000Y280500D01*
Y281300D02*
X243800Y283700D01*
X246200D01*
X245000Y281300D01*
Y126000D02*
X243000Y130000D01*
X247000D01*
X245000Y126000D01*
Y126800D02*
X243800Y129200D01*
X246200D01*
X245000Y126800D01*
X238300Y220500D02*
X236300Y224500D01*
X240300D01*
X238300Y220500D01*
Y221300D02*
X237100Y223700D01*
X239500D01*
X238300Y221300D01*
X247000Y291000D02*
X245000Y295000D01*
X249000D01*
X247000Y291000D01*
Y291800D02*
X245800Y294200D01*
X248200D01*
X247000Y291800D01*
X274000Y307324D02*
X272000Y311323D01*
X276000D01*
X274000Y307324D01*
Y308123D02*
X272800Y310524D01*
X275200D01*
X274000Y308123D01*
X283500Y307241D02*
X281500Y311241D01*
X285500D01*
X283500Y307241D01*
Y308041D02*
X282300Y310441D01*
X284700D01*
X283500Y308041D01*
X275500Y275000D02*
X273500Y279000D01*
X277500D01*
X275500Y275000D01*
Y275800D02*
X274300Y278200D01*
X276700D01*
X275500Y275800D01*
X237066Y270500D02*
X235066Y274500D01*
X239066D01*
X237066Y270500D01*
Y271300D02*
X235866Y273700D01*
X238266D01*
X237066Y271300D01*
X264500Y290000D02*
X262500Y294000D01*
X266500D01*
X264500Y290000D01*
Y290800D02*
X263300Y293200D01*
X265700D01*
X264500Y290800D01*
X272510Y320510D02*
X270510Y324510D01*
X274510D01*
X272510Y320510D01*
Y321309D02*
X271309Y323710D01*
X273710D01*
X272510Y321309D01*
X268500Y275500D02*
X266500Y279500D01*
X270500D01*
X268500Y275500D01*
Y276300D02*
X267300Y278700D01*
X269700D01*
X268500Y276300D01*
X262000Y305000D02*
X260000Y309000D01*
X264000D01*
X262000Y305000D01*
Y305800D02*
X260800Y308200D01*
X263200D01*
X262000Y305800D01*
X106500Y219500D02*
X104500Y223500D01*
X108500D01*
X106500Y219500D01*
Y220300D02*
X105300Y222700D01*
X107700D01*
X106500Y220300D01*
Y252500D02*
X104500Y256500D01*
X108500D01*
X106500Y252500D01*
Y253300D02*
X105300Y255700D01*
X107700D01*
X106500Y253300D01*
X110197Y252642D02*
X108197Y256642D01*
X112197D01*
X110197Y252642D01*
Y253442D02*
X108997Y255842D01*
X111397D01*
X110197Y253442D01*
X111000Y219500D02*
X109000Y223500D01*
X113000D01*
X111000Y219500D01*
Y220300D02*
X109800Y222700D01*
X112200D01*
X111000Y220300D01*
X95300Y160062D02*
X93300Y164062D01*
X97300D01*
X95300Y160062D01*
Y160862D02*
X94100Y163262D01*
X96500D01*
X95300Y160862D01*
X62973Y169527D02*
X60973Y173527D01*
X64973D01*
X62973Y169527D01*
Y170327D02*
X61773Y172727D01*
X64173D01*
X62973Y170327D01*
X69500Y177000D02*
X67500Y181000D01*
X71500D01*
X69500Y177000D01*
Y177800D02*
X68300Y180200D01*
X70700D01*
X69500Y177800D01*
X46500Y177500D02*
X44500Y181500D01*
X48500D01*
X46500Y177500D01*
Y178300D02*
X45300Y180700D01*
X47700D01*
X46500Y178300D01*
Y173500D02*
X44500Y177500D01*
X48500D01*
X46500Y173500D01*
Y174300D02*
X45300Y176700D01*
X47700D01*
X46500Y174300D01*
X58418Y169527D02*
X56418Y173527D01*
X60418D01*
X58418Y169527D01*
Y170327D02*
X57218Y172727D01*
X59618D01*
X58418Y170327D01*
X296500Y301500D02*
X294500Y305500D01*
X298500D01*
X296500Y301500D01*
Y302300D02*
X295300Y304700D01*
X297700D01*
X296500Y302300D01*
X93000Y85500D02*
X91000Y89500D01*
X95000D01*
X93000Y85500D01*
Y86300D02*
X91800Y88700D01*
X94200D01*
X93000Y86300D01*
X228500Y353000D02*
X226500Y357000D01*
X230500D01*
X228500Y353000D01*
Y353800D02*
X227300Y356200D01*
X229700D01*
X228500Y353800D01*
X368000Y261000D02*
X366000Y265000D01*
X370000D01*
X368000Y261000D01*
Y261800D02*
X366800Y264200D01*
X369200D01*
X368000Y261800D01*
X379000Y256000D02*
X377000Y260000D01*
X381000D01*
X379000Y256000D01*
Y256800D02*
X377800Y259200D01*
X380200D01*
X379000Y256800D01*
X318000Y254000D02*
X316000Y258000D01*
X320000D01*
X318000Y254000D01*
Y254800D02*
X316800Y257200D01*
X319200D01*
X318000Y254800D01*
X286500Y254000D02*
X284500Y258000D01*
X288500D01*
X286500Y254000D01*
Y254800D02*
X285300Y257200D01*
X287700D01*
X286500Y254800D01*
X307500Y181000D02*
X305500Y185000D01*
X309500D01*
X307500Y181000D01*
Y181800D02*
X306300Y184200D01*
X308700D01*
X307500Y181800D01*
X323014Y183597D02*
X321014Y187597D01*
X325014D01*
X323014Y183597D01*
Y184397D02*
X321814Y186797D01*
X324214D01*
X323014Y184397D01*
X283000Y182500D02*
X281000Y186500D01*
X285000D01*
X283000Y182500D01*
Y183300D02*
X281800Y185700D01*
X284200D01*
X283000Y183300D01*
X349500Y88000D02*
X347500Y92000D01*
X351500D01*
X349500Y88000D01*
Y88800D02*
X348300Y91200D01*
X350700D01*
X349500Y88800D01*
X350000Y142000D02*
X348000Y146000D01*
X352000D01*
X350000Y142000D01*
Y142800D02*
X348800Y145200D01*
X351200D01*
X350000Y142800D01*
X88000Y95500D02*
X86000Y99500D01*
X90000D01*
X88000Y95500D01*
Y96300D02*
X86800Y98700D01*
X89200D01*
X88000Y96300D01*
X62500Y108000D02*
X60500Y112000D01*
X64500D01*
X62500Y108000D01*
Y108800D02*
X61300Y111200D01*
X63700D01*
X62500Y108800D01*
X341890Y99500D02*
X339890Y103500D01*
X343890D01*
X341890Y99500D01*
Y100300D02*
X340690Y102700D01*
X343090D01*
X341890Y100300D01*
X334000Y170500D02*
X332000Y174500D01*
X336000D01*
X334000Y170500D01*
Y171300D02*
X332800Y173700D01*
X335200D01*
X334000Y171300D01*
X93000Y106500D02*
X91000Y110500D01*
X95000D01*
X93000Y106500D01*
Y107300D02*
X91800Y109700D01*
X94200D01*
X93000Y107300D01*
X74000Y95500D02*
X72000Y99500D01*
X76000D01*
X74000Y95500D01*
Y96300D02*
X72800Y98700D01*
X75200D01*
X74000Y96300D01*
X314000Y314000D02*
X312000Y318000D01*
X316000D01*
X314000Y314000D01*
Y314800D02*
X312800Y317200D01*
X315200D01*
X314000Y314800D01*
X253919Y116758D02*
X251919Y120758D01*
X255919D01*
X253919Y116758D01*
Y117558D02*
X252719Y119958D01*
X255119D01*
X253919Y117558D01*
X257500Y117000D02*
X255500Y121000D01*
X259500D01*
X257500Y117000D01*
Y117800D02*
X256300Y120200D01*
X258700D01*
X257500Y117800D01*
X258500Y132000D02*
X256500Y136000D01*
X260500D01*
X258500Y132000D01*
Y132800D02*
X257300Y135200D01*
X259700D01*
X258500Y132800D01*
X304951Y143250D02*
X302951Y147250D01*
X306951D01*
X304951Y143250D01*
Y144050D02*
X303751Y146450D01*
X306151D01*
X304951Y144050D01*
X295000Y143000D02*
X293000Y147000D01*
X297000D01*
X295000Y143000D01*
Y143800D02*
X293800Y146200D01*
X296200D01*
X295000Y143800D01*
X275500Y148000D02*
X273500Y152000D01*
X277500D01*
X275500Y148000D01*
Y148800D02*
X274300Y151200D01*
X276700D01*
X275500Y148800D01*
X288653Y143459D02*
X286653Y147459D01*
X290653D01*
X288653Y143459D01*
Y144259D02*
X287453Y146659D01*
X289853D01*
X288653Y144259D01*
X272079Y143500D02*
X270079Y147500D01*
X274079D01*
X272079Y143500D01*
Y144300D02*
X270879Y146700D01*
X273279D01*
X272079Y144300D01*
X261757Y139000D02*
X259757Y143000D01*
X263757D01*
X261757Y139000D01*
Y139800D02*
X260557Y142200D01*
X262957D01*
X261757Y139800D01*
X281500Y130500D02*
X279500Y134500D01*
X283500D01*
X281500Y130500D01*
Y131300D02*
X280300Y133700D01*
X282700D01*
X281500Y131300D01*
X89000Y52500D02*
X87000Y56500D01*
X91000D01*
X89000Y52500D01*
Y53300D02*
X87800Y55700D01*
X90200D01*
X89000Y53300D01*
X327000Y71500D02*
X325000Y75500D01*
X329000D01*
X327000Y71500D01*
Y72300D02*
X325800Y74700D01*
X328200D01*
X327000Y72300D01*
X265000Y186000D02*
X263000Y190000D01*
X267000D01*
X265000Y186000D01*
Y186800D02*
X263800Y189200D01*
X266200D01*
X265000Y186800D01*
X304000Y200000D02*
X302000Y204000D01*
X306000D01*
X304000Y200000D01*
Y200800D02*
X302800Y203200D01*
X305200D01*
X304000Y200800D01*
X303000Y215000D02*
X301000Y219000D01*
X305000D01*
X303000Y215000D01*
Y215800D02*
X301800Y218200D01*
X304200D01*
X303000Y215800D01*
X298000Y214500D02*
X296000Y218500D01*
X300000D01*
X298000Y214500D01*
Y215300D02*
X296800Y217700D01*
X299200D01*
X298000Y215300D01*
X304000Y190500D02*
X302000Y194500D01*
X306000D01*
X304000Y190500D01*
Y191300D02*
X302800Y193700D01*
X305200D01*
X304000Y191300D01*
X241500Y126000D02*
X239500Y130000D01*
X243500D01*
X241500Y126000D01*
Y126800D02*
X240300Y129200D01*
X242700D01*
X241500Y126800D01*
X269500Y98000D02*
X267500Y102000D01*
X271500D01*
X269500Y98000D01*
Y98800D02*
X268300Y101200D01*
X270700D01*
X269500Y98800D01*
X272500Y95000D02*
X270500Y99000D01*
X274500D01*
X272500Y95000D01*
Y95800D02*
X271300Y98200D01*
X273700D01*
X272500Y95800D01*
X266500Y101000D02*
X264500Y105000D01*
X268500D01*
X266500Y101000D01*
Y101800D02*
X265300Y104200D01*
X267700D01*
X266500Y101800D01*
X257500Y98000D02*
X255500Y102000D01*
X259500D01*
X257500Y98000D01*
Y98800D02*
X256300Y101200D01*
X258700D01*
X257500Y98800D01*
X254500Y101000D02*
X252500Y105000D01*
X256500D01*
X254500Y101000D01*
Y101800D02*
X253300Y104200D01*
X255700D01*
X254500Y101800D01*
X260500Y101000D02*
X258500Y105000D01*
X262500D01*
X260500Y101000D01*
Y101800D02*
X259300Y104200D01*
X261700D01*
X260500Y101800D01*
X263500Y98000D02*
X261500Y102000D01*
X265500D01*
X263500Y98000D01*
Y98800D02*
X262300Y101200D01*
X264700D01*
X263500Y98800D01*
X260500Y95000D02*
X258500Y99000D01*
X262500D01*
X260500Y95000D01*
Y95800D02*
X259300Y98200D01*
X261700D01*
X260500Y95800D01*
X209000Y292000D02*
X207000Y296000D01*
X211000D01*
X209000Y292000D01*
Y292800D02*
X207800Y295200D01*
X210200D01*
X209000Y292800D01*
X219500Y291000D02*
X217500Y295000D01*
X221500D01*
X219500Y291000D01*
Y291800D02*
X218300Y294200D01*
X220700D01*
X219500Y291800D01*
X222450Y306050D02*
X220450Y310050D01*
X224450D01*
X222450Y306050D01*
Y306850D02*
X221250Y309250D01*
X223650D01*
X222450Y306850D01*
X324500Y287500D02*
X322500Y291500D01*
X326500D01*
X324500Y287500D01*
Y288300D02*
X323300Y290700D01*
X325700D01*
X324500Y288300D01*
X313500Y288000D02*
X311500Y292000D01*
X315500D01*
X313500Y288000D01*
Y288800D02*
X312300Y291200D01*
X314700D01*
X313500Y288800D01*
X323500Y304251D02*
X321500Y308250D01*
X325500D01*
X323500Y304251D01*
Y305050D02*
X322300Y307451D01*
X324700D01*
X323500Y305050D01*
X325231Y307521D02*
X323231Y311521D01*
X327231D01*
X325231Y307521D01*
Y308321D02*
X324031Y310721D01*
X326431D01*
X325231Y308321D01*
X283000Y319759D02*
X281000Y323759D01*
X285000D01*
X283000Y319759D01*
Y320559D02*
X281800Y322959D01*
X284200D01*
X283000Y320559D01*
X299414Y308914D02*
X297414Y312914D01*
X301414D01*
X299414Y308914D01*
Y309714D02*
X298214Y312114D01*
X300614D01*
X299414Y309714D01*
X296000Y312000D02*
X294000Y316000D01*
X298000D01*
X296000Y312000D01*
Y312800D02*
X294800Y315200D01*
X297200D01*
X296000Y312800D01*
X71000Y72241D02*
X69000Y76241D01*
X73000D01*
X71000Y72241D01*
Y73041D02*
X69800Y75441D01*
X72200D01*
X71000Y73041D01*
X122500Y43000D02*
X120500Y47000D01*
X124500D01*
X122500Y43000D01*
Y43800D02*
X121300Y46200D01*
X123700D01*
X122500Y43800D01*
X105500Y347500D02*
X103500Y351500D01*
X107500D01*
X105500Y347500D01*
Y348300D02*
X104300Y350700D01*
X106700D01*
X105500Y348300D01*
X109500Y344000D02*
X107500Y348000D01*
X111500D01*
X109500Y344000D01*
Y344800D02*
X108300Y347200D01*
X110700D01*
X109500Y344800D01*
X119500Y125500D02*
X117500Y129500D01*
X121500D01*
X119500Y125500D01*
Y126300D02*
X118300Y128700D01*
X120700D01*
X119500Y126300D01*
X111500Y111000D02*
X109500Y115000D01*
X113500D01*
X111500Y111000D01*
Y111800D02*
X110300Y114200D01*
X112700D01*
X111500Y111800D01*
X150000Y175500D02*
X148000Y179500D01*
X152000D01*
X150000Y175500D01*
Y176300D02*
X148800Y178700D01*
X151200D01*
X150000Y176300D01*
X225500Y281000D02*
X223500Y285000D01*
X227500D01*
X225500Y281000D01*
Y281800D02*
X224300Y284200D01*
X226700D01*
X225500Y281800D01*
X104000Y75500D02*
X102000Y79500D01*
X106000D01*
X104000Y75500D01*
Y76300D02*
X102800Y78700D01*
X105200D01*
X104000Y76300D01*
X96000Y227000D02*
X94000Y231000D01*
X98000D01*
X96000Y227000D01*
Y227800D02*
X94800Y230200D01*
X97200D01*
X96000Y227800D01*
X124500Y100000D02*
X122500Y104000D01*
X126500D01*
X124500Y100000D01*
Y100800D02*
X123300Y103200D01*
X125700D01*
X124500Y100800D01*
X201500Y178500D02*
X199500Y182500D01*
X203500D01*
X201500Y178500D01*
Y179300D02*
X200300Y181700D01*
X202700D01*
X201500Y179300D01*
X222000Y202000D02*
X220000Y206000D01*
X224000D01*
X222000Y202000D01*
Y202800D02*
X220800Y205200D01*
X223200D01*
X222000Y202800D01*
X257500Y201000D02*
X255500Y205000D01*
X259500D01*
X257500Y201000D01*
Y201800D02*
X256300Y204200D01*
X258700D01*
X257500Y201800D01*
X208500Y223000D02*
X206500Y227000D01*
X210500D01*
X208500Y223000D01*
Y223800D02*
X207300Y226200D01*
X209700D01*
X208500Y223800D01*
X118000Y223500D02*
X116000Y227500D01*
X120000D01*
X118000Y223500D01*
Y224300D02*
X116800Y226700D01*
X119200D01*
X118000Y224300D01*
X184548Y226594D02*
X182548Y230594D01*
X186548D01*
X184548Y226594D01*
Y227395D02*
X183348Y229795D01*
X185748D01*
X184548Y227395D01*
X120500Y292000D02*
X118500Y296000D01*
X122500D01*
X120500Y292000D01*
Y292800D02*
X119300Y295200D01*
X121700D01*
X120500Y292800D01*
X281500Y250500D02*
X279500Y254500D01*
X283500D01*
X281500Y250500D01*
Y251300D02*
X280300Y253700D01*
X282700D01*
X281500Y251300D01*
X223000Y230500D02*
X221000Y234500D01*
X225000D01*
X223000Y230500D01*
Y231300D02*
X221800Y233700D01*
X224200D01*
X223000Y231300D01*
X61819Y72985D02*
X59820Y76985D01*
X63819D01*
X61819Y72985D01*
Y73785D02*
X60619Y76185D01*
X63020D01*
X61819Y73785D01*
X104573Y56573D02*
X102573Y60573D01*
X106573D01*
X104573Y56573D01*
Y57373D02*
X103373Y59773D01*
X105773D01*
X104573Y57373D01*
X67500Y83000D02*
X65500Y87000D01*
X69500D01*
X67500Y83000D01*
Y83800D02*
X66300Y86200D01*
X68700D01*
X67500Y83800D01*
X46000Y58000D02*
X44000Y62000D01*
X48000D01*
X46000Y58000D01*
Y58800D02*
X44800Y61200D01*
X47200D01*
X46000Y58800D01*
X91500Y129000D02*
X89500Y133000D01*
X93500D01*
X91500Y129000D01*
Y129800D02*
X90300Y132200D01*
X92700D01*
X91500Y129800D01*
X37069Y98250D02*
X35069Y102250D01*
X39069D01*
X37069Y98250D01*
Y99050D02*
X35869Y101450D01*
X38269D01*
X37069Y99050D01*
X33000Y197000D02*
X31000Y201000D01*
X35000D01*
X33000Y197000D01*
Y197800D02*
X31800Y200200D01*
X34200D01*
X33000Y197800D01*
X29888Y289500D02*
X27888Y293500D01*
X31888D01*
X29888Y289500D01*
Y290300D02*
X28688Y292700D01*
X31088D01*
X29888Y290300D01*
X43703Y337337D02*
X41703Y341337D01*
X45703D01*
X43703Y337337D01*
Y338137D02*
X42503Y340537D01*
X44903D01*
X43703Y338137D01*
X266500Y95000D02*
X264500Y99000D01*
X268500D01*
X266500Y95000D01*
Y95800D02*
X265300Y98200D01*
X267700D01*
X266500Y95800D01*
X290000Y34000D02*
X288000Y38000D01*
X292000D01*
X290000Y34000D01*
Y34800D02*
X288800Y37200D01*
X291200D01*
X290000Y34800D01*
X342000Y30500D02*
X340000Y34500D01*
X344000D01*
X342000Y30500D01*
Y31300D02*
X340800Y33700D01*
X343200D01*
X342000Y31300D01*
X341500Y325595D02*
X339500Y329595D01*
X343500D01*
X341500Y325595D01*
Y326395D02*
X340300Y328795D01*
X342700D01*
X341500Y326395D01*
X341243Y330300D02*
X339243Y334300D01*
X343243D01*
X341243Y330300D01*
Y331100D02*
X340043Y333500D01*
X342443D01*
X341243Y331100D01*
X333443Y337512D02*
X331443Y341512D01*
X335443D01*
X333443Y337512D01*
Y338312D02*
X332243Y340712D01*
X334643D01*
X333443Y338312D01*
X323443Y337512D02*
X321443Y341512D01*
X325443D01*
X323443Y337512D01*
Y338312D02*
X322243Y340712D01*
X324643D01*
X323443Y338312D01*
X313443Y337512D02*
X311443Y341512D01*
X315443D01*
X313443Y337512D01*
Y338312D02*
X312243Y340712D01*
X314643D01*
X313443Y338312D01*
X303443Y337512D02*
X301443Y341512D01*
X305443D01*
X303443Y337512D01*
Y338312D02*
X302243Y340712D01*
X304643D01*
X303443Y338312D01*
X293443Y337512D02*
X291443Y341512D01*
X295443D01*
X293443Y337512D01*
Y338312D02*
X292243Y340712D01*
X294643D01*
X293443Y338312D01*
X283443Y337512D02*
X281443Y341512D01*
X285443D01*
X283443Y337512D01*
Y338312D02*
X282243Y340712D01*
X284643D01*
X283443Y338312D01*
X274537Y343989D02*
X272537Y347989D01*
X276537D01*
X274537Y343989D01*
Y344789D02*
X273337Y347189D01*
X275737D01*
X274537Y344789D01*
X350000Y360000D02*
X348000Y364000D01*
X352000D01*
X350000Y360000D01*
Y360800D02*
X348800Y363200D01*
X351200D01*
X350000Y360800D01*
X341500Y366500D02*
X339500Y370500D01*
X343500D01*
X341500Y366500D01*
Y367300D02*
X340300Y369700D01*
X342700D01*
X341500Y367300D01*
X358500Y360500D02*
X356500Y364500D01*
X360500D01*
X358500Y360500D01*
Y361300D02*
X357300Y363700D01*
X359700D01*
X358500Y361300D01*
X261495Y340479D02*
X259495Y344479D01*
X263495D01*
X261495Y340479D01*
Y341279D02*
X260295Y343679D01*
X262695D01*
X261495Y341279D01*
X300000Y227600D02*
X298000Y231600D01*
X302000D01*
X300000Y227600D01*
Y228400D02*
X298800Y230800D01*
X301200D01*
X300000Y228400D01*
X305000Y226500D02*
X303000Y230500D01*
X307000D01*
X305000Y226500D01*
Y227300D02*
X303800Y229700D01*
X306200D01*
X305000Y227300D01*
X293000Y232000D02*
X291000Y236000D01*
X295000D01*
X293000Y232000D01*
Y232800D02*
X291800Y235200D01*
X294200D01*
X293000Y232800D01*
X310000Y232800D02*
X308000Y236800D01*
X312000D01*
X310000Y232800D01*
Y233600D02*
X308800Y236000D01*
X311200D01*
X310000Y233600D01*
X317500Y243500D02*
X315500Y247500D01*
X319500D01*
X317500Y243500D01*
Y244300D02*
X316300Y246700D01*
X318700D01*
X317500Y244300D01*
X321800Y243500D02*
X319800Y247500D01*
X323800D01*
X321800Y243500D01*
Y244300D02*
X320600Y246700D01*
X323000D01*
X321800Y244300D01*
X337500Y239500D02*
X335500Y243500D01*
X339500D01*
X337500Y239500D01*
Y240300D02*
X336300Y242700D01*
X338700D01*
X337500Y240300D01*
X325500Y243500D02*
X323500Y247500D01*
X327500D01*
X325500Y243500D01*
Y244300D02*
X324300Y246700D01*
X326700D01*
X325500Y244300D01*
Y259000D02*
X323500Y263000D01*
X327500D01*
X325500Y259000D01*
Y259800D02*
X324300Y262200D01*
X326700D01*
X325500Y259800D01*
X334606Y247393D02*
X332606Y251393D01*
X336606D01*
X334606Y247393D01*
Y248193D02*
X333406Y250593D01*
X335806D01*
X334606Y248193D01*
X281000Y233000D02*
X279000Y237000D01*
X283000D01*
X281000Y233000D01*
Y233800D02*
X279800Y236200D01*
X282200D01*
X281000Y233800D01*
X336000Y207500D02*
X334000Y211500D01*
X338000D01*
X336000Y207500D01*
Y208300D02*
X334800Y210700D01*
X337200D01*
X336000Y208300D01*
X325000Y213759D02*
X323000Y217759D01*
X327000D01*
X325000Y213759D01*
Y214559D02*
X323800Y216959D01*
X326200D01*
X325000Y214559D01*
X259500Y167500D02*
X257500Y171500D01*
X261500D01*
X259500Y167500D01*
Y168300D02*
X258300Y170700D01*
X260700D01*
X259500Y168300D01*
X324868Y202946D02*
X322868Y206946D01*
X326868D01*
X324868Y202946D01*
Y203746D02*
X323668Y206146D01*
X326068D01*
X324868Y203746D01*
X313500Y214000D02*
X311500Y218000D01*
X315500D01*
X313500Y214000D01*
Y214800D02*
X312300Y217200D01*
X314700D01*
X313500Y214800D01*
X263500Y191000D02*
X261500Y195000D01*
X265500D01*
X263500Y191000D01*
Y191800D02*
X262300Y194200D01*
X264700D01*
X263500Y191800D01*
X267500Y166000D02*
X265500Y170000D01*
X269500D01*
X267500Y166000D01*
Y166800D02*
X266300Y169200D01*
X268700D01*
X267500Y166800D01*
X27000Y321000D02*
X25000Y325000D01*
X29000D01*
X27000Y321000D01*
Y321800D02*
X25800Y324200D01*
X28200D01*
X27000Y321800D01*
X50500Y99000D02*
X48500Y103000D01*
X52500D01*
X50500Y99000D01*
Y99800D02*
X49300Y102200D01*
X51700D01*
X50500Y99800D01*
X92000Y94500D02*
X90000Y98500D01*
X94000D01*
X92000Y94500D01*
Y95300D02*
X90800Y97700D01*
X93200D01*
X92000Y95300D01*
X184947Y160500D02*
X182947Y164500D01*
X186947D01*
X184947Y160500D01*
Y161300D02*
X183747Y163700D01*
X186147D01*
X184947Y161300D01*
X185829Y293426D02*
X183829Y297426D01*
X187829D01*
X185829Y293426D01*
Y294226D02*
X184629Y296626D01*
X187029D01*
X185829Y294226D01*
X97000Y293500D02*
X95000Y297500D01*
X99000D01*
X97000Y293500D01*
Y294300D02*
X95800Y296700D01*
X98200D01*
X97000Y294300D01*
X44500Y148000D02*
X42500Y152000D01*
X46500D01*
X44500Y148000D01*
Y148800D02*
X43300Y151200D01*
X45700D01*
X44500Y148800D01*
X44000Y190500D02*
X42000Y194500D01*
X46000D01*
X44000Y190500D01*
Y191300D02*
X42800Y193700D01*
X45200D01*
X44000Y191300D01*
Y273000D02*
X42000Y277000D01*
X46000D01*
X44000Y273000D01*
Y273800D02*
X42800Y276200D01*
X45200D01*
X44000Y273800D01*
X43366Y305000D02*
X41366Y309000D01*
X45366D01*
X43366Y305000D01*
Y305800D02*
X42166Y308200D01*
X44566D01*
X43366Y305800D01*
X364000Y191000D02*
X362000Y195000D01*
X366000D01*
X364000Y191000D01*
Y191800D02*
X362800Y194200D01*
X365200D01*
X364000Y191800D01*
X388000Y111500D02*
X386000Y115500D01*
X390000D01*
X388000Y111500D01*
Y112300D02*
X386800Y114700D01*
X389200D01*
X388000Y112300D01*
X357500Y109000D02*
X355500Y113000D01*
X359500D01*
X357500Y109000D01*
Y109800D02*
X356300Y112200D01*
X358700D01*
X357500Y109800D01*
X371282Y104771D02*
X369282Y108771D01*
X373282D01*
X371282Y104771D01*
Y105571D02*
X370082Y107971D01*
X372482D01*
X371282Y105571D01*
X379000Y87500D02*
X377000Y91500D01*
X381000D01*
X379000Y87500D01*
Y88300D02*
X377800Y90700D01*
X380200D01*
X379000Y88300D01*
X376282Y107271D02*
X374282Y111271D01*
X378282D01*
X376282Y107271D01*
Y108071D02*
X375082Y110471D01*
X377482D01*
X376282Y108071D01*
X371282Y109771D02*
X369282Y113771D01*
X373282D01*
X371282Y109771D01*
Y110571D02*
X370082Y112971D01*
X372482D01*
X371282Y110571D01*
X381282Y105271D02*
X379282Y109271D01*
X383282D01*
X381282Y105271D01*
Y106071D02*
X380082Y108471D01*
X382482D01*
X381282Y106071D01*
X381147Y109799D02*
X379147Y113799D01*
X383147D01*
X381147Y109799D01*
Y110599D02*
X379947Y112999D01*
X382347D01*
X381147Y110599D01*
X386000Y168000D02*
X384000Y172000D01*
X388000D01*
X386000Y168000D01*
Y168800D02*
X384800Y171200D01*
X387200D01*
X386000Y168800D01*
X235500Y170500D02*
X233500Y174500D01*
X237500D01*
X235500Y170500D01*
Y171300D02*
X234300Y173700D01*
X236700D01*
X235500Y171300D01*
X367500Y138000D02*
X365500Y142000D01*
X369500D01*
X367500Y138000D01*
Y138800D02*
X366300Y141200D01*
X368700D01*
X367500Y138800D01*
X295097Y182097D02*
X293097Y186097D01*
X297097D01*
X295097Y182097D01*
Y182897D02*
X293897Y185297D01*
X296297D01*
X295097Y182897D01*
X386000Y277000D02*
X384000Y281000D01*
X388000D01*
X386000Y277000D01*
Y277800D02*
X384800Y280200D01*
X387200D01*
X386000Y277800D01*
X292500Y215000D02*
X290500Y219000D01*
X294500D01*
X292500Y215000D01*
Y215800D02*
X291300Y218200D01*
X293700D01*
X292500Y215800D01*
X275500Y98000D02*
X273500Y102000D01*
X277500D01*
X275500Y98000D01*
Y98800D02*
X274300Y101200D01*
X276700D01*
X275500Y98800D01*
X254500Y95000D02*
X252500Y99000D01*
X256500D01*
X254500Y95000D01*
Y95800D02*
X253300Y98200D01*
X255700D01*
X254500Y95800D01*
X272500Y101000D02*
X270500Y105000D01*
X274500D01*
X272500Y101000D01*
Y101800D02*
X271300Y104200D01*
X273700D01*
X272500Y101800D01*
D19*
X183487Y381098D02*
G03*
X183487Y381098I-1200J0D01*
G01*
X195299D02*
G03*
X195299Y381098I-1200J0D01*
G01*
X207109D02*
G03*
X207109Y381098I-1200J0D01*
G01*
X183487Y358098D02*
G03*
X183487Y358098I-1200J0D01*
G01*
X195299D02*
G03*
X195299Y358098I-1200J0D01*
G01*
X207109D02*
G03*
X207109Y358098I-1200J0D01*
G01*
D126*
X260949Y19000D02*
G03*
X260949Y19000I-2000J0D01*
G01*
X351500D02*
G03*
X351500Y19000I-2000J0D01*
G01*
X184287Y381098D02*
G03*
X184287Y381098I-2000J0D01*
G01*
X196098D02*
G03*
X196098Y381098I-2000J0D01*
G01*
X207909D02*
G03*
X207909Y381098I-2000J0D01*
G01*
X184287Y358098D02*
G03*
X184287Y358098I-2000J0D01*
G01*
X196098D02*
G03*
X196098Y358098I-2000J0D01*
G01*
X207909D02*
G03*
X207909Y358098I-2000J0D01*
G01*
M02*
