G04*
G04 #@! TF.GenerationSoftware,Altium Limited,Altium Designer,24.9.1 (31)*
G04*
G04 Layer_Color=8421504*
%FSLAX25Y25*%
%MOIN*%
G70*
G04*
G04 #@! TF.SameCoordinates,2A645F15-B05F-45B5-8E7C-29DD8EA82903*
G04*
G04*
G04 #@! TF.FilePolarity,Positive*
G04*
G01*
G75*
%ADD21R,0.05118X0.07087*%
%ADD22R,0.07087X0.05118*%
%ADD23R,0.05118X0.06102*%
%ADD24R,0.03937X0.03937*%
%ADD25R,0.05118X0.02362*%
%ADD26O,0.08268X0.02756*%
D21*
X300500Y288000D02*
D03*
X288500D02*
D03*
X329173Y214501D02*
D03*
X341173D02*
D03*
X329148Y205023D02*
D03*
X341148D02*
D03*
X307500Y288000D02*
D03*
X319500D02*
D03*
D22*
X317500Y239500D02*
D03*
Y251500D02*
D03*
X301500Y239500D02*
D03*
Y251500D02*
D03*
X288000Y239500D02*
D03*
Y251500D02*
D03*
X273000Y201500D02*
D03*
Y189500D02*
D03*
X282500Y202000D02*
D03*
Y190000D02*
D03*
X273000Y223000D02*
D03*
Y211000D02*
D03*
X282500Y223000D02*
D03*
Y211000D02*
D03*
X292500Y211000D02*
D03*
Y223000D02*
D03*
X273500Y179417D02*
D03*
Y168000D02*
D03*
X334000Y179417D02*
D03*
Y168000D02*
D03*
X358000Y106000D02*
D03*
Y118000D02*
D03*
Y98000D02*
D03*
Y86000D02*
D03*
X270000Y327000D02*
D03*
Y315583D02*
D03*
Y292583D02*
D03*
Y304000D02*
D03*
X280000Y315500D02*
D03*
Y327500D02*
D03*
Y304000D02*
D03*
Y292000D02*
D03*
X320000Y301491D02*
D03*
Y313491D02*
D03*
X312782Y167338D02*
D03*
Y179338D02*
D03*
X302782Y167338D02*
D03*
Y179338D02*
D03*
X322000Y211000D02*
D03*
Y223000D02*
D03*
X292782Y167338D02*
D03*
Y179338D02*
D03*
X312000Y211000D02*
D03*
Y223000D02*
D03*
X302500Y223000D02*
D03*
Y211000D02*
D03*
X282782Y179338D02*
D03*
Y167338D02*
D03*
X322782Y179338D02*
D03*
Y167338D02*
D03*
X386000Y186000D02*
D03*
Y174583D02*
D03*
X386000Y296000D02*
D03*
Y284583D02*
D03*
X300000Y138083D02*
D03*
Y149500D02*
D03*
X267500Y138583D02*
D03*
Y150000D02*
D03*
X284000Y138500D02*
D03*
Y149917D02*
D03*
X347250Y357150D02*
D03*
Y368567D02*
D03*
X356750Y357150D02*
D03*
Y368567D02*
D03*
D23*
X385717Y87000D02*
D03*
X368000D02*
D03*
Y118299D02*
D03*
X385717D02*
D03*
D24*
X338500Y191500D02*
D03*
X326720D02*
D03*
D25*
X289567Y313500D02*
D03*
Y308500D02*
D03*
Y303500D02*
D03*
Y298500D02*
D03*
X310433D02*
D03*
Y303500D02*
D03*
Y308500D02*
D03*
Y313500D02*
D03*
D26*
X295772Y187500D02*
D03*
Y192500D02*
D03*
Y197500D02*
D03*
Y202500D02*
D03*
X317228Y187500D02*
D03*
Y192500D02*
D03*
Y197500D02*
D03*
Y202500D02*
D03*
M02*
