G04*
G04 #@! TF.GenerationSoftware,Altium Limited,Altium Designer,24.9.1 (31)*
G04*
G04 Layer_Color=128*
%FSLAX25Y25*%
%MOIN*%
G70*
G04*
G04 #@! TF.SameCoordinates,2A645F15-B05F-45B5-8E7C-29DD8EA82903*
G04*
G04*
G04 #@! TF.FilePolarity,Positive*
G04*
G01*
G75*
%ADD21R,0.05118X0.07087*%
%ADD22R,0.07087X0.05118*%
%ADD83R,0.05984X0.09055*%
G04:AMPARAMS|DCode=84|XSize=47.64mil|YSize=22.84mil|CornerRadius=2.85mil|HoleSize=0mil|Usage=FLASHONLY|Rotation=90.000|XOffset=0mil|YOffset=0mil|HoleType=Round|Shape=RoundedRectangle|*
%AMROUNDEDRECTD84*
21,1,0.04764,0.01713,0,0,90.0*
21,1,0.04193,0.02284,0,0,90.0*
1,1,0.00571,0.00856,0.02097*
1,1,0.00571,0.00856,-0.02097*
1,1,0.00571,-0.00856,-0.02097*
1,1,0.00571,-0.00856,0.02097*
%
%ADD84ROUNDEDRECTD84*%
G04:AMPARAMS|DCode=85|XSize=47.64mil|YSize=22.84mil|CornerRadius=2.85mil|HoleSize=0mil|Usage=FLASHONLY|Rotation=0.000|XOffset=0mil|YOffset=0mil|HoleType=Round|Shape=RoundedRectangle|*
%AMROUNDEDRECTD85*
21,1,0.04764,0.01713,0,0,0.0*
21,1,0.04193,0.02284,0,0,0.0*
1,1,0.00571,0.02097,-0.00856*
1,1,0.00571,-0.02097,-0.00856*
1,1,0.00571,-0.02097,0.00856*
1,1,0.00571,0.02097,0.00856*
%
%ADD85ROUNDEDRECTD85*%
G04:AMPARAMS|DCode=86|XSize=61.81mil|YSize=16.14mil|CornerRadius=2.02mil|HoleSize=0mil|Usage=FLASHONLY|Rotation=90.000|XOffset=0mil|YOffset=0mil|HoleType=Round|Shape=RoundedRectangle|*
%AMROUNDEDRECTD86*
21,1,0.06181,0.01211,0,0,90.0*
21,1,0.05778,0.01614,0,0,90.0*
1,1,0.00404,0.00605,0.02889*
1,1,0.00404,0.00605,-0.02889*
1,1,0.00404,-0.00605,-0.02889*
1,1,0.00404,-0.00605,0.02889*
%
%ADD86ROUNDEDRECTD86*%
%ADD87R,0.06142X0.01102*%
%ADD88R,0.01102X0.06142*%
%ADD89R,0.08346X0.05906*%
%ADD90R,0.05906X0.08346*%
%ADD91R,0.17500X0.05000*%
%ADD92R,0.04724X0.03150*%
%ADD94R,0.10000X0.07874*%
%ADD95R,0.09055X0.05984*%
%ADD96R,0.03150X0.03543*%
G04:AMPARAMS|DCode=97|XSize=47.64mil|YSize=23.23mil|CornerRadius=5.81mil|HoleSize=0mil|Usage=FLASHONLY|Rotation=180.000|XOffset=0mil|YOffset=0mil|HoleType=Round|Shape=RoundedRectangle|*
%AMROUNDEDRECTD97*
21,1,0.04764,0.01161,0,0,180.0*
21,1,0.03602,0.02323,0,0,180.0*
1,1,0.01161,-0.01801,0.00581*
1,1,0.01161,0.01801,0.00581*
1,1,0.01161,0.01801,-0.00581*
1,1,0.01161,-0.01801,-0.00581*
%
%ADD97ROUNDEDRECTD97*%
G04:AMPARAMS|DCode=98|XSize=23.62mil|YSize=44.88mil|CornerRadius=2.95mil|HoleSize=0mil|Usage=FLASHONLY|Rotation=0.000|XOffset=0mil|YOffset=0mil|HoleType=Round|Shape=RoundedRectangle|*
%AMROUNDEDRECTD98*
21,1,0.02362,0.03898,0,0,0.0*
21,1,0.01772,0.04488,0,0,0.0*
1,1,0.00591,0.00886,-0.01949*
1,1,0.00591,-0.00886,-0.01949*
1,1,0.00591,-0.00886,0.01949*
1,1,0.00591,0.00886,0.01949*
%
%ADD98ROUNDEDRECTD98*%
%ADD99R,0.12598X0.08268*%
%ADD100R,0.03543X0.08268*%
%ADD101R,0.15748X0.03937*%
%ADD102R,0.35433X0.27559*%
%ADD103R,0.35433X0.17717*%
G36*
X182056Y299757D02*
X177324D01*
Y302908D01*
X182056D01*
Y299757D01*
D02*
G37*
G36*
X94025Y299425D02*
X89293D01*
Y302576D01*
X94025D01*
Y299425D01*
D02*
G37*
G36*
X94169Y233425D02*
X89437D01*
Y236576D01*
X94169D01*
Y233425D01*
D02*
G37*
G36*
X181025Y232925D02*
X176293D01*
Y236076D01*
X181025D01*
Y232925D01*
D02*
G37*
G36*
X182669Y166925D02*
X177937D01*
Y170076D01*
X182669D01*
Y166925D01*
D02*
G37*
G36*
X95370Y166520D02*
X90638D01*
Y169671D01*
X95370D01*
Y166520D01*
D02*
G37*
D21*
X330500Y263500D02*
D03*
X342500D02*
D03*
X309000Y192500D02*
D03*
X297000D02*
D03*
X270417Y183500D02*
D03*
X259000D02*
D03*
X270500Y193000D02*
D03*
X258500D02*
D03*
X202500Y240000D02*
D03*
X190500D02*
D03*
Y228000D02*
D03*
X202500D02*
D03*
X103000Y307000D02*
D03*
X192031Y307331D02*
D03*
X101500Y241000D02*
D03*
X103000Y174500D02*
D03*
X189500Y174500D02*
D03*
X20500Y122500D02*
D03*
X32500D02*
D03*
X103000Y162500D02*
D03*
X115000D02*
D03*
X98000Y97500D02*
D03*
X110000D02*
D03*
Y87500D02*
D03*
X98000D02*
D03*
X109500Y128000D02*
D03*
X98083D02*
D03*
X98000Y107000D02*
D03*
X110000D02*
D03*
X201500Y174500D02*
D03*
X189500Y162500D02*
D03*
X201500D02*
D03*
X115000Y307000D02*
D03*
X115000Y295500D02*
D03*
X103000D02*
D03*
X342500Y254500D02*
D03*
X330500D02*
D03*
X342500Y245000D02*
D03*
X330500D02*
D03*
X330009Y309500D02*
D03*
X318009D02*
D03*
X266500D02*
D03*
X278500D02*
D03*
X328500Y192500D02*
D03*
X316500D02*
D03*
X289500Y193000D02*
D03*
X277500D02*
D03*
X367500Y134000D02*
D03*
X379500D02*
D03*
X20500Y291500D02*
D03*
X32500D02*
D03*
X20500Y322500D02*
D03*
X32500D02*
D03*
X20500Y352500D02*
D03*
X32500D02*
D03*
X20500Y207500D02*
D03*
X32500D02*
D03*
X20500Y165000D02*
D03*
X32500D02*
D03*
X113500Y241000D02*
D03*
X115000Y174500D02*
D03*
X204031Y295332D02*
D03*
X192031D02*
D03*
X204031Y307331D02*
D03*
X113500Y229000D02*
D03*
X101500D02*
D03*
X76500Y74500D02*
D03*
X88500D02*
D03*
X379500Y146000D02*
D03*
X367500D02*
D03*
X98000Y78000D02*
D03*
X110000D02*
D03*
X110500Y58000D02*
D03*
X99083D02*
D03*
D22*
X290500Y42500D02*
D03*
Y30500D02*
D03*
X349000Y357000D02*
D03*
Y369000D02*
D03*
X358500Y369000D02*
D03*
Y357000D02*
D03*
X259500Y163000D02*
D03*
Y175000D02*
D03*
X270000Y163000D02*
D03*
Y175000D02*
D03*
X265500Y333500D02*
D03*
Y345500D02*
D03*
X275500Y333500D02*
D03*
Y345500D02*
D03*
X285500Y333500D02*
D03*
Y345500D02*
D03*
X295500Y333500D02*
D03*
Y345500D02*
D03*
X305500Y333500D02*
D03*
Y345500D02*
D03*
X325500Y333500D02*
D03*
Y345500D02*
D03*
X335500Y333500D02*
D03*
Y345500D02*
D03*
X315500Y333500D02*
D03*
Y345500D02*
D03*
X68000Y98000D02*
D03*
Y110000D02*
D03*
Y79000D02*
D03*
Y91000D02*
D03*
X58000Y100500D02*
D03*
Y88500D02*
D03*
X68000Y117000D02*
D03*
Y129000D02*
D03*
X76500Y117000D02*
D03*
Y129000D02*
D03*
X335500Y367500D02*
D03*
Y355500D02*
D03*
X242000Y172500D02*
D03*
Y160500D02*
D03*
X386000Y174583D02*
D03*
Y186583D02*
D03*
X386000Y284000D02*
D03*
Y296000D02*
D03*
X276000Y264704D02*
D03*
Y252704D02*
D03*
X265500Y264704D02*
D03*
Y252704D02*
D03*
X265500Y355500D02*
D03*
Y367500D02*
D03*
X295500Y272500D02*
D03*
Y284500D02*
D03*
X325500Y272500D02*
D03*
Y284500D02*
D03*
X285500Y272500D02*
D03*
Y284500D02*
D03*
X305500Y272500D02*
D03*
Y284500D02*
D03*
X325500Y355500D02*
D03*
Y367500D02*
D03*
X315500Y272500D02*
D03*
Y284500D02*
D03*
X315500Y355500D02*
D03*
Y367500D02*
D03*
X295500Y355500D02*
D03*
Y367500D02*
D03*
X305500Y355500D02*
D03*
Y367500D02*
D03*
X335500Y272500D02*
D03*
Y284500D02*
D03*
X285500Y355500D02*
D03*
Y367500D02*
D03*
X275500Y272500D02*
D03*
Y284500D02*
D03*
X275500Y355500D02*
D03*
Y367500D02*
D03*
X265500Y272500D02*
D03*
Y284500D02*
D03*
X284000Y141000D02*
D03*
Y153000D02*
D03*
X274000Y122000D02*
D03*
Y134000D02*
D03*
X300000Y141000D02*
D03*
Y153000D02*
D03*
X264500Y122000D02*
D03*
Y134000D02*
D03*
X267500Y141000D02*
D03*
Y153000D02*
D03*
D83*
X100000Y353000D02*
D03*
X83189D02*
D03*
X20595Y339500D02*
D03*
X37405D02*
D03*
X304094Y73500D02*
D03*
X320905D02*
D03*
X171095Y214000D02*
D03*
X187906D02*
D03*
X101311D02*
D03*
X84500D02*
D03*
X37311Y108000D02*
D03*
X20500D02*
D03*
X188406Y147000D02*
D03*
X171595D02*
D03*
X84095Y281000D02*
D03*
X100906D02*
D03*
X171531Y280832D02*
D03*
X188342D02*
D03*
X37405Y275000D02*
D03*
X20595D02*
D03*
X37405Y307000D02*
D03*
X20595D02*
D03*
X37405Y192500D02*
D03*
X20595D02*
D03*
X37905Y150000D02*
D03*
X21094D02*
D03*
X83595Y146500D02*
D03*
X100406D02*
D03*
D84*
X139240Y347559D02*
D03*
X135500D02*
D03*
X131760D02*
D03*
X139240Y357441D02*
D03*
X135500D02*
D03*
X131760D02*
D03*
D85*
X52618Y175760D02*
D03*
Y179500D02*
D03*
Y183240D02*
D03*
X62500Y175760D02*
D03*
Y179500D02*
D03*
Y183240D02*
D03*
D86*
X309516Y298201D02*
D03*
X306957D02*
D03*
X304398D02*
D03*
X301838D02*
D03*
X299279D02*
D03*
X296721D02*
D03*
X294161D02*
D03*
X291602D02*
D03*
X289043D02*
D03*
X286484D02*
D03*
Y320799D02*
D03*
X289043D02*
D03*
X291602D02*
D03*
X294161D02*
D03*
X296721D02*
D03*
X299279D02*
D03*
X301838D02*
D03*
X304398D02*
D03*
X306957D02*
D03*
X309516D02*
D03*
D87*
X319457Y213173D02*
D03*
Y215142D02*
D03*
Y217110D02*
D03*
Y219079D02*
D03*
Y221047D02*
D03*
Y223016D02*
D03*
Y224984D02*
D03*
Y226953D02*
D03*
Y228921D02*
D03*
Y230890D02*
D03*
Y232858D02*
D03*
Y234827D02*
D03*
X286543D02*
D03*
Y232858D02*
D03*
Y230890D02*
D03*
Y228921D02*
D03*
Y226953D02*
D03*
Y224984D02*
D03*
Y223016D02*
D03*
Y221047D02*
D03*
Y219079D02*
D03*
Y217110D02*
D03*
Y215142D02*
D03*
Y213173D02*
D03*
D88*
X313827Y240457D02*
D03*
X311858D02*
D03*
X309890D02*
D03*
X307921D02*
D03*
X305953D02*
D03*
X303984D02*
D03*
X302016D02*
D03*
X300047D02*
D03*
X298079D02*
D03*
X296110D02*
D03*
X294142D02*
D03*
X292173D02*
D03*
Y207543D02*
D03*
X294142D02*
D03*
X296110D02*
D03*
X298079D02*
D03*
X300047D02*
D03*
X302016D02*
D03*
X303984D02*
D03*
X305953D02*
D03*
X307921D02*
D03*
X309890D02*
D03*
X311858D02*
D03*
X313827D02*
D03*
D89*
X36827Y92500D02*
D03*
X20173D02*
D03*
X350327Y32500D02*
D03*
X333673D02*
D03*
D90*
X50000Y193173D02*
D03*
Y209827D02*
D03*
X50500Y275673D02*
D03*
Y292327D02*
D03*
X50000Y308173D02*
D03*
Y324827D02*
D03*
Y355827D02*
D03*
Y339173D02*
D03*
X50500Y166827D02*
D03*
Y150173D02*
D03*
D91*
X320000Y176500D02*
D03*
X285000D02*
D03*
D92*
X91799Y229095D02*
D03*
Y240905D02*
D03*
X91655Y295094D02*
D03*
Y306906D02*
D03*
X179686Y295426D02*
D03*
Y307237D02*
D03*
X178655Y228594D02*
D03*
Y240406D02*
D03*
X93000Y162189D02*
D03*
Y174000D02*
D03*
X180299Y162594D02*
D03*
Y174406D02*
D03*
D94*
X80145Y235000D02*
D03*
X80000Y301000D02*
D03*
X168032Y301331D02*
D03*
X167000Y234500D02*
D03*
X81345Y168095D02*
D03*
X168644Y168500D02*
D03*
D95*
X89500Y32189D02*
D03*
Y49000D02*
D03*
X241500Y134094D02*
D03*
Y150906D02*
D03*
X124500Y96906D02*
D03*
Y80094D02*
D03*
X46000Y51000D02*
D03*
Y34189D02*
D03*
D96*
X72740Y377563D02*
D03*
X65260D02*
D03*
X69000Y385437D02*
D03*
X143760Y382937D02*
D03*
X151240D02*
D03*
X147500Y375063D02*
D03*
X120240Y350063D02*
D03*
X112760D02*
D03*
X116500Y357937D02*
D03*
D97*
X78559Y92240D02*
D03*
Y84760D02*
D03*
X88441D02*
D03*
Y88500D02*
D03*
Y92240D02*
D03*
Y109240D02*
D03*
Y105500D02*
D03*
Y101760D02*
D03*
X78559D02*
D03*
Y109240D02*
D03*
D98*
X84260Y126185D02*
D03*
X91740D02*
D03*
X88000Y116815D02*
D03*
D99*
X265000Y89500D02*
D03*
D100*
X274055Y112728D02*
D03*
X265000D02*
D03*
X255945D02*
D03*
D101*
X331945Y88114D02*
D03*
Y94807D02*
D03*
Y101500D02*
D03*
Y108193D02*
D03*
Y114886D02*
D03*
D102*
X372260Y101500D02*
D03*
D103*
X302525Y125575D02*
D03*
Y94866D02*
D03*
M02*
