G04*
G04 #@! TF.GenerationSoftware,Altium Limited,Altium Designer,24.9.1 (31)*
G04*
G04 Layer_Color=128*
%FSLAX25Y25*%
%MOIN*%
G70*
G04*
G04 #@! TF.SameCoordinates,2A645F15-B05F-45B5-8E7C-29DD8EA82903*
G04*
G04*
G04 #@! TF.FilePolarity,Positive*
G04*
G01*
G75*
%ADD14C,0.00500*%
D14*
X115500Y386000D02*
X119500D01*
X117500Y384000D02*
Y388000D01*
X115500Y376000D02*
X119500D01*
X117500Y374000D02*
Y378000D01*
X115500Y366000D02*
X119500D01*
X117500Y364000D02*
Y368000D01*
X35299Y380500D02*
X44591D01*
X39945Y375854D02*
Y385146D01*
X94354Y380500D02*
X103646D01*
X99000Y375854D02*
Y385146D01*
X69591Y371500D02*
X73409D01*
X71500Y369590D02*
Y373410D01*
X65591Y361500D02*
X69410D01*
X67500Y359591D02*
Y363409D01*
X73590Y361500D02*
X77409D01*
X75500Y359591D02*
Y363409D01*
X61590Y371500D02*
X65409D01*
X63500Y369590D02*
Y373410D01*
X77591Y371500D02*
X81410D01*
X79500Y369590D02*
Y373410D01*
X57591Y361500D02*
X61409D01*
X59500Y359591D02*
Y363409D01*
X81590Y361500D02*
X85409D01*
X83500Y359591D02*
Y363409D01*
X53591Y371500D02*
X57410D01*
X55500Y369590D02*
Y373410D01*
X227990Y247842D02*
X231990D01*
X229990Y245842D02*
Y249842D01*
X227990Y237842D02*
X231990D01*
X229990Y235842D02*
Y239842D01*
X227990Y227842D02*
X231990D01*
X229990Y225842D02*
Y229842D01*
X227990Y217842D02*
X231990D01*
X229990Y215842D02*
Y219842D01*
X227990Y207842D02*
X231990D01*
X229990Y205842D02*
Y209842D01*
X228000Y297839D02*
X232000D01*
X230000Y295839D02*
Y299839D01*
X228000Y287839D02*
X232000D01*
X230000Y285839D02*
Y289839D01*
X228000Y277839D02*
X232000D01*
X230000Y275839D02*
Y279839D01*
X228000Y267839D02*
X232000D01*
X230000Y265839D02*
Y269839D01*
X228000Y257839D02*
X232000D01*
X230000Y255839D02*
Y259839D01*
X228000Y347839D02*
X232000D01*
X230000Y345839D02*
Y349839D01*
X228000Y337839D02*
X232000D01*
X230000Y335839D02*
Y339839D01*
X228000Y327839D02*
X232000D01*
X230000Y325839D02*
Y329839D01*
X228000Y317839D02*
X232000D01*
X230000Y315839D02*
Y319839D01*
X228000Y307839D02*
X232000D01*
X230000Y305839D02*
Y309839D01*
X248992Y348000D02*
X253008D01*
X251000Y345992D02*
Y350008D01*
X248992Y338000D02*
X253008D01*
X251000Y335992D02*
Y340008D01*
X248992Y328000D02*
X253008D01*
X251000Y325992D02*
Y330008D01*
X248992Y318000D02*
X253008D01*
X251000Y315992D02*
Y320008D01*
X248992Y308000D02*
X253008D01*
X251000Y305992D02*
Y310008D01*
X248992Y298000D02*
X253008D01*
X251000Y295992D02*
Y300008D01*
X248992Y288000D02*
X253008D01*
X251000Y285992D02*
Y290008D01*
X248992Y278000D02*
X253008D01*
X251000Y275992D02*
Y280008D01*
X248992Y268000D02*
X253008D01*
X251000Y265992D02*
Y270008D01*
X248992Y258000D02*
X253008D01*
X251000Y255992D02*
Y260008D01*
X248992Y248000D02*
X253008D01*
X251000Y245992D02*
Y250008D01*
X248992Y238000D02*
X253008D01*
X251000Y235992D02*
Y240008D01*
X248992Y228000D02*
X253008D01*
X251000Y225992D02*
Y230008D01*
X248992Y218000D02*
X253008D01*
X251000Y215992D02*
Y220008D01*
X248992Y208000D02*
X253008D01*
X251000Y205992D02*
Y210008D01*
X248992Y198000D02*
X253008D01*
X251000Y195992D02*
Y200008D01*
X248992Y188000D02*
X253008D01*
X251000Y185992D02*
Y190008D01*
X248992Y178000D02*
X253008D01*
X251000Y175992D02*
Y180008D01*
X248992Y168000D02*
X253008D01*
X251000Y165992D02*
Y170008D01*
X348992Y168000D02*
X353008D01*
X351000Y165992D02*
Y170008D01*
X348992Y178000D02*
X353008D01*
X351000Y175992D02*
Y180008D01*
X348992Y188000D02*
X353008D01*
X351000Y185992D02*
Y190008D01*
X348992Y198000D02*
X353008D01*
X351000Y195992D02*
Y200008D01*
X348992Y208000D02*
X353008D01*
X351000Y205992D02*
Y210008D01*
X348992Y218000D02*
X353008D01*
X351000Y215992D02*
Y220008D01*
X348992Y228000D02*
X353008D01*
X351000Y225992D02*
Y230008D01*
X348992Y238000D02*
X353008D01*
X351000Y235992D02*
Y240008D01*
X348992Y248000D02*
X353008D01*
X351000Y245992D02*
Y250008D01*
X348992Y258000D02*
X353008D01*
X351000Y255992D02*
Y260008D01*
X348992Y268000D02*
X353008D01*
X351000Y265992D02*
Y270008D01*
X348992Y278000D02*
X353008D01*
X351000Y275992D02*
Y280008D01*
X348992Y288000D02*
X353008D01*
X351000Y285992D02*
Y290008D01*
X348992Y298000D02*
X353008D01*
X351000Y295992D02*
Y300008D01*
X348992Y308000D02*
X353008D01*
X351000Y305992D02*
Y310008D01*
X348992Y318000D02*
X353008D01*
X351000Y315992D02*
Y320008D01*
X348992Y328000D02*
X353008D01*
X351000Y325992D02*
Y330008D01*
X348992Y338000D02*
X353008D01*
X351000Y335992D02*
Y340008D01*
X348992Y348000D02*
X353008D01*
X351000Y345992D02*
Y350008D01*
X228000Y167839D02*
X232000D01*
X230000Y165839D02*
Y169839D01*
X228000Y177839D02*
X232000D01*
X230000Y175839D02*
Y179839D01*
X228000Y187839D02*
X232000D01*
X230000Y185839D02*
Y189839D01*
X228000Y197839D02*
X232000D01*
X230000Y195839D02*
Y199839D01*
X369890Y247842D02*
X373890D01*
X371890Y245842D02*
Y249842D01*
X369890Y237842D02*
X373890D01*
X371890Y235842D02*
Y239842D01*
X369890Y227842D02*
X373890D01*
X371890Y225842D02*
Y229842D01*
X369890Y217842D02*
X373890D01*
X371890Y215842D02*
Y219842D01*
X369890Y207842D02*
X373890D01*
X371890Y205842D02*
Y209842D01*
X369900Y297839D02*
X373900D01*
X371900Y295839D02*
Y299839D01*
X369900Y287839D02*
X373900D01*
X371900Y285839D02*
Y289839D01*
X369900Y277839D02*
X373900D01*
X371900Y275839D02*
Y279839D01*
X369900Y267839D02*
X373900D01*
X371900Y265839D02*
Y269839D01*
X369900Y257839D02*
X373900D01*
X371900Y255839D02*
Y259839D01*
X369900Y347839D02*
X373900D01*
X371900Y345839D02*
Y349839D01*
X369900Y337839D02*
X373900D01*
X371900Y335839D02*
Y339839D01*
X369900Y327839D02*
X373900D01*
X371900Y325839D02*
Y329839D01*
X369900Y317839D02*
X373900D01*
X371900Y315839D02*
Y319839D01*
X369900Y307839D02*
X373900D01*
X371900Y305839D02*
Y309839D01*
X369900Y177839D02*
X373900D01*
X371900Y175839D02*
Y179839D01*
X369900Y187839D02*
X373900D01*
X371900Y185839D02*
Y189839D01*
X369900Y197839D02*
X373900D01*
X371900Y195839D02*
Y199839D01*
X228000Y157839D02*
X232000D01*
X230000Y155839D02*
Y159839D01*
X369900Y167839D02*
X373900D01*
X371900Y165839D02*
Y169839D01*
X349000Y158000D02*
X353000D01*
X351000Y156000D02*
Y160000D01*
X249000Y158000D02*
X253000D01*
X251000Y156000D02*
Y160000D01*
X369900Y157839D02*
X373900D01*
X371900Y155839D02*
Y159839D01*
X298913Y63000D02*
X303086D01*
X301000Y60913D02*
Y65087D01*
X258126Y63000D02*
X262299D01*
X260212Y60913D02*
Y65087D01*
X8000Y182815D02*
X12000D01*
X10000Y180815D02*
Y184815D01*
X8000Y192657D02*
X12000D01*
X10000Y190657D02*
Y194657D01*
X8000Y202500D02*
X12000D01*
X10000Y200500D02*
Y204500D01*
X8000Y140315D02*
X12000D01*
X10000Y138315D02*
Y142315D01*
X8000Y150157D02*
X12000D01*
X10000Y148157D02*
Y152157D01*
X8000Y160000D02*
X12000D01*
X10000Y158000D02*
Y162000D01*
X255949Y19000D02*
X261949D01*
X258949Y16000D02*
Y22000D01*
X346500Y19000D02*
X352500D01*
X349500Y16000D02*
Y22000D01*
X64744Y329100D02*
X70256D01*
X67500Y326344D02*
Y331856D01*
X121268Y305166D02*
X126780D01*
X124024Y302410D02*
Y307922D01*
X65213Y281500D02*
X70724D01*
X67968Y278744D02*
Y284256D01*
X113244Y328832D02*
X118756D01*
X116000Y326076D02*
Y331587D01*
X113244Y281500D02*
X118756D01*
X116000Y278744D02*
Y284256D01*
X152744Y261600D02*
X158256D01*
X155500Y258844D02*
Y264356D01*
X209268Y237666D02*
X214780D01*
X212024Y234910D02*
Y240422D01*
X153213Y214000D02*
X158724D01*
X155968Y211244D02*
Y216756D01*
X201244Y261332D02*
X206756D01*
X204000Y258576D02*
Y264087D01*
X201244Y214000D02*
X206756D01*
X204000Y211244D02*
Y216756D01*
X113244Y214169D02*
X118756D01*
X116000Y211413D02*
Y216924D01*
X113244Y261500D02*
X118756D01*
X116000Y258744D02*
Y264256D01*
X65213Y214169D02*
X70724D01*
X67968Y211413D02*
Y216924D01*
X121268Y237834D02*
X126780D01*
X124024Y235078D02*
Y240590D01*
X64744Y261769D02*
X70256D01*
X67500Y259013D02*
Y264524D01*
X54144Y68500D02*
X59656D01*
X56900Y65744D02*
Y71256D01*
X101476Y68500D02*
X106987D01*
X104232Y65744D02*
Y71256D01*
X54144Y116532D02*
X59656D01*
X56900Y113776D02*
Y119287D01*
X77810Y60476D02*
X83322D01*
X80566Y57720D02*
Y63232D01*
X101744Y117000D02*
X107256D01*
X104500Y114244D02*
Y119756D01*
X190997Y68500D02*
X196509D01*
X193753Y65744D02*
Y71256D01*
X238329Y68500D02*
X243841D01*
X241085Y65744D02*
Y71256D01*
X190997Y116532D02*
X196509D01*
X193753Y113776D02*
Y119287D01*
X214663Y60476D02*
X220175D01*
X217419Y57720D02*
Y63232D01*
X238597Y117000D02*
X244109D01*
X241353Y114244D02*
Y119756D01*
X201276Y281500D02*
X206787D01*
X204031Y278744D02*
Y284256D01*
X201276Y328832D02*
X206787D01*
X204031Y326076D02*
Y331587D01*
X153244Y281500D02*
X158756D01*
X156000Y278744D02*
Y284256D01*
X209300Y305166D02*
X214811D01*
X212055Y302410D02*
Y307922D01*
X152776Y329100D02*
X158287D01*
X155532Y326344D02*
Y331856D01*
X122401Y68500D02*
X127913D01*
X125157Y65744D02*
Y71256D01*
X169732Y68500D02*
X175244D01*
X172488Y65744D02*
Y71256D01*
X122401Y116532D02*
X127913D01*
X125157Y113776D02*
Y119287D01*
X146067Y60476D02*
X151578D01*
X148823Y57720D02*
Y63232D01*
X170001Y117000D02*
X175513D01*
X172757Y114244D02*
Y119756D01*
X17244Y79685D02*
X22756D01*
X20000Y76929D02*
Y82441D01*
X17244Y60000D02*
X22756D01*
X20000Y57244D02*
Y62756D01*
X151429Y20500D02*
X156941D01*
X154185Y17744D02*
Y23256D01*
X131744Y20500D02*
X137256D01*
X134500Y17744D02*
Y23256D01*
X64844Y194300D02*
X70356D01*
X67600Y191544D02*
Y197056D01*
X121368Y170366D02*
X126880D01*
X124124Y167610D02*
Y173122D01*
X65313Y146700D02*
X70824D01*
X68068Y143944D02*
Y149456D01*
X113344Y194032D02*
X118856D01*
X116100Y191276D02*
Y196787D01*
X113344Y146700D02*
X118856D01*
X116100Y143944D02*
Y149456D01*
X201244Y146900D02*
X206756D01*
X204000Y144144D02*
Y149656D01*
X201244Y194231D02*
X206756D01*
X204000Y191476D02*
Y196987D01*
X153213Y146900D02*
X158724D01*
X155968Y144144D02*
Y149656D01*
X209268Y170566D02*
X214780D01*
X212024Y167810D02*
Y173322D01*
X152744Y194500D02*
X158256D01*
X155500Y191744D02*
Y197256D01*
X87244Y20500D02*
X92756D01*
X90000Y17744D02*
Y23256D01*
X106929Y20500D02*
X112441D01*
X109685Y17744D02*
Y23256D01*
X333573Y378011D02*
X337573D01*
X335573Y376011D02*
Y380011D01*
X323573Y378011D02*
X327573D01*
X325573Y376011D02*
Y380011D01*
X313573Y378011D02*
X317573D01*
X315573Y376011D02*
Y380011D01*
X303573Y378011D02*
X307573D01*
X305573Y376011D02*
Y380011D01*
X293573Y378011D02*
X297573D01*
X295573Y376011D02*
Y380011D01*
X283573Y378011D02*
X287573D01*
X285573Y376011D02*
Y380011D01*
X273573Y378011D02*
X277573D01*
X275573Y376011D02*
Y380011D01*
X263573Y378011D02*
X267573D01*
X265573Y376011D02*
Y380011D01*
X323500Y388000D02*
X327500D01*
X325500Y386000D02*
Y390000D01*
X313500Y388000D02*
X317500D01*
X315500Y386000D02*
Y390000D01*
X303500Y388000D02*
X307500D01*
X305500Y386000D02*
Y390000D01*
X293500Y388000D02*
X297500D01*
X295500Y386000D02*
Y390000D01*
X283500Y388000D02*
X287500D01*
X285500Y386000D02*
Y390000D01*
X273500Y388000D02*
X277500D01*
X275500Y386000D02*
Y390000D01*
X263500Y388000D02*
X267500D01*
X265500Y386000D02*
Y390000D01*
X333500Y388000D02*
X337500D01*
X335500Y386000D02*
Y390000D01*
X135059Y372000D02*
X140571D01*
X137815Y369244D02*
Y374756D01*
X154744Y372000D02*
X160256D01*
X157500Y369244D02*
Y374756D01*
X325110Y82000D02*
X328110D01*
X326610Y80500D02*
Y83500D01*
X338890Y82000D02*
X341890D01*
X340390Y80500D02*
Y83500D01*
X310486Y54832D02*
X314486D01*
X312486Y52832D02*
Y56832D01*
X320486Y54832D02*
X324486D01*
X322486Y52832D02*
Y56832D01*
X330486Y54832D02*
X334486D01*
X332486Y52832D02*
Y56832D01*
X310500Y45000D02*
X314500D01*
X312500Y43000D02*
Y47000D01*
X320500Y45000D02*
X324500D01*
X322500Y43000D02*
Y47000D01*
X330500Y45000D02*
X334500D01*
X332500Y43000D02*
Y47000D01*
X384500Y270000D02*
X388500D01*
X386500Y268000D02*
Y272000D01*
X384500Y200000D02*
X388500D01*
X386500Y198000D02*
Y202000D01*
X384500Y210000D02*
X388500D01*
X386500Y208000D02*
Y212000D01*
X384500Y220000D02*
X388500D01*
X386500Y218000D02*
Y222000D01*
X384500Y230000D02*
X388500D01*
X386500Y228000D02*
Y232000D01*
X384500Y240000D02*
X388500D01*
X386500Y238000D02*
Y242000D01*
X384500Y250000D02*
X388500D01*
X386500Y248000D02*
Y252000D01*
X384500Y260000D02*
X388500D01*
X386500Y258000D02*
Y262000D01*
X8000Y117343D02*
X12000D01*
X10000Y115343D02*
Y119343D01*
X8000Y107500D02*
X12000D01*
X10000Y105500D02*
Y109500D01*
X215244Y19500D02*
X220756D01*
X218000Y16744D02*
Y22256D01*
X195559Y19500D02*
X201071D01*
X198315Y16744D02*
Y22256D01*
X369744Y71000D02*
X375256D01*
X372500Y68244D02*
Y73756D01*
X369744Y51315D02*
X375256D01*
X372500Y48559D02*
Y54071D01*
X8000Y307657D02*
X12000D01*
X10000Y305657D02*
Y309657D01*
X8000Y317500D02*
X12000D01*
X10000Y315500D02*
Y319500D01*
X8000Y337657D02*
X12000D01*
X10000Y335657D02*
Y339657D01*
X8000Y347500D02*
X12000D01*
X10000Y345500D02*
Y349500D01*
X384000Y308000D02*
X388000D01*
X386000Y306000D02*
Y310000D01*
X384000Y318000D02*
X388000D01*
X386000Y316000D02*
Y320000D01*
X384000Y328000D02*
X388000D01*
X386000Y326000D02*
Y330000D01*
X384000Y338000D02*
X388000D01*
X386000Y336000D02*
Y340000D01*
X384000Y348000D02*
X388000D01*
X386000Y346000D02*
Y350000D01*
X180516Y381098D02*
X184059D01*
X182287Y379327D02*
Y382870D01*
X192327Y381098D02*
X195870D01*
X194098Y379327D02*
Y382870D01*
X204138Y381098D02*
X207681D01*
X205909Y379327D02*
Y382870D01*
X180516Y358098D02*
X184059D01*
X182287Y356327D02*
Y359870D01*
X192327Y358098D02*
X195870D01*
X194098Y356327D02*
Y359870D01*
X204138Y358098D02*
X207681D01*
X205909Y356327D02*
Y359870D01*
X325220Y122000D02*
X328221D01*
X326720Y120500D02*
Y123500D01*
X339000Y122000D02*
X342000D01*
X340500Y120500D02*
Y123500D01*
X287862Y51500D02*
X293138D01*
X290500Y48862D02*
Y54138D01*
X277862Y51500D02*
X283138D01*
X280500Y48862D02*
Y54138D01*
X267862Y51500D02*
X273138D01*
X270500Y48862D02*
Y54138D01*
X250014Y378168D02*
X254014D01*
X252014Y376168D02*
Y380168D01*
X240014Y378168D02*
X244014D01*
X242014Y376168D02*
Y380168D01*
X230014Y378168D02*
X234014D01*
X232014Y376168D02*
Y380168D01*
X250000Y388000D02*
X254000D01*
X252000Y386000D02*
Y390000D01*
X240000Y388000D02*
X244000D01*
X242000Y386000D02*
Y390000D01*
X230000Y388000D02*
X234000D01*
X232000Y386000D02*
Y390000D01*
X368110Y19685D02*
X379921D01*
X374016Y13780D02*
Y25591D01*
X13780Y19685D02*
X25591D01*
X19685Y13780D02*
Y25591D01*
X368110Y374016D02*
X379921D01*
X374016Y368110D02*
Y379921D01*
X13780Y374016D02*
X25591D01*
X19685Y368110D02*
Y379921D01*
X42744Y20500D02*
X48256D01*
X45500Y17744D02*
Y23256D01*
X62429Y20500D02*
X67941D01*
X65185Y17744D02*
Y23256D01*
X8000Y287500D02*
X12000D01*
X10000Y285500D02*
Y289500D01*
X8000Y277657D02*
X12000D01*
X10000Y275657D02*
Y279657D01*
X7811Y234350D02*
X11811D01*
X9811Y232350D02*
Y236350D01*
X7811Y224508D02*
X11811D01*
X9811Y222508D02*
Y226508D01*
X7711Y244250D02*
X11711D01*
X9711Y242250D02*
Y246250D01*
X7711Y254050D02*
X11711D01*
X9711Y252050D02*
Y256050D01*
X386925Y143500D02*
X390075D01*
X388500Y141925D02*
Y145075D01*
X386925Y133500D02*
X390075D01*
X388500Y131925D02*
Y135075D01*
X356925Y133500D02*
X360075D01*
X358500Y131925D02*
Y135075D01*
X356925Y143500D02*
X360075D01*
X358500Y141925D02*
Y145075D01*
X96500Y346000D02*
X98500D01*
X97500Y345000D02*
Y347000D01*
X146500Y379000D02*
X148500D01*
X147500Y378000D02*
Y380000D01*
X131500Y352700D02*
X133500D01*
X132500Y351700D02*
Y353700D01*
X129500Y366076D02*
X131500D01*
X130500Y365076D02*
Y367076D01*
X128000Y354000D02*
X130000D01*
X129000Y353000D02*
Y355000D01*
X142500Y358500D02*
X144500D01*
X143500Y357500D02*
Y359500D01*
X142000Y354000D02*
X144000D01*
X143000Y353000D02*
Y355000D01*
X68000Y389500D02*
X70000D01*
X69000Y388500D02*
Y390500D01*
X244000Y282500D02*
X246000D01*
X245000Y281500D02*
Y283500D01*
X244000Y128000D02*
X246000D01*
X245000Y127000D02*
Y129000D01*
X237300Y222500D02*
X239300D01*
X238300Y221500D02*
Y223500D01*
X246000Y293000D02*
X248000D01*
X247000Y292000D02*
Y294000D01*
X273000Y309324D02*
X275000D01*
X274000Y308324D02*
Y310324D01*
X282500Y309241D02*
X284500D01*
X283500Y308241D02*
Y310241D01*
X274500Y277000D02*
X276500D01*
X275500Y276000D02*
Y278000D01*
X236066Y272500D02*
X238066D01*
X237066Y271500D02*
Y273500D01*
X263500Y292000D02*
X265500D01*
X264500Y291000D02*
Y293000D01*
X271510Y322510D02*
X273510D01*
X272510Y321510D02*
Y323510D01*
X267500Y277500D02*
X269500D01*
X268500Y276500D02*
Y278500D01*
X261000Y307000D02*
X263000D01*
X262000Y306000D02*
Y308000D01*
X105500Y221500D02*
X107500D01*
X106500Y220500D02*
Y222500D01*
X105500Y254500D02*
X107500D01*
X106500Y253500D02*
Y255500D01*
X109197Y254642D02*
X111197D01*
X110197Y253642D02*
Y255642D01*
X110000Y221500D02*
X112000D01*
X111000Y220500D02*
Y222500D01*
X94300Y162062D02*
X96300D01*
X95300Y161062D02*
Y163062D01*
X61973Y171527D02*
X63973D01*
X62973Y170527D02*
Y172527D01*
X68500Y179000D02*
X70500D01*
X69500Y178000D02*
Y180000D01*
X45500Y179500D02*
X47500D01*
X46500Y178500D02*
Y180500D01*
X45500Y175500D02*
X47500D01*
X46500Y174500D02*
Y176500D01*
X57418Y171527D02*
X59418D01*
X58418Y170527D02*
Y172527D01*
X295500Y303500D02*
X297500D01*
X296500Y302500D02*
Y304500D01*
X92000Y87500D02*
X94000D01*
X93000Y86500D02*
Y88500D01*
X227500Y355000D02*
X229500D01*
X228500Y354000D02*
Y356000D01*
X367000Y263000D02*
X369000D01*
X368000Y262000D02*
Y264000D01*
X378000Y258000D02*
X380000D01*
X379000Y257000D02*
Y259000D01*
X317000Y256000D02*
X319000D01*
X318000Y255000D02*
Y257000D01*
X285500Y256000D02*
X287500D01*
X286500Y255000D02*
Y257000D01*
X306500Y183000D02*
X308500D01*
X307500Y182000D02*
Y184000D01*
X322014Y185597D02*
X324014D01*
X323014Y184597D02*
Y186597D01*
X282000Y184500D02*
X284000D01*
X283000Y183500D02*
Y185500D01*
X348500Y90000D02*
X350500D01*
X349500Y89000D02*
Y91000D01*
X349000Y144000D02*
X351000D01*
X350000Y143000D02*
Y145000D01*
X87000Y97500D02*
X89000D01*
X88000Y96500D02*
Y98500D01*
X61500Y110000D02*
X63500D01*
X62500Y109000D02*
Y111000D01*
X340890Y101500D02*
X342890D01*
X341890Y100500D02*
Y102500D01*
X333000Y172500D02*
X335000D01*
X334000Y171500D02*
Y173500D01*
X92000Y108500D02*
X94000D01*
X93000Y107500D02*
Y109500D01*
X73000Y97500D02*
X75000D01*
X74000Y96500D02*
Y98500D01*
X313000Y316000D02*
X315000D01*
X314000Y315000D02*
Y317000D01*
X252919Y118758D02*
X254919D01*
X253919Y117758D02*
Y119758D01*
X256500Y119000D02*
X258500D01*
X257500Y118000D02*
Y120000D01*
Y134000D02*
X259500D01*
X258500Y133000D02*
Y135000D01*
X303951Y145250D02*
X305951D01*
X304951Y144250D02*
Y146250D01*
X294000Y145000D02*
X296000D01*
X295000Y144000D02*
Y146000D01*
X274500Y150000D02*
X276500D01*
X275500Y149000D02*
Y151000D01*
X287653Y145459D02*
X289653D01*
X288653Y144459D02*
Y146459D01*
X271079Y145500D02*
X273079D01*
X272079Y144500D02*
Y146500D01*
X260757Y141000D02*
X262757D01*
X261757Y140000D02*
Y142000D01*
X280500Y132500D02*
X282500D01*
X281500Y131500D02*
Y133500D01*
X88000Y54500D02*
X90000D01*
X89000Y53500D02*
Y55500D01*
X326000Y73500D02*
X328000D01*
X327000Y72500D02*
Y74500D01*
X264000Y188000D02*
X266000D01*
X265000Y187000D02*
Y189000D01*
X303000Y202000D02*
X305000D01*
X304000Y201000D02*
Y203000D01*
X302000Y217000D02*
X304000D01*
X303000Y216000D02*
Y218000D01*
X297000Y216500D02*
X299000D01*
X298000Y215500D02*
Y217500D01*
X303000Y192500D02*
X305000D01*
X304000Y191500D02*
Y193500D01*
X240500Y128000D02*
X242500D01*
X241500Y127000D02*
Y129000D01*
X268500Y100000D02*
X270500D01*
X269500Y99000D02*
Y101000D01*
X271500Y97000D02*
X273500D01*
X272500Y96000D02*
Y98000D01*
X265500Y103000D02*
X267500D01*
X266500Y102000D02*
Y104000D01*
X256500Y100000D02*
X258500D01*
X257500Y99000D02*
Y101000D01*
X253500Y103000D02*
X255500D01*
X254500Y102000D02*
Y104000D01*
X259500Y103000D02*
X261500D01*
X260500Y102000D02*
Y104000D01*
X262500Y100000D02*
X264500D01*
X263500Y99000D02*
Y101000D01*
X259500Y97000D02*
X261500D01*
X260500Y96000D02*
Y98000D01*
X208000Y294000D02*
X210000D01*
X209000Y293000D02*
Y295000D01*
X218500Y293000D02*
X220500D01*
X219500Y292000D02*
Y294000D01*
X221450Y308050D02*
X223450D01*
X222450Y307050D02*
Y309050D01*
X323500Y289500D02*
X325500D01*
X324500Y288500D02*
Y290500D01*
X312500Y290000D02*
X314500D01*
X313500Y289000D02*
Y291000D01*
X322500Y306251D02*
X324500D01*
X323500Y305251D02*
Y307250D01*
X324231Y309521D02*
X326231D01*
X325231Y308521D02*
Y310521D01*
X282000Y321759D02*
X284000D01*
X283000Y320759D02*
Y322759D01*
X298414Y310914D02*
X300414D01*
X299414Y309914D02*
Y311914D01*
X295000Y314000D02*
X297000D01*
X296000Y313000D02*
Y315000D01*
X70000Y74241D02*
X72000D01*
X71000Y73241D02*
Y75241D01*
X121500Y45000D02*
X123500D01*
X122500Y44000D02*
Y46000D01*
X104500Y349500D02*
X106500D01*
X105500Y348500D02*
Y350500D01*
X108500Y346000D02*
X110500D01*
X109500Y345000D02*
Y347000D01*
X118500Y127500D02*
X120500D01*
X119500Y126500D02*
Y128500D01*
X110500Y113000D02*
X112500D01*
X111500Y112000D02*
Y114000D01*
X149000Y177500D02*
X151000D01*
X150000Y176500D02*
Y178500D01*
X224500Y283000D02*
X226500D01*
X225500Y282000D02*
Y284000D01*
X103000Y77500D02*
X105000D01*
X104000Y76500D02*
Y78500D01*
X95000Y229000D02*
X97000D01*
X96000Y228000D02*
Y230000D01*
X123500Y102000D02*
X125500D01*
X124500Y101000D02*
Y103000D01*
X200500Y180500D02*
X202500D01*
X201500Y179500D02*
Y181500D01*
X221000Y204000D02*
X223000D01*
X222000Y203000D02*
Y205000D01*
X256500Y203000D02*
X258500D01*
X257500Y202000D02*
Y204000D01*
X207500Y225000D02*
X209500D01*
X208500Y224000D02*
Y226000D01*
X117000Y225500D02*
X119000D01*
X118000Y224500D02*
Y226500D01*
X183548Y228594D02*
X185548D01*
X184548Y227594D02*
Y229594D01*
X119500Y294000D02*
X121500D01*
X120500Y293000D02*
Y295000D01*
X280500Y252500D02*
X282500D01*
X281500Y251500D02*
Y253500D01*
X222000Y232500D02*
X224000D01*
X223000Y231500D02*
Y233500D01*
X60820Y74985D02*
X62819D01*
X61819Y73985D02*
Y75985D01*
X103573Y58573D02*
X105573D01*
X104573Y57573D02*
Y59573D01*
X66500Y85000D02*
X68500D01*
X67500Y84000D02*
Y86000D01*
X45000Y60000D02*
X47000D01*
X46000Y59000D02*
Y61000D01*
X90500Y131000D02*
X92500D01*
X91500Y130000D02*
Y132000D01*
X36069Y100250D02*
X38069D01*
X37069Y99250D02*
Y101250D01*
X32000Y199000D02*
X34000D01*
X33000Y198000D02*
Y200000D01*
X28888Y291500D02*
X30888D01*
X29888Y290500D02*
Y292500D01*
X42703Y339337D02*
X44703D01*
X43703Y338337D02*
Y340337D01*
X265500Y97000D02*
X267500D01*
X266500Y96000D02*
Y98000D01*
X289000Y36000D02*
X291000D01*
X290000Y35000D02*
Y37000D01*
X341000Y32500D02*
X343000D01*
X342000Y31500D02*
Y33500D01*
X340500Y327595D02*
X342500D01*
X341500Y326595D02*
Y328595D01*
X340243Y332300D02*
X342243D01*
X341243Y331300D02*
Y333300D01*
X332443Y339512D02*
X334443D01*
X333443Y338512D02*
Y340512D01*
X322443Y339512D02*
X324443D01*
X323443Y338512D02*
Y340512D01*
X312443Y339512D02*
X314443D01*
X313443Y338512D02*
Y340512D01*
X302443Y339512D02*
X304443D01*
X303443Y338512D02*
Y340512D01*
X292443Y339512D02*
X294443D01*
X293443Y338512D02*
Y340512D01*
X282443Y339512D02*
X284443D01*
X283443Y338512D02*
Y340512D01*
X273537Y345989D02*
X275537D01*
X274537Y344989D02*
Y346989D01*
X349000Y362000D02*
X351000D01*
X350000Y361000D02*
Y363000D01*
X340500Y368500D02*
X342500D01*
X341500Y367500D02*
Y369500D01*
X357500Y362500D02*
X359500D01*
X358500Y361500D02*
Y363500D01*
X260495Y342479D02*
X262495D01*
X261495Y341479D02*
Y343479D01*
X299000Y229600D02*
X301000D01*
X300000Y228600D02*
Y230600D01*
X304000Y228500D02*
X306000D01*
X305000Y227500D02*
Y229500D01*
X292000Y234000D02*
X294000D01*
X293000Y233000D02*
Y235000D01*
X309000Y234800D02*
X311000D01*
X310000Y233800D02*
Y235800D01*
X316500Y245500D02*
X318500D01*
X317500Y244500D02*
Y246500D01*
X320800Y245500D02*
X322800D01*
X321800Y244500D02*
Y246500D01*
X336500Y241500D02*
X338500D01*
X337500Y240500D02*
Y242500D01*
X324500Y245500D02*
X326500D01*
X325500Y244500D02*
Y246500D01*
X324500Y261000D02*
X326500D01*
X325500Y260000D02*
Y262000D01*
X333606Y249393D02*
X335606D01*
X334606Y248393D02*
Y250393D01*
X280000Y235000D02*
X282000D01*
X281000Y234000D02*
Y236000D01*
X335000Y209500D02*
X337000D01*
X336000Y208500D02*
Y210500D01*
X324000Y215759D02*
X326000D01*
X325000Y214759D02*
Y216759D01*
X258500Y169500D02*
X260500D01*
X259500Y168500D02*
Y170500D01*
X323868Y204946D02*
X325868D01*
X324868Y203946D02*
Y205946D01*
X312500Y216000D02*
X314500D01*
X313500Y215000D02*
Y217000D01*
X262500Y193000D02*
X264500D01*
X263500Y192000D02*
Y194000D01*
X266500Y168000D02*
X268500D01*
X267500Y167000D02*
Y169000D01*
X26000Y323000D02*
X28000D01*
X27000Y322000D02*
Y324000D01*
X49500Y101000D02*
X51500D01*
X50500Y100000D02*
Y102000D01*
X91000Y96500D02*
X93000D01*
X92000Y95500D02*
Y97500D01*
X183947Y162500D02*
X185947D01*
X184947Y161500D02*
Y163500D01*
X184829Y295426D02*
X186829D01*
X185829Y294426D02*
Y296426D01*
X96000Y295500D02*
X98000D01*
X97000Y294500D02*
Y296500D01*
X43500Y150000D02*
X45500D01*
X44500Y149000D02*
Y151000D01*
X43000Y192500D02*
X45000D01*
X44000Y191500D02*
Y193500D01*
X43000Y275000D02*
X45000D01*
X44000Y274000D02*
Y276000D01*
X42366Y307000D02*
X44366D01*
X43366Y306000D02*
Y308000D01*
X363000Y193000D02*
X365000D01*
X364000Y192000D02*
Y194000D01*
X387000Y113500D02*
X389000D01*
X388000Y112500D02*
Y114500D01*
X356500Y111000D02*
X358500D01*
X357500Y110000D02*
Y112000D01*
X370282Y106771D02*
X372282D01*
X371282Y105771D02*
Y107771D01*
X378000Y89500D02*
X380000D01*
X379000Y88500D02*
Y90500D01*
X375282Y109271D02*
X377282D01*
X376282Y108271D02*
Y110271D01*
X370282Y111771D02*
X372282D01*
X371282Y110771D02*
Y112771D01*
X380282Y107271D02*
X382282D01*
X381282Y106271D02*
Y108271D01*
X380147Y111799D02*
X382147D01*
X381147Y110799D02*
Y112799D01*
X385000Y170000D02*
X387000D01*
X386000Y169000D02*
Y171000D01*
X234500Y172500D02*
X236500D01*
X235500Y171500D02*
Y173500D01*
X366500Y140000D02*
X368500D01*
X367500Y139000D02*
Y141000D01*
X294097Y184097D02*
X296097D01*
X295097Y183097D02*
Y185097D01*
X385000Y279000D02*
X387000D01*
X386000Y278000D02*
Y280000D01*
X291500Y217000D02*
X293500D01*
X292500Y216000D02*
Y218000D01*
X274500Y100000D02*
X276500D01*
X275500Y99000D02*
Y101000D01*
X253500Y97000D02*
X255500D01*
X254500Y96000D02*
Y98000D01*
X271500Y103000D02*
X273500D01*
X272500Y102000D02*
Y104000D01*
M02*
