G04*
G04 #@! TF.GenerationSoftware,Altium Limited,Altium Designer,24.9.1 (31)*
G04*
G04 Layer_Physical_Order=2*
G04 Layer_Color=36540*
%FSLAX25Y25*%
%MOIN*%
G70*
G04*
G04 #@! TF.SameCoordinates,2A645F15-B05F-45B5-8E7C-29DD8EA82903*
G04*
G04*
G04 #@! TF.FilePolarity,Positive*
G04*
G01*
G75*
%ADD60R,0.08000X0.06000*%
%ADD61O,0.08000X0.06000*%
%ADD62C,0.09291*%
%ADD63C,0.05819*%
%ADD65R,0.07000X0.06000*%
%ADD67C,0.06024*%
%ADD68C,0.06260*%
%ADD70C,0.12000*%
%ADD71C,0.09000*%
%ADD72C,0.09449*%
%ADD73R,0.06000X0.07000*%
%ADD74O,0.06000X0.08000*%
%ADD75C,0.06000*%
%ADD76R,0.06000X0.08000*%
%ADD77C,0.04724*%
%ADD78R,0.04724X0.04724*%
%ADD80C,0.07913*%
%ADD81C,0.05118*%
%ADD82C,0.03000*%
G36*
X390727Y390581D02*
X391000Y390249D01*
Y339318D01*
X390500Y339219D01*
X390232Y339866D01*
X389639Y340639D01*
X388866Y341232D01*
X387966Y341605D01*
X387000Y341732D01*
X385000D01*
X384034Y341605D01*
X383134Y341232D01*
X382361Y340639D01*
X381768Y339866D01*
X381395Y338966D01*
X381268Y338000D01*
X381395Y337034D01*
X381768Y336134D01*
X382361Y335361D01*
X383134Y334768D01*
X384034Y334395D01*
X385000Y334268D01*
X387000D01*
X387966Y334395D01*
X388866Y334768D01*
X389639Y335361D01*
X390232Y336134D01*
X390500Y336781D01*
X391000Y336682D01*
Y329318D01*
X390500Y329219D01*
X390232Y329866D01*
X389639Y330639D01*
X388866Y331232D01*
X387966Y331605D01*
X387000Y331732D01*
X385000D01*
X384034Y331605D01*
X383134Y331232D01*
X382361Y330639D01*
X381768Y329866D01*
X381395Y328966D01*
X381268Y328000D01*
X381395Y327034D01*
X381768Y326134D01*
X382361Y325361D01*
X383134Y324768D01*
X384034Y324395D01*
X385000Y324268D01*
X387000D01*
X387966Y324395D01*
X388866Y324768D01*
X389639Y325361D01*
X390232Y326134D01*
X390500Y326781D01*
X391000Y326682D01*
Y319318D01*
X390500Y319219D01*
X390232Y319866D01*
X389639Y320639D01*
X388866Y321232D01*
X387966Y321605D01*
X387000Y321732D01*
X385000D01*
X384034Y321605D01*
X383134Y321232D01*
X382361Y320639D01*
X381768Y319866D01*
X381395Y318966D01*
X381268Y318000D01*
X381395Y317034D01*
X381768Y316134D01*
X382361Y315361D01*
X383134Y314768D01*
X384034Y314395D01*
X385000Y314268D01*
X387000D01*
X387966Y314395D01*
X388866Y314768D01*
X389639Y315361D01*
X390232Y316134D01*
X390500Y316781D01*
X391000Y316682D01*
Y274076D01*
X390700Y273700D01*
X390500Y273700D01*
X382300D01*
Y266300D01*
X390500D01*
X390700Y266300D01*
X391000Y265924D01*
Y262338D01*
X390500Y262168D01*
X390139Y262639D01*
X389366Y263232D01*
X388466Y263605D01*
X387500Y263732D01*
X385500D01*
X384534Y263605D01*
X383634Y263232D01*
X382861Y262639D01*
X382268Y261866D01*
X381895Y260966D01*
X381768Y260000D01*
X381895Y259034D01*
X382268Y258134D01*
X382861Y257361D01*
X383634Y256768D01*
X384534Y256395D01*
X385500Y256268D01*
X387500D01*
X388466Y256395D01*
X389366Y256768D01*
X390139Y257361D01*
X390500Y257832D01*
X391000Y257662D01*
Y252338D01*
X390500Y252168D01*
X390139Y252639D01*
X389366Y253232D01*
X388466Y253605D01*
X387500Y253732D01*
X385500D01*
X384534Y253605D01*
X383634Y253232D01*
X382861Y252639D01*
X382268Y251866D01*
X381895Y250966D01*
X381768Y250000D01*
X381895Y249034D01*
X382268Y248134D01*
X382861Y247361D01*
X383634Y246768D01*
X384534Y246395D01*
X385500Y246268D01*
X387500D01*
X388466Y246395D01*
X389366Y246768D01*
X390139Y247361D01*
X390500Y247832D01*
X391000Y247662D01*
Y242338D01*
X390500Y242168D01*
X390139Y242639D01*
X389366Y243232D01*
X388466Y243605D01*
X387500Y243732D01*
X385500D01*
X384534Y243605D01*
X383634Y243232D01*
X382861Y242639D01*
X382268Y241866D01*
X381895Y240966D01*
X381768Y240000D01*
X381895Y239034D01*
X382268Y238134D01*
X382861Y237361D01*
X383634Y236768D01*
X384534Y236395D01*
X385500Y236268D01*
X387500D01*
X388466Y236395D01*
X389366Y236768D01*
X390139Y237361D01*
X390500Y237832D01*
X391000Y237662D01*
Y232338D01*
X390500Y232168D01*
X390139Y232639D01*
X389366Y233232D01*
X388466Y233605D01*
X387500Y233732D01*
X385500D01*
X384534Y233605D01*
X383634Y233232D01*
X382861Y232639D01*
X382268Y231866D01*
X381895Y230966D01*
X381768Y230000D01*
X381895Y229034D01*
X382268Y228134D01*
X382861Y227361D01*
X383634Y226768D01*
X384534Y226395D01*
X385500Y226268D01*
X387500D01*
X388466Y226395D01*
X389366Y226768D01*
X390139Y227361D01*
X390500Y227832D01*
X391000Y227662D01*
Y222338D01*
X390500Y222168D01*
X390139Y222639D01*
X389366Y223232D01*
X388466Y223605D01*
X387500Y223732D01*
X385500D01*
X384534Y223605D01*
X383634Y223232D01*
X382861Y222639D01*
X382268Y221866D01*
X381895Y220966D01*
X381768Y220000D01*
X381895Y219034D01*
X382268Y218134D01*
X382861Y217361D01*
X383634Y216768D01*
X384534Y216395D01*
X385500Y216268D01*
X387500D01*
X388466Y216395D01*
X389366Y216768D01*
X390139Y217361D01*
X390500Y217832D01*
X391000Y217662D01*
Y212338D01*
X390500Y212168D01*
X390139Y212639D01*
X389366Y213232D01*
X388466Y213605D01*
X387500Y213732D01*
X385500D01*
X384534Y213605D01*
X383634Y213232D01*
X382861Y212639D01*
X382268Y211866D01*
X381895Y210966D01*
X381768Y210000D01*
X381895Y209034D01*
X382268Y208134D01*
X382861Y207361D01*
X383634Y206768D01*
X384534Y206395D01*
X385500Y206268D01*
X387500D01*
X388466Y206395D01*
X389366Y206768D01*
X390139Y207361D01*
X390500Y207832D01*
X391000Y207662D01*
Y146262D01*
X390538Y146071D01*
X390501Y146108D01*
X389758Y146537D01*
X388929Y146759D01*
X388071D01*
X387242Y146537D01*
X386499Y146108D01*
X385892Y145501D01*
X385463Y144758D01*
X385241Y143929D01*
Y143071D01*
X385463Y142242D01*
X385892Y141499D01*
X386499Y140892D01*
X387242Y140463D01*
X388071Y140241D01*
X388929D01*
X389758Y140463D01*
X390501Y140892D01*
X390538Y140929D01*
X391000Y140738D01*
Y136262D01*
X390538Y136071D01*
X390501Y136108D01*
X389758Y136537D01*
X388929Y136759D01*
X388071D01*
X387242Y136537D01*
X386499Y136108D01*
X385892Y135501D01*
X385463Y134758D01*
X385241Y133929D01*
Y133071D01*
X385463Y132242D01*
X385892Y131499D01*
X386499Y130892D01*
X387242Y130463D01*
X388071Y130241D01*
X388929D01*
X389758Y130463D01*
X390501Y130892D01*
X390538Y130929D01*
X391000Y130738D01*
Y3811D01*
X390495Y3196D01*
X389472Y2356D01*
X388304Y1732D01*
X387037Y1347D01*
X385739Y1220D01*
X385719Y1223D01*
X8464D01*
X8436Y1218D01*
X7050Y1354D01*
X5690Y1767D01*
X4437Y2437D01*
X3338Y3338D01*
X2437Y4437D01*
X2000Y5254D01*
Y388822D01*
X2336Y389451D01*
X3161Y390456D01*
X3824Y391000D01*
X228300D01*
Y383363D01*
X228300Y383300D01*
X228314Y382806D01*
Y373468D01*
X235714D01*
Y382806D01*
X235714Y382868D01*
X235700Y383362D01*
Y391000D01*
X238282D01*
X238616Y390500D01*
X238395Y389966D01*
X238268Y389000D01*
Y387000D01*
X238395Y386034D01*
X238768Y385134D01*
X239361Y384361D01*
X240134Y383768D01*
X241034Y383395D01*
X241488Y383335D01*
Y382831D01*
X241048Y382773D01*
X240148Y382400D01*
X239375Y381807D01*
X238782Y381034D01*
X238409Y380134D01*
X238282Y379168D01*
Y377168D01*
X238409Y376203D01*
X238782Y375302D01*
X239375Y374530D01*
X240148Y373937D01*
X241048Y373564D01*
X242014Y373436D01*
X242980Y373564D01*
X243880Y373937D01*
X244653Y374530D01*
X245246Y375302D01*
X245619Y376203D01*
X245746Y377168D01*
Y379168D01*
X245619Y380134D01*
X245246Y381034D01*
X244653Y381807D01*
X243880Y382400D01*
X242980Y382773D01*
X242526Y382833D01*
Y383337D01*
X242966Y383395D01*
X243866Y383768D01*
X244639Y384361D01*
X245232Y385134D01*
X245605Y386034D01*
X245732Y387000D01*
Y389000D01*
X245605Y389966D01*
X245384Y390500D01*
X245718Y391000D01*
X248282D01*
X248616Y390500D01*
X248395Y389966D01*
X248268Y389000D01*
Y387000D01*
X248395Y386034D01*
X248768Y385134D01*
X249361Y384361D01*
X250134Y383768D01*
X251034Y383395D01*
X251488Y383335D01*
Y382831D01*
X251048Y382773D01*
X250148Y382400D01*
X249375Y381807D01*
X248782Y381034D01*
X248409Y380134D01*
X248282Y379168D01*
Y377168D01*
X248409Y376203D01*
X248782Y375302D01*
X249375Y374530D01*
X250148Y373937D01*
X251048Y373564D01*
X252014Y373436D01*
X252980Y373564D01*
X253880Y373937D01*
X254653Y374530D01*
X255246Y375302D01*
X255619Y376203D01*
X255746Y377168D01*
Y379168D01*
X255619Y380134D01*
X255246Y381034D01*
X254653Y381807D01*
X253880Y382400D01*
X252980Y382773D01*
X252526Y382833D01*
Y383337D01*
X252966Y383395D01*
X253866Y383768D01*
X254639Y384361D01*
X255232Y385134D01*
X255605Y386034D01*
X255732Y387000D01*
Y389000D01*
X255605Y389966D01*
X255383Y390500D01*
X255718Y391000D01*
X390217D01*
X390727Y390581D01*
D02*
G37*
%LPC*%
G36*
X122200Y389700D02*
X112800D01*
Y382300D01*
X122200D01*
Y389700D01*
D02*
G37*
G36*
X208972Y384161D02*
X202847D01*
Y378036D01*
X208972D01*
Y384161D01*
D02*
G37*
G36*
X194502D02*
X193695D01*
X192917Y383952D01*
X192218Y383549D01*
X191648Y382979D01*
X191245Y382280D01*
X191036Y381502D01*
Y380695D01*
X191245Y379916D01*
X191648Y379218D01*
X192218Y378648D01*
X192917Y378245D01*
X193695Y378036D01*
X194502D01*
X195281Y378245D01*
X195979Y378648D01*
X196549Y379218D01*
X196952Y379916D01*
X197161Y380695D01*
Y381502D01*
X196952Y382280D01*
X196549Y382979D01*
X195979Y383549D01*
X195281Y383952D01*
X194502Y384161D01*
D02*
G37*
G36*
X99704Y385846D02*
X98296D01*
X96937Y385481D01*
X95718Y384778D01*
X94722Y383782D01*
X94019Y382563D01*
X93654Y381204D01*
Y379796D01*
X94019Y378437D01*
X94722Y377218D01*
X95718Y376222D01*
X96937Y375519D01*
X98296Y375154D01*
X99704D01*
X101063Y375519D01*
X102282Y376222D01*
X103278Y377218D01*
X103981Y378437D01*
X104346Y379796D01*
Y381204D01*
X103981Y382563D01*
X103278Y383782D01*
X102282Y384778D01*
X101063Y385481D01*
X99704Y385846D01*
D02*
G37*
G36*
X40649D02*
X39241D01*
X37881Y385481D01*
X36663Y384778D01*
X35667Y383782D01*
X34964Y382563D01*
X34599Y381204D01*
Y379796D01*
X34964Y378437D01*
X35667Y377218D01*
X36663Y376222D01*
X37881Y375519D01*
X39241Y375154D01*
X40649D01*
X42008Y375519D01*
X43227Y376222D01*
X44223Y377218D01*
X44926Y378437D01*
X45291Y379796D01*
Y381204D01*
X44926Y382563D01*
X44223Y383782D01*
X43227Y384778D01*
X42008Y385481D01*
X40649Y385846D01*
D02*
G37*
G36*
X339273Y382211D02*
X331873D01*
Y373811D01*
X339273D01*
Y382211D01*
D02*
G37*
G36*
X325573Y382743D02*
X324607Y382616D01*
X323707Y382243D01*
X322935Y381650D01*
X322341Y380877D01*
X321969Y379977D01*
X321842Y379011D01*
Y377011D01*
X321969Y376045D01*
X322341Y375145D01*
X322935Y374372D01*
X323707Y373779D01*
X324607Y373406D01*
X325573Y373279D01*
X326539Y373406D01*
X327439Y373779D01*
X328212Y374372D01*
X328805Y375145D01*
X329178Y376045D01*
X329305Y377011D01*
Y379011D01*
X329178Y379977D01*
X328805Y380877D01*
X328212Y381650D01*
X327439Y382243D01*
X326539Y382616D01*
X325573Y382743D01*
D02*
G37*
G36*
X315573D02*
X314608Y382616D01*
X313707Y382243D01*
X312934Y381650D01*
X312341Y380877D01*
X311969Y379977D01*
X311842Y379011D01*
Y377011D01*
X311969Y376045D01*
X312341Y375145D01*
X312934Y374372D01*
X313707Y373779D01*
X314608Y373406D01*
X315573Y373279D01*
X316539Y373406D01*
X317439Y373779D01*
X318212Y374372D01*
X318805Y375145D01*
X319178Y376045D01*
X319305Y377011D01*
Y379011D01*
X319178Y379977D01*
X318805Y380877D01*
X318212Y381650D01*
X317439Y382243D01*
X316539Y382616D01*
X315573Y382743D01*
D02*
G37*
G36*
X305573D02*
X304608Y382616D01*
X303707Y382243D01*
X302935Y381650D01*
X302341Y380877D01*
X301969Y379977D01*
X301841Y379011D01*
Y377011D01*
X301969Y376045D01*
X302341Y375145D01*
X302935Y374372D01*
X303707Y373779D01*
X304608Y373406D01*
X305573Y373279D01*
X306539Y373406D01*
X307439Y373779D01*
X308212Y374372D01*
X308805Y375145D01*
X309178Y376045D01*
X309305Y377011D01*
Y379011D01*
X309178Y379977D01*
X308805Y380877D01*
X308212Y381650D01*
X307439Y382243D01*
X306539Y382616D01*
X305573Y382743D01*
D02*
G37*
G36*
X295573D02*
X294607Y382616D01*
X293707Y382243D01*
X292934Y381650D01*
X292341Y380877D01*
X291969Y379977D01*
X291842Y379011D01*
Y377011D01*
X291969Y376045D01*
X292341Y375145D01*
X292934Y374372D01*
X293707Y373779D01*
X294607Y373406D01*
X295573Y373279D01*
X296539Y373406D01*
X297439Y373779D01*
X298212Y374372D01*
X298805Y375145D01*
X299178Y376045D01*
X299305Y377011D01*
Y379011D01*
X299178Y379977D01*
X298805Y380877D01*
X298212Y381650D01*
X297439Y382243D01*
X296539Y382616D01*
X295573Y382743D01*
D02*
G37*
G36*
X285573D02*
X284608Y382616D01*
X283707Y382243D01*
X282934Y381650D01*
X282341Y380877D01*
X281969Y379977D01*
X281841Y379011D01*
Y377011D01*
X281969Y376045D01*
X282341Y375145D01*
X282934Y374372D01*
X283707Y373779D01*
X284608Y373406D01*
X285573Y373279D01*
X286539Y373406D01*
X287439Y373779D01*
X288212Y374372D01*
X288805Y375145D01*
X289178Y376045D01*
X289305Y377011D01*
Y379011D01*
X289178Y379977D01*
X288805Y380877D01*
X288212Y381650D01*
X287439Y382243D01*
X286539Y382616D01*
X285573Y382743D01*
D02*
G37*
G36*
X275573D02*
X274607Y382616D01*
X273707Y382243D01*
X272935Y381650D01*
X272341Y380877D01*
X271969Y379977D01*
X271842Y379011D01*
Y377011D01*
X271969Y376045D01*
X272341Y375145D01*
X272935Y374372D01*
X273707Y373779D01*
X274607Y373406D01*
X275573Y373279D01*
X276539Y373406D01*
X277439Y373779D01*
X278212Y374372D01*
X278805Y375145D01*
X279178Y376045D01*
X279305Y377011D01*
Y379011D01*
X279178Y379977D01*
X278805Y380877D01*
X278212Y381650D01*
X277439Y382243D01*
X276539Y382616D01*
X275573Y382743D01*
D02*
G37*
G36*
X265573D02*
X264608Y382616D01*
X263707Y382243D01*
X262934Y381650D01*
X262341Y380877D01*
X261969Y379977D01*
X261842Y379011D01*
Y377011D01*
X261969Y376045D01*
X262341Y375145D01*
X262934Y374372D01*
X263707Y373779D01*
X264608Y373406D01*
X265573Y373279D01*
X266539Y373406D01*
X267439Y373779D01*
X268212Y374372D01*
X268805Y375145D01*
X269178Y376045D01*
X269305Y377011D01*
Y379011D01*
X269178Y379977D01*
X268805Y380877D01*
X268212Y381650D01*
X267439Y382243D01*
X266539Y382616D01*
X265573Y382743D01*
D02*
G37*
G36*
X118500Y379732D02*
X116500D01*
X115534Y379605D01*
X114634Y379232D01*
X113861Y378639D01*
X113268Y377866D01*
X112895Y376966D01*
X112768Y376000D01*
X112895Y375034D01*
X113268Y374134D01*
X113861Y373361D01*
X114634Y372768D01*
X115534Y372395D01*
X116500Y372268D01*
X118500D01*
X119466Y372395D01*
X120366Y372768D01*
X121139Y373361D01*
X121732Y374134D01*
X122105Y375034D01*
X122232Y376000D01*
X122105Y376966D01*
X121732Y377866D01*
X121139Y378639D01*
X120366Y379232D01*
X119466Y379605D01*
X118500Y379732D01*
D02*
G37*
G36*
X71975Y375110D02*
X71025D01*
X70107Y374864D01*
X69284Y374388D01*
X68612Y373716D01*
X68137Y372893D01*
X67891Y371975D01*
Y371025D01*
X68137Y370107D01*
X68612Y369284D01*
X69284Y368612D01*
X70107Y368137D01*
X71025Y367891D01*
X71975D01*
X72893Y368137D01*
X73716Y368612D01*
X74388Y369284D01*
X74863Y370107D01*
X75109Y371025D01*
Y371975D01*
X74863Y372893D01*
X74388Y373716D01*
X73716Y374388D01*
X72893Y374864D01*
X71975Y375110D01*
D02*
G37*
G36*
X55975D02*
X55025D01*
X54107Y374864D01*
X53284Y374388D01*
X52612Y373716D01*
X52136Y372893D01*
X51890Y371975D01*
Y371025D01*
X52136Y370107D01*
X52612Y369284D01*
X53284Y368612D01*
X54107Y368137D01*
X55025Y367891D01*
X55975D01*
X56893Y368137D01*
X57716Y368612D01*
X58388Y369284D01*
X58864Y370107D01*
X59109Y371025D01*
Y371975D01*
X58864Y372893D01*
X58388Y373716D01*
X57716Y374388D01*
X56893Y374864D01*
X55975Y375110D01*
D02*
G37*
G36*
X374666Y380621D02*
X373365D01*
X372089Y380367D01*
X370887Y379870D01*
X369805Y379147D01*
X368885Y378227D01*
X368162Y377145D01*
X367664Y375943D01*
X367410Y374666D01*
Y373365D01*
X367664Y372089D01*
X368162Y370887D01*
X368885Y369805D01*
X369805Y368885D01*
X370887Y368162D01*
X372089Y367664D01*
X373365Y367410D01*
X374666D01*
X375942Y367664D01*
X377145Y368162D01*
X378226Y368885D01*
X379147Y369805D01*
X379870Y370887D01*
X380367Y372089D01*
X380621Y373365D01*
Y374666D01*
X380367Y375943D01*
X379870Y377145D01*
X379147Y378227D01*
X378226Y379147D01*
X377145Y379870D01*
X375942Y380367D01*
X374666Y380621D01*
D02*
G37*
G36*
X20336D02*
X19035D01*
X17758Y380367D01*
X16556Y379870D01*
X15474Y379147D01*
X14554Y378227D01*
X13831Y377145D01*
X13333Y375943D01*
X13080Y374666D01*
Y373365D01*
X13333Y372089D01*
X13831Y370887D01*
X14554Y369805D01*
X15474Y368885D01*
X16556Y368162D01*
X17758Y367664D01*
X19035Y367410D01*
X20336D01*
X21612Y367664D01*
X22814Y368162D01*
X23896Y368885D01*
X24816Y369805D01*
X25539Y370887D01*
X26037Y372089D01*
X26291Y373365D01*
Y374666D01*
X26037Y375943D01*
X25539Y377145D01*
X24816Y378227D01*
X23896Y379147D01*
X22814Y379870D01*
X21612Y380367D01*
X20336Y380621D01*
D02*
G37*
G36*
X158214Y377424D02*
X156786D01*
X155406Y377055D01*
X154169Y376341D01*
X153159Y375331D01*
X152445Y374094D01*
X152076Y372714D01*
Y371286D01*
X152445Y369906D01*
X153159Y368669D01*
X154169Y367659D01*
X155406Y366945D01*
X156786Y366576D01*
X158214D01*
X159594Y366945D01*
X160831Y367659D01*
X161840Y368669D01*
X162555Y369906D01*
X162924Y371286D01*
Y372714D01*
X162555Y374094D01*
X161840Y375331D01*
X160831Y376341D01*
X159594Y377055D01*
X158214Y377424D01*
D02*
G37*
G36*
X138529D02*
X137101D01*
X135721Y377055D01*
X134484Y376341D01*
X133474Y375331D01*
X132760Y374094D01*
X132390Y372714D01*
Y371286D01*
X132760Y369906D01*
X133474Y368669D01*
X134484Y367659D01*
X135721Y366945D01*
X137101Y366576D01*
X138529D01*
X139909Y366945D01*
X141146Y367659D01*
X142156Y368669D01*
X142870Y369906D01*
X143239Y371286D01*
Y372714D01*
X142870Y374094D01*
X142156Y375331D01*
X141146Y376341D01*
X139909Y377055D01*
X138529Y377424D01*
D02*
G37*
G36*
X130938Y368276D02*
X130062D01*
X129254Y367941D01*
X128635Y367322D01*
X128300Y366513D01*
Y365638D01*
X128635Y364829D01*
X129254Y364211D01*
X130062Y363876D01*
X130938D01*
X131746Y364211D01*
X132365Y364829D01*
X132700Y365638D01*
Y366513D01*
X132365Y367322D01*
X131746Y367941D01*
X130938Y368276D01*
D02*
G37*
G36*
X358938Y364700D02*
X358062D01*
X357254Y364365D01*
X356635Y363746D01*
X356300Y362938D01*
Y362062D01*
X356635Y361254D01*
X357254Y360635D01*
X358062Y360300D01*
X358938D01*
X359746Y360635D01*
X360365Y361254D01*
X360700Y362062D01*
Y362938D01*
X360365Y363746D01*
X359746Y364365D01*
X358938Y364700D01*
D02*
G37*
G36*
X350438Y364200D02*
X349562D01*
X348754Y363865D01*
X348135Y363246D01*
X347800Y362438D01*
Y361562D01*
X348135Y360754D01*
X348754Y360135D01*
X349562Y359800D01*
X350438D01*
X351246Y360135D01*
X351865Y360754D01*
X352200Y361562D01*
Y362438D01*
X351865Y363246D01*
X351246Y363865D01*
X350438Y364200D01*
D02*
G37*
G36*
X83975Y365109D02*
X83025D01*
X82107Y364863D01*
X81284Y364388D01*
X80612Y363716D01*
X80137Y362893D01*
X79891Y361975D01*
Y361025D01*
X80137Y360107D01*
X80612Y359284D01*
X81284Y358612D01*
X82107Y358137D01*
X83025Y357891D01*
X83975D01*
X84893Y358137D01*
X85716Y358612D01*
X86388Y359284D01*
X86863Y360107D01*
X87110Y361025D01*
Y361975D01*
X86863Y362893D01*
X86388Y363716D01*
X85716Y364388D01*
X84893Y364863D01*
X83975Y365109D01*
D02*
G37*
G36*
X67975D02*
X67025D01*
X66107Y364863D01*
X65284Y364388D01*
X64612Y363716D01*
X64136Y362893D01*
X63890Y361975D01*
Y361025D01*
X64136Y360107D01*
X64612Y359284D01*
X65284Y358612D01*
X66107Y358137D01*
X67025Y357891D01*
X67975D01*
X68893Y358137D01*
X69716Y358612D01*
X70388Y359284D01*
X70863Y360107D01*
X71109Y361025D01*
Y361975D01*
X70863Y362893D01*
X70388Y363716D01*
X69716Y364388D01*
X68893Y364863D01*
X67975Y365109D01*
D02*
G37*
G36*
X59975D02*
X59025D01*
X58107Y364863D01*
X57284Y364388D01*
X56612Y363716D01*
X56137Y362893D01*
X55891Y361975D01*
Y361025D01*
X56137Y360107D01*
X56612Y359284D01*
X57284Y358612D01*
X58107Y358137D01*
X59025Y357891D01*
X59975D01*
X60893Y358137D01*
X61716Y358612D01*
X62388Y359284D01*
X62863Y360107D01*
X63109Y361025D01*
Y361975D01*
X62863Y362893D01*
X62388Y363716D01*
X61716Y364388D01*
X60893Y364863D01*
X59975Y365109D01*
D02*
G37*
G36*
X208972Y361161D02*
X202847D01*
Y355036D01*
X208972D01*
Y361161D01*
D02*
G37*
G36*
X194502D02*
X193695D01*
X192917Y360952D01*
X192218Y360549D01*
X191648Y359979D01*
X191245Y359280D01*
X191036Y358502D01*
Y357695D01*
X191245Y356916D01*
X191648Y356218D01*
X192218Y355648D01*
X192917Y355245D01*
X193695Y355036D01*
X194502D01*
X195281Y355245D01*
X195979Y355648D01*
X196549Y356218D01*
X196952Y356916D01*
X197161Y357695D01*
Y358502D01*
X196952Y359280D01*
X196549Y359979D01*
X195979Y360549D01*
X195281Y360952D01*
X194502Y361161D01*
D02*
G37*
G36*
X228938Y357200D02*
X228062D01*
X227254Y356865D01*
X226635Y356246D01*
X226300Y355438D01*
Y354562D01*
X226635Y353754D01*
X227254Y353135D01*
X228062Y352800D01*
X228938D01*
X229746Y353135D01*
X230365Y353754D01*
X230700Y354562D01*
Y355438D01*
X230365Y356246D01*
X229746Y356865D01*
X228938Y357200D01*
D02*
G37*
G36*
X143938Y360700D02*
X143062D01*
X142254Y360365D01*
X141635Y359746D01*
X141300Y358938D01*
Y358062D01*
X141635Y357254D01*
X142254Y356635D01*
X142280Y356624D01*
Y356083D01*
X141754Y355865D01*
X141135Y355246D01*
X140800Y354438D01*
Y353562D01*
X141135Y352754D01*
X141754Y352135D01*
X142562Y351800D01*
X143438D01*
X144246Y352135D01*
X144865Y352754D01*
X145200Y353562D01*
Y354438D01*
X144865Y355246D01*
X144246Y355865D01*
X144220Y355876D01*
Y356417D01*
X144746Y356635D01*
X145365Y357254D01*
X145700Y358062D01*
Y358938D01*
X145365Y359746D01*
X144746Y360365D01*
X143938Y360700D01*
D02*
G37*
G36*
X129438Y356200D02*
X128562D01*
X127754Y355865D01*
X127135Y355246D01*
X126800Y354438D01*
Y353562D01*
X127135Y352754D01*
X127754Y352135D01*
X128562Y351800D01*
X129438D01*
X130246Y352135D01*
X130865Y352754D01*
X131200Y353562D01*
Y354438D01*
X130865Y355246D01*
X130246Y355865D01*
X129438Y356200D01*
D02*
G37*
G36*
X105938Y351700D02*
X105062D01*
X104254Y351365D01*
X103635Y350746D01*
X103300Y349938D01*
Y349062D01*
X103635Y348254D01*
X104254Y347635D01*
X105062Y347300D01*
X105938D01*
X106746Y347635D01*
X107365Y348254D01*
X107700Y349062D01*
Y349938D01*
X107365Y350746D01*
X106746Y351365D01*
X105938Y351700D01*
D02*
G37*
G36*
X390200Y351700D02*
X381800D01*
Y344300D01*
X390200D01*
Y351700D01*
D02*
G37*
G36*
X251489Y351712D02*
X250511D01*
X249567Y351459D01*
X248721Y350970D01*
X248030Y350279D01*
X247541Y349433D01*
X247288Y348489D01*
Y347511D01*
X247541Y346567D01*
X248030Y345721D01*
X248721Y345030D01*
X249567Y344541D01*
X250511Y344288D01*
X251489D01*
X252433Y344541D01*
X253279Y345030D01*
X253970Y345721D01*
X254459Y346567D01*
X254712Y347511D01*
Y348489D01*
X254459Y349433D01*
X253970Y350279D01*
X253279Y350970D01*
X252433Y351459D01*
X251489Y351712D01*
D02*
G37*
G36*
X234200Y351539D02*
X225800D01*
Y344139D01*
X234200D01*
Y351539D01*
D02*
G37*
G36*
X109938Y348200D02*
X109062D01*
X108254Y347865D01*
X107635Y347246D01*
X107300Y346438D01*
Y345562D01*
X107635Y344754D01*
X108254Y344135D01*
X109062Y343800D01*
X109938D01*
X110746Y344135D01*
X111365Y344754D01*
X111700Y345562D01*
Y346438D01*
X111365Y347246D01*
X110746Y347865D01*
X109938Y348200D01*
D02*
G37*
G36*
X97938D02*
X97062D01*
X96254Y347865D01*
X95635Y347246D01*
X95300Y346438D01*
Y345562D01*
X95635Y344754D01*
X96254Y344135D01*
X97062Y343800D01*
X97938D01*
X98746Y344135D01*
X99365Y344754D01*
X99700Y345562D01*
Y346438D01*
X99365Y347246D01*
X98746Y347865D01*
X97938Y348200D01*
D02*
G37*
G36*
X11000Y351232D02*
X9000D01*
X8034Y351105D01*
X7134Y350732D01*
X6361Y350139D01*
X5768Y349366D01*
X5395Y348466D01*
X5268Y347500D01*
X5395Y346534D01*
X5768Y345634D01*
X6361Y344861D01*
X7134Y344268D01*
X8034Y343895D01*
X9000Y343768D01*
X11000D01*
X11966Y343895D01*
X12866Y344268D01*
X13639Y344861D01*
X14232Y345634D01*
X14605Y346534D01*
X14732Y347500D01*
X14605Y348466D01*
X14232Y349366D01*
X13639Y350139D01*
X12866Y350732D01*
X11966Y351105D01*
X11000Y351232D01*
D02*
G37*
G36*
X351489Y341712D02*
X350511D01*
X349567Y341459D01*
X348721Y340970D01*
X348030Y340279D01*
X347541Y339433D01*
X347288Y338489D01*
Y337511D01*
X347541Y336567D01*
X348030Y335721D01*
X348721Y335030D01*
X349567Y334541D01*
X350511Y334288D01*
X351489D01*
X352433Y334541D01*
X353279Y335030D01*
X353970Y335721D01*
X354459Y336567D01*
X354712Y337511D01*
Y338489D01*
X354459Y339433D01*
X353970Y340279D01*
X353279Y340970D01*
X352433Y341459D01*
X351489Y341712D01*
D02*
G37*
G36*
X251489D02*
X250511D01*
X249567Y341459D01*
X248721Y340970D01*
X248030Y340279D01*
X247541Y339433D01*
X247288Y338489D01*
Y337511D01*
X247541Y336567D01*
X248030Y335721D01*
X248721Y335030D01*
X249567Y334541D01*
X250511Y334288D01*
X251489D01*
X252433Y334541D01*
X253279Y335030D01*
X253970Y335721D01*
X254459Y336567D01*
X254712Y337511D01*
Y338489D01*
X254459Y339433D01*
X253970Y340279D01*
X253279Y340970D01*
X252433Y341459D01*
X251489Y341712D01*
D02*
G37*
G36*
X372900Y341571D02*
X370900D01*
X369934Y341444D01*
X369034Y341071D01*
X368261Y340478D01*
X367668Y339705D01*
X367295Y338805D01*
X367168Y337839D01*
X367295Y336874D01*
X367668Y335974D01*
X368261Y335201D01*
X369034Y334608D01*
X369934Y334235D01*
X370900Y334107D01*
X372900D01*
X373866Y334235D01*
X374766Y334608D01*
X375539Y335201D01*
X376132Y335974D01*
X376505Y336874D01*
X376632Y337839D01*
X376505Y338805D01*
X376132Y339705D01*
X375539Y340478D01*
X374766Y341071D01*
X373866Y341444D01*
X372900Y341571D01*
D02*
G37*
G36*
X231000D02*
X229000D01*
X228034Y341444D01*
X227134Y341071D01*
X226361Y340478D01*
X225768Y339705D01*
X225395Y338805D01*
X225268Y337839D01*
X225395Y336874D01*
X225768Y335974D01*
X226361Y335201D01*
X227134Y334608D01*
X228034Y334235D01*
X229000Y334107D01*
X231000D01*
X231966Y334235D01*
X232866Y334608D01*
X233639Y335201D01*
X234232Y335974D01*
X234605Y336874D01*
X234732Y337839D01*
X234605Y338805D01*
X234232Y339705D01*
X233639Y340478D01*
X232866Y341071D01*
X231966Y341444D01*
X231000Y341571D01*
D02*
G37*
G36*
X341681Y334500D02*
X340806D01*
X339997Y334165D01*
X339378Y333546D01*
X339043Y332738D01*
Y331862D01*
X339378Y331054D01*
X339997Y330435D01*
X340649Y330165D01*
X340683Y329638D01*
X340254Y329460D01*
X339635Y328841D01*
X339300Y328033D01*
Y327158D01*
X339635Y326349D01*
X340254Y325730D01*
X341062Y325395D01*
X341938D01*
X342746Y325730D01*
X343365Y326349D01*
X343700Y327158D01*
Y328033D01*
X343365Y328841D01*
X342746Y329460D01*
X342095Y329730D01*
X342061Y330257D01*
X342490Y330435D01*
X343108Y331054D01*
X343443Y331862D01*
Y332738D01*
X343108Y333546D01*
X342490Y334165D01*
X341681Y334500D01*
D02*
G37*
G36*
X351489Y331712D02*
X350511D01*
X349567Y331459D01*
X348721Y330970D01*
X348030Y330279D01*
X347541Y329433D01*
X347288Y328489D01*
Y327511D01*
X347541Y326567D01*
X348030Y325721D01*
X348721Y325030D01*
X349567Y324541D01*
X350511Y324288D01*
X351489D01*
X352433Y324541D01*
X353279Y325030D01*
X353970Y325721D01*
X354459Y326567D01*
X354712Y327511D01*
Y328489D01*
X354459Y329433D01*
X353970Y330279D01*
X353279Y330970D01*
X352433Y331459D01*
X351489Y331712D01*
D02*
G37*
G36*
X251489D02*
X250511D01*
X249567Y331459D01*
X248721Y330970D01*
X248030Y330279D01*
X247541Y329433D01*
X247288Y328489D01*
Y327511D01*
X247541Y326567D01*
X248030Y325721D01*
X248721Y325030D01*
X249567Y324541D01*
X250511Y324288D01*
X251489D01*
X252433Y324541D01*
X253279Y325030D01*
X253970Y325721D01*
X254459Y326567D01*
X254712Y327511D01*
Y328489D01*
X254459Y329433D01*
X253970Y330279D01*
X253279Y330970D01*
X252433Y331459D01*
X251489Y331712D01*
D02*
G37*
G36*
X372900Y331571D02*
X370900D01*
X369934Y331444D01*
X369034Y331071D01*
X368261Y330478D01*
X367668Y329705D01*
X367295Y328805D01*
X367168Y327839D01*
X367295Y326873D01*
X367668Y325974D01*
X368261Y325201D01*
X369034Y324607D01*
X369934Y324235D01*
X370900Y324108D01*
X372900D01*
X373866Y324235D01*
X374766Y324607D01*
X375539Y325201D01*
X376132Y325974D01*
X376505Y326873D01*
X376632Y327839D01*
X376505Y328805D01*
X376132Y329705D01*
X375539Y330478D01*
X374766Y331071D01*
X373866Y331444D01*
X372900Y331571D01*
D02*
G37*
G36*
X231000D02*
X229000D01*
X228034Y331444D01*
X227134Y331071D01*
X226361Y330478D01*
X225768Y329705D01*
X225395Y328805D01*
X225268Y327839D01*
X225395Y326873D01*
X225768Y325974D01*
X226361Y325201D01*
X227134Y324607D01*
X228034Y324235D01*
X229000Y324108D01*
X231000D01*
X231966Y324235D01*
X232866Y324607D01*
X233639Y325201D01*
X234232Y325974D01*
X234605Y326873D01*
X234732Y327839D01*
X234605Y328805D01*
X234232Y329705D01*
X233639Y330478D01*
X232866Y331071D01*
X231966Y331444D01*
X231000Y331571D01*
D02*
G37*
G36*
X156216Y334300D02*
X154847D01*
X153524Y333946D01*
X152339Y333261D01*
X151371Y332293D01*
X150686Y331107D01*
X150331Y329785D01*
Y328415D01*
X150686Y327093D01*
X151371Y325907D01*
X152339Y324939D01*
X153524Y324254D01*
X154847Y323900D01*
X156216D01*
X157539Y324254D01*
X158724Y324939D01*
X159693Y325907D01*
X160377Y327093D01*
X160731Y328415D01*
Y329785D01*
X160377Y331107D01*
X159693Y332293D01*
X158724Y333261D01*
X157539Y333946D01*
X156216Y334300D01*
D02*
G37*
G36*
X68185D02*
X66815D01*
X65493Y333946D01*
X64307Y333261D01*
X63339Y332293D01*
X62654Y331107D01*
X62300Y329785D01*
Y328415D01*
X62654Y327093D01*
X63339Y325907D01*
X64307Y324939D01*
X65493Y324254D01*
X66815Y323900D01*
X68185D01*
X69507Y324254D01*
X70693Y324939D01*
X71661Y325907D01*
X72346Y327093D01*
X72700Y328415D01*
Y329785D01*
X72346Y331107D01*
X71661Y332293D01*
X70693Y333261D01*
X69507Y333946D01*
X68185Y334300D01*
D02*
G37*
G36*
X204716Y334032D02*
X203347D01*
X202024Y333677D01*
X200839Y332993D01*
X199871Y332024D01*
X199186Y330839D01*
X198831Y329516D01*
Y328147D01*
X199186Y326824D01*
X199871Y325639D01*
X200839Y324671D01*
X202024Y323986D01*
X203347Y323632D01*
X204716D01*
X206039Y323986D01*
X207224Y324671D01*
X208192Y325639D01*
X208877Y326824D01*
X209231Y328147D01*
Y329516D01*
X208877Y330839D01*
X208192Y332024D01*
X207224Y332993D01*
X206039Y333677D01*
X204716Y334032D01*
D02*
G37*
G36*
X116685D02*
X115315D01*
X113993Y333677D01*
X112807Y332993D01*
X111839Y332024D01*
X111154Y330839D01*
X110800Y329516D01*
Y328147D01*
X111154Y326824D01*
X111839Y325639D01*
X112807Y324671D01*
X113993Y323986D01*
X115315Y323632D01*
X116685D01*
X118007Y323986D01*
X119193Y324671D01*
X120161Y325639D01*
X120846Y326824D01*
X121200Y328147D01*
Y329516D01*
X120846Y330839D01*
X120161Y332024D01*
X119193Y332993D01*
X118007Y333677D01*
X116685Y334032D01*
D02*
G37*
G36*
X351489Y321712D02*
X350511D01*
X349567Y321459D01*
X348721Y320970D01*
X348030Y320279D01*
X347541Y319433D01*
X347288Y318489D01*
Y317511D01*
X347541Y316567D01*
X348030Y315721D01*
X348721Y315030D01*
X349567Y314541D01*
X350511Y314288D01*
X351489D01*
X352433Y314541D01*
X353279Y315030D01*
X353970Y315721D01*
X354459Y316567D01*
X354712Y317511D01*
Y318489D01*
X354459Y319433D01*
X353970Y320279D01*
X353279Y320970D01*
X352433Y321459D01*
X351489Y321712D01*
D02*
G37*
G36*
X251489D02*
X250511D01*
X249567Y321459D01*
X248721Y320970D01*
X248030Y320279D01*
X247541Y319433D01*
X247288Y318489D01*
Y317511D01*
X247541Y316567D01*
X248030Y315721D01*
X248721Y315030D01*
X249567Y314541D01*
X250511Y314288D01*
X251489D01*
X252433Y314541D01*
X253279Y315030D01*
X253970Y315721D01*
X254459Y316567D01*
X254712Y317511D01*
Y318489D01*
X254459Y319433D01*
X253970Y320279D01*
X253279Y320970D01*
X252433Y321459D01*
X251489Y321712D01*
D02*
G37*
G36*
X372900Y321571D02*
X370900D01*
X369934Y321444D01*
X369034Y321071D01*
X368261Y320478D01*
X367668Y319705D01*
X367295Y318805D01*
X367168Y317839D01*
X367295Y316874D01*
X367668Y315973D01*
X368261Y315200D01*
X369034Y314608D01*
X369934Y314235D01*
X370900Y314107D01*
X372900D01*
X373866Y314235D01*
X374766Y314608D01*
X375539Y315200D01*
X376132Y315973D01*
X376505Y316874D01*
X376632Y317839D01*
X376505Y318805D01*
X376132Y319705D01*
X375539Y320478D01*
X374766Y321071D01*
X373866Y321444D01*
X372900Y321571D01*
D02*
G37*
G36*
X231000D02*
X229000D01*
X228034Y321444D01*
X227134Y321071D01*
X226361Y320478D01*
X225768Y319705D01*
X225395Y318805D01*
X225268Y317839D01*
X225395Y316874D01*
X225768Y315973D01*
X226361Y315200D01*
X227134Y314608D01*
X228034Y314235D01*
X229000Y314107D01*
X231000D01*
X231966Y314235D01*
X232866Y314608D01*
X233639Y315200D01*
X234232Y315973D01*
X234605Y316874D01*
X234732Y317839D01*
X234605Y318805D01*
X234232Y319705D01*
X233639Y320478D01*
X232866Y321071D01*
X231966Y321444D01*
X231000Y321571D01*
D02*
G37*
G36*
X11000Y321232D02*
X9000D01*
X8034Y321105D01*
X7134Y320732D01*
X6361Y320139D01*
X5768Y319366D01*
X5395Y318466D01*
X5268Y317500D01*
X5395Y316534D01*
X5768Y315634D01*
X6361Y314861D01*
X7134Y314268D01*
X8034Y313895D01*
X9000Y313768D01*
X11000D01*
X11966Y313895D01*
X12866Y314268D01*
X13639Y314861D01*
X14232Y315634D01*
X14605Y316534D01*
X14732Y317500D01*
X14605Y318466D01*
X14232Y319366D01*
X13639Y320139D01*
X12866Y320732D01*
X11966Y321105D01*
X11000Y321232D01*
D02*
G37*
G36*
X296438Y316200D02*
X295562D01*
X294754Y315865D01*
X294135Y315246D01*
X293800Y314438D01*
Y313562D01*
X294135Y312754D01*
X294754Y312135D01*
X295562Y311800D01*
X296438D01*
X296946Y312011D01*
X297328Y311628D01*
X297214Y311352D01*
Y310476D01*
X297549Y309668D01*
X298168Y309049D01*
X298976Y308714D01*
X299852D01*
X300660Y309049D01*
X301279Y309668D01*
X301614Y310476D01*
Y311352D01*
X301279Y312160D01*
X300660Y312779D01*
X299852Y313114D01*
X298976D01*
X298468Y312904D01*
X298086Y313286D01*
X298200Y313562D01*
Y314438D01*
X297865Y315246D01*
X297246Y315865D01*
X296438Y316200D01*
D02*
G37*
G36*
X274438Y311524D02*
X273563D01*
X272754Y311189D01*
X272135Y310570D01*
X271800Y309761D01*
Y308886D01*
X272135Y308077D01*
X272754Y307458D01*
X273563Y307123D01*
X274438D01*
X275246Y307458D01*
X275865Y308077D01*
X276200Y308886D01*
Y309761D01*
X275865Y310570D01*
X275246Y311189D01*
X274438Y311524D01*
D02*
G37*
G36*
X222888Y310250D02*
X222012D01*
X221204Y309915D01*
X220585Y309296D01*
X220250Y308488D01*
Y307612D01*
X220585Y306804D01*
X221204Y306185D01*
X222012Y305850D01*
X222888D01*
X223696Y306185D01*
X224315Y306804D01*
X224650Y307612D01*
Y308488D01*
X224315Y309296D01*
X223696Y309915D01*
X222888Y310250D01*
D02*
G37*
G36*
X351489Y311712D02*
X350511D01*
X349567Y311459D01*
X348721Y310970D01*
X348030Y310279D01*
X347541Y309433D01*
X347288Y308489D01*
Y307511D01*
X347541Y306567D01*
X348030Y305721D01*
X348721Y305030D01*
X349567Y304541D01*
X350511Y304288D01*
X351489D01*
X352433Y304541D01*
X353279Y305030D01*
X353970Y305721D01*
X354459Y306567D01*
X354712Y307511D01*
Y308489D01*
X354459Y309433D01*
X353970Y310279D01*
X353279Y310970D01*
X352433Y311459D01*
X351489Y311712D01*
D02*
G37*
G36*
X251489D02*
X250511D01*
X249567Y311459D01*
X248721Y310970D01*
X248030Y310279D01*
X247541Y309433D01*
X247288Y308489D01*
Y307511D01*
X247541Y306567D01*
X248030Y305721D01*
X248721Y305030D01*
X249567Y304541D01*
X250511Y304288D01*
X251489D01*
X252433Y304541D01*
X253279Y305030D01*
X253970Y305721D01*
X254459Y306567D01*
X254712Y307511D01*
Y308489D01*
X254459Y309433D01*
X253970Y310279D01*
X253279Y310970D01*
X252433Y311459D01*
X251489Y311712D01*
D02*
G37*
G36*
X372900Y311571D02*
X370900D01*
X369934Y311444D01*
X369034Y311071D01*
X368261Y310478D01*
X367668Y309705D01*
X367295Y308805D01*
X367168Y307839D01*
X367295Y306873D01*
X367668Y305974D01*
X368261Y305201D01*
X369034Y304608D01*
X369934Y304235D01*
X370900Y304107D01*
X372900D01*
X373866Y304235D01*
X374766Y304608D01*
X375539Y305201D01*
X376132Y305974D01*
X376505Y306873D01*
X376632Y307839D01*
X376505Y308805D01*
X376132Y309705D01*
X375539Y310478D01*
X374766Y311071D01*
X373866Y311444D01*
X372900Y311571D01*
D02*
G37*
G36*
X231000D02*
X229000D01*
X228034Y311444D01*
X227134Y311071D01*
X226361Y310478D01*
X225768Y309705D01*
X225395Y308805D01*
X225268Y307839D01*
X225395Y306873D01*
X225768Y305974D01*
X226361Y305201D01*
X227134Y304608D01*
X228034Y304235D01*
X229000Y304107D01*
X231000D01*
X231966Y304235D01*
X232866Y304608D01*
X233639Y305201D01*
X234232Y305974D01*
X234605Y306873D01*
X234732Y307839D01*
X234605Y308805D01*
X234232Y309705D01*
X233639Y310478D01*
X232866Y311071D01*
X231966Y311444D01*
X231000Y311571D01*
D02*
G37*
G36*
X323938Y308451D02*
X323062D01*
X322254Y308116D01*
X321635Y307497D01*
X321300Y306688D01*
Y305813D01*
X321635Y305004D01*
X322254Y304385D01*
X323062Y304050D01*
X323938D01*
X324746Y304385D01*
X325365Y305004D01*
X325700Y305813D01*
Y306688D01*
X325365Y307497D01*
X324746Y308116D01*
X323938Y308451D01*
D02*
G37*
G36*
X296938Y305700D02*
X296062D01*
X295254Y305365D01*
X294635Y304746D01*
X294300Y303938D01*
Y303062D01*
X294635Y302254D01*
X295254Y301635D01*
X296062Y301300D01*
X296938D01*
X297746Y301635D01*
X298365Y302254D01*
X298700Y303062D01*
Y303938D01*
X298365Y304746D01*
X297746Y305365D01*
X296938Y305700D01*
D02*
G37*
G36*
X212740Y310366D02*
X211371D01*
X210048Y310011D01*
X208863Y309327D01*
X207894Y308359D01*
X207210Y307173D01*
X206856Y305850D01*
Y304481D01*
X207210Y303159D01*
X207894Y301973D01*
X208863Y301005D01*
X210048Y300320D01*
X211371Y299966D01*
X212740D01*
X214063Y300320D01*
X215248Y301005D01*
X216217Y301973D01*
X216901Y303159D01*
X217255Y304481D01*
Y305850D01*
X216901Y307173D01*
X216217Y308359D01*
X215248Y309327D01*
X214063Y310011D01*
X212740Y310366D01*
D02*
G37*
G36*
X124709D02*
X123339D01*
X122017Y310011D01*
X120831Y309327D01*
X119863Y308359D01*
X119178Y307173D01*
X118824Y305850D01*
Y304481D01*
X119178Y303159D01*
X119863Y301973D01*
X120831Y301005D01*
X122017Y300320D01*
X123339Y299966D01*
X124709D01*
X126031Y300320D01*
X127217Y301005D01*
X128185Y301973D01*
X128870Y303159D01*
X129224Y304481D01*
Y305850D01*
X128870Y307173D01*
X128185Y308359D01*
X127217Y309327D01*
X126031Y310011D01*
X124709Y310366D01*
D02*
G37*
G36*
X251489Y301712D02*
X250511D01*
X249567Y301459D01*
X248721Y300970D01*
X248030Y300279D01*
X247541Y299433D01*
X247288Y298489D01*
Y297511D01*
X247541Y296567D01*
X248030Y295721D01*
X248414Y295337D01*
X248131Y294913D01*
X247438Y295200D01*
X246562D01*
X245754Y294865D01*
X245135Y294246D01*
X244800Y293438D01*
Y292562D01*
X245135Y291754D01*
X245754Y291135D01*
X246562Y290800D01*
X247438D01*
X248130Y291087D01*
X248414Y290663D01*
X248030Y290279D01*
X247541Y289433D01*
X247288Y288489D01*
Y287511D01*
X247541Y286567D01*
X248030Y285721D01*
X248721Y285030D01*
X249567Y284541D01*
X250511Y284288D01*
X251489D01*
X252433Y284541D01*
X253279Y285030D01*
X253970Y285721D01*
X254459Y286567D01*
X254712Y287511D01*
Y288489D01*
X254459Y289433D01*
X253970Y290279D01*
X253279Y290970D01*
X252433Y291459D01*
X251489Y291712D01*
X250511D01*
X249567Y291459D01*
X248881Y291063D01*
X248574Y291463D01*
X248865Y291754D01*
X249200Y292562D01*
Y293438D01*
X248865Y294246D01*
X248574Y294537D01*
X248881Y294937D01*
X249567Y294541D01*
X250511Y294288D01*
X251489D01*
X252433Y294541D01*
X253279Y295030D01*
X253970Y295721D01*
X254459Y296567D01*
X254712Y297511D01*
Y298489D01*
X254459Y299433D01*
X253970Y300279D01*
X253279Y300970D01*
X252433Y301459D01*
X251489Y301712D01*
D02*
G37*
G36*
X351489D02*
X350511D01*
X349567Y301459D01*
X348721Y300970D01*
X348030Y300279D01*
X347541Y299433D01*
X347288Y298489D01*
Y297511D01*
X347541Y296567D01*
X348030Y295721D01*
X348721Y295030D01*
X349567Y294541D01*
X350511Y294288D01*
X351489D01*
X352433Y294541D01*
X353279Y295030D01*
X353970Y295721D01*
X354459Y296567D01*
X354712Y297511D01*
Y298489D01*
X354459Y299433D01*
X353970Y300279D01*
X353279Y300970D01*
X352433Y301459D01*
X351489Y301712D01*
D02*
G37*
G36*
X376100Y301539D02*
X367700D01*
Y294139D01*
X376100D01*
Y301539D01*
D02*
G37*
G36*
X234200D02*
X225800D01*
Y294139D01*
X234200D01*
Y301539D01*
D02*
G37*
G36*
X209438Y296200D02*
X208562D01*
X207754Y295865D01*
X207135Y295246D01*
X206800Y294438D01*
Y293562D01*
X207135Y292754D01*
X207754Y292135D01*
X208562Y291800D01*
X209438D01*
X210246Y292135D01*
X210865Y292754D01*
X211200Y293562D01*
Y294438D01*
X210865Y295246D01*
X210246Y295865D01*
X209438Y296200D01*
D02*
G37*
G36*
X120938D02*
X120062D01*
X119254Y295865D01*
X118635Y295246D01*
X118300Y294438D01*
Y293562D01*
X118635Y292754D01*
X119254Y292135D01*
X120062Y291800D01*
X120938D01*
X121746Y292135D01*
X122365Y292754D01*
X122700Y293562D01*
Y294438D01*
X122365Y295246D01*
X121746Y295865D01*
X120938Y296200D01*
D02*
G37*
G36*
X219938Y295200D02*
X219062D01*
X218254Y294865D01*
X217635Y294246D01*
X217300Y293438D01*
Y292562D01*
X217635Y291754D01*
X218254Y291135D01*
X219062Y290800D01*
X219938D01*
X220746Y291135D01*
X221365Y291754D01*
X221700Y292562D01*
Y293438D01*
X221365Y294246D01*
X220746Y294865D01*
X219938Y295200D01*
D02*
G37*
G36*
X324938Y291700D02*
X324062D01*
X323254Y291365D01*
X322635Y290746D01*
X322300Y289938D01*
Y289062D01*
X322635Y288254D01*
X323254Y287635D01*
X324062Y287300D01*
X324938D01*
X325746Y287635D01*
X326365Y288254D01*
X326700Y289062D01*
Y289938D01*
X326365Y290746D01*
X325746Y291365D01*
X324938Y291700D01*
D02*
G37*
G36*
X231000Y291571D02*
X229000D01*
X228034Y291444D01*
X227134Y291071D01*
X226361Y290478D01*
X225768Y289705D01*
X225395Y288805D01*
X225268Y287839D01*
X225395Y286874D01*
X225768Y285974D01*
X225996Y285676D01*
X225731Y285200D01*
X225062D01*
X224254Y284865D01*
X223635Y284246D01*
X223300Y283438D01*
Y282562D01*
X223635Y281754D01*
X224254Y281135D01*
X225062Y280800D01*
X225938D01*
X226298Y280449D01*
X226311Y280414D01*
X225768Y279705D01*
X225395Y278805D01*
X225268Y277839D01*
X225395Y276873D01*
X225768Y275974D01*
X226361Y275201D01*
X227134Y274607D01*
X228034Y274235D01*
X229000Y274108D01*
X231000D01*
X231966Y274235D01*
X232866Y274607D01*
X233639Y275201D01*
X234232Y275974D01*
X234605Y276873D01*
X234732Y277839D01*
X234605Y278805D01*
X234232Y279705D01*
X233639Y280478D01*
X232866Y281071D01*
X231966Y281444D01*
X231000Y281571D01*
X229000D01*
X228034Y281444D01*
X227571Y281252D01*
X227287Y281676D01*
X227365Y281754D01*
X227700Y282562D01*
Y283438D01*
X227503Y283913D01*
X227886Y284296D01*
X228034Y284235D01*
X229000Y284107D01*
X231000D01*
X231966Y284235D01*
X232866Y284608D01*
X233639Y285201D01*
X234232Y285974D01*
X234605Y286874D01*
X234732Y287839D01*
X234605Y288805D01*
X234232Y289705D01*
X233639Y290478D01*
X232866Y291071D01*
X231966Y291444D01*
X231000Y291571D01*
D02*
G37*
G36*
X11000Y291232D02*
X9000D01*
X8034Y291105D01*
X7134Y290732D01*
X6361Y290139D01*
X5768Y289366D01*
X5395Y288466D01*
X5268Y287500D01*
X5395Y286534D01*
X5768Y285634D01*
X6361Y284861D01*
X7134Y284268D01*
X8034Y283895D01*
X9000Y283768D01*
X11000D01*
X11966Y283895D01*
X12866Y284268D01*
X13639Y284861D01*
X14232Y285634D01*
X14605Y286534D01*
X14732Y287500D01*
X14605Y288466D01*
X14232Y289366D01*
X13639Y290139D01*
X12866Y290732D01*
X11966Y291105D01*
X11000Y291232D01*
D02*
G37*
G36*
X245438Y284700D02*
X244562D01*
X243754Y284365D01*
X243135Y283746D01*
X242800Y282938D01*
Y282062D01*
X243135Y281254D01*
X243754Y280635D01*
X244562Y280300D01*
X245438D01*
X246246Y280635D01*
X246865Y281254D01*
X247200Y282062D01*
Y282938D01*
X246865Y283746D01*
X246246Y284365D01*
X245438Y284700D01*
D02*
G37*
G36*
X386438Y281200D02*
X385562D01*
X384754Y280865D01*
X384135Y280246D01*
X383800Y279438D01*
Y278562D01*
X384135Y277754D01*
X384754Y277135D01*
X385562Y276800D01*
X386438D01*
X387246Y277135D01*
X387865Y277754D01*
X388200Y278562D01*
Y279438D01*
X387865Y280246D01*
X387246Y280865D01*
X386438Y281200D01*
D02*
G37*
G36*
X204716Y286700D02*
X203347D01*
X202024Y286346D01*
X200839Y285661D01*
X199871Y284693D01*
X199186Y283507D01*
X198831Y282185D01*
Y280815D01*
X199186Y279493D01*
X199871Y278307D01*
X200839Y277339D01*
X202024Y276654D01*
X203347Y276300D01*
X204716D01*
X206039Y276654D01*
X207224Y277339D01*
X208192Y278307D01*
X208877Y279493D01*
X209231Y280815D01*
Y282185D01*
X208877Y283507D01*
X208192Y284693D01*
X207224Y285661D01*
X206039Y286346D01*
X204716Y286700D01*
D02*
G37*
G36*
X156685D02*
X155315D01*
X153993Y286346D01*
X152807Y285661D01*
X151839Y284693D01*
X151154Y283507D01*
X150800Y282185D01*
Y280815D01*
X151154Y279493D01*
X151839Y278307D01*
X152807Y277339D01*
X153993Y276654D01*
X155315Y276300D01*
X156685D01*
X158007Y276654D01*
X159193Y277339D01*
X160161Y278307D01*
X160846Y279493D01*
X161200Y280815D01*
Y282185D01*
X160846Y283507D01*
X160161Y284693D01*
X159193Y285661D01*
X158007Y286346D01*
X156685Y286700D01*
D02*
G37*
G36*
X116685D02*
X115315D01*
X113993Y286346D01*
X112807Y285661D01*
X111839Y284693D01*
X111154Y283507D01*
X110800Y282185D01*
Y280815D01*
X111154Y279493D01*
X111839Y278307D01*
X112807Y277339D01*
X113993Y276654D01*
X115315Y276300D01*
X116685D01*
X118007Y276654D01*
X119193Y277339D01*
X120161Y278307D01*
X120846Y279493D01*
X121200Y280815D01*
Y282185D01*
X120846Y283507D01*
X120161Y284693D01*
X119193Y285661D01*
X118007Y286346D01*
X116685Y286700D01*
D02*
G37*
G36*
X68653D02*
X67284D01*
X65961Y286346D01*
X64776Y285661D01*
X63807Y284693D01*
X63123Y283507D01*
X62769Y282185D01*
Y280815D01*
X63123Y279493D01*
X63807Y278307D01*
X64776Y277339D01*
X65961Y276654D01*
X67284Y276300D01*
X68653D01*
X69976Y276654D01*
X71161Y277339D01*
X72129Y278307D01*
X72814Y279493D01*
X73168Y280815D01*
Y282185D01*
X72814Y283507D01*
X72129Y284693D01*
X71161Y285661D01*
X69976Y286346D01*
X68653Y286700D01*
D02*
G37*
G36*
X268938Y279700D02*
X268062D01*
X267254Y279365D01*
X266635Y278746D01*
X266300Y277938D01*
Y277062D01*
X266635Y276254D01*
X267254Y275635D01*
X268062Y275300D01*
X268938D01*
X269746Y275635D01*
X270365Y276254D01*
X270700Y277062D01*
Y277938D01*
X270365Y278746D01*
X269746Y279365D01*
X268938Y279700D01*
D02*
G37*
G36*
X275938Y279200D02*
X275062D01*
X274254Y278865D01*
X273635Y278246D01*
X273300Y277438D01*
Y276562D01*
X273635Y275754D01*
X274254Y275135D01*
X275062Y274800D01*
X275938D01*
X276746Y275135D01*
X277365Y275754D01*
X277700Y276562D01*
Y277438D01*
X277365Y278246D01*
X276746Y278865D01*
X275938Y279200D01*
D02*
G37*
G36*
X351489Y281712D02*
X350511D01*
X349567Y281459D01*
X348721Y280970D01*
X348030Y280279D01*
X347541Y279433D01*
X347288Y278489D01*
Y277511D01*
X347541Y276567D01*
X348030Y275721D01*
X348721Y275030D01*
X349567Y274541D01*
X350511Y274288D01*
X351489D01*
X352433Y274541D01*
X353279Y275030D01*
X353970Y275721D01*
X354459Y276567D01*
X354712Y277511D01*
Y278489D01*
X354459Y279433D01*
X353970Y280279D01*
X353279Y280970D01*
X352433Y281459D01*
X351489Y281712D01*
D02*
G37*
G36*
X251489D02*
X250511D01*
X249567Y281459D01*
X248721Y280970D01*
X248030Y280279D01*
X247541Y279433D01*
X247288Y278489D01*
Y277511D01*
X247541Y276567D01*
X248030Y275721D01*
X248721Y275030D01*
X249567Y274541D01*
X250511Y274288D01*
X251489D01*
X252433Y274541D01*
X253279Y275030D01*
X253970Y275721D01*
X254459Y276567D01*
X254712Y277511D01*
Y278489D01*
X254459Y279433D01*
X253970Y280279D01*
X253279Y280970D01*
X252433Y281459D01*
X251489Y281712D01*
D02*
G37*
G36*
X372900Y281571D02*
X370900D01*
X369934Y281444D01*
X369034Y281071D01*
X368261Y280478D01*
X367668Y279705D01*
X367295Y278805D01*
X367168Y277839D01*
X367295Y276873D01*
X367668Y275974D01*
X368261Y275201D01*
X369034Y274607D01*
X369934Y274235D01*
X370900Y274108D01*
X372900D01*
X373866Y274235D01*
X374766Y274607D01*
X375539Y275201D01*
X376132Y275974D01*
X376505Y276873D01*
X376632Y277839D01*
X376505Y278805D01*
X376132Y279705D01*
X375539Y280478D01*
X374766Y281071D01*
X373866Y281444D01*
X372900Y281571D01*
D02*
G37*
G36*
X237504Y274700D02*
X236628D01*
X235820Y274365D01*
X235201Y273746D01*
X234866Y272938D01*
Y272062D01*
X235201Y271254D01*
X235820Y270635D01*
X236628Y270300D01*
X237504D01*
X238312Y270635D01*
X238931Y271254D01*
X239266Y272062D01*
Y272938D01*
X238931Y273746D01*
X238312Y274365D01*
X237504Y274700D01*
D02*
G37*
G36*
X351489Y271712D02*
X350511D01*
X349567Y271459D01*
X348721Y270970D01*
X348030Y270279D01*
X347541Y269433D01*
X347288Y268489D01*
Y267511D01*
X347541Y266567D01*
X348030Y265721D01*
X348721Y265030D01*
X349567Y264541D01*
X350511Y264288D01*
X351489D01*
X352433Y264541D01*
X353279Y265030D01*
X353970Y265721D01*
X354459Y266567D01*
X354712Y267511D01*
Y268489D01*
X354459Y269433D01*
X353970Y270279D01*
X353279Y270970D01*
X352433Y271459D01*
X351489Y271712D01*
D02*
G37*
G36*
X251489D02*
X250511D01*
X249567Y271459D01*
X248721Y270970D01*
X248030Y270279D01*
X247541Y269433D01*
X247288Y268489D01*
Y267511D01*
X247541Y266567D01*
X248030Y265721D01*
X248721Y265030D01*
X249567Y264541D01*
X250511Y264288D01*
X251489D01*
X252433Y264541D01*
X253279Y265030D01*
X253970Y265721D01*
X254459Y266567D01*
X254712Y267511D01*
Y268489D01*
X254459Y269433D01*
X253970Y270279D01*
X253279Y270970D01*
X252433Y271459D01*
X251489Y271712D01*
D02*
G37*
G36*
X372900Y271571D02*
X370900D01*
X369934Y271444D01*
X369034Y271071D01*
X368261Y270478D01*
X367668Y269705D01*
X367295Y268805D01*
X367168Y267839D01*
X367295Y266874D01*
X367668Y265973D01*
X367878Y265700D01*
X367631Y265200D01*
X367562D01*
X366754Y264865D01*
X366135Y264246D01*
X365800Y263438D01*
Y262562D01*
X366135Y261754D01*
X366754Y261135D01*
X367562Y260800D01*
X367894D01*
X368124Y260300D01*
X367668Y259705D01*
X367295Y258805D01*
X367168Y257839D01*
X367295Y256873D01*
X367668Y255974D01*
X368261Y255201D01*
X369034Y254608D01*
X369934Y254235D01*
X370900Y254107D01*
X372900D01*
X373866Y254235D01*
X374766Y254608D01*
X375539Y255201D01*
X376132Y255974D01*
X376505Y256873D01*
X376514Y256946D01*
X377027Y257013D01*
X377135Y256754D01*
X377754Y256135D01*
X378562Y255800D01*
X379438D01*
X380246Y256135D01*
X380865Y256754D01*
X381200Y257562D01*
Y258438D01*
X380865Y259246D01*
X380246Y259865D01*
X379438Y260200D01*
X378562D01*
X377754Y259865D01*
X377135Y259246D01*
X376988Y258892D01*
X376822Y258862D01*
X376458Y258918D01*
X376132Y259705D01*
X375539Y260478D01*
X374766Y261071D01*
X373866Y261444D01*
X372900Y261571D01*
X370900D01*
X370254Y261486D01*
X370247Y261492D01*
X369946Y261950D01*
X370200Y262562D01*
Y263438D01*
X370087Y263710D01*
X370439Y264168D01*
X370900Y264107D01*
X372900D01*
X373866Y264235D01*
X374766Y264608D01*
X375539Y265200D01*
X376132Y265973D01*
X376505Y266874D01*
X376632Y267839D01*
X376505Y268805D01*
X376132Y269705D01*
X375539Y270478D01*
X374766Y271071D01*
X373866Y271444D01*
X372900Y271571D01*
D02*
G37*
G36*
X231000D02*
X229000D01*
X228034Y271444D01*
X227134Y271071D01*
X226361Y270478D01*
X225768Y269705D01*
X225395Y268805D01*
X225268Y267839D01*
X225395Y266874D01*
X225768Y265973D01*
X226361Y265200D01*
X227134Y264608D01*
X228034Y264235D01*
X229000Y264107D01*
X231000D01*
X231966Y264235D01*
X232866Y264608D01*
X233639Y265200D01*
X234232Y265973D01*
X234605Y266874D01*
X234732Y267839D01*
X234605Y268805D01*
X234232Y269705D01*
X233639Y270478D01*
X232866Y271071D01*
X231966Y271444D01*
X231000Y271571D01*
D02*
G37*
G36*
X325938Y263200D02*
X325062D01*
X324254Y262865D01*
X323635Y262246D01*
X323300Y261438D01*
Y260562D01*
X323635Y259754D01*
X324254Y259135D01*
X325062Y258800D01*
X325938D01*
X326746Y259135D01*
X327365Y259754D01*
X327700Y260562D01*
Y261438D01*
X327365Y262246D01*
X326746Y262865D01*
X325938Y263200D01*
D02*
G37*
G36*
X68185Y266968D02*
X66815D01*
X65493Y266614D01*
X64307Y265930D01*
X63339Y264961D01*
X62654Y263776D01*
X62300Y262453D01*
Y261084D01*
X62654Y259761D01*
X63339Y258576D01*
X64307Y257608D01*
X65493Y256923D01*
X66815Y256569D01*
X68185D01*
X69507Y256923D01*
X70693Y257608D01*
X71661Y258576D01*
X72346Y259761D01*
X72700Y261084D01*
Y262453D01*
X72346Y263776D01*
X71661Y264961D01*
X70693Y265930D01*
X69507Y266614D01*
X68185Y266968D01*
D02*
G37*
G36*
X156185Y266800D02*
X154815D01*
X153493Y266446D01*
X152307Y265761D01*
X151339Y264793D01*
X150654Y263607D01*
X150300Y262285D01*
Y260915D01*
X150654Y259593D01*
X151339Y258407D01*
X152307Y257439D01*
X153493Y256754D01*
X154815Y256400D01*
X156185D01*
X157507Y256754D01*
X158693Y257439D01*
X159661Y258407D01*
X160346Y259593D01*
X160700Y260915D01*
Y262285D01*
X160346Y263607D01*
X159661Y264793D01*
X158693Y265761D01*
X157507Y266446D01*
X156185Y266800D01*
D02*
G37*
G36*
X116685Y266700D02*
X115315D01*
X113993Y266346D01*
X112807Y265661D01*
X111839Y264693D01*
X111154Y263507D01*
X110800Y262185D01*
Y260815D01*
X111154Y259493D01*
X111839Y258307D01*
X112807Y257339D01*
X113993Y256654D01*
X115315Y256300D01*
X116685D01*
X118007Y256654D01*
X119193Y257339D01*
X120161Y258307D01*
X120846Y259493D01*
X121200Y260815D01*
Y262185D01*
X120846Y263507D01*
X120161Y264693D01*
X119193Y265661D01*
X118007Y266346D01*
X116685Y266700D01*
D02*
G37*
G36*
X204685Y266531D02*
X203315D01*
X201993Y266177D01*
X200807Y265493D01*
X199839Y264524D01*
X199154Y263339D01*
X198800Y262016D01*
Y260647D01*
X199154Y259324D01*
X199839Y258139D01*
X200807Y257171D01*
X201993Y256486D01*
X203315Y256132D01*
X204685D01*
X206007Y256486D01*
X207193Y257171D01*
X208161Y258139D01*
X208846Y259324D01*
X209200Y260647D01*
Y262016D01*
X208846Y263339D01*
X208161Y264524D01*
X207193Y265493D01*
X206007Y266177D01*
X204685Y266531D01*
D02*
G37*
G36*
X110635Y256842D02*
X109760D01*
X108951Y256507D01*
X108332Y255888D01*
X108241Y255870D01*
X107746Y256365D01*
X106938Y256700D01*
X106062D01*
X105254Y256365D01*
X104635Y255746D01*
X104300Y254938D01*
Y254062D01*
X104635Y253254D01*
X105254Y252635D01*
X106062Y252300D01*
X106938D01*
X107746Y252635D01*
X108365Y253254D01*
X108456Y253272D01*
X108951Y252777D01*
X109760Y252442D01*
X110635D01*
X111443Y252777D01*
X112062Y253396D01*
X112397Y254204D01*
Y255079D01*
X112062Y255888D01*
X111443Y256507D01*
X110635Y256842D01*
D02*
G37*
G36*
X351489Y261712D02*
X350511D01*
X349567Y261459D01*
X348721Y260970D01*
X348030Y260279D01*
X347541Y259433D01*
X347288Y258489D01*
Y257511D01*
X347541Y256567D01*
X348030Y255721D01*
X348721Y255030D01*
X349567Y254541D01*
X350511Y254288D01*
X351489D01*
X352433Y254541D01*
X353279Y255030D01*
X353970Y255721D01*
X354459Y256567D01*
X354712Y257511D01*
Y258489D01*
X354459Y259433D01*
X353970Y260279D01*
X353279Y260970D01*
X352433Y261459D01*
X351489Y261712D01*
D02*
G37*
G36*
X251489D02*
X250511D01*
X249567Y261459D01*
X248721Y260970D01*
X248030Y260279D01*
X247541Y259433D01*
X247288Y258489D01*
Y257511D01*
X247541Y256567D01*
X248030Y255721D01*
X248721Y255030D01*
X249567Y254541D01*
X250511Y254288D01*
X251489D01*
X252433Y254541D01*
X253279Y255030D01*
X253970Y255721D01*
X254459Y256567D01*
X254712Y257511D01*
Y258489D01*
X254459Y259433D01*
X253970Y260279D01*
X253279Y260970D01*
X252433Y261459D01*
X251489Y261712D01*
D02*
G37*
G36*
X231000Y261571D02*
X229000D01*
X228034Y261444D01*
X227134Y261071D01*
X226361Y260478D01*
X225768Y259705D01*
X225395Y258805D01*
X225268Y257839D01*
X225395Y256873D01*
X225768Y255974D01*
X226361Y255201D01*
X227134Y254608D01*
X228034Y254235D01*
X229000Y254107D01*
X231000D01*
X231966Y254235D01*
X232866Y254608D01*
X233639Y255201D01*
X234232Y255974D01*
X234605Y256873D01*
X234732Y257839D01*
X234605Y258805D01*
X234232Y259705D01*
X233639Y260478D01*
X232866Y261071D01*
X231966Y261444D01*
X231000Y261571D01*
D02*
G37*
G36*
X10711Y257782D02*
X8711D01*
X7745Y257655D01*
X6845Y257282D01*
X6072Y256689D01*
X5479Y255916D01*
X5106Y255016D01*
X4979Y254050D01*
X5106Y253084D01*
X5479Y252185D01*
X6072Y251412D01*
X6845Y250818D01*
X7745Y250446D01*
X8711Y250319D01*
X10711D01*
X11677Y250446D01*
X12577Y250818D01*
X13350Y251412D01*
X13943Y252185D01*
X14316Y253084D01*
X14443Y254050D01*
X14316Y255016D01*
X13943Y255916D01*
X13350Y256689D01*
X12577Y257282D01*
X11677Y257655D01*
X10711Y257782D01*
D02*
G37*
G36*
X281938Y254700D02*
X281062D01*
X280254Y254365D01*
X279635Y253746D01*
X279300Y252938D01*
Y252062D01*
X279635Y251254D01*
X280254Y250635D01*
X281062Y250300D01*
X281938D01*
X282746Y250635D01*
X283365Y251254D01*
X283700Y252062D01*
Y252938D01*
X283365Y253746D01*
X282746Y254365D01*
X281938Y254700D01*
D02*
G37*
G36*
X335044Y251593D02*
X334169D01*
X333360Y251258D01*
X332741Y250639D01*
X332406Y249830D01*
Y248955D01*
X332741Y248146D01*
X333360Y247528D01*
X334169Y247193D01*
X335044D01*
X335852Y247528D01*
X336471Y248146D01*
X336806Y248955D01*
Y249830D01*
X336471Y250639D01*
X335852Y251258D01*
X335044Y251593D01*
D02*
G37*
G36*
X325938Y247700D02*
X325062D01*
X324254Y247365D01*
X323650Y246761D01*
X323046Y247365D01*
X322238Y247700D01*
X321362D01*
X320554Y247365D01*
X319935Y246746D01*
X319900Y246662D01*
X319400D01*
X319365Y246746D01*
X318746Y247365D01*
X317938Y247700D01*
X317062D01*
X316254Y247365D01*
X315635Y246746D01*
X315300Y245938D01*
Y245062D01*
X315635Y244254D01*
X316254Y243635D01*
X317062Y243300D01*
X317938D01*
X318746Y243635D01*
X319365Y244254D01*
X319400Y244338D01*
X319900D01*
X319935Y244254D01*
X320554Y243635D01*
X321362Y243300D01*
X322238D01*
X323046Y243635D01*
X323650Y244239D01*
X324254Y243635D01*
X325062Y243300D01*
X325938D01*
X326746Y243635D01*
X327365Y244254D01*
X327700Y245062D01*
Y245938D01*
X327365Y246746D01*
X326746Y247365D01*
X325938Y247700D01*
D02*
G37*
G36*
X351489Y251712D02*
X350511D01*
X349567Y251459D01*
X348721Y250970D01*
X348030Y250279D01*
X347541Y249433D01*
X347288Y248489D01*
Y247511D01*
X347541Y246567D01*
X348030Y245721D01*
X348721Y245030D01*
X349567Y244541D01*
X350511Y244288D01*
X351489D01*
X352433Y244541D01*
X353279Y245030D01*
X353970Y245721D01*
X354459Y246567D01*
X354712Y247511D01*
Y248489D01*
X354459Y249433D01*
X353970Y250279D01*
X353279Y250970D01*
X352433Y251459D01*
X351489Y251712D01*
D02*
G37*
G36*
X251489D02*
X250511D01*
X249567Y251459D01*
X248721Y250970D01*
X248030Y250279D01*
X247541Y249433D01*
X247288Y248489D01*
Y247511D01*
X247541Y246567D01*
X248030Y245721D01*
X248721Y245030D01*
X249567Y244541D01*
X250511Y244288D01*
X251489D01*
X252433Y244541D01*
X253279Y245030D01*
X253970Y245721D01*
X254459Y246567D01*
X254712Y247511D01*
Y248489D01*
X254459Y249433D01*
X253970Y250279D01*
X253279Y250970D01*
X252433Y251459D01*
X251489Y251712D01*
D02*
G37*
G36*
X376090Y251542D02*
X367690D01*
Y244142D01*
X376090D01*
Y251542D01*
D02*
G37*
G36*
X234190D02*
X225790D01*
Y244142D01*
X234190D01*
Y251542D01*
D02*
G37*
G36*
X10711Y247982D02*
X8711D01*
X7745Y247855D01*
X6845Y247482D01*
X6072Y246889D01*
X5479Y246116D01*
X5106Y245216D01*
X4979Y244250D01*
X5106Y243285D01*
X5479Y242385D01*
X6072Y241612D01*
X6845Y241019D01*
X7745Y240646D01*
X8711Y240518D01*
X10711D01*
X11677Y240646D01*
X12577Y241019D01*
X13350Y241612D01*
X13943Y242385D01*
X14316Y243285D01*
X14443Y244250D01*
X14316Y245216D01*
X13943Y246116D01*
X13350Y246889D01*
X12577Y247482D01*
X11677Y247855D01*
X10711Y247982D01*
D02*
G37*
G36*
X337938Y243700D02*
X337062D01*
X336254Y243365D01*
X335635Y242746D01*
X335300Y241938D01*
Y241062D01*
X335635Y240254D01*
X336254Y239635D01*
X337062Y239300D01*
X337938D01*
X338746Y239635D01*
X339365Y240254D01*
X339700Y241062D01*
Y241938D01*
X339365Y242746D01*
X338746Y243365D01*
X337938Y243700D01*
D02*
G37*
G36*
X351489Y241712D02*
X350511D01*
X349567Y241459D01*
X348721Y240970D01*
X348030Y240279D01*
X347541Y239433D01*
X347288Y238489D01*
Y237511D01*
X347541Y236567D01*
X348030Y235721D01*
X348721Y235030D01*
X349567Y234541D01*
X350511Y234288D01*
X351489D01*
X352433Y234541D01*
X353279Y235030D01*
X353970Y235721D01*
X354459Y236567D01*
X354712Y237511D01*
Y238489D01*
X354459Y239433D01*
X353970Y240279D01*
X353279Y240970D01*
X352433Y241459D01*
X351489Y241712D01*
D02*
G37*
G36*
X251489D02*
X250511D01*
X249567Y241459D01*
X248721Y240970D01*
X248030Y240279D01*
X247541Y239433D01*
X247288Y238489D01*
Y237511D01*
X247541Y236567D01*
X248030Y235721D01*
X248721Y235030D01*
X249567Y234541D01*
X250511Y234288D01*
X251489D01*
X252433Y234541D01*
X253279Y235030D01*
X253970Y235721D01*
X254459Y236567D01*
X254712Y237511D01*
Y238489D01*
X254459Y239433D01*
X253970Y240279D01*
X253279Y240970D01*
X252433Y241459D01*
X251489Y241712D01*
D02*
G37*
G36*
X372890Y241574D02*
X370890D01*
X369924Y241447D01*
X369024Y241074D01*
X368251Y240481D01*
X367658Y239708D01*
X367286Y238808D01*
X367158Y237842D01*
X367286Y236876D01*
X367658Y235976D01*
X368251Y235203D01*
X369024Y234610D01*
X369924Y234237D01*
X370890Y234110D01*
X372890D01*
X373856Y234237D01*
X374756Y234610D01*
X375529Y235203D01*
X376122Y235976D01*
X376495Y236876D01*
X376622Y237842D01*
X376495Y238808D01*
X376122Y239708D01*
X375529Y240481D01*
X374756Y241074D01*
X373856Y241447D01*
X372890Y241574D01*
D02*
G37*
G36*
X230990D02*
X228990D01*
X228024Y241447D01*
X227124Y241074D01*
X226351Y240481D01*
X225758Y239708D01*
X225386Y238808D01*
X225258Y237842D01*
X225386Y236876D01*
X225758Y235976D01*
X226351Y235203D01*
X227124Y234610D01*
X228024Y234237D01*
X228990Y234110D01*
X230990D01*
X231956Y234237D01*
X232856Y234610D01*
X233629Y235203D01*
X234222Y235976D01*
X234595Y236876D01*
X234722Y237842D01*
X234595Y238808D01*
X234222Y239708D01*
X233629Y240481D01*
X232856Y241074D01*
X231956Y241447D01*
X230990Y241574D01*
D02*
G37*
G36*
X281438Y237200D02*
X280562D01*
X279754Y236865D01*
X279135Y236246D01*
X278800Y235438D01*
Y234562D01*
X279135Y233754D01*
X279754Y233135D01*
X280562Y232800D01*
X281438D01*
X282246Y233135D01*
X282865Y233754D01*
X283200Y234562D01*
Y235438D01*
X282865Y236246D01*
X282246Y236865D01*
X281438Y237200D01*
D02*
G37*
G36*
X124709Y243034D02*
X123339D01*
X122017Y242680D01*
X120831Y241995D01*
X119863Y241027D01*
X119178Y239841D01*
X118824Y238519D01*
Y237150D01*
X119178Y235827D01*
X119863Y234641D01*
X120831Y233673D01*
X122017Y232989D01*
X123339Y232634D01*
X124709D01*
X126031Y232989D01*
X127217Y233673D01*
X128185Y234641D01*
X128870Y235827D01*
X129224Y237150D01*
Y238519D01*
X128870Y239841D01*
X128185Y241027D01*
X127217Y241995D01*
X126031Y242680D01*
X124709Y243034D01*
D02*
G37*
G36*
X212709Y242866D02*
X211339D01*
X210017Y242511D01*
X208831Y241827D01*
X207863Y240859D01*
X207178Y239673D01*
X206824Y238350D01*
Y236981D01*
X207178Y235659D01*
X207863Y234473D01*
X208831Y233505D01*
X210017Y232820D01*
X211339Y232466D01*
X212709D01*
X214031Y232820D01*
X215217Y233505D01*
X216185Y234473D01*
X216870Y235659D01*
X217224Y236981D01*
Y238350D01*
X216870Y239673D01*
X216185Y240859D01*
X215217Y241827D01*
X214031Y242511D01*
X212709Y242866D01*
D02*
G37*
G36*
X10811Y238082D02*
X8811D01*
X7845Y237955D01*
X6945Y237582D01*
X6172Y236989D01*
X5579Y236216D01*
X5206Y235316D01*
X5079Y234350D01*
X5206Y233384D01*
X5579Y232485D01*
X6172Y231712D01*
X6945Y231118D01*
X7845Y230746D01*
X8811Y230619D01*
X10811D01*
X11777Y230746D01*
X12677Y231118D01*
X13450Y231712D01*
X14043Y232485D01*
X14416Y233384D01*
X14543Y234350D01*
X14416Y235316D01*
X14043Y236216D01*
X13450Y236989D01*
X12677Y237582D01*
X11777Y237955D01*
X10811Y238082D01*
D02*
G37*
G36*
X223438Y234700D02*
X222562D01*
X221754Y234365D01*
X221135Y233746D01*
X220800Y232938D01*
Y232062D01*
X221135Y231254D01*
X221754Y230635D01*
X222562Y230300D01*
X223438D01*
X224246Y230635D01*
X224865Y231254D01*
X225200Y232062D01*
Y232938D01*
X224865Y233746D01*
X224246Y234365D01*
X223438Y234700D01*
D02*
G37*
G36*
X300438Y231800D02*
X299562D01*
X298754Y231465D01*
X298135Y230846D01*
X297800Y230038D01*
Y229162D01*
X298135Y228354D01*
X298754Y227735D01*
X299562Y227400D01*
X300438D01*
X301246Y227735D01*
X301865Y228354D01*
X302200Y229162D01*
Y230038D01*
X301865Y230846D01*
X301246Y231465D01*
X300438Y231800D01*
D02*
G37*
G36*
X305438Y230700D02*
X304562D01*
X303754Y230365D01*
X303135Y229746D01*
X302800Y228938D01*
Y228062D01*
X303135Y227254D01*
X303754Y226635D01*
X304562Y226300D01*
X305438D01*
X306246Y226635D01*
X306865Y227254D01*
X307200Y228062D01*
Y228938D01*
X306865Y229746D01*
X306246Y230365D01*
X305438Y230700D01*
D02*
G37*
G36*
X351489Y231712D02*
X350511D01*
X349567Y231459D01*
X348721Y230970D01*
X348030Y230279D01*
X347541Y229433D01*
X347288Y228489D01*
Y227511D01*
X347541Y226567D01*
X348030Y225721D01*
X348721Y225030D01*
X349567Y224541D01*
X350511Y224288D01*
X351489D01*
X352433Y224541D01*
X353279Y225030D01*
X353970Y225721D01*
X354459Y226567D01*
X354712Y227511D01*
Y228489D01*
X354459Y229433D01*
X353970Y230279D01*
X353279Y230970D01*
X352433Y231459D01*
X351489Y231712D01*
D02*
G37*
G36*
X251489D02*
X250511D01*
X249567Y231459D01*
X248721Y230970D01*
X248030Y230279D01*
X247541Y229433D01*
X247288Y228489D01*
Y227511D01*
X247541Y226567D01*
X248030Y225721D01*
X248721Y225030D01*
X249567Y224541D01*
X250511Y224288D01*
X251489D01*
X252433Y224541D01*
X253279Y225030D01*
X253970Y225721D01*
X254459Y226567D01*
X254712Y227511D01*
Y228489D01*
X254459Y229433D01*
X253970Y230279D01*
X253279Y230970D01*
X252433Y231459D01*
X251489Y231712D01*
D02*
G37*
G36*
X372890Y231574D02*
X370890D01*
X369924Y231447D01*
X369024Y231074D01*
X368251Y230481D01*
X367658Y229708D01*
X367286Y228808D01*
X367158Y227842D01*
X367286Y226876D01*
X367658Y225976D01*
X368251Y225203D01*
X369024Y224610D01*
X369924Y224237D01*
X370890Y224110D01*
X372890D01*
X373856Y224237D01*
X374756Y224610D01*
X375529Y225203D01*
X376122Y225976D01*
X376495Y226876D01*
X376622Y227842D01*
X376495Y228808D01*
X376122Y229708D01*
X375529Y230481D01*
X374756Y231074D01*
X373856Y231447D01*
X372890Y231574D01*
D02*
G37*
G36*
X230990D02*
X228990D01*
X228024Y231447D01*
X227124Y231074D01*
X226351Y230481D01*
X225758Y229708D01*
X225386Y228808D01*
X225258Y227842D01*
X225386Y226876D01*
X225758Y225976D01*
X226351Y225203D01*
X227124Y224610D01*
X228024Y224237D01*
X228990Y224110D01*
X230990D01*
X231956Y224237D01*
X232856Y224610D01*
X233629Y225203D01*
X234222Y225976D01*
X234595Y226876D01*
X234722Y227842D01*
X234595Y228808D01*
X234222Y229708D01*
X233629Y230481D01*
X232856Y231074D01*
X231956Y231447D01*
X230990Y231574D01*
D02*
G37*
G36*
X118438Y227700D02*
X117562D01*
X116754Y227365D01*
X116135Y226746D01*
X115800Y225938D01*
Y225062D01*
X116135Y224254D01*
X116754Y223635D01*
X117562Y223300D01*
X118438D01*
X119246Y223635D01*
X119865Y224254D01*
X120200Y225062D01*
Y225938D01*
X119865Y226746D01*
X119246Y227365D01*
X118438Y227700D01*
D02*
G37*
G36*
X208938Y227200D02*
X208062D01*
X207254Y226865D01*
X206635Y226246D01*
X206300Y225438D01*
Y224562D01*
X206635Y223754D01*
X207254Y223135D01*
X208062Y222800D01*
X208938D01*
X209746Y223135D01*
X210365Y223754D01*
X210700Y224562D01*
Y225438D01*
X210365Y226246D01*
X209746Y226865D01*
X208938Y227200D01*
D02*
G37*
G36*
X111438Y223700D02*
X110562D01*
X109754Y223365D01*
X109135Y222746D01*
X109021Y222470D01*
X108479D01*
X108365Y222746D01*
X107746Y223365D01*
X106938Y223700D01*
X106062D01*
X105254Y223365D01*
X104635Y222746D01*
X104300Y221938D01*
Y221062D01*
X104635Y220254D01*
X105254Y219635D01*
X106062Y219300D01*
X106938D01*
X107746Y219635D01*
X108365Y220254D01*
X108479Y220530D01*
X109021D01*
X109135Y220254D01*
X109754Y219635D01*
X110562Y219300D01*
X111438D01*
X112246Y219635D01*
X112865Y220254D01*
X113200Y221062D01*
Y221938D01*
X112865Y222746D01*
X112246Y223365D01*
X111438Y223700D01*
D02*
G37*
G36*
X14511Y228208D02*
X5111D01*
Y220808D01*
X14511D01*
Y228208D01*
D02*
G37*
G36*
X238738Y224700D02*
X237862D01*
X237054Y224365D01*
X236435Y223746D01*
X236100Y222938D01*
Y222062D01*
X236435Y221254D01*
X237054Y220635D01*
X237862Y220300D01*
X238738D01*
X239546Y220635D01*
X240165Y221254D01*
X240500Y222062D01*
Y222938D01*
X240165Y223746D01*
X239546Y224365D01*
X238738Y224700D01*
D02*
G37*
G36*
X303438Y219200D02*
X302562D01*
X301754Y218865D01*
X301135Y218246D01*
X300800Y217438D01*
Y216562D01*
X301135Y215754D01*
X301754Y215135D01*
X302562Y214800D01*
X303438D01*
X304246Y215135D01*
X304865Y215754D01*
X305200Y216562D01*
Y217438D01*
X304865Y218246D01*
X304246Y218865D01*
X303438Y219200D01*
D02*
G37*
G36*
X351489Y221712D02*
X350511D01*
X349567Y221459D01*
X348721Y220970D01*
X348030Y220279D01*
X347541Y219433D01*
X347288Y218489D01*
Y217511D01*
X347541Y216567D01*
X348030Y215721D01*
X348721Y215030D01*
X349567Y214541D01*
X350511Y214288D01*
X351489D01*
X352433Y214541D01*
X353279Y215030D01*
X353970Y215721D01*
X354459Y216567D01*
X354712Y217511D01*
Y218489D01*
X354459Y219433D01*
X353970Y220279D01*
X353279Y220970D01*
X352433Y221459D01*
X351489Y221712D01*
D02*
G37*
G36*
X372890Y221574D02*
X370890D01*
X369924Y221447D01*
X369024Y221074D01*
X368251Y220481D01*
X367658Y219708D01*
X367286Y218808D01*
X367158Y217842D01*
X367286Y216876D01*
X367658Y215976D01*
X368251Y215203D01*
X369024Y214610D01*
X369924Y214237D01*
X370890Y214110D01*
X372890D01*
X373856Y214237D01*
X374756Y214610D01*
X375529Y215203D01*
X376122Y215976D01*
X376495Y216876D01*
X376622Y217842D01*
X376495Y218808D01*
X376122Y219708D01*
X375529Y220481D01*
X374756Y221074D01*
X373856Y221447D01*
X372890Y221574D01*
D02*
G37*
G36*
X325438Y217959D02*
X324562D01*
X323754Y217624D01*
X323135Y217005D01*
X322800Y216197D01*
Y215321D01*
X323135Y214513D01*
X323754Y213894D01*
X324562Y213559D01*
X325438D01*
X326246Y213894D01*
X326865Y214513D01*
X327200Y215321D01*
Y216197D01*
X326865Y217005D01*
X326246Y217624D01*
X325438Y217959D01*
D02*
G37*
G36*
X116685Y219369D02*
X115315D01*
X113993Y219014D01*
X112807Y218330D01*
X111839Y217361D01*
X111154Y216176D01*
X110800Y214853D01*
Y213484D01*
X111154Y212161D01*
X111839Y210976D01*
X112807Y210008D01*
X113993Y209323D01*
X115315Y208968D01*
X116685D01*
X118007Y209323D01*
X119193Y210008D01*
X120161Y210976D01*
X120846Y212161D01*
X121200Y213484D01*
Y214853D01*
X120846Y216176D01*
X120161Y217361D01*
X119193Y218330D01*
X118007Y219014D01*
X116685Y219369D01*
D02*
G37*
G36*
X68653D02*
X67284D01*
X65961Y219014D01*
X64776Y218330D01*
X63807Y217361D01*
X63123Y216176D01*
X62769Y214853D01*
Y213484D01*
X63123Y212161D01*
X63807Y210976D01*
X64776Y210008D01*
X65961Y209323D01*
X67284Y208968D01*
X68653D01*
X69976Y209323D01*
X71161Y210008D01*
X72129Y210976D01*
X72814Y212161D01*
X73168Y213484D01*
Y214853D01*
X72814Y216176D01*
X72129Y217361D01*
X71161Y218330D01*
X69976Y219014D01*
X68653Y219369D01*
D02*
G37*
G36*
X204685Y219200D02*
X203315D01*
X201993Y218846D01*
X200807Y218161D01*
X199839Y217193D01*
X199154Y216007D01*
X198800Y214685D01*
Y213315D01*
X199154Y211993D01*
X199839Y210807D01*
X200807Y209839D01*
X201993Y209154D01*
X203315Y208800D01*
X204685D01*
X206007Y209154D01*
X207193Y209839D01*
X208161Y210807D01*
X208846Y211993D01*
X209200Y213315D01*
Y214685D01*
X208846Y216007D01*
X208161Y217193D01*
X207193Y218161D01*
X206007Y218846D01*
X204685Y219200D01*
D02*
G37*
G36*
X156653D02*
X155284D01*
X153961Y218846D01*
X152776Y218161D01*
X151807Y217193D01*
X151123Y216007D01*
X150768Y214685D01*
Y213315D01*
X151123Y211993D01*
X151807Y210807D01*
X152776Y209839D01*
X153961Y209154D01*
X155284Y208800D01*
X156653D01*
X157976Y209154D01*
X159161Y209839D01*
X160129Y210807D01*
X160814Y211993D01*
X161169Y213315D01*
Y214685D01*
X160814Y216007D01*
X160129Y217193D01*
X159161Y218161D01*
X157976Y218846D01*
X156653Y219200D01*
D02*
G37*
G36*
X351489Y211712D02*
X350511D01*
X349567Y211459D01*
X348721Y210970D01*
X348030Y210279D01*
X347541Y209433D01*
X347288Y208489D01*
Y207511D01*
X347541Y206567D01*
X348030Y205721D01*
X348721Y205030D01*
X349567Y204541D01*
X350511Y204288D01*
X351489D01*
X352433Y204541D01*
X353279Y205030D01*
X353970Y205721D01*
X354459Y206567D01*
X354712Y207511D01*
Y208489D01*
X354459Y209433D01*
X353970Y210279D01*
X353279Y210970D01*
X352433Y211459D01*
X351489Y211712D01*
D02*
G37*
G36*
X251489D02*
X250511D01*
X249567Y211459D01*
X248721Y210970D01*
X248030Y210279D01*
X247541Y209433D01*
X247288Y208489D01*
Y207511D01*
X247541Y206567D01*
X248030Y205721D01*
X248721Y205030D01*
X249567Y204541D01*
X250511Y204288D01*
X251489D01*
X252433Y204541D01*
X253279Y205030D01*
X253970Y205721D01*
X254459Y206567D01*
X254712Y207511D01*
Y208489D01*
X254459Y209433D01*
X253970Y210279D01*
X253279Y210970D01*
X252433Y211459D01*
X251489Y211712D01*
D02*
G37*
G36*
X372890Y211574D02*
X370890D01*
X369924Y211447D01*
X369024Y211074D01*
X368251Y210481D01*
X367658Y209708D01*
X367286Y208808D01*
X367158Y207842D01*
X367286Y206876D01*
X367658Y205976D01*
X368251Y205203D01*
X369024Y204610D01*
X369924Y204237D01*
X370890Y204110D01*
X372890D01*
X373856Y204237D01*
X374756Y204610D01*
X375529Y205203D01*
X376122Y205976D01*
X376495Y206876D01*
X376622Y207842D01*
X376495Y208808D01*
X376122Y209708D01*
X375529Y210481D01*
X374756Y211074D01*
X373856Y211447D01*
X372890Y211574D01*
D02*
G37*
G36*
X230990D02*
X228990D01*
X228024Y211447D01*
X227124Y211074D01*
X226351Y210481D01*
X225758Y209708D01*
X225386Y208808D01*
X225258Y207842D01*
X225386Y206876D01*
X225758Y205976D01*
X226351Y205203D01*
X227124Y204610D01*
X228024Y204237D01*
X228990Y204110D01*
X230990D01*
X231956Y204237D01*
X232856Y204610D01*
X233629Y205203D01*
X234222Y205976D01*
X234595Y206876D01*
X234722Y207842D01*
X234595Y208808D01*
X234222Y209708D01*
X233629Y210481D01*
X232856Y211074D01*
X231956Y211447D01*
X230990Y211574D01*
D02*
G37*
G36*
X325306Y207146D02*
X324430D01*
X323622Y206811D01*
X323003Y206192D01*
X322668Y205383D01*
Y204508D01*
X323003Y203699D01*
X323622Y203081D01*
X324430Y202746D01*
X325306D01*
X326114Y203081D01*
X326733Y203699D01*
X327068Y204508D01*
Y205383D01*
X326733Y206192D01*
X326114Y206811D01*
X325306Y207146D01*
D02*
G37*
G36*
X222438Y206200D02*
X221562D01*
X220754Y205865D01*
X220135Y205246D01*
X219800Y204438D01*
Y203562D01*
X220135Y202754D01*
X220754Y202135D01*
X221562Y201800D01*
X222438D01*
X223246Y202135D01*
X223865Y202754D01*
X224200Y203562D01*
Y204438D01*
X223865Y205246D01*
X223246Y205865D01*
X222438Y206200D01*
D02*
G37*
G36*
X257938Y205200D02*
X257062D01*
X256254Y204865D01*
X255635Y204246D01*
X255300Y203438D01*
Y202562D01*
X255635Y201754D01*
X256254Y201135D01*
X257062Y200800D01*
X257938D01*
X258746Y201135D01*
X259365Y201754D01*
X259700Y202562D01*
Y203438D01*
X259365Y204246D01*
X258746Y204865D01*
X257938Y205200D01*
D02*
G37*
G36*
X304438Y204200D02*
X303562D01*
X302754Y203865D01*
X302135Y203246D01*
X301800Y202438D01*
Y201562D01*
X302135Y200754D01*
X302754Y200135D01*
X303562Y199800D01*
X304438D01*
X305246Y200135D01*
X305865Y200754D01*
X306200Y201562D01*
Y202438D01*
X305865Y203246D01*
X305246Y203865D01*
X304438Y204200D01*
D02*
G37*
G36*
X351489Y201712D02*
X350511D01*
X349567Y201459D01*
X348721Y200970D01*
X348030Y200279D01*
X347541Y199433D01*
X347288Y198489D01*
Y197511D01*
X347541Y196567D01*
X348030Y195721D01*
X348721Y195030D01*
X349567Y194541D01*
X350511Y194288D01*
X351489D01*
X352433Y194541D01*
X353279Y195030D01*
X353970Y195721D01*
X354459Y196567D01*
X354712Y197511D01*
Y198489D01*
X354459Y199433D01*
X353970Y200279D01*
X353279Y200970D01*
X352433Y201459D01*
X351489Y201712D01*
D02*
G37*
G36*
X251489D02*
X250511D01*
X249567Y201459D01*
X248721Y200970D01*
X248030Y200279D01*
X247541Y199433D01*
X247288Y198489D01*
Y197511D01*
X247541Y196567D01*
X248030Y195721D01*
X248721Y195030D01*
X249567Y194541D01*
X250511Y194288D01*
X251489D01*
X252433Y194541D01*
X253279Y195030D01*
X253970Y195721D01*
X254459Y196567D01*
X254712Y197511D01*
Y198489D01*
X254459Y199433D01*
X253970Y200279D01*
X253279Y200970D01*
X252433Y201459D01*
X251489Y201712D01*
D02*
G37*
G36*
X376600Y201539D02*
X367200D01*
Y194139D01*
X376600D01*
Y201539D01*
D02*
G37*
G36*
X234700D02*
X225300D01*
Y194139D01*
X234700D01*
Y201539D01*
D02*
G37*
G36*
X364438Y195200D02*
X363562D01*
X362754Y194865D01*
X362135Y194246D01*
X361800Y193438D01*
Y192562D01*
X362135Y191754D01*
X362754Y191135D01*
X363562Y190800D01*
X364438D01*
X365246Y191135D01*
X365865Y191754D01*
X366200Y192562D01*
Y193438D01*
X365865Y194246D01*
X365246Y194865D01*
X364438Y195200D01*
D02*
G37*
G36*
X156185Y199700D02*
X154815D01*
X153493Y199346D01*
X152307Y198661D01*
X151339Y197693D01*
X150654Y196507D01*
X150300Y195185D01*
Y193815D01*
X150654Y192493D01*
X151339Y191307D01*
X152307Y190339D01*
X153493Y189654D01*
X154815Y189300D01*
X156185D01*
X157507Y189654D01*
X158693Y190339D01*
X159661Y191307D01*
X160346Y192493D01*
X160700Y193815D01*
Y195185D01*
X160346Y196507D01*
X159661Y197693D01*
X158693Y198661D01*
X157507Y199346D01*
X156185Y199700D01*
D02*
G37*
G36*
X68285Y199500D02*
X66915D01*
X65593Y199146D01*
X64407Y198461D01*
X63439Y197493D01*
X62754Y196307D01*
X62400Y194985D01*
Y193615D01*
X62754Y192293D01*
X63439Y191107D01*
X64407Y190139D01*
X65593Y189454D01*
X66915Y189100D01*
X68285D01*
X69607Y189454D01*
X70793Y190139D01*
X71761Y191107D01*
X72446Y192293D01*
X72800Y193615D01*
Y194985D01*
X72446Y196307D01*
X71761Y197493D01*
X70793Y198461D01*
X69607Y199146D01*
X68285Y199500D01*
D02*
G37*
G36*
X204685Y199432D02*
X203315D01*
X201993Y199077D01*
X200807Y198392D01*
X199839Y197424D01*
X199154Y196239D01*
X198800Y194916D01*
Y193547D01*
X199154Y192224D01*
X199839Y191039D01*
X200807Y190070D01*
X201993Y189386D01*
X203315Y189032D01*
X204685D01*
X206007Y189386D01*
X207193Y190070D01*
X208161Y191039D01*
X208846Y192224D01*
X209200Y193547D01*
Y194916D01*
X208846Y196239D01*
X208161Y197424D01*
X207193Y198392D01*
X206007Y199077D01*
X204685Y199432D01*
D02*
G37*
G36*
X11000Y196389D02*
X9000D01*
X8034Y196262D01*
X7134Y195889D01*
X6361Y195296D01*
X5768Y194523D01*
X5395Y193623D01*
X5268Y192657D01*
X5395Y191692D01*
X5768Y190791D01*
X6361Y190018D01*
X7134Y189426D01*
X8034Y189053D01*
X9000Y188926D01*
X11000D01*
X11966Y189053D01*
X12866Y189426D01*
X13639Y190018D01*
X14232Y190791D01*
X14605Y191692D01*
X14732Y192657D01*
X14605Y193623D01*
X14232Y194523D01*
X13639Y195296D01*
X12866Y195889D01*
X11966Y196262D01*
X11000Y196389D01*
D02*
G37*
G36*
X116785Y199232D02*
X115415D01*
X114093Y198877D01*
X112907Y198193D01*
X111939Y197224D01*
X111254Y196039D01*
X110900Y194716D01*
Y193347D01*
X111254Y192024D01*
X111939Y190839D01*
X112907Y189871D01*
X114093Y189186D01*
X115415Y188831D01*
X116785D01*
X118107Y189186D01*
X119293Y189871D01*
X120261Y190839D01*
X120946Y192024D01*
X121300Y193347D01*
Y194716D01*
X120946Y196039D01*
X120261Y197224D01*
X119293Y198193D01*
X118107Y198877D01*
X116785Y199232D01*
D02*
G37*
G36*
X265438Y190200D02*
X264562D01*
X263754Y189865D01*
X263135Y189246D01*
X262800Y188438D01*
Y187562D01*
X263135Y186754D01*
X263754Y186135D01*
X264562Y185800D01*
X265438D01*
X266246Y186135D01*
X266865Y186754D01*
X267200Y187562D01*
Y188438D01*
X266865Y189246D01*
X266246Y189865D01*
X265438Y190200D01*
D02*
G37*
G36*
X351489Y191712D02*
X350511D01*
X349567Y191459D01*
X348721Y190970D01*
X348030Y190279D01*
X347541Y189433D01*
X347288Y188489D01*
Y187511D01*
X347541Y186567D01*
X348030Y185721D01*
X348721Y185030D01*
X349567Y184541D01*
X350511Y184288D01*
X351489D01*
X352433Y184541D01*
X353279Y185030D01*
X353970Y185721D01*
X354459Y186567D01*
X354712Y187511D01*
Y188489D01*
X354459Y189433D01*
X353970Y190279D01*
X353279Y190970D01*
X352433Y191459D01*
X351489Y191712D01*
D02*
G37*
G36*
X251489D02*
X250511D01*
X249567Y191459D01*
X248721Y190970D01*
X248030Y190279D01*
X247541Y189433D01*
X247288Y188489D01*
Y187511D01*
X247541Y186567D01*
X248030Y185721D01*
X248721Y185030D01*
X249567Y184541D01*
X250511Y184288D01*
X251489D01*
X252433Y184541D01*
X253279Y185030D01*
X253970Y185721D01*
X254459Y186567D01*
X254712Y187511D01*
Y188489D01*
X254459Y189433D01*
X253970Y190279D01*
X253279Y190970D01*
X252433Y191459D01*
X251489Y191712D01*
D02*
G37*
G36*
X372900Y191571D02*
X370900D01*
X369934Y191444D01*
X369034Y191071D01*
X368261Y190478D01*
X367668Y189705D01*
X367295Y188805D01*
X367168Y187839D01*
X367295Y186873D01*
X367668Y185974D01*
X368261Y185201D01*
X369034Y184608D01*
X369934Y184235D01*
X370900Y184107D01*
X372900D01*
X373866Y184235D01*
X374766Y184608D01*
X375539Y185201D01*
X376132Y185974D01*
X376505Y186873D01*
X376632Y187839D01*
X376505Y188805D01*
X376132Y189705D01*
X375539Y190478D01*
X374766Y191071D01*
X373866Y191444D01*
X372900Y191571D01*
D02*
G37*
G36*
X231000D02*
X229000D01*
X228034Y191444D01*
X227134Y191071D01*
X226361Y190478D01*
X225768Y189705D01*
X225395Y188805D01*
X225268Y187839D01*
X225395Y186873D01*
X225768Y185974D01*
X226361Y185201D01*
X227134Y184608D01*
X228034Y184235D01*
X229000Y184107D01*
X231000D01*
X231966Y184235D01*
X232866Y184608D01*
X233639Y185201D01*
X234232Y185974D01*
X234605Y186873D01*
X234732Y187839D01*
X234605Y188805D01*
X234232Y189705D01*
X233639Y190478D01*
X232866Y191071D01*
X231966Y191444D01*
X231000Y191571D01*
D02*
G37*
G36*
X307938Y185200D02*
X307062D01*
X306254Y184865D01*
X305635Y184246D01*
X305300Y183438D01*
Y182562D01*
X305635Y181754D01*
X306254Y181135D01*
X307062Y180800D01*
X307938D01*
X308746Y181135D01*
X309365Y181754D01*
X309700Y182562D01*
Y183438D01*
X309365Y184246D01*
X308746Y184865D01*
X307938Y185200D01*
D02*
G37*
G36*
X14700Y186515D02*
X5300D01*
Y179115D01*
X14700D01*
Y186515D01*
D02*
G37*
G36*
X201938Y182700D02*
X201062D01*
X200254Y182365D01*
X199635Y181746D01*
X199300Y180938D01*
Y180062D01*
X199635Y179254D01*
X200254Y178635D01*
X201062Y178300D01*
X201938D01*
X202746Y178635D01*
X203365Y179254D01*
X203700Y180062D01*
Y180938D01*
X203365Y181746D01*
X202746Y182365D01*
X201938Y182700D01*
D02*
G37*
G36*
X69938Y181200D02*
X69062D01*
X68254Y180865D01*
X67635Y180246D01*
X67300Y179438D01*
Y178562D01*
X67635Y177754D01*
X68254Y177135D01*
X69062Y176800D01*
X69938D01*
X70746Y177135D01*
X71365Y177754D01*
X71700Y178562D01*
Y179438D01*
X71365Y180246D01*
X70746Y180865D01*
X69938Y181200D01*
D02*
G37*
G36*
X150438Y179700D02*
X149562D01*
X148754Y179365D01*
X148135Y178746D01*
X147800Y177938D01*
Y177062D01*
X148135Y176254D01*
X148754Y175635D01*
X149562Y175300D01*
X150438D01*
X151246Y175635D01*
X151865Y176254D01*
X152200Y177062D01*
Y177938D01*
X151865Y178746D01*
X151246Y179365D01*
X150438Y179700D01*
D02*
G37*
G36*
X351489Y181712D02*
X350511D01*
X349567Y181459D01*
X348721Y180970D01*
X348030Y180279D01*
X347541Y179433D01*
X347288Y178489D01*
Y177511D01*
X347541Y176567D01*
X348030Y175721D01*
X348721Y175030D01*
X349567Y174541D01*
X350511Y174288D01*
X351489D01*
X352433Y174541D01*
X353279Y175030D01*
X353970Y175721D01*
X354459Y176567D01*
X354712Y177511D01*
Y178489D01*
X354459Y179433D01*
X353970Y180279D01*
X353279Y180970D01*
X352433Y181459D01*
X351489Y181712D01*
D02*
G37*
G36*
X251489D02*
X250511D01*
X249567Y181459D01*
X248721Y180970D01*
X248030Y180279D01*
X247541Y179433D01*
X247288Y178489D01*
Y177511D01*
X247541Y176567D01*
X248030Y175721D01*
X248721Y175030D01*
X249567Y174541D01*
X250511Y174288D01*
X251489D01*
X252433Y174541D01*
X253279Y175030D01*
X253970Y175721D01*
X254459Y176567D01*
X254712Y177511D01*
Y178489D01*
X254459Y179433D01*
X253970Y180279D01*
X253279Y180970D01*
X252433Y181459D01*
X251489Y181712D01*
D02*
G37*
G36*
X372900Y181571D02*
X370900D01*
X369934Y181444D01*
X369034Y181071D01*
X368261Y180478D01*
X367668Y179705D01*
X367295Y178805D01*
X367168Y177839D01*
X367295Y176874D01*
X367668Y175973D01*
X368261Y175200D01*
X369034Y174608D01*
X369934Y174235D01*
X370900Y174108D01*
X372900D01*
X373866Y174235D01*
X374766Y174608D01*
X375539Y175200D01*
X376132Y175973D01*
X376505Y176874D01*
X376632Y177839D01*
X376505Y178805D01*
X376132Y179705D01*
X375539Y180478D01*
X374766Y181071D01*
X373866Y181444D01*
X372900Y181571D01*
D02*
G37*
G36*
X231000D02*
X229000D01*
X228034Y181444D01*
X227134Y181071D01*
X226361Y180478D01*
X225768Y179705D01*
X225395Y178805D01*
X225268Y177839D01*
X225395Y176874D01*
X225768Y175973D01*
X226361Y175200D01*
X227134Y174608D01*
X228034Y174235D01*
X229000Y174108D01*
X231000D01*
X231966Y174235D01*
X232866Y174608D01*
X233639Y175200D01*
X234232Y175973D01*
X234605Y176874D01*
X234732Y177839D01*
X234605Y178805D01*
X234232Y179705D01*
X233639Y180478D01*
X232866Y181071D01*
X231966Y181444D01*
X231000Y181571D01*
D02*
G37*
G36*
X46938Y177700D02*
X46062D01*
X45254Y177365D01*
X44635Y176746D01*
X44300Y175938D01*
Y175062D01*
X44635Y174254D01*
X45254Y173635D01*
X46062Y173300D01*
X46938D01*
X47746Y173635D01*
X48365Y174254D01*
X48700Y175062D01*
Y175938D01*
X48365Y176746D01*
X47746Y177365D01*
X46938Y177700D01*
D02*
G37*
G36*
X63411Y173727D02*
X62536D01*
X61727Y173392D01*
X61108Y172773D01*
X60966Y172430D01*
X60425D01*
X60283Y172773D01*
X59664Y173392D01*
X58856Y173727D01*
X57981D01*
X57172Y173392D01*
X56553Y172773D01*
X56218Y171964D01*
Y171089D01*
X56553Y170281D01*
X57172Y169662D01*
X57981Y169327D01*
X58856D01*
X59664Y169662D01*
X60283Y170281D01*
X60425Y170623D01*
X60966D01*
X61108Y170281D01*
X61727Y169662D01*
X62536Y169327D01*
X63411D01*
X64219Y169662D01*
X64838Y170281D01*
X65173Y171089D01*
Y171964D01*
X64838Y172773D01*
X64219Y173392D01*
X63411Y173727D01*
D02*
G37*
G36*
X386438Y172200D02*
X385562D01*
X384754Y171865D01*
X384135Y171246D01*
X383800Y170438D01*
Y169562D01*
X384135Y168754D01*
X384754Y168135D01*
X385562Y167800D01*
X386438D01*
X387246Y168135D01*
X387865Y168754D01*
X388200Y169562D01*
Y170438D01*
X387865Y171246D01*
X387246Y171865D01*
X386438Y172200D01*
D02*
G37*
G36*
X259938Y171700D02*
X259062D01*
X258254Y171365D01*
X257635Y170746D01*
X257300Y169938D01*
Y169062D01*
X257635Y168254D01*
X258254Y167635D01*
X259062Y167300D01*
X259938D01*
X260746Y167635D01*
X261365Y168254D01*
X261700Y169062D01*
Y169938D01*
X261365Y170746D01*
X260746Y171365D01*
X259938Y171700D01*
D02*
G37*
G36*
X212709Y175766D02*
X211339D01*
X210017Y175411D01*
X208831Y174727D01*
X207863Y173759D01*
X207178Y172573D01*
X206824Y171250D01*
Y169881D01*
X207178Y168559D01*
X207863Y167373D01*
X208831Y166405D01*
X210017Y165720D01*
X211339Y165366D01*
X212709D01*
X214031Y165720D01*
X215217Y166405D01*
X216185Y167373D01*
X216870Y168559D01*
X217224Y169881D01*
Y171250D01*
X216870Y172573D01*
X216185Y173759D01*
X215217Y174727D01*
X214031Y175411D01*
X212709Y175766D01*
D02*
G37*
G36*
X124809Y175566D02*
X123439D01*
X122117Y175211D01*
X120931Y174527D01*
X119963Y173559D01*
X119278Y172373D01*
X118924Y171050D01*
Y169681D01*
X119278Y168359D01*
X119963Y167173D01*
X120931Y166205D01*
X122117Y165520D01*
X123439Y165166D01*
X124809D01*
X126131Y165520D01*
X127317Y166205D01*
X128285Y167173D01*
X128970Y168359D01*
X129324Y169681D01*
Y171050D01*
X128970Y172373D01*
X128285Y173559D01*
X127317Y174527D01*
X126131Y175211D01*
X124809Y175566D01*
D02*
G37*
G36*
X351489Y171712D02*
X350511D01*
X349567Y171459D01*
X348721Y170970D01*
X348030Y170279D01*
X347541Y169433D01*
X347288Y168489D01*
Y167511D01*
X347541Y166567D01*
X348030Y165721D01*
X348721Y165030D01*
X349567Y164541D01*
X350511Y164288D01*
X351489D01*
X352433Y164541D01*
X353279Y165030D01*
X353970Y165721D01*
X354459Y166567D01*
X354712Y167511D01*
Y168489D01*
X354459Y169433D01*
X353970Y170279D01*
X353279Y170970D01*
X352433Y171459D01*
X351489Y171712D01*
D02*
G37*
G36*
X251489D02*
X250511D01*
X249567Y171459D01*
X248721Y170970D01*
X248030Y170279D01*
X247541Y169433D01*
X247288Y168489D01*
Y167511D01*
X247541Y166567D01*
X248030Y165721D01*
X248721Y165030D01*
X249567Y164541D01*
X250511Y164288D01*
X251489D01*
X252433Y164541D01*
X253279Y165030D01*
X253970Y165721D01*
X254459Y166567D01*
X254712Y167511D01*
Y168489D01*
X254459Y169433D01*
X253970Y170279D01*
X253279Y170970D01*
X252433Y171459D01*
X251489Y171712D01*
D02*
G37*
G36*
X372900Y171571D02*
X370900D01*
X369934Y171444D01*
X369034Y171071D01*
X368261Y170478D01*
X367668Y169705D01*
X367295Y168805D01*
X367168Y167839D01*
X367295Y166874D01*
X367668Y165973D01*
X368261Y165200D01*
X369034Y164608D01*
X369934Y164235D01*
X370900Y164108D01*
X372900D01*
X373866Y164235D01*
X374766Y164608D01*
X375539Y165200D01*
X376132Y165973D01*
X376505Y166874D01*
X376632Y167839D01*
X376505Y168805D01*
X376132Y169705D01*
X375539Y170478D01*
X374766Y171071D01*
X373866Y171444D01*
X372900Y171571D01*
D02*
G37*
G36*
X231000D02*
X229000D01*
X228034Y171444D01*
X227134Y171071D01*
X226361Y170478D01*
X225768Y169705D01*
X225395Y168805D01*
X225268Y167839D01*
X225395Y166874D01*
X225768Y165973D01*
X226361Y165200D01*
X227134Y164608D01*
X228034Y164235D01*
X229000Y164108D01*
X231000D01*
X231966Y164235D01*
X232866Y164608D01*
X233639Y165200D01*
X234232Y165973D01*
X234605Y166874D01*
X234732Y167839D01*
X234605Y168805D01*
X234232Y169705D01*
X233639Y170478D01*
X232866Y171071D01*
X231966Y171444D01*
X231000Y171571D01*
D02*
G37*
G36*
X372900Y161571D02*
X370900D01*
X369934Y161444D01*
X369034Y161071D01*
X368261Y160478D01*
X367668Y159705D01*
X367295Y158805D01*
X367168Y157839D01*
X367295Y156874D01*
X367668Y155973D01*
X368261Y155201D01*
X369034Y154607D01*
X369934Y154235D01*
X370900Y154107D01*
X372900D01*
X373866Y154235D01*
X374766Y154607D01*
X375539Y155201D01*
X376132Y155973D01*
X376505Y156874D01*
X376632Y157839D01*
X376505Y158805D01*
X376132Y159705D01*
X375539Y160478D01*
X374766Y161071D01*
X373866Y161444D01*
X372900Y161571D01*
D02*
G37*
G36*
X231000D02*
X229000D01*
X228034Y161444D01*
X227134Y161071D01*
X226361Y160478D01*
X225768Y159705D01*
X225395Y158805D01*
X225268Y157839D01*
X225395Y156874D01*
X225768Y155973D01*
X226361Y155201D01*
X227134Y154607D01*
X228034Y154235D01*
X229000Y154107D01*
X231000D01*
X231966Y154235D01*
X232866Y154607D01*
X233639Y155201D01*
X234232Y155973D01*
X234605Y156874D01*
X234732Y157839D01*
X234605Y158805D01*
X234232Y159705D01*
X233639Y160478D01*
X232866Y161071D01*
X231966Y161444D01*
X231000Y161571D01*
D02*
G37*
G36*
X11000Y153889D02*
X9000D01*
X8034Y153762D01*
X7134Y153389D01*
X6361Y152796D01*
X5768Y152023D01*
X5395Y151123D01*
X5268Y150157D01*
X5395Y149191D01*
X5768Y148292D01*
X6361Y147519D01*
X7134Y146925D01*
X8034Y146553D01*
X9000Y146425D01*
X11000D01*
X11966Y146553D01*
X12866Y146925D01*
X13639Y147519D01*
X14232Y148292D01*
X14605Y149191D01*
X14732Y150157D01*
X14605Y151123D01*
X14232Y152023D01*
X13639Y152796D01*
X12866Y153389D01*
X11966Y153762D01*
X11000Y153889D01*
D02*
G37*
G36*
X272517Y147700D02*
X271641D01*
X270833Y147365D01*
X270214Y146746D01*
X269879Y145938D01*
Y145062D01*
X270214Y144254D01*
X270833Y143635D01*
X271641Y143300D01*
X272517D01*
X273325Y143635D01*
X273944Y144254D01*
X274279Y145062D01*
Y145938D01*
X273944Y146746D01*
X273325Y147365D01*
X272517Y147700D01*
D02*
G37*
G36*
X289091Y147659D02*
X288215D01*
X287407Y147324D01*
X286788Y146705D01*
X286453Y145896D01*
Y145021D01*
X286788Y144212D01*
X287407Y143594D01*
X288215Y143259D01*
X289091D01*
X289899Y143594D01*
X290518Y144212D01*
X290853Y145021D01*
Y145896D01*
X290518Y146705D01*
X289899Y147324D01*
X289091Y147659D01*
D02*
G37*
G36*
X305388Y147450D02*
X304513D01*
X303705Y147115D01*
X303086Y146496D01*
X302751Y145688D01*
Y144812D01*
X303086Y144004D01*
X303705Y143385D01*
X304513Y143050D01*
X305388D01*
X306197Y143385D01*
X306816Y144004D01*
X307151Y144812D01*
Y145688D01*
X306816Y146496D01*
X306197Y147115D01*
X305388Y147450D01*
D02*
G37*
G36*
X295438Y147200D02*
X294562D01*
X293754Y146865D01*
X293135Y146246D01*
X292800Y145438D01*
Y144562D01*
X293135Y143754D01*
X293754Y143135D01*
X294562Y142800D01*
X295438D01*
X296246Y143135D01*
X296865Y143754D01*
X297200Y144562D01*
Y145438D01*
X296865Y146246D01*
X296246Y146865D01*
X295438Y147200D01*
D02*
G37*
G36*
X350438Y146200D02*
X349562D01*
X348754Y145865D01*
X348135Y145246D01*
X347800Y144438D01*
Y143562D01*
X348135Y142754D01*
X348754Y142135D01*
X349562Y141800D01*
X350438D01*
X351246Y142135D01*
X351865Y142754D01*
X352200Y143562D01*
Y144438D01*
X351865Y145246D01*
X351246Y145865D01*
X350438Y146200D01*
D02*
G37*
G36*
X204685Y152100D02*
X203315D01*
X201993Y151746D01*
X200807Y151061D01*
X199839Y150093D01*
X199154Y148907D01*
X198800Y147585D01*
Y146215D01*
X199154Y144893D01*
X199839Y143707D01*
X200807Y142739D01*
X201993Y142054D01*
X203315Y141700D01*
X204685D01*
X206007Y142054D01*
X207193Y142739D01*
X208161Y143707D01*
X208846Y144893D01*
X209200Y146215D01*
Y147585D01*
X208846Y148907D01*
X208161Y150093D01*
X207193Y151061D01*
X206007Y151746D01*
X204685Y152100D01*
D02*
G37*
G36*
X156653D02*
X155284D01*
X153961Y151746D01*
X152776Y151061D01*
X151807Y150093D01*
X151123Y148907D01*
X150768Y147585D01*
Y146215D01*
X151123Y144893D01*
X151807Y143707D01*
X152776Y142739D01*
X153961Y142054D01*
X155284Y141700D01*
X156653D01*
X157976Y142054D01*
X159161Y142739D01*
X160129Y143707D01*
X160814Y144893D01*
X161169Y146215D01*
Y147585D01*
X160814Y148907D01*
X160129Y150093D01*
X159161Y151061D01*
X157976Y151746D01*
X156653Y152100D01*
D02*
G37*
G36*
X116785Y151900D02*
X115415D01*
X114093Y151546D01*
X112907Y150861D01*
X111939Y149893D01*
X111254Y148707D01*
X110900Y147385D01*
Y146015D01*
X111254Y144693D01*
X111939Y143507D01*
X112907Y142539D01*
X114093Y141854D01*
X115415Y141500D01*
X116785D01*
X118107Y141854D01*
X119293Y142539D01*
X120261Y143507D01*
X120946Y144693D01*
X121300Y146015D01*
Y147385D01*
X120946Y148707D01*
X120261Y149893D01*
X119293Y150861D01*
X118107Y151546D01*
X116785Y151900D01*
D02*
G37*
G36*
X68753D02*
X67384D01*
X66061Y151546D01*
X64876Y150861D01*
X63907Y149893D01*
X63223Y148707D01*
X62868Y147385D01*
Y146015D01*
X63223Y144693D01*
X63907Y143507D01*
X64876Y142539D01*
X66061Y141854D01*
X67384Y141500D01*
X68753D01*
X70076Y141854D01*
X71261Y142539D01*
X72229Y143507D01*
X72914Y144693D01*
X73269Y146015D01*
Y147385D01*
X72914Y148707D01*
X72229Y149893D01*
X71261Y150861D01*
X70076Y151546D01*
X68753Y151900D01*
D02*
G37*
G36*
X358929Y146759D02*
X358071D01*
X357242Y146537D01*
X356499Y146108D01*
X355892Y145501D01*
X355463Y144758D01*
X355241Y143929D01*
Y143071D01*
X355463Y142242D01*
X355892Y141499D01*
X356499Y140892D01*
X357242Y140463D01*
X358071Y140241D01*
X358929D01*
X359758Y140463D01*
X360501Y140892D01*
X361108Y141499D01*
X361537Y142242D01*
X361759Y143071D01*
Y143929D01*
X361537Y144758D01*
X361108Y145501D01*
X360501Y146108D01*
X359758Y146537D01*
X358929Y146759D01*
D02*
G37*
G36*
X262194Y143200D02*
X261319D01*
X260510Y142865D01*
X259892Y142246D01*
X259557Y141438D01*
Y140562D01*
X259892Y139754D01*
X260510Y139135D01*
X261319Y138800D01*
X262194D01*
X263003Y139135D01*
X263622Y139754D01*
X263957Y140562D01*
Y141438D01*
X263622Y142246D01*
X263003Y142865D01*
X262194Y143200D01*
D02*
G37*
G36*
X14700Y144015D02*
X5300D01*
Y136615D01*
X14700D01*
Y144015D01*
D02*
G37*
G36*
X281938Y134700D02*
X281062D01*
X280254Y134365D01*
X279635Y133746D01*
X279300Y132938D01*
Y132062D01*
X279635Y131254D01*
X280254Y130635D01*
X281062Y130300D01*
X281938D01*
X282746Y130635D01*
X283365Y131254D01*
X283700Y132062D01*
Y132938D01*
X283365Y133746D01*
X282746Y134365D01*
X281938Y134700D01*
D02*
G37*
G36*
X358929Y136759D02*
X358071D01*
X357242Y136537D01*
X356499Y136108D01*
X355892Y135501D01*
X355463Y134758D01*
X355241Y133929D01*
Y133071D01*
X355463Y132242D01*
X355892Y131499D01*
X356499Y130892D01*
X357242Y130463D01*
X358071Y130241D01*
X358929D01*
X359758Y130463D01*
X360501Y130892D01*
X361108Y131499D01*
X361537Y132242D01*
X361759Y133071D01*
Y133929D01*
X361537Y134758D01*
X361108Y135501D01*
X360501Y136108D01*
X359758Y136537D01*
X358929Y136759D01*
D02*
G37*
G36*
X245438Y130200D02*
X244562D01*
X243754Y129865D01*
X243250Y129361D01*
X242746Y129865D01*
X241938Y130200D01*
X241062D01*
X240254Y129865D01*
X239635Y129246D01*
X239300Y128438D01*
Y127562D01*
X239635Y126754D01*
X240254Y126135D01*
X241062Y125800D01*
X241938D01*
X242746Y126135D01*
X243250Y126639D01*
X243754Y126135D01*
X244562Y125800D01*
X245438D01*
X246246Y126135D01*
X246865Y126754D01*
X247200Y127562D01*
Y128438D01*
X246865Y129246D01*
X246246Y129865D01*
X245438Y130200D01*
D02*
G37*
G36*
X91938Y133200D02*
X91062D01*
X90254Y132865D01*
X89635Y132246D01*
X89300Y131438D01*
Y130562D01*
X89635Y129754D01*
X90254Y129135D01*
X91062Y128800D01*
X91938D01*
X92746Y129135D01*
X93365Y129754D01*
X93700Y130562D01*
Y131438D01*
X93365Y132246D01*
X92746Y132865D01*
X91938Y133200D01*
D02*
G37*
G36*
X327208Y125700D02*
X326233D01*
X325292Y125448D01*
X324449Y124961D01*
X323760Y124272D01*
X323273Y123428D01*
X323021Y122487D01*
Y121513D01*
X323273Y120572D01*
X323760Y119728D01*
X324449Y119039D01*
X325292Y118552D01*
X326233Y118300D01*
X327208D01*
X328149Y118552D01*
X328992Y119039D01*
X329681Y119728D01*
X330168Y120572D01*
X330420Y121513D01*
Y122487D01*
X330168Y123428D01*
X329681Y124272D01*
X328992Y124961D01*
X328149Y125448D01*
X327208Y125700D01*
D02*
G37*
G36*
X11000Y121074D02*
X9000D01*
X8034Y120947D01*
X7134Y120575D01*
X6361Y119982D01*
X5768Y119209D01*
X5395Y118308D01*
X5268Y117343D01*
X5395Y116377D01*
X5768Y115477D01*
X6361Y114704D01*
X7134Y114111D01*
X8034Y113738D01*
X9000Y113611D01*
X11000D01*
X11966Y113738D01*
X12866Y114111D01*
X13639Y114704D01*
X14232Y115477D01*
X14605Y116377D01*
X14732Y117343D01*
X14605Y118308D01*
X14232Y119209D01*
X13639Y119982D01*
X12866Y120575D01*
X11966Y120947D01*
X11000Y121074D01*
D02*
G37*
G36*
X242038Y122200D02*
X240669D01*
X239346Y121846D01*
X238160Y121161D01*
X237192Y120193D01*
X236508Y119007D01*
X236153Y117685D01*
Y116315D01*
X236508Y114993D01*
X237192Y113807D01*
X238160Y112839D01*
X239346Y112154D01*
X240669Y111800D01*
X242038D01*
X243360Y112154D01*
X244546Y112839D01*
X245514Y113807D01*
X246199Y114993D01*
X246553Y116315D01*
Y117685D01*
X246199Y119007D01*
X245514Y120193D01*
X244546Y121161D01*
X243360Y121846D01*
X242038Y122200D01*
D02*
G37*
G36*
X173441D02*
X172072D01*
X170750Y121846D01*
X169564Y121161D01*
X168596Y120193D01*
X167911Y119007D01*
X167557Y117685D01*
Y116315D01*
X167911Y114993D01*
X168596Y113807D01*
X169564Y112839D01*
X170750Y112154D01*
X172072Y111800D01*
X173441D01*
X174764Y112154D01*
X175950Y112839D01*
X176918Y113807D01*
X177603Y114993D01*
X177957Y116315D01*
Y117685D01*
X177603Y119007D01*
X176918Y120193D01*
X175950Y121161D01*
X174764Y121846D01*
X173441Y122200D01*
D02*
G37*
G36*
X105185Y122200D02*
X103815D01*
X102493Y121846D01*
X101307Y121161D01*
X100339Y120193D01*
X99654Y119007D01*
X99300Y117685D01*
Y116315D01*
X99654Y114993D01*
X100339Y113807D01*
X101307Y112839D01*
X102493Y112154D01*
X103815Y111800D01*
X105185D01*
X106507Y112154D01*
X107693Y112839D01*
X108661Y113807D01*
X109346Y114993D01*
X109700Y116315D01*
Y117685D01*
X109346Y119007D01*
X108661Y120193D01*
X107693Y121161D01*
X106507Y121846D01*
X105185Y122200D01*
D02*
G37*
G36*
X194438Y121731D02*
X193069D01*
X191746Y121377D01*
X190560Y120693D01*
X189592Y119724D01*
X188908Y118539D01*
X188553Y117216D01*
Y115847D01*
X188908Y114524D01*
X189592Y113339D01*
X190560Y112371D01*
X191746Y111686D01*
X193069Y111331D01*
X194438D01*
X195760Y111686D01*
X196946Y112371D01*
X197914Y113339D01*
X198599Y114524D01*
X198953Y115847D01*
Y117216D01*
X198599Y118539D01*
X197914Y119724D01*
X196946Y120693D01*
X195760Y121377D01*
X194438Y121731D01*
D02*
G37*
G36*
X125841D02*
X124472D01*
X123150Y121377D01*
X121964Y120693D01*
X120996Y119724D01*
X120311Y118539D01*
X119957Y117216D01*
Y115847D01*
X120311Y114524D01*
X120996Y113339D01*
X121964Y112371D01*
X123150Y111686D01*
X124472Y111331D01*
X125841D01*
X127164Y111686D01*
X128350Y112371D01*
X129318Y113339D01*
X130002Y114524D01*
X130357Y115847D01*
Y117216D01*
X130002Y118539D01*
X129318Y119724D01*
X128350Y120693D01*
X127164Y121377D01*
X125841Y121731D01*
D02*
G37*
G36*
X57585Y121731D02*
X56215D01*
X54893Y121377D01*
X53707Y120693D01*
X52739Y119724D01*
X52054Y118539D01*
X51700Y117216D01*
Y115847D01*
X52054Y114524D01*
X52739Y113339D01*
X53707Y112371D01*
X54893Y111686D01*
X56215Y111331D01*
X57585D01*
X58907Y111686D01*
X60093Y112371D01*
X61061Y113339D01*
X61746Y114524D01*
X62100Y115847D01*
Y117216D01*
X61746Y118539D01*
X61061Y119724D01*
X60093Y120693D01*
X58907Y121377D01*
X57585Y121731D01*
D02*
G37*
G36*
X111938Y115200D02*
X111062D01*
X110254Y114865D01*
X109635Y114246D01*
X109300Y113438D01*
Y112562D01*
X109635Y111754D01*
X110254Y111135D01*
X111062Y110800D01*
X111938D01*
X112746Y111135D01*
X113365Y111754D01*
X113700Y112562D01*
Y113438D01*
X113365Y114246D01*
X112746Y114865D01*
X111938Y115200D01*
D02*
G37*
G36*
X62938Y112200D02*
X62062D01*
X61254Y111865D01*
X60635Y111246D01*
X60300Y110438D01*
Y109562D01*
X60635Y108754D01*
X61254Y108135D01*
X62062Y107800D01*
X62938D01*
X63746Y108135D01*
X64365Y108754D01*
X64700Y109562D01*
Y110438D01*
X64365Y111246D01*
X63746Y111865D01*
X62938Y112200D01*
D02*
G37*
G36*
X93438Y110700D02*
X92562D01*
X91754Y110365D01*
X91135Y109746D01*
X90800Y108938D01*
Y108062D01*
X91135Y107254D01*
X91754Y106635D01*
X92562Y106300D01*
X93438D01*
X94246Y106635D01*
X94865Y107254D01*
X95200Y108062D01*
Y108938D01*
X94865Y109746D01*
X94246Y110365D01*
X93438Y110700D01*
D02*
G37*
G36*
X272937Y105200D02*
X272062D01*
X271254Y104865D01*
X270635Y104246D01*
X270300Y103438D01*
Y102562D01*
X270306Y102547D01*
X269953Y102194D01*
X269937Y102200D01*
X269062D01*
X269047Y102194D01*
X268694Y102547D01*
X268700Y102562D01*
Y103438D01*
X268365Y104246D01*
X267746Y104865D01*
X266937Y105200D01*
X266062D01*
X265254Y104865D01*
X264635Y104246D01*
X264300Y103438D01*
Y102562D01*
X264306Y102547D01*
X263953Y102194D01*
X263937Y102200D01*
X263062D01*
X263047Y102194D01*
X262694Y102547D01*
X262700Y102562D01*
Y103438D01*
X262365Y104246D01*
X261746Y104865D01*
X260938Y105200D01*
X260062D01*
X259254Y104865D01*
X258635Y104246D01*
X258300Y103438D01*
Y102562D01*
X258306Y102547D01*
X257953Y102194D01*
X257938Y102200D01*
X257062D01*
X257047Y102194D01*
X256694Y102547D01*
X256700Y102562D01*
Y103438D01*
X256365Y104246D01*
X255746Y104865D01*
X254938Y105200D01*
X254062D01*
X253254Y104865D01*
X252635Y104246D01*
X252300Y103438D01*
Y102562D01*
X252635Y101754D01*
X253254Y101135D01*
X254062Y100800D01*
X254938D01*
X254953Y100806D01*
X255306Y100453D01*
X255300Y100438D01*
Y99562D01*
X255306Y99547D01*
X254953Y99194D01*
X254938Y99200D01*
X254062D01*
X253254Y98865D01*
X252635Y98246D01*
X252300Y97438D01*
Y96562D01*
X252635Y95754D01*
X253254Y95135D01*
X254062Y94800D01*
X254938D01*
X255746Y95135D01*
X256365Y95754D01*
X256700Y96562D01*
Y97438D01*
X256694Y97453D01*
X257047Y97806D01*
X257062Y97800D01*
X257938D01*
X257953Y97806D01*
X258306Y97453D01*
X258300Y97438D01*
Y96562D01*
X258635Y95754D01*
X259254Y95135D01*
X260062Y94800D01*
X260938D01*
X261746Y95135D01*
X262365Y95754D01*
X262700Y96562D01*
Y97438D01*
X262694Y97453D01*
X263047Y97806D01*
X263062Y97800D01*
X263937D01*
X263953Y97806D01*
X264306Y97453D01*
X264300Y97438D01*
Y96562D01*
X264635Y95754D01*
X265254Y95135D01*
X266062Y94800D01*
X266937D01*
X267746Y95135D01*
X268365Y95754D01*
X268700Y96562D01*
Y97438D01*
X268694Y97453D01*
X269047Y97806D01*
X269062Y97800D01*
X269937D01*
X269953Y97806D01*
X270306Y97453D01*
X270300Y97438D01*
Y96562D01*
X270635Y95754D01*
X271254Y95135D01*
X272062Y94800D01*
X272937D01*
X273746Y95135D01*
X274365Y95754D01*
X274700Y96562D01*
Y97438D01*
X274694Y97453D01*
X275047Y97806D01*
X275062Y97800D01*
X275938D01*
X276746Y98135D01*
X277365Y98754D01*
X277700Y99562D01*
Y100438D01*
X277365Y101246D01*
X276746Y101865D01*
X275938Y102200D01*
X275062D01*
X275047Y102194D01*
X274694Y102547D01*
X274700Y102562D01*
Y103438D01*
X274365Y104246D01*
X273746Y104865D01*
X272937Y105200D01*
D02*
G37*
G36*
X50938Y103200D02*
X50062D01*
X49254Y102865D01*
X48635Y102246D01*
X48300Y101438D01*
Y100562D01*
X48635Y99754D01*
X49254Y99135D01*
X50062Y98800D01*
X50938D01*
X51746Y99135D01*
X52365Y99754D01*
X52700Y100562D01*
Y101438D01*
X52365Y102246D01*
X51746Y102865D01*
X50938Y103200D01*
D02*
G37*
G36*
X92438Y98700D02*
X91562D01*
X90754Y98365D01*
X90135Y97746D01*
X89800Y96938D01*
Y96062D01*
X90135Y95254D01*
X90754Y94635D01*
X91562Y94300D01*
X92438D01*
X93246Y94635D01*
X93865Y95254D01*
X94200Y96062D01*
Y96938D01*
X93865Y97746D01*
X93246Y98365D01*
X92438Y98700D01*
D02*
G37*
G36*
X349938Y92200D02*
X349062D01*
X348254Y91865D01*
X347635Y91246D01*
X347300Y90438D01*
Y89562D01*
X347635Y88754D01*
X348254Y88135D01*
X349062Y87800D01*
X349938D01*
X350746Y88135D01*
X351365Y88754D01*
X351700Y89562D01*
Y90438D01*
X351365Y91246D01*
X350746Y91865D01*
X349938Y92200D01*
D02*
G37*
G36*
X67938Y87200D02*
X67062D01*
X66254Y86865D01*
X65635Y86246D01*
X65300Y85438D01*
Y84562D01*
X65635Y83754D01*
X66254Y83135D01*
X67062Y82800D01*
X67938D01*
X68746Y83135D01*
X69365Y83754D01*
X69700Y84562D01*
Y85438D01*
X69365Y86246D01*
X68746Y86865D01*
X67938Y87200D01*
D02*
G37*
G36*
X327097Y85700D02*
X326123D01*
X325182Y85448D01*
X324339Y84961D01*
X323650Y84272D01*
X323163Y83428D01*
X322910Y82487D01*
Y81513D01*
X323163Y80572D01*
X323650Y79728D01*
X324339Y79039D01*
X325182Y78552D01*
X326123Y78300D01*
X327097D01*
X328039Y78552D01*
X328882Y79039D01*
X329571Y79728D01*
X330058Y80572D01*
X330310Y81513D01*
Y82487D01*
X330058Y83428D01*
X329571Y84272D01*
X328882Y84961D01*
X328039Y85448D01*
X327097Y85700D01*
D02*
G37*
G36*
X104438Y79700D02*
X103562D01*
X102754Y79365D01*
X102135Y78746D01*
X101800Y77938D01*
Y77062D01*
X102135Y76254D01*
X102754Y75635D01*
X103562Y75300D01*
X104438D01*
X105246Y75635D01*
X105865Y76254D01*
X106200Y77062D01*
Y77938D01*
X105865Y78746D01*
X105246Y79365D01*
X104438Y79700D01*
D02*
G37*
G36*
X20714Y85109D02*
X19286D01*
X17906Y84740D01*
X16669Y84026D01*
X15659Y83016D01*
X14945Y81779D01*
X14575Y80399D01*
Y78971D01*
X14945Y77591D01*
X15659Y76354D01*
X16669Y75344D01*
X17906Y74630D01*
X19286Y74261D01*
X20714D01*
X22094Y74630D01*
X23331Y75344D01*
X24340Y76354D01*
X25055Y77591D01*
X25424Y78971D01*
Y80399D01*
X25055Y81779D01*
X24340Y83016D01*
X23331Y84026D01*
X22094Y84740D01*
X20714Y85109D01*
D02*
G37*
G36*
X71438Y76441D02*
X70562D01*
X69754Y76106D01*
X69135Y75487D01*
X68800Y74679D01*
Y73803D01*
X69135Y72995D01*
X69754Y72376D01*
X70562Y72041D01*
X71438D01*
X72246Y72376D01*
X72865Y72995D01*
X73200Y73803D01*
Y74679D01*
X72865Y75487D01*
X72246Y76106D01*
X71438Y76441D01*
D02*
G37*
G36*
X194438Y73700D02*
X193069D01*
X191746Y73346D01*
X190560Y72661D01*
X189592Y71693D01*
X188908Y70507D01*
X188553Y69185D01*
Y67815D01*
X188908Y66493D01*
X189592Y65307D01*
X190560Y64339D01*
X191746Y63654D01*
X193069Y63300D01*
X194438D01*
X195760Y63654D01*
X196946Y64339D01*
X197914Y65307D01*
X198599Y66493D01*
X198953Y67815D01*
Y69185D01*
X198599Y70507D01*
X197914Y71693D01*
X196946Y72661D01*
X195760Y73346D01*
X194438Y73700D01*
D02*
G37*
G36*
X125841D02*
X124472D01*
X123150Y73346D01*
X121964Y72661D01*
X120996Y71693D01*
X120311Y70507D01*
X119957Y69185D01*
Y67815D01*
X120311Y66493D01*
X120996Y65307D01*
X121964Y64339D01*
X123150Y63654D01*
X124472Y63300D01*
X125841D01*
X127164Y63654D01*
X128350Y64339D01*
X129318Y65307D01*
X130002Y66493D01*
X130357Y67815D01*
Y69185D01*
X130002Y70507D01*
X129318Y71693D01*
X128350Y72661D01*
X127164Y73346D01*
X125841Y73700D01*
D02*
G37*
G36*
X57585Y73700D02*
X56215D01*
X54893Y73346D01*
X53707Y72661D01*
X52739Y71693D01*
X52054Y70507D01*
X51700Y69185D01*
Y67815D01*
X52054Y66493D01*
X52739Y65307D01*
X53707Y64339D01*
X54893Y63654D01*
X56215Y63300D01*
X57585D01*
X58907Y63654D01*
X60093Y64339D01*
X61061Y65307D01*
X61746Y66493D01*
X62100Y67815D01*
Y69185D01*
X61746Y70507D01*
X61061Y71693D01*
X60093Y72661D01*
X58907Y73346D01*
X57585Y73700D01*
D02*
G37*
G36*
X301504Y66830D02*
X300496D01*
X299522Y66569D01*
X298648Y66065D01*
X297935Y65352D01*
X297431Y64478D01*
X297170Y63504D01*
Y62496D01*
X297431Y61522D01*
X297935Y60648D01*
X298648Y59935D01*
X299522Y59431D01*
X300496Y59170D01*
X301504D01*
X302478Y59431D01*
X303352Y59935D01*
X304065Y60648D01*
X304569Y61522D01*
X304830Y62496D01*
Y63504D01*
X304569Y64478D01*
X304065Y65352D01*
X303352Y66065D01*
X302478Y66569D01*
X301504Y66830D01*
D02*
G37*
G36*
X260717D02*
X259708D01*
X258734Y66569D01*
X257861Y66065D01*
X257148Y65352D01*
X256644Y64478D01*
X256383Y63504D01*
Y62496D01*
X256644Y61522D01*
X257148Y60648D01*
X257861Y59935D01*
X258734Y59431D01*
X259708Y59170D01*
X260717D01*
X261691Y59431D01*
X262564Y59935D01*
X263277Y60648D01*
X263781Y61522D01*
X264042Y62496D01*
Y63504D01*
X263781Y64478D01*
X263277Y65352D01*
X262564Y66065D01*
X261691Y66569D01*
X260717Y66830D01*
D02*
G37*
G36*
X218104Y65676D02*
X216734D01*
X215412Y65322D01*
X214226Y64637D01*
X213258Y63669D01*
X212573Y62483D01*
X212219Y61161D01*
Y59791D01*
X212573Y58469D01*
X213258Y57283D01*
X214226Y56315D01*
X215412Y55630D01*
X216734Y55276D01*
X218104D01*
X219426Y55630D01*
X220612Y56315D01*
X221580Y57283D01*
X222265Y58469D01*
X222619Y59791D01*
Y61161D01*
X222265Y62483D01*
X221580Y63669D01*
X220612Y64637D01*
X219426Y65322D01*
X218104Y65676D01*
D02*
G37*
G36*
X149507D02*
X148138D01*
X146816Y65322D01*
X145630Y64637D01*
X144662Y63669D01*
X143977Y62483D01*
X143623Y61161D01*
Y59791D01*
X143977Y58469D01*
X144662Y57283D01*
X145630Y56315D01*
X146816Y55630D01*
X148138Y55276D01*
X149507D01*
X150830Y55630D01*
X152015Y56315D01*
X152984Y57283D01*
X153668Y58469D01*
X154023Y59791D01*
Y61161D01*
X153668Y62483D01*
X152984Y63669D01*
X152015Y64637D01*
X150830Y65322D01*
X149507Y65676D01*
D02*
G37*
G36*
X81250Y65676D02*
X79881D01*
X78559Y65322D01*
X77373Y64637D01*
X76405Y63669D01*
X75720Y62483D01*
X75366Y61161D01*
Y59791D01*
X75720Y58469D01*
X76405Y57283D01*
X77373Y56315D01*
X78559Y55630D01*
X79881Y55276D01*
X81250D01*
X82573Y55630D01*
X83759Y56315D01*
X84727Y57283D01*
X85411Y58469D01*
X85766Y59791D01*
Y61161D01*
X85411Y62483D01*
X84727Y63669D01*
X83759Y64637D01*
X82573Y65322D01*
X81250Y65676D01*
D02*
G37*
G36*
X20714Y65424D02*
X19286D01*
X17906Y65055D01*
X16669Y64341D01*
X15659Y63331D01*
X14945Y62094D01*
X14575Y60714D01*
Y59286D01*
X14945Y57906D01*
X15659Y56669D01*
X16669Y55659D01*
X17906Y54945D01*
X19286Y54576D01*
X20714D01*
X22094Y54945D01*
X23331Y55659D01*
X24340Y56669D01*
X25055Y57906D01*
X25424Y59286D01*
Y60714D01*
X25055Y62094D01*
X24340Y63331D01*
X23331Y64341D01*
X22094Y65055D01*
X20714Y65424D01*
D02*
G37*
G36*
X291113Y56157D02*
X289887D01*
X288703Y55839D01*
X287641Y55226D01*
X286774Y54359D01*
X286161Y53297D01*
X285843Y52113D01*
Y50887D01*
X286161Y49703D01*
X286774Y48641D01*
X287641Y47774D01*
X288703Y47161D01*
X289887Y46843D01*
X291113D01*
X292297Y47161D01*
X293359Y47774D01*
X294226Y48641D01*
X294839Y49703D01*
X295157Y50887D01*
Y52113D01*
X294839Y53297D01*
X294226Y54359D01*
X293359Y55226D01*
X292297Y55839D01*
X291113Y56157D01*
D02*
G37*
G36*
X281113D02*
X279887D01*
X278702Y55839D01*
X277641Y55226D01*
X276774Y54359D01*
X276161Y53297D01*
X275843Y52113D01*
Y50887D01*
X276161Y49703D01*
X276774Y48641D01*
X277641Y47774D01*
X278702Y47161D01*
X279887Y46843D01*
X281113D01*
X282297Y47161D01*
X283359Y47774D01*
X284226Y48641D01*
X284839Y49703D01*
X285157Y50887D01*
Y52113D01*
X284839Y53297D01*
X284226Y54359D01*
X283359Y55226D01*
X282297Y55839D01*
X281113Y56157D01*
D02*
G37*
G36*
X271113D02*
X269887D01*
X268703Y55839D01*
X267641Y55226D01*
X266774Y54359D01*
X266161Y53297D01*
X265843Y52113D01*
Y50887D01*
X266161Y49703D01*
X266774Y48641D01*
X267641Y47774D01*
X268703Y47161D01*
X269887Y46843D01*
X271113D01*
X272297Y47161D01*
X273359Y47774D01*
X274226Y48641D01*
X274839Y49703D01*
X275157Y50887D01*
Y52113D01*
X274839Y53297D01*
X274226Y54359D01*
X273359Y55226D01*
X272297Y55839D01*
X271113Y56157D01*
D02*
G37*
G36*
X373214Y56739D02*
X371786D01*
X370406Y56370D01*
X369169Y55656D01*
X368159Y54646D01*
X367445Y53409D01*
X367075Y52029D01*
Y50601D01*
X367445Y49221D01*
X368159Y47984D01*
X369169Y46974D01*
X370406Y46260D01*
X371786Y45891D01*
X373214D01*
X374594Y46260D01*
X375831Y46974D01*
X376840Y47984D01*
X377555Y49221D01*
X377924Y50601D01*
Y52029D01*
X377555Y53409D01*
X376840Y54646D01*
X375831Y55656D01*
X374594Y56370D01*
X373214Y56739D01*
D02*
G37*
G36*
X122938Y47200D02*
X122062D01*
X121254Y46865D01*
X120635Y46246D01*
X120300Y45438D01*
Y44562D01*
X120635Y43754D01*
X121254Y43135D01*
X122062Y42800D01*
X122938D01*
X123746Y43135D01*
X124365Y43754D01*
X124700Y44562D01*
Y45438D01*
X124365Y46246D01*
X123746Y46865D01*
X122938Y47200D01*
D02*
G37*
G36*
X316186Y59532D02*
X308786D01*
Y50194D01*
X308786Y50132D01*
X308800Y49637D01*
Y40300D01*
X316200D01*
Y49637D01*
X316200Y49700D01*
X316186Y50194D01*
Y50200D01*
Y59532D01*
D02*
G37*
G36*
X332486Y59563D02*
X331520Y59436D01*
X330620Y59064D01*
X329847Y58470D01*
X329254Y57698D01*
X328881Y56797D01*
X328754Y55832D01*
Y53832D01*
X328881Y52866D01*
X329254Y51966D01*
X329847Y51193D01*
X330620Y50600D01*
X331520Y50227D01*
X331974Y50167D01*
Y49663D01*
X331534Y49605D01*
X330634Y49232D01*
X329861Y48639D01*
X329268Y47866D01*
X328895Y46966D01*
X328768Y46000D01*
Y44000D01*
X328895Y43034D01*
X329268Y42134D01*
X329861Y41361D01*
X330634Y40768D01*
X331534Y40395D01*
X332500Y40268D01*
X333466Y40395D01*
X334366Y40768D01*
X335139Y41361D01*
X335732Y42134D01*
X336105Y43034D01*
X336232Y44000D01*
Y46000D01*
X336105Y46966D01*
X335732Y47866D01*
X335139Y48639D01*
X334366Y49232D01*
X333466Y49605D01*
X333012Y49665D01*
Y50169D01*
X333452Y50227D01*
X334352Y50600D01*
X335125Y51193D01*
X335718Y51966D01*
X336091Y52866D01*
X336218Y53832D01*
Y55832D01*
X336091Y56797D01*
X335718Y57698D01*
X335125Y58470D01*
X334352Y59064D01*
X333452Y59436D01*
X332486Y59563D01*
D02*
G37*
G36*
X110399Y25924D02*
X108971D01*
X107591Y25555D01*
X106354Y24841D01*
X105344Y23831D01*
X104630Y22594D01*
X104261Y21214D01*
Y19786D01*
X104630Y18406D01*
X105344Y17169D01*
X106354Y16159D01*
X107591Y15445D01*
X108971Y15076D01*
X110399D01*
X111779Y15445D01*
X113016Y16159D01*
X114026Y17169D01*
X114740Y18406D01*
X115109Y19786D01*
Y21214D01*
X114740Y22594D01*
X114026Y23831D01*
X113016Y24841D01*
X111779Y25555D01*
X110399Y25924D01*
D02*
G37*
G36*
X90714D02*
X89286D01*
X87906Y25555D01*
X86669Y24841D01*
X85659Y23831D01*
X84945Y22594D01*
X84576Y21214D01*
Y19786D01*
X84945Y18406D01*
X85659Y17169D01*
X86669Y16159D01*
X87906Y15445D01*
X89286Y15076D01*
X90714D01*
X92094Y15445D01*
X93331Y16159D01*
X94341Y17169D01*
X95055Y18406D01*
X95424Y19786D01*
Y21214D01*
X95055Y22594D01*
X94341Y23831D01*
X93331Y24841D01*
X92094Y25555D01*
X90714Y25924D01*
D02*
G37*
G36*
X65899D02*
X64471D01*
X63091Y25555D01*
X61854Y24841D01*
X60844Y23831D01*
X60130Y22594D01*
X59761Y21214D01*
Y19786D01*
X60130Y18406D01*
X60844Y17169D01*
X61854Y16159D01*
X63091Y15445D01*
X64471Y15076D01*
X65899D01*
X67279Y15445D01*
X68516Y16159D01*
X69526Y17169D01*
X70240Y18406D01*
X70609Y19786D01*
Y21214D01*
X70240Y22594D01*
X69526Y23831D01*
X68516Y24841D01*
X67279Y25555D01*
X65899Y25924D01*
D02*
G37*
G36*
X46214D02*
X44786D01*
X43406Y25555D01*
X42169Y24841D01*
X41159Y23831D01*
X40445Y22594D01*
X40075Y21214D01*
Y19786D01*
X40445Y18406D01*
X41159Y17169D01*
X42169Y16159D01*
X43406Y15445D01*
X44786Y15076D01*
X46214D01*
X47594Y15445D01*
X48831Y16159D01*
X49841Y17169D01*
X50555Y18406D01*
X50924Y19786D01*
Y21214D01*
X50555Y22594D01*
X49841Y23831D01*
X48831Y24841D01*
X47594Y25555D01*
X46214Y25924D01*
D02*
G37*
G36*
X154899Y25924D02*
X153471D01*
X152091Y25555D01*
X150854Y24841D01*
X149844Y23831D01*
X149130Y22594D01*
X148761Y21214D01*
Y19786D01*
X149130Y18406D01*
X149844Y17169D01*
X150854Y16159D01*
X152091Y15445D01*
X153471Y15076D01*
X154899D01*
X156279Y15445D01*
X157516Y16159D01*
X158526Y17169D01*
X159240Y18406D01*
X159609Y19786D01*
Y21214D01*
X159240Y22594D01*
X158526Y23831D01*
X157516Y24841D01*
X156279Y25555D01*
X154899Y25924D01*
D02*
G37*
G36*
X135214D02*
X133786D01*
X132406Y25555D01*
X131169Y24841D01*
X130159Y23831D01*
X129445Y22594D01*
X129076Y21214D01*
Y19786D01*
X129445Y18406D01*
X130159Y17169D01*
X131169Y16159D01*
X132406Y15445D01*
X133786Y15076D01*
X135214D01*
X136594Y15445D01*
X137831Y16159D01*
X138841Y17169D01*
X139555Y18406D01*
X139924Y19786D01*
Y21214D01*
X139555Y22594D01*
X138841Y23831D01*
X137831Y24841D01*
X136594Y25555D01*
X135214Y25924D01*
D02*
G37*
G36*
X218714Y24924D02*
X217286D01*
X215906Y24555D01*
X214669Y23841D01*
X213659Y22831D01*
X212945Y21594D01*
X212576Y20214D01*
Y18786D01*
X212945Y17406D01*
X213659Y16169D01*
X214669Y15159D01*
X215906Y14445D01*
X217286Y14076D01*
X218714D01*
X220094Y14445D01*
X221331Y15159D01*
X222340Y16169D01*
X223055Y17406D01*
X223424Y18786D01*
Y20214D01*
X223055Y21594D01*
X222340Y22831D01*
X221331Y23841D01*
X220094Y24555D01*
X218714Y24924D01*
D02*
G37*
G36*
X374666Y26291D02*
X373365D01*
X372089Y26037D01*
X370887Y25539D01*
X369805Y24816D01*
X368885Y23896D01*
X368162Y22814D01*
X367664Y21612D01*
X367410Y20336D01*
Y19034D01*
X367664Y17758D01*
X368162Y16556D01*
X368885Y15474D01*
X369805Y14554D01*
X370887Y13831D01*
X372089Y13333D01*
X373365Y13080D01*
X374666D01*
X375942Y13333D01*
X377145Y13831D01*
X378226Y14554D01*
X379147Y15474D01*
X379870Y16556D01*
X380367Y17758D01*
X380621Y19034D01*
Y20336D01*
X380367Y21612D01*
X379870Y22814D01*
X379147Y23896D01*
X378226Y24816D01*
X377145Y25539D01*
X375942Y26037D01*
X374666Y26291D01*
D02*
G37*
G36*
X20336D02*
X19035D01*
X17758Y26037D01*
X16556Y25539D01*
X15474Y24816D01*
X14554Y23896D01*
X13831Y22814D01*
X13333Y21612D01*
X13080Y20336D01*
Y19034D01*
X13333Y17758D01*
X13831Y16556D01*
X14554Y15474D01*
X15474Y14554D01*
X16556Y13831D01*
X17758Y13333D01*
X19035Y13080D01*
X20336D01*
X21612Y13333D01*
X22814Y13831D01*
X23896Y14554D01*
X24816Y15474D01*
X25539Y16556D01*
X26037Y17758D01*
X26291Y19034D01*
Y20336D01*
X26037Y21612D01*
X25539Y22814D01*
X24816Y23896D01*
X23896Y24816D01*
X22814Y25539D01*
X21612Y26037D01*
X20336Y26291D01*
D02*
G37*
G36*
X350160Y25700D02*
X348840D01*
X347546Y25442D01*
X346326Y24938D01*
X345229Y24204D01*
X344296Y23271D01*
X343563Y22174D01*
X343057Y20954D01*
X342800Y19660D01*
Y18340D01*
X343057Y17046D01*
X343563Y15826D01*
X344296Y14729D01*
X345229Y13796D01*
X346326Y13062D01*
X347546Y12558D01*
X348840Y12300D01*
X350160D01*
X351454Y12558D01*
X352674Y13062D01*
X353771Y13796D01*
X354704Y14729D01*
X355437Y15826D01*
X355943Y17046D01*
X356200Y18340D01*
Y19660D01*
X355943Y20954D01*
X355437Y22174D01*
X354704Y23271D01*
X353771Y24204D01*
X352674Y24938D01*
X351454Y25442D01*
X350160Y25700D01*
D02*
G37*
G36*
X259609D02*
X258289D01*
X256994Y25442D01*
X255775Y24938D01*
X254678Y24204D01*
X253745Y23271D01*
X253011Y22174D01*
X252506Y20954D01*
X252249Y19660D01*
Y18340D01*
X252506Y17046D01*
X253011Y15826D01*
X253745Y14729D01*
X254678Y13796D01*
X255775Y13062D01*
X256994Y12558D01*
X258289Y12300D01*
X259609D01*
X260903Y12558D01*
X262122Y13062D01*
X263220Y13796D01*
X264153Y14729D01*
X264886Y15826D01*
X265391Y17046D01*
X265649Y18340D01*
Y19660D01*
X265391Y20954D01*
X264886Y22174D01*
X264153Y23271D01*
X263220Y24204D01*
X262122Y24938D01*
X260903Y25442D01*
X259609Y25700D01*
D02*
G37*
%LPD*%
D60*
X117500Y386000D02*
D03*
X230000Y197839D02*
D03*
X371900D02*
D03*
X10000Y182815D02*
D03*
Y140315D02*
D03*
Y107500D02*
D03*
Y307657D02*
D03*
Y337657D02*
D03*
Y277657D02*
D03*
X9811Y224508D02*
D03*
D61*
X117500Y376000D02*
D03*
Y366000D02*
D03*
X229990Y237842D02*
D03*
Y227842D02*
D03*
Y217842D02*
D03*
Y207842D02*
D03*
X230000Y287839D02*
D03*
Y277839D02*
D03*
Y267839D02*
D03*
Y257839D02*
D03*
Y337839D02*
D03*
Y327839D02*
D03*
Y317839D02*
D03*
Y307839D02*
D03*
Y167839D02*
D03*
Y177839D02*
D03*
Y187839D02*
D03*
X371890Y237842D02*
D03*
Y227842D02*
D03*
Y217842D02*
D03*
Y207842D02*
D03*
X371900Y287839D02*
D03*
Y277839D02*
D03*
Y267839D02*
D03*
Y257839D02*
D03*
Y337839D02*
D03*
Y327839D02*
D03*
Y317839D02*
D03*
Y307839D02*
D03*
Y177839D02*
D03*
Y187839D02*
D03*
X230000Y157839D02*
D03*
X371900Y167839D02*
D03*
X351000Y158000D02*
D03*
X251000D02*
D03*
X371900Y157839D02*
D03*
X10000Y192657D02*
D03*
Y202500D02*
D03*
Y150157D02*
D03*
Y160000D02*
D03*
X386500Y200000D02*
D03*
Y210000D02*
D03*
Y220000D02*
D03*
Y230000D02*
D03*
Y240000D02*
D03*
Y250000D02*
D03*
Y260000D02*
D03*
X10000Y117343D02*
D03*
Y317500D02*
D03*
Y347500D02*
D03*
X386000Y308000D02*
D03*
Y318000D02*
D03*
Y328000D02*
D03*
Y338000D02*
D03*
X10000Y287500D02*
D03*
X9811Y234350D02*
D03*
X9711Y244250D02*
D03*
Y254050D02*
D03*
D62*
X39945Y380500D02*
D03*
X99000D02*
D03*
D63*
X71500Y371500D02*
D03*
X67500Y361500D02*
D03*
X75500D02*
D03*
X63500Y371500D02*
D03*
X79500D02*
D03*
X59500Y361500D02*
D03*
X83500D02*
D03*
X55500Y371500D02*
D03*
D65*
X229990Y247842D02*
D03*
X230000Y297839D02*
D03*
Y347839D02*
D03*
X371890Y247842D02*
D03*
X371900Y297839D02*
D03*
Y347839D02*
D03*
X386500Y270000D02*
D03*
X386000Y348000D02*
D03*
D67*
X251000D02*
D03*
Y338000D02*
D03*
Y328000D02*
D03*
Y318000D02*
D03*
Y308000D02*
D03*
Y298000D02*
D03*
Y288000D02*
D03*
Y278000D02*
D03*
Y268000D02*
D03*
Y258000D02*
D03*
Y248000D02*
D03*
Y238000D02*
D03*
Y228000D02*
D03*
Y218000D02*
D03*
Y208000D02*
D03*
Y198000D02*
D03*
Y188000D02*
D03*
Y178000D02*
D03*
Y168000D02*
D03*
X351000D02*
D03*
Y178000D02*
D03*
Y188000D02*
D03*
Y198000D02*
D03*
Y208000D02*
D03*
Y218000D02*
D03*
Y228000D02*
D03*
Y238000D02*
D03*
Y248000D02*
D03*
Y258000D02*
D03*
Y268000D02*
D03*
Y278000D02*
D03*
Y288000D02*
D03*
Y298000D02*
D03*
Y308000D02*
D03*
Y318000D02*
D03*
Y328000D02*
D03*
Y338000D02*
D03*
Y348000D02*
D03*
D68*
X301000Y63000D02*
D03*
X260212D02*
D03*
D70*
X258949Y19000D02*
D03*
X349500D02*
D03*
D71*
X67500Y329100D02*
D03*
X124024Y305166D02*
D03*
X67968Y281500D02*
D03*
X116000Y328832D02*
D03*
Y281500D02*
D03*
X155500Y261600D02*
D03*
X212024Y237666D02*
D03*
X155968Y214000D02*
D03*
X204000Y261332D02*
D03*
Y214000D02*
D03*
X116000Y214169D02*
D03*
Y261500D02*
D03*
X67968Y214169D02*
D03*
X124024Y237834D02*
D03*
X67500Y261769D02*
D03*
X56900Y68500D02*
D03*
X104232D02*
D03*
X56900Y116532D02*
D03*
X80566Y60476D02*
D03*
X104500Y117000D02*
D03*
X193753Y68500D02*
D03*
X241085D02*
D03*
X193753Y116532D02*
D03*
X217419Y60476D02*
D03*
X241353Y117000D02*
D03*
X204031Y281500D02*
D03*
Y328832D02*
D03*
X156000Y281500D02*
D03*
X212055Y305166D02*
D03*
X155532Y329100D02*
D03*
X125157Y68500D02*
D03*
X172488D02*
D03*
X125157Y116532D02*
D03*
X148823Y60476D02*
D03*
X172757Y117000D02*
D03*
X67600Y194300D02*
D03*
X124124Y170366D02*
D03*
X68068Y146700D02*
D03*
X116100Y194032D02*
D03*
Y146700D02*
D03*
X204000Y146900D02*
D03*
Y194231D02*
D03*
X155968Y146900D02*
D03*
X212024Y170566D02*
D03*
X155500Y194500D02*
D03*
D72*
X20000Y79685D02*
D03*
Y60000D02*
D03*
X154185Y20500D02*
D03*
X134500D02*
D03*
X90000Y20500D02*
D03*
X109685D02*
D03*
X137815Y372000D02*
D03*
X157500D02*
D03*
X218000Y19500D02*
D03*
X198315D02*
D03*
X372500Y71000D02*
D03*
Y51315D02*
D03*
X45500Y20500D02*
D03*
X65185D02*
D03*
D73*
X335573Y378011D02*
D03*
D74*
X325573D02*
D03*
X315573D02*
D03*
X305573D02*
D03*
X295573D02*
D03*
X285573D02*
D03*
X275573D02*
D03*
X265573D02*
D03*
X325500Y388000D02*
D03*
X315500D02*
D03*
X305500D02*
D03*
X295500D02*
D03*
X285500D02*
D03*
X275500D02*
D03*
X265500D02*
D03*
X335500D02*
D03*
X322486Y54832D02*
D03*
X332486D02*
D03*
X322500Y45000D02*
D03*
X332500D02*
D03*
X252014Y378168D02*
D03*
X242014D02*
D03*
X252000Y388000D02*
D03*
X242000D02*
D03*
D75*
X326610Y82000D02*
D03*
X340390D02*
D03*
X326720Y122000D02*
D03*
X340500D02*
D03*
D76*
X312486Y54832D02*
D03*
X312500Y45000D02*
D03*
X232014Y378168D02*
D03*
X232000Y388000D02*
D03*
D77*
X182287Y381098D02*
D03*
X194098D02*
D03*
X182287Y358098D02*
D03*
X194098D02*
D03*
D78*
X205909Y381098D02*
D03*
Y358098D02*
D03*
D80*
X290500Y51500D02*
D03*
X280500D02*
D03*
X270500D02*
D03*
D81*
X388500Y143500D02*
D03*
Y133500D02*
D03*
X358500D02*
D03*
Y143500D02*
D03*
D82*
X97500Y346000D02*
D03*
X147500Y379000D02*
D03*
X132500Y352700D02*
D03*
X130500Y366076D02*
D03*
X129000Y354000D02*
D03*
X143500Y358500D02*
D03*
X143000Y354000D02*
D03*
X69000Y389500D02*
D03*
X245000Y282500D02*
D03*
Y128000D02*
D03*
X238300Y222500D02*
D03*
X247000Y293000D02*
D03*
X274000Y309324D02*
D03*
X283500Y309241D02*
D03*
X275500Y277000D02*
D03*
X237066Y272500D02*
D03*
X264500Y292000D02*
D03*
X272510Y322510D02*
D03*
X268500Y277500D02*
D03*
X262000Y307000D02*
D03*
X106500Y221500D02*
D03*
Y254500D02*
D03*
X110197Y254642D02*
D03*
X111000Y221500D02*
D03*
X95300Y162062D02*
D03*
X62973Y171527D02*
D03*
X69500Y179000D02*
D03*
X46500Y179500D02*
D03*
Y175500D02*
D03*
X58418Y171527D02*
D03*
X296500Y303500D02*
D03*
X93000Y87500D02*
D03*
X228500Y355000D02*
D03*
X368000Y263000D02*
D03*
X379000Y258000D02*
D03*
X318000Y256000D02*
D03*
X286500D02*
D03*
X307500Y183000D02*
D03*
X323014Y185597D02*
D03*
X283000Y184500D02*
D03*
X349500Y90000D02*
D03*
X350000Y144000D02*
D03*
X88000Y97500D02*
D03*
X62500Y110000D02*
D03*
X341890Y101500D02*
D03*
X334000Y172500D02*
D03*
X93000Y108500D02*
D03*
X74000Y97500D02*
D03*
X314000Y316000D02*
D03*
X253919Y118758D02*
D03*
X257500Y119000D02*
D03*
X258500Y134000D02*
D03*
X304951Y145250D02*
D03*
X295000Y145000D02*
D03*
X275500Y150000D02*
D03*
X288653Y145459D02*
D03*
X272079Y145500D02*
D03*
X261757Y141000D02*
D03*
X281500Y132500D02*
D03*
X89000Y54500D02*
D03*
X327000Y73500D02*
D03*
X265000Y188000D02*
D03*
X304000Y202000D02*
D03*
X303000Y217000D02*
D03*
X298000Y216500D02*
D03*
X304000Y192500D02*
D03*
X241500Y128000D02*
D03*
X269500Y100000D02*
D03*
X272500Y97000D02*
D03*
X266500Y103000D02*
D03*
X257500Y100000D02*
D03*
X254500Y103000D02*
D03*
X260500D02*
D03*
X263500Y100000D02*
D03*
X260500Y97000D02*
D03*
X209000Y294000D02*
D03*
X219500Y293000D02*
D03*
X222450Y308050D02*
D03*
X324500Y289500D02*
D03*
X313500Y290000D02*
D03*
X323500Y306251D02*
D03*
X325231Y309521D02*
D03*
X283000Y321759D02*
D03*
X299414Y310914D02*
D03*
X296000Y314000D02*
D03*
X71000Y74241D02*
D03*
X122500Y45000D02*
D03*
X105500Y349500D02*
D03*
X109500Y346000D02*
D03*
X119500Y127500D02*
D03*
X111500Y113000D02*
D03*
X150000Y177500D02*
D03*
X225500Y283000D02*
D03*
X104000Y77500D02*
D03*
X96000Y229000D02*
D03*
X124500Y102000D02*
D03*
X201500Y180500D02*
D03*
X222000Y204000D02*
D03*
X257500Y203000D02*
D03*
X208500Y225000D02*
D03*
X118000Y225500D02*
D03*
X184548Y228594D02*
D03*
X120500Y294000D02*
D03*
X281500Y252500D02*
D03*
X223000Y232500D02*
D03*
X61819Y74985D02*
D03*
X104573Y58573D02*
D03*
X67500Y85000D02*
D03*
X46000Y60000D02*
D03*
X91500Y131000D02*
D03*
X37069Y100250D02*
D03*
X33000Y199000D02*
D03*
X29888Y291500D02*
D03*
X43703Y339337D02*
D03*
X266500Y97000D02*
D03*
X290000Y36000D02*
D03*
X342000Y32500D02*
D03*
X341500Y327595D02*
D03*
X341243Y332300D02*
D03*
X333443Y339512D02*
D03*
X323443D02*
D03*
X313443D02*
D03*
X303443D02*
D03*
X293443D02*
D03*
X283443D02*
D03*
X274537Y345989D02*
D03*
X350000Y362000D02*
D03*
X341500Y368500D02*
D03*
X358500Y362500D02*
D03*
X261495Y342479D02*
D03*
X300000Y229600D02*
D03*
X305000Y228500D02*
D03*
X293000Y234000D02*
D03*
X310000Y234800D02*
D03*
X317500Y245500D02*
D03*
X321800D02*
D03*
X337500Y241500D02*
D03*
X325500Y245500D02*
D03*
Y261000D02*
D03*
X334606Y249393D02*
D03*
X281000Y235000D02*
D03*
X336000Y209500D02*
D03*
X325000Y215759D02*
D03*
X259500Y169500D02*
D03*
X324868Y204946D02*
D03*
X313500Y216000D02*
D03*
X263500Y193000D02*
D03*
X267500Y168000D02*
D03*
X27000Y323000D02*
D03*
X50500Y101000D02*
D03*
X92000Y96500D02*
D03*
X184947Y162500D02*
D03*
X185829Y295426D02*
D03*
X97000Y295500D02*
D03*
X44500Y150000D02*
D03*
X44000Y192500D02*
D03*
Y275000D02*
D03*
X43366Y307000D02*
D03*
X364000Y193000D02*
D03*
X388000Y113500D02*
D03*
X357500Y111000D02*
D03*
X371282Y106771D02*
D03*
X379000Y89500D02*
D03*
X376282Y109271D02*
D03*
X371282Y111771D02*
D03*
X381282Y107271D02*
D03*
X381147Y111799D02*
D03*
X386000Y170000D02*
D03*
X235500Y172500D02*
D03*
X367500Y140000D02*
D03*
X295097Y184097D02*
D03*
X386000Y279000D02*
D03*
X292500Y217000D02*
D03*
X275500Y100000D02*
D03*
X254500Y97000D02*
D03*
X272500Y103000D02*
D03*
M02*
