G04*
G04 #@! TF.GenerationSoftware,Altium Limited,Altium Designer,24.9.1 (31)*
G04*
G04 Layer_Physical_Order=3*
G04 Layer_Color=16440176*
%FSLAX25Y25*%
%MOIN*%
G70*
G04*
G04 #@! TF.SameCoordinates,2A645F15-B05F-45B5-8E7C-29DD8EA82903*
G04*
G04*
G04 #@! TF.FilePolarity,Positive*
G04*
G01*
G75*
%ADD16C,0.00800*%
%ADD57C,0.02000*%
%ADD58C,0.01500*%
%ADD59C,0.05000*%
%ADD60R,0.08000X0.06000*%
%ADD61O,0.08000X0.06000*%
%ADD62C,0.09291*%
%ADD63C,0.05819*%
%ADD65R,0.07000X0.06000*%
%ADD67C,0.06024*%
%ADD68C,0.06260*%
%ADD70C,0.12000*%
%ADD71C,0.09000*%
%ADD72C,0.09449*%
%ADD73R,0.06000X0.07000*%
%ADD74O,0.06000X0.08000*%
%ADD75C,0.06000*%
%ADD76R,0.06000X0.08000*%
%ADD77C,0.04724*%
%ADD78R,0.04724X0.04724*%
%ADD80C,0.07913*%
%ADD81C,0.05118*%
%ADD82C,0.03000*%
G36*
X348451Y330700D02*
X348030Y330279D01*
X347541Y329433D01*
X347288Y328489D01*
Y327511D01*
X347541Y326567D01*
X348030Y325721D01*
X348721Y325030D01*
X349567Y324541D01*
X350511Y324288D01*
X351489D01*
X351500Y324279D01*
Y321721D01*
X351489Y321712D01*
X350511D01*
X349567Y321459D01*
X348721Y320970D01*
X348030Y320279D01*
X347541Y319433D01*
X347288Y318489D01*
Y317511D01*
X347541Y316567D01*
X348030Y315721D01*
X348721Y315030D01*
X349567Y314541D01*
X350511Y314288D01*
X351489D01*
X351500Y314279D01*
Y311721D01*
X351489Y311712D01*
X350511D01*
X349567Y311459D01*
X348721Y310970D01*
X348030Y310279D01*
X347541Y309433D01*
X347288Y308489D01*
Y307511D01*
X347541Y306567D01*
X348030Y305721D01*
X348721Y305030D01*
X349567Y304541D01*
X350511Y304288D01*
X351489D01*
X351500Y304279D01*
Y301721D01*
X351489Y301712D01*
X350511D01*
X349567Y301459D01*
X348721Y300970D01*
X348030Y300279D01*
X347541Y299433D01*
X347288Y298489D01*
Y297511D01*
X347541Y296567D01*
X348030Y295721D01*
X348721Y295030D01*
X349567Y294541D01*
X350511Y294288D01*
X351489D01*
X351500Y294279D01*
Y291721D01*
X351489Y291712D01*
X350511D01*
X349567Y291459D01*
X348721Y290970D01*
X348030Y290279D01*
X347541Y289433D01*
X347288Y288489D01*
Y287511D01*
X347541Y286567D01*
X348030Y285721D01*
X348721Y285030D01*
X349567Y284541D01*
X350511Y284288D01*
X351489D01*
X351500Y284279D01*
Y281721D01*
X351489Y281712D01*
X350511D01*
X349567Y281459D01*
X348721Y280970D01*
X348030Y280279D01*
X347541Y279433D01*
X347288Y278489D01*
Y277511D01*
X347541Y276567D01*
X348030Y275721D01*
X348721Y275030D01*
X349567Y274541D01*
X350511Y274288D01*
X351489D01*
X351500Y274279D01*
Y271721D01*
X351489Y271712D01*
X350511D01*
X349567Y271459D01*
X348721Y270970D01*
X348030Y270279D01*
X347541Y269433D01*
X347288Y268489D01*
Y267511D01*
X347541Y266567D01*
X348030Y265721D01*
X348721Y265030D01*
X349567Y264541D01*
X350511Y264288D01*
X351489D01*
X351500Y264279D01*
Y261721D01*
X351489Y261712D01*
X350511D01*
X349567Y261459D01*
X348721Y260970D01*
X348030Y260279D01*
X347541Y259433D01*
X347288Y258489D01*
Y257511D01*
X347541Y256567D01*
X348030Y255721D01*
X348721Y255030D01*
X349567Y254541D01*
X350511Y254288D01*
X351489D01*
X351500Y254279D01*
Y251721D01*
X351489Y251712D01*
X350511D01*
X349567Y251459D01*
X348721Y250970D01*
X348030Y250279D01*
X347541Y249433D01*
X347288Y248489D01*
Y247511D01*
X347541Y246567D01*
X348030Y245721D01*
X348721Y245030D01*
X349567Y244541D01*
X350511Y244288D01*
X351489D01*
X351500Y244279D01*
Y241721D01*
X351489Y241712D01*
X350511D01*
X349567Y241459D01*
X348721Y240970D01*
X348030Y240279D01*
X347541Y239433D01*
X347288Y238489D01*
Y237511D01*
X347541Y236567D01*
X348030Y235721D01*
X348721Y235030D01*
X349567Y234541D01*
X350511Y234288D01*
X351489D01*
X351500Y234279D01*
Y231721D01*
X351489Y231712D01*
X350511D01*
X349567Y231459D01*
X348721Y230970D01*
X348030Y230279D01*
X347541Y229433D01*
X347288Y228489D01*
Y227511D01*
X347541Y226567D01*
X348030Y225721D01*
X348721Y225030D01*
X349567Y224541D01*
X350511Y224288D01*
X351489D01*
X351500Y224279D01*
Y221721D01*
X351489Y221712D01*
X350511D01*
X349567Y221459D01*
X348721Y220970D01*
X348030Y220279D01*
X347541Y219433D01*
X347288Y218489D01*
Y217511D01*
X347541Y216567D01*
X348030Y215721D01*
X348721Y215030D01*
X349567Y214541D01*
X350511Y214288D01*
X351489D01*
X351500Y214279D01*
Y211721D01*
X351489Y211712D01*
X350511D01*
X349567Y211459D01*
X348721Y210970D01*
X348030Y210279D01*
X347541Y209433D01*
X347288Y208489D01*
Y207511D01*
X347541Y206567D01*
X348030Y205721D01*
X348721Y205030D01*
X349567Y204541D01*
X350511Y204288D01*
X351489D01*
X351500Y204279D01*
Y201721D01*
X351489Y201712D01*
X350511D01*
X349567Y201459D01*
X348721Y200970D01*
X348030Y200279D01*
X347541Y199433D01*
X347288Y198489D01*
Y197511D01*
X347541Y196567D01*
X348030Y195721D01*
X348721Y195030D01*
X349567Y194541D01*
X350511Y194288D01*
X351489D01*
X351500Y194279D01*
Y191721D01*
X351489Y191712D01*
X350511D01*
X349567Y191459D01*
X348721Y190970D01*
X348030Y190279D01*
X347541Y189433D01*
X347288Y188489D01*
Y187511D01*
X347541Y186567D01*
X348030Y185721D01*
X348721Y185030D01*
X349567Y184541D01*
X350511Y184288D01*
X351489D01*
X351500Y184279D01*
Y181721D01*
X351489Y181712D01*
X350511D01*
X349567Y181459D01*
X348721Y180970D01*
X348030Y180279D01*
X347541Y179433D01*
X347288Y178489D01*
Y177511D01*
X347541Y176567D01*
X348030Y175721D01*
X348721Y175030D01*
X349567Y174541D01*
X350511Y174288D01*
X351489D01*
X351500Y174279D01*
Y171721D01*
X351489Y171712D01*
X350511D01*
X349567Y171459D01*
X348721Y170970D01*
X348030Y170279D01*
X347541Y169433D01*
X347288Y168489D01*
Y167511D01*
X347541Y166567D01*
X348030Y165721D01*
X348721Y165030D01*
X349567Y164541D01*
X350511Y164288D01*
X351489D01*
X351500Y164279D01*
Y161732D01*
X350000D01*
X349034Y161605D01*
X348134Y161232D01*
X347361Y160639D01*
X346768Y159866D01*
X346395Y158966D01*
X346268Y158000D01*
X346395Y157034D01*
X346768Y156134D01*
X347361Y155361D01*
X348134Y154768D01*
X349034Y154395D01*
X350000Y154268D01*
X351500D01*
Y85500D01*
X341623D01*
X340877Y85700D01*
X339903D01*
X339156Y85500D01*
X327844D01*
X327097Y85700D01*
X326123D01*
X325377Y85500D01*
X251500D01*
Y116934D01*
X252300Y117266D01*
X252673Y116893D01*
X253482Y116558D01*
X254357D01*
X255166Y116893D01*
X255784Y117511D01*
X256108Y117281D01*
X256254Y117135D01*
X257062Y116800D01*
X257938D01*
X258746Y117135D01*
X259365Y117754D01*
X259700Y118562D01*
Y119438D01*
X259365Y120246D01*
X258746Y120865D01*
X257938Y121200D01*
X257062D01*
X256254Y120865D01*
X255635Y120246D01*
X255312Y120476D01*
X255166Y120623D01*
X254357Y120958D01*
X253482D01*
X252673Y120623D01*
X252300Y120250D01*
X251500Y120581D01*
Y154268D01*
X252000D01*
X252966Y154395D01*
X253866Y154768D01*
X254639Y155361D01*
X255232Y156134D01*
X255605Y157034D01*
X255732Y158000D01*
X255605Y158966D01*
X255232Y159866D01*
X254639Y160639D01*
X253866Y161232D01*
X252966Y161605D01*
X252000Y161732D01*
X251500D01*
Y164291D01*
X252433Y164541D01*
X253279Y165030D01*
X253970Y165721D01*
X254459Y166567D01*
X254712Y167511D01*
Y168489D01*
X254459Y169433D01*
X253970Y170279D01*
X253279Y170970D01*
X252433Y171459D01*
X251500Y171709D01*
Y174291D01*
X252433Y174541D01*
X253279Y175030D01*
X253970Y175721D01*
X254459Y176567D01*
X254712Y177511D01*
Y178489D01*
X254459Y179433D01*
X253970Y180279D01*
X253279Y180970D01*
X253271Y181898D01*
X253355Y181955D01*
X257922Y186522D01*
X263367D01*
X263754Y186135D01*
X264562Y185800D01*
X265438D01*
X266246Y186135D01*
X266633Y186522D01*
X280779D01*
X281135Y185746D01*
X280800Y184938D01*
Y184062D01*
X281135Y183254D01*
X281754Y182635D01*
X282562Y182300D01*
X283438D01*
X284246Y182635D01*
X284865Y183254D01*
X285200Y184062D01*
Y184938D01*
X284865Y185746D01*
X285221Y186522D01*
X290000D01*
X290566Y186634D01*
X291045Y186955D01*
X303891Y199800D01*
X304438D01*
X305246Y200135D01*
X305865Y200754D01*
X306200Y201562D01*
Y202438D01*
X305865Y203246D01*
X305246Y203865D01*
X304438Y204200D01*
X303562D01*
X302754Y203865D01*
X302135Y203246D01*
X301800Y202438D01*
Y201891D01*
X289388Y189478D01*
X266633D01*
X266246Y189865D01*
X265438Y190200D01*
X264562Y190200D01*
X264274Y190939D01*
X264746Y191135D01*
X265365Y191754D01*
X265700Y192562D01*
Y193438D01*
X265365Y194246D01*
X264746Y194865D01*
X263938Y195200D01*
X263062D01*
X262254Y194865D01*
X261635Y194246D01*
X261300Y193438D01*
Y192562D01*
X261635Y191754D01*
X262254Y191135D01*
X263062Y190800D01*
X263938Y190800D01*
X264227Y190061D01*
X263754Y189865D01*
X263367Y189478D01*
X257310D01*
X256744Y189366D01*
X256264Y189045D01*
X255512Y188293D01*
X255025Y188412D01*
X254683Y188595D01*
X254459Y189433D01*
X253970Y190279D01*
X253279Y190970D01*
X252433Y191459D01*
X251500Y191709D01*
Y194291D01*
X252433Y194541D01*
X253279Y195030D01*
X253970Y195721D01*
X254459Y196567D01*
X254712Y197511D01*
Y198489D01*
X254459Y199433D01*
X253970Y200279D01*
X253279Y200970D01*
X252433Y201459D01*
X251500Y201709D01*
Y204291D01*
X252433Y204541D01*
X253279Y205030D01*
X253970Y205721D01*
X254459Y206567D01*
X254712Y207511D01*
Y208489D01*
X254459Y209433D01*
X253970Y210279D01*
X253279Y210970D01*
X252433Y211459D01*
X251500Y211709D01*
Y214291D01*
X252433Y214541D01*
X253279Y215030D01*
X253970Y215721D01*
X254459Y216567D01*
X254712Y217511D01*
Y218489D01*
X254459Y219433D01*
X253970Y220279D01*
X253279Y220970D01*
X252433Y221459D01*
X251500Y221709D01*
Y224291D01*
X252433Y224541D01*
X253279Y225030D01*
X253970Y225721D01*
X254459Y226567D01*
X254712Y227511D01*
Y228489D01*
X254459Y229433D01*
X253970Y230279D01*
X253279Y230970D01*
X252433Y231459D01*
X251500Y231709D01*
Y234291D01*
X252433Y234541D01*
X253279Y235030D01*
X253970Y235721D01*
X254459Y236567D01*
X254712Y237511D01*
Y238489D01*
X254459Y239433D01*
X253970Y240279D01*
X253279Y240970D01*
X252433Y241459D01*
X251500Y241709D01*
Y244291D01*
X252433Y244541D01*
X253279Y245030D01*
X253970Y245721D01*
X254459Y246567D01*
X254712Y247511D01*
Y248489D01*
X254459Y249433D01*
X253970Y250279D01*
X253279Y250970D01*
X252433Y251459D01*
X251500Y251709D01*
Y254291D01*
X252433Y254541D01*
X253279Y255030D01*
X253970Y255721D01*
X254459Y256567D01*
X254712Y257511D01*
Y258489D01*
X254459Y259433D01*
X253970Y260279D01*
X253279Y260970D01*
X252433Y261459D01*
X251500Y261709D01*
Y264291D01*
X252433Y264541D01*
X253279Y265030D01*
X253970Y265721D01*
X254459Y266567D01*
X254712Y267511D01*
Y268489D01*
X254459Y269433D01*
X253970Y270279D01*
X253279Y270970D01*
X252433Y271459D01*
X251500Y271709D01*
Y274291D01*
X252433Y274541D01*
X253279Y275030D01*
X253970Y275721D01*
X254459Y276567D01*
X254712Y277511D01*
Y278489D01*
X254459Y279433D01*
X253970Y280279D01*
X253279Y280970D01*
X252433Y281459D01*
X251500Y281709D01*
Y284291D01*
X252433Y284541D01*
X253279Y285030D01*
X253970Y285721D01*
X254459Y286567D01*
X254712Y287511D01*
Y288489D01*
X254459Y289433D01*
X253970Y290279D01*
X253279Y290970D01*
X252433Y291459D01*
X251500Y291709D01*
Y294291D01*
X252433Y294541D01*
X253279Y295030D01*
X253970Y295721D01*
X254459Y296567D01*
X254712Y297511D01*
Y298489D01*
X254459Y299433D01*
X254028Y300179D01*
X254146Y300564D01*
X254402Y300978D01*
X295441D01*
X296105Y301111D01*
X296388Y301300D01*
X296938D01*
X297746Y301635D01*
X297878Y301767D01*
X320749D01*
X321413Y301899D01*
X321975Y302274D01*
X323751Y304050D01*
X323938D01*
X324746Y304385D01*
X325365Y305004D01*
X325700Y305813D01*
Y306688D01*
X326211Y307545D01*
X326477Y307656D01*
X327096Y308275D01*
X327431Y309083D01*
Y309958D01*
X327096Y310767D01*
X326477Y311386D01*
X325668Y311721D01*
X324793D01*
X323985Y311386D01*
X323366Y310767D01*
X323031Y309958D01*
Y309083D01*
X322520Y308226D01*
X322254Y308116D01*
X321635Y307497D01*
X321300Y306688D01*
Y306502D01*
X320032Y305233D01*
X297878D01*
X297746Y305365D01*
X296938Y305700D01*
X296062D01*
X295254Y305365D01*
X294635Y304746D01*
X294510Y304445D01*
X263602D01*
X263458Y304724D01*
X263356Y305245D01*
X263865Y305754D01*
X264200Y306562D01*
Y307438D01*
X263865Y308246D01*
X263246Y308865D01*
X262438Y309200D01*
X261562D01*
X260754Y308865D01*
X260135Y308246D01*
X259800Y307438D01*
Y306562D01*
X260135Y305754D01*
X260644Y305245D01*
X260542Y304724D01*
X260398Y304445D01*
X253799D01*
X253494Y305245D01*
X253970Y305721D01*
X254459Y306567D01*
X254712Y307511D01*
Y308489D01*
X254459Y309433D01*
X253970Y310279D01*
X253279Y310970D01*
X252433Y311459D01*
X251500Y311709D01*
Y314291D01*
X252433Y314541D01*
X253279Y315030D01*
X253970Y315721D01*
X254459Y316567D01*
X254712Y317511D01*
Y318489D01*
X254459Y319433D01*
X253970Y320279D01*
X253279Y320970D01*
X252433Y321459D01*
X251500Y321709D01*
Y324291D01*
X252433Y324541D01*
X253279Y325030D01*
X253970Y325721D01*
X254459Y326567D01*
X254712Y327511D01*
Y328489D01*
X254459Y329433D01*
X253970Y330279D01*
X253549Y330700D01*
X253881Y331500D01*
X339193D01*
X339378Y331054D01*
X339997Y330435D01*
X340257Y330328D01*
Y329462D01*
X340254Y329460D01*
X339635Y328841D01*
X339300Y328033D01*
Y327158D01*
X339635Y326349D01*
X340254Y325730D01*
X341062Y325395D01*
X341938D01*
X342746Y325730D01*
X343365Y326349D01*
X343700Y327158D01*
Y328033D01*
X343365Y328841D01*
X342746Y329460D01*
X342487Y329568D01*
Y330434D01*
X342490Y330435D01*
X343108Y331054D01*
X343293Y331500D01*
X348119D01*
X348451Y330700D01*
D02*
G37*
G36*
X217000Y67500D02*
X235969D01*
X236239Y66493D01*
X236924Y65307D01*
X237892Y64339D01*
X239078Y63654D01*
X240400Y63300D01*
X241769D01*
X243092Y63654D01*
X244278Y64339D01*
X245246Y65307D01*
X245930Y66493D01*
X246200Y67500D01*
X275500D01*
Y46500D01*
X124111D01*
X123746Y46865D01*
X122938Y47200D01*
X122062D01*
X121254Y46865D01*
X120889Y46500D01*
X73000D01*
Y73321D01*
X73200Y73803D01*
Y74679D01*
X73000Y75161D01*
Y94924D01*
X73562Y95300D01*
X74438D01*
X75246Y95635D01*
X75865Y96254D01*
X76200Y97062D01*
Y97938D01*
X75865Y98746D01*
X75246Y99365D01*
X74438Y99700D01*
X73562D01*
X73000Y100076D01*
Y145013D01*
X73269Y146015D01*
Y147385D01*
X73000Y148387D01*
Y212855D01*
X73168Y213484D01*
Y214853D01*
X73000Y215482D01*
Y280187D01*
X73168Y280815D01*
Y282185D01*
X73000Y282813D01*
Y338000D01*
X122291D01*
Y310085D01*
X122017Y310011D01*
X120831Y309327D01*
X119863Y308359D01*
X119178Y307173D01*
X118824Y305850D01*
Y304481D01*
X119178Y303159D01*
X119863Y301973D01*
X120831Y301005D01*
X122017Y300320D01*
X123339Y299966D01*
X124709D01*
X126031Y300320D01*
X127217Y301005D01*
X128185Y301973D01*
X128870Y303159D01*
X129224Y304481D01*
Y305850D01*
X128870Y307173D01*
X128185Y308359D01*
X127217Y309327D01*
X126031Y310011D01*
X125757Y310085D01*
Y338000D01*
X217000D01*
Y67500D01*
D02*
G37*
G36*
X285500Y31500D02*
X267500D01*
Y12500D01*
X251500D01*
Y40500D01*
X276500D01*
Y55429D01*
X285500D01*
Y31500D01*
D02*
G37*
G36*
X389500Y2379D02*
X389472Y2356D01*
X388304Y1732D01*
X387540Y1500D01*
X207500D01*
Y28000D01*
X248500D01*
Y10500D01*
X270500D01*
Y28000D01*
X356500D01*
Y61000D01*
X389500D01*
Y2379D01*
D02*
G37*
%LPC*%
G36*
X272947Y324710D02*
X272072D01*
X271263Y324375D01*
X270644Y323756D01*
X270309Y322947D01*
Y322072D01*
X270644Y321263D01*
X271263Y320644D01*
X272072Y320309D01*
X272947D01*
X273756Y320644D01*
X274375Y321263D01*
X274710Y322072D01*
Y322947D01*
X274375Y323756D01*
X273756Y324375D01*
X272947Y324710D01*
D02*
G37*
G36*
X283438Y323959D02*
X282562D01*
X281754Y323624D01*
X281135Y323005D01*
X280800Y322197D01*
Y321322D01*
X281135Y320513D01*
X281754Y319894D01*
X282562Y319559D01*
X283438D01*
X284246Y319894D01*
X284865Y320513D01*
X285200Y321322D01*
Y322197D01*
X284865Y323005D01*
X284246Y323624D01*
X283438Y323959D01*
D02*
G37*
G36*
X314438Y318200D02*
X313562D01*
X312754Y317865D01*
X312135Y317246D01*
X311800Y316438D01*
Y315562D01*
X312135Y314754D01*
X312754Y314135D01*
X313562Y313800D01*
X314438D01*
X315246Y314135D01*
X315865Y314754D01*
X316200Y315562D01*
Y316438D01*
X315865Y317246D01*
X315246Y317865D01*
X314438Y318200D01*
D02*
G37*
G36*
X296438Y316200D02*
X295562D01*
X294754Y315865D01*
X294135Y315246D01*
X293800Y314438D01*
Y313562D01*
X294135Y312754D01*
X294754Y312135D01*
X295562Y311800D01*
X296438D01*
X296554Y311848D01*
X296919Y311574D01*
X297214Y311256D01*
Y310476D01*
X297549Y309668D01*
X298168Y309049D01*
X298976Y308714D01*
X299852D01*
X300660Y309049D01*
X301279Y309668D01*
X301614Y310476D01*
Y311352D01*
X301279Y312160D01*
X300660Y312779D01*
X299852Y313114D01*
X298976D01*
X298860Y313066D01*
X298495Y313340D01*
X298200Y313658D01*
Y314438D01*
X297865Y315246D01*
X297246Y315865D01*
X296438Y316200D01*
D02*
G37*
G36*
X283938Y311441D02*
X283062D01*
X282254Y311106D01*
X281635Y310487D01*
X281300Y309679D01*
Y308803D01*
X281635Y307995D01*
X282254Y307376D01*
X283062Y307041D01*
X283938D01*
X284746Y307376D01*
X285365Y307995D01*
X285700Y308803D01*
Y309679D01*
X285365Y310487D01*
X284746Y311106D01*
X283938Y311441D01*
D02*
G37*
G36*
X264938Y294200D02*
X264062D01*
X263254Y293865D01*
X262635Y293246D01*
X262300Y292438D01*
Y291562D01*
X262635Y290754D01*
X263254Y290135D01*
X264062Y289800D01*
X264938D01*
X265746Y290135D01*
X266365Y290754D01*
X266700Y291562D01*
Y292438D01*
X266365Y293246D01*
X265746Y293865D01*
X264938Y294200D01*
D02*
G37*
G36*
X313938Y292200D02*
X313062D01*
X312254Y291865D01*
X311635Y291246D01*
X311300Y290438D01*
Y289562D01*
X311635Y288754D01*
X312254Y288135D01*
X313062Y287800D01*
X313938D01*
X314746Y288135D01*
X315365Y288754D01*
X315700Y289562D01*
Y290438D01*
X315365Y291246D01*
X314746Y291865D01*
X313938Y292200D01*
D02*
G37*
G36*
X268938Y279700D02*
X268062D01*
X267254Y279365D01*
X266635Y278746D01*
X266300Y277938D01*
Y277062D01*
X266635Y276254D01*
X267254Y275635D01*
X268062Y275300D01*
X268938D01*
X269746Y275635D01*
X270365Y276254D01*
X270700Y277062D01*
Y277938D01*
X270365Y278746D01*
X269746Y279365D01*
X268938Y279700D01*
D02*
G37*
G36*
X275938Y279200D02*
X275062D01*
X274254Y278865D01*
X273635Y278246D01*
X273300Y277438D01*
Y276562D01*
X273635Y275754D01*
X274254Y275135D01*
X275062Y274800D01*
X275938D01*
X276746Y275135D01*
X277365Y275754D01*
X277700Y276562D01*
Y277438D01*
X277365Y278246D01*
X276746Y278865D01*
X275938Y279200D01*
D02*
G37*
G36*
X325938Y263200D02*
X325062D01*
X324254Y262865D01*
X323635Y262246D01*
X323300Y261438D01*
Y260562D01*
X323635Y259754D01*
X324254Y259135D01*
X325062Y258800D01*
X325938D01*
X326746Y259135D01*
X327365Y259754D01*
X327700Y260562D01*
Y261438D01*
X327365Y262246D01*
X326746Y262865D01*
X325938Y263200D01*
D02*
G37*
G36*
X318438Y258200D02*
X317562D01*
X316754Y257865D01*
X316135Y257246D01*
X315800Y256438D01*
Y255562D01*
X316135Y254754D01*
X316754Y254135D01*
X317562Y253800D01*
X318438D01*
X319246Y254135D01*
X319865Y254754D01*
X320200Y255562D01*
Y256438D01*
X319865Y257246D01*
X319246Y257865D01*
X318438Y258200D01*
D02*
G37*
G36*
X286938D02*
X286062D01*
X285254Y257865D01*
X284635Y257246D01*
X284300Y256438D01*
Y255562D01*
X284635Y254754D01*
X285254Y254135D01*
X286062Y253800D01*
X286938D01*
X287746Y254135D01*
X288365Y254754D01*
X288700Y255562D01*
Y256438D01*
X288365Y257246D01*
X287746Y257865D01*
X286938Y258200D01*
D02*
G37*
G36*
X335044Y251593D02*
X334169D01*
X333360Y251258D01*
X332741Y250639D01*
X332406Y249830D01*
Y248955D01*
X332741Y248146D01*
X333360Y247528D01*
X334169Y247193D01*
X335044D01*
X335852Y247528D01*
X336471Y248146D01*
X336806Y248955D01*
Y249830D01*
X336471Y250639D01*
X335852Y251258D01*
X335044Y251593D01*
D02*
G37*
G36*
X325938Y247700D02*
X325062D01*
X324254Y247365D01*
X323650Y246761D01*
X323046Y247365D01*
X322238Y247700D01*
X321362D01*
X320554Y247365D01*
X319935Y246746D01*
X319600Y245938D01*
Y245062D01*
X319935Y244254D01*
X320554Y243635D01*
X321362Y243300D01*
X322238D01*
X323046Y243635D01*
X323650Y244239D01*
X324254Y243635D01*
X325062Y243300D01*
X325938D01*
X326746Y243635D01*
X327365Y244254D01*
X327700Y245062D01*
Y245938D01*
X327365Y246746D01*
X326746Y247365D01*
X325938Y247700D01*
D02*
G37*
G36*
X337938Y243700D02*
X337062D01*
X336254Y243365D01*
X335635Y242746D01*
X335300Y241938D01*
Y241062D01*
X335635Y240254D01*
X336254Y239635D01*
X337062Y239300D01*
X337938D01*
X338746Y239635D01*
X339365Y240254D01*
X339700Y241062D01*
Y241938D01*
X339365Y242746D01*
X338746Y243365D01*
X337938Y243700D01*
D02*
G37*
G36*
X310438Y237000D02*
X309562D01*
X308754Y236665D01*
X308135Y236046D01*
X307800Y235238D01*
Y234362D01*
X308135Y233554D01*
X308754Y232935D01*
X309562Y232600D01*
X310438D01*
X311246Y232935D01*
X311865Y233554D01*
X312200Y234362D01*
Y235238D01*
X311865Y236046D01*
X311246Y236665D01*
X310438Y237000D01*
D02*
G37*
G36*
X293438Y236200D02*
X292562D01*
X291754Y235865D01*
X291135Y235246D01*
X290800Y234438D01*
Y233562D01*
X291135Y232754D01*
X291754Y232135D01*
X292562Y231800D01*
X293438D01*
X294246Y232135D01*
X294865Y232754D01*
X295200Y233562D01*
Y234438D01*
X294865Y235246D01*
X294246Y235865D01*
X293438Y236200D01*
D02*
G37*
G36*
X300438Y231800D02*
X299562D01*
X298754Y231465D01*
X298135Y230846D01*
X297800Y230038D01*
Y229162D01*
X298135Y228354D01*
X298754Y227735D01*
X299562Y227400D01*
X300438D01*
X301246Y227735D01*
X301865Y228354D01*
X302000Y228679D01*
X302800Y228520D01*
Y228062D01*
X303135Y227254D01*
X303754Y226635D01*
X304562Y226300D01*
X305438D01*
X306246Y226635D01*
X306865Y227254D01*
X307200Y228062D01*
Y228938D01*
X306865Y229746D01*
X306246Y230365D01*
X305438Y230700D01*
X304562D01*
X303754Y230365D01*
X303135Y229746D01*
X303000Y229420D01*
X302200Y229580D01*
Y230038D01*
X301865Y230846D01*
X301246Y231465D01*
X300438Y231800D01*
D02*
G37*
G36*
X303438Y219200D02*
X302562D01*
X301754Y218865D01*
X301135Y218246D01*
X300829Y217509D01*
X300582Y217433D01*
X300000Y217421D01*
X299865Y217746D01*
X299246Y218365D01*
X298438Y218700D01*
X297562D01*
X296754Y218365D01*
X296135Y217746D01*
X295800Y216938D01*
Y216062D01*
X296135Y215254D01*
X296754Y214635D01*
X297562Y214300D01*
X298438D01*
X299246Y214635D01*
X299865Y215254D01*
X300171Y215991D01*
X300418Y216067D01*
X301000Y216079D01*
X301135Y215754D01*
X301754Y215135D01*
X302562Y214800D01*
X303438D01*
X304246Y215135D01*
X304865Y215754D01*
X305200Y216562D01*
Y217438D01*
X304865Y218246D01*
X304246Y218865D01*
X303438Y219200D01*
D02*
G37*
G36*
X292938D02*
X292062D01*
X291254Y218865D01*
X290635Y218246D01*
X290300Y217438D01*
Y216562D01*
X290635Y215754D01*
X291254Y215135D01*
X292062Y214800D01*
X292938D01*
X293746Y215135D01*
X294365Y215754D01*
X294700Y216562D01*
Y217438D01*
X294365Y218246D01*
X293746Y218865D01*
X292938Y219200D01*
D02*
G37*
G36*
X313938Y218200D02*
X313062D01*
X312254Y217865D01*
X311635Y217246D01*
X311300Y216438D01*
Y215562D01*
X311635Y214754D01*
X312254Y214135D01*
X313062Y213800D01*
X313938D01*
X314746Y214135D01*
X315365Y214754D01*
X315700Y215562D01*
Y216438D01*
X315365Y217246D01*
X314746Y217865D01*
X313938Y218200D01*
D02*
G37*
G36*
X336438Y211700D02*
X335562D01*
X334754Y211365D01*
X334135Y210746D01*
X333800Y209938D01*
Y209062D01*
X334135Y208254D01*
X334754Y207635D01*
X335562Y207300D01*
X336438D01*
X337246Y207635D01*
X337865Y208254D01*
X338200Y209062D01*
Y209938D01*
X337865Y210746D01*
X337246Y211365D01*
X336438Y211700D01*
D02*
G37*
G36*
X257938Y205200D02*
X257062D01*
X256254Y204865D01*
X255635Y204246D01*
X255300Y203438D01*
Y202562D01*
X255635Y201754D01*
X256254Y201135D01*
X257062Y200800D01*
X257938D01*
X258746Y201135D01*
X259365Y201754D01*
X259700Y202562D01*
Y203438D01*
X259365Y204246D01*
X258746Y204865D01*
X257938Y205200D01*
D02*
G37*
G36*
X304438Y194700D02*
X303562D01*
X302754Y194365D01*
X302135Y193746D01*
X301800Y192938D01*
Y192062D01*
X302135Y191254D01*
X302754Y190635D01*
X303562Y190300D01*
X304438D01*
X305246Y190635D01*
X305865Y191254D01*
X306200Y192062D01*
Y192938D01*
X305865Y193746D01*
X305246Y194365D01*
X304438Y194700D01*
D02*
G37*
G36*
X323451Y187797D02*
X322576D01*
X321768Y187462D01*
X321149Y186843D01*
X320814Y186034D01*
Y185159D01*
X321149Y184351D01*
X321768Y183732D01*
X322576Y183397D01*
X323451D01*
X324260Y183732D01*
X324879Y184351D01*
X325214Y185159D01*
Y186034D01*
X324879Y186843D01*
X324260Y187462D01*
X323451Y187797D01*
D02*
G37*
G36*
X295534Y186297D02*
X294659D01*
X293850Y185962D01*
X293232Y185343D01*
X292897Y184534D01*
Y183659D01*
X293232Y182851D01*
X293850Y182232D01*
X294659Y181897D01*
X295534D01*
X296343Y182232D01*
X296962Y182851D01*
X297297Y183659D01*
Y184534D01*
X296962Y185343D01*
X296343Y185962D01*
X295534Y186297D01*
D02*
G37*
G36*
X334438Y174700D02*
X333562D01*
X332754Y174365D01*
X332135Y173746D01*
X331800Y172938D01*
Y172062D01*
X332135Y171254D01*
X332754Y170635D01*
X333562Y170300D01*
X334438D01*
X335246Y170635D01*
X335865Y171254D01*
X336200Y172062D01*
Y172938D01*
X335865Y173746D01*
X335246Y174365D01*
X334438Y174700D01*
D02*
G37*
G36*
X267938Y170200D02*
X267062D01*
X266254Y169865D01*
X265635Y169246D01*
X265300Y168438D01*
Y167562D01*
X265635Y166754D01*
X266254Y166135D01*
X267062Y165800D01*
X267938D01*
X268746Y166135D01*
X269365Y166754D01*
X269700Y167562D01*
Y168438D01*
X269365Y169246D01*
X268746Y169865D01*
X267938Y170200D01*
D02*
G37*
G36*
X275938Y152200D02*
X275062D01*
X274254Y151865D01*
X273635Y151246D01*
X273300Y150438D01*
Y149562D01*
X273635Y148754D01*
X274254Y148135D01*
X275062Y147800D01*
X275938D01*
X276746Y148135D01*
X277365Y148754D01*
X277700Y149562D01*
Y150438D01*
X277365Y151246D01*
X276746Y151865D01*
X275938Y152200D01*
D02*
G37*
G36*
X272517Y147700D02*
X271641D01*
X270833Y147365D01*
X270214Y146746D01*
X269879Y145938D01*
Y145062D01*
X270214Y144254D01*
X270833Y143635D01*
X271641Y143300D01*
X272517D01*
X273325Y143635D01*
X273944Y144254D01*
X274279Y145062D01*
Y145938D01*
X273944Y146746D01*
X273325Y147365D01*
X272517Y147700D01*
D02*
G37*
G36*
X289091Y147659D02*
X288215D01*
X287407Y147324D01*
X286788Y146705D01*
X286453Y145896D01*
Y145021D01*
X286788Y144212D01*
X287407Y143594D01*
X288215Y143259D01*
X289091D01*
X289899Y143594D01*
X290518Y144212D01*
X290853Y145021D01*
Y145896D01*
X290518Y146705D01*
X289899Y147324D01*
X289091Y147659D01*
D02*
G37*
G36*
X305388Y147450D02*
X304513D01*
X303705Y147115D01*
X303086Y146496D01*
X302751Y145688D01*
Y144812D01*
X303086Y144004D01*
X303705Y143385D01*
X304513Y143050D01*
X305388D01*
X306197Y143385D01*
X306816Y144004D01*
X307151Y144812D01*
Y145688D01*
X306816Y146496D01*
X306197Y147115D01*
X305388Y147450D01*
D02*
G37*
G36*
X262194Y143200D02*
X261319D01*
X260510Y142865D01*
X259892Y142246D01*
X259557Y141438D01*
Y140562D01*
X259892Y139754D01*
X260510Y139135D01*
X261319Y138800D01*
X262194D01*
X263003Y139135D01*
X263622Y139754D01*
X263957Y140562D01*
Y141438D01*
X263622Y142246D01*
X263003Y142865D01*
X262194Y143200D01*
D02*
G37*
G36*
X258938Y136200D02*
X258062D01*
X257254Y135865D01*
X256635Y135246D01*
X256300Y134438D01*
Y133562D01*
X256635Y132754D01*
X257254Y132135D01*
X258062Y131800D01*
X258938D01*
X259746Y132135D01*
X260365Y132754D01*
X260700Y133562D01*
Y134438D01*
X260365Y135246D01*
X259746Y135865D01*
X258938Y136200D01*
D02*
G37*
G36*
X281938Y134700D02*
X281062D01*
X280254Y134365D01*
X279635Y133746D01*
X279300Y132938D01*
Y132062D01*
X279635Y131254D01*
X280254Y130635D01*
X281062Y130300D01*
X281938D01*
X282746Y130635D01*
X283365Y131254D01*
X283700Y132062D01*
Y132938D01*
X283365Y133746D01*
X282746Y134365D01*
X281938Y134700D01*
D02*
G37*
G36*
X340987Y125700D02*
X340013D01*
X339072Y125448D01*
X338228Y124961D01*
X337539Y124272D01*
X337052Y123428D01*
X336800Y122487D01*
Y121513D01*
X337052Y120572D01*
X337539Y119728D01*
X338228Y119039D01*
X339072Y118552D01*
X340013Y118300D01*
X340987D01*
X341928Y118552D01*
X342772Y119039D01*
X343461Y119728D01*
X343948Y120572D01*
X344200Y121513D01*
Y122487D01*
X343948Y123428D01*
X343461Y124272D01*
X342772Y124961D01*
X341928Y125448D01*
X340987Y125700D01*
D02*
G37*
G36*
X327208D02*
X326233D01*
X325292Y125448D01*
X324449Y124961D01*
X323760Y124272D01*
X323273Y123428D01*
X323021Y122487D01*
Y121513D01*
X323273Y120572D01*
X323760Y119728D01*
X324449Y119039D01*
X325292Y118552D01*
X326233Y118300D01*
X327208D01*
X328149Y118552D01*
X328992Y119039D01*
X329681Y119728D01*
X330168Y120572D01*
X330420Y121513D01*
Y122487D01*
X330168Y123428D01*
X329681Y124272D01*
X328992Y124961D01*
X328149Y125448D01*
X327208Y125700D01*
D02*
G37*
G36*
X342327Y103700D02*
X341452D01*
X340644Y103365D01*
X340025Y102746D01*
X339690Y101938D01*
Y101062D01*
X340025Y100254D01*
X340644Y99635D01*
X341452Y99300D01*
X342327D01*
X343136Y99635D01*
X343755Y100254D01*
X344090Y101062D01*
Y101938D01*
X343755Y102746D01*
X343136Y103365D01*
X342327Y103700D01*
D02*
G37*
G36*
X156216Y334300D02*
X154847D01*
X153524Y333946D01*
X152339Y333261D01*
X151371Y332293D01*
X150686Y331107D01*
X150331Y329785D01*
Y328415D01*
X150686Y327093D01*
X151371Y325907D01*
X152339Y324939D01*
X153524Y324254D01*
X154847Y323900D01*
X156216D01*
X157539Y324254D01*
X158724Y324939D01*
X159693Y325907D01*
X160377Y327093D01*
X160731Y328415D01*
Y329785D01*
X160377Y331107D01*
X159693Y332293D01*
X158724Y333261D01*
X157539Y333946D01*
X156216Y334300D01*
D02*
G37*
G36*
X204716Y334032D02*
X203347D01*
X202024Y333677D01*
X200839Y332993D01*
X199871Y332024D01*
X199186Y330839D01*
X198831Y329516D01*
Y328147D01*
X199186Y326824D01*
X199871Y325639D01*
X200839Y324671D01*
X202024Y323986D01*
X203347Y323632D01*
X204716D01*
X206039Y323986D01*
X207224Y324671D01*
X208192Y325639D01*
X208877Y326824D01*
X209231Y328147D01*
Y329516D01*
X208877Y330839D01*
X208192Y332024D01*
X207224Y332993D01*
X206039Y333677D01*
X204716Y334032D01*
D02*
G37*
G36*
X116685D02*
X115315D01*
X113993Y333677D01*
X112807Y332993D01*
X111839Y332024D01*
X111154Y330839D01*
X110800Y329516D01*
Y328147D01*
X111154Y326824D01*
X111839Y325639D01*
X112807Y324671D01*
X113993Y323986D01*
X115315Y323632D01*
X116685D01*
X118007Y323986D01*
X119193Y324671D01*
X120161Y325639D01*
X120846Y326824D01*
X121200Y328147D01*
Y329516D01*
X120846Y330839D01*
X120161Y332024D01*
X119193Y332993D01*
X118007Y333677D01*
X116685Y334032D01*
D02*
G37*
G36*
X97438Y297700D02*
X96562D01*
X95754Y297365D01*
X95135Y296746D01*
X94800Y295938D01*
Y295062D01*
X95135Y294254D01*
X95754Y293635D01*
X96562Y293300D01*
X97438D01*
X98246Y293635D01*
X98865Y294254D01*
X99200Y295062D01*
Y295938D01*
X98865Y296746D01*
X98246Y297365D01*
X97438Y297700D01*
D02*
G37*
G36*
X186267Y297626D02*
X185392D01*
X184583Y297291D01*
X183964Y296672D01*
X183629Y295864D01*
Y294988D01*
X183964Y294180D01*
X184583Y293561D01*
X185392Y293226D01*
X186267D01*
X187075Y293561D01*
X187694Y294180D01*
X188029Y294988D01*
Y295864D01*
X187694Y296672D01*
X187075Y297291D01*
X186267Y297626D01*
D02*
G37*
G36*
X209438Y296200D02*
X208562D01*
X207754Y295865D01*
X207135Y295246D01*
X206800Y294438D01*
Y293562D01*
X207135Y292754D01*
X207754Y292135D01*
X208562Y291800D01*
X209438D01*
X210246Y292135D01*
X210865Y292754D01*
X211200Y293562D01*
Y294438D01*
X210865Y295246D01*
X210246Y295865D01*
X209438Y296200D01*
D02*
G37*
G36*
X120938D02*
X120062D01*
X119254Y295865D01*
X118635Y295246D01*
X118300Y294438D01*
Y293562D01*
X118635Y292754D01*
X119254Y292135D01*
X120062Y291800D01*
X120938D01*
X121746Y292135D01*
X122365Y292754D01*
X122700Y293562D01*
Y294438D01*
X122365Y295246D01*
X121746Y295865D01*
X120938Y296200D01*
D02*
G37*
G36*
X204716Y286700D02*
X203347D01*
X202024Y286346D01*
X200839Y285661D01*
X199871Y284693D01*
X199186Y283507D01*
X198831Y282185D01*
Y280815D01*
X199186Y279493D01*
X199871Y278307D01*
X200839Y277339D01*
X202024Y276654D01*
X203347Y276300D01*
X204716D01*
X206039Y276654D01*
X207224Y277339D01*
X208192Y278307D01*
X208877Y279493D01*
X209231Y280815D01*
Y282185D01*
X208877Y283507D01*
X208192Y284693D01*
X207224Y285661D01*
X206039Y286346D01*
X204716Y286700D01*
D02*
G37*
G36*
X156685D02*
X155315D01*
X153993Y286346D01*
X152807Y285661D01*
X151839Y284693D01*
X151154Y283507D01*
X150800Y282185D01*
Y280815D01*
X151154Y279493D01*
X151839Y278307D01*
X152807Y277339D01*
X153993Y276654D01*
X155315Y276300D01*
X156685D01*
X158007Y276654D01*
X159193Y277339D01*
X160161Y278307D01*
X160846Y279493D01*
X161200Y280815D01*
Y282185D01*
X160846Y283507D01*
X160161Y284693D01*
X159193Y285661D01*
X158007Y286346D01*
X156685Y286700D01*
D02*
G37*
G36*
X156185Y266800D02*
X154815D01*
X153493Y266446D01*
X152307Y265761D01*
X151339Y264793D01*
X150654Y263607D01*
X150300Y262285D01*
Y260915D01*
X150654Y259593D01*
X151339Y258407D01*
X152307Y257439D01*
X153493Y256754D01*
X154815Y256400D01*
X156185D01*
X157507Y256754D01*
X158693Y257439D01*
X159661Y258407D01*
X160346Y259593D01*
X160700Y260915D01*
Y262285D01*
X160346Y263607D01*
X159661Y264793D01*
X158693Y265761D01*
X157507Y266446D01*
X156185Y266800D01*
D02*
G37*
G36*
X116685Y266700D02*
X115315D01*
X113993Y266346D01*
X112807Y265661D01*
X111839Y264693D01*
X111154Y263507D01*
X110800Y262185D01*
Y260815D01*
X111154Y259493D01*
X111839Y258307D01*
X112807Y257339D01*
X113993Y256654D01*
X115315Y256300D01*
X116685D01*
X118007Y256654D01*
X119193Y257339D01*
X120161Y258307D01*
X120846Y259493D01*
X121200Y260815D01*
Y262185D01*
X120846Y263507D01*
X120161Y264693D01*
X119193Y265661D01*
X118007Y266346D01*
X116685Y266700D01*
D02*
G37*
G36*
X204685Y266531D02*
X203315D01*
X201993Y266177D01*
X200807Y265493D01*
X199839Y264524D01*
X199154Y263339D01*
X198800Y262016D01*
Y260647D01*
X199154Y259324D01*
X199839Y258139D01*
X200807Y257171D01*
X201993Y256486D01*
X203315Y256132D01*
X204685D01*
X206007Y256486D01*
X207193Y257171D01*
X208161Y258139D01*
X208846Y259324D01*
X209200Y260647D01*
Y262016D01*
X208846Y263339D01*
X208161Y264524D01*
X207193Y265493D01*
X206007Y266177D01*
X204685Y266531D01*
D02*
G37*
G36*
X116685Y286700D02*
X115315D01*
X113993Y286346D01*
X112807Y285661D01*
X111839Y284693D01*
X111154Y283507D01*
X110800Y282185D01*
Y280865D01*
X99518Y269582D01*
X99005Y268914D01*
X98682Y268135D01*
X98572Y267300D01*
Y230584D01*
X98209Y230410D01*
X97772Y230339D01*
X97246Y230865D01*
X96438Y231200D01*
X95562D01*
X94754Y230865D01*
X94135Y230246D01*
X93800Y229438D01*
Y228562D01*
X94135Y227754D01*
X94754Y227135D01*
X95562Y226800D01*
X96438D01*
X97246Y227135D01*
X97772Y227661D01*
X98209Y227590D01*
X98572Y227416D01*
Y120782D01*
X98682Y119947D01*
X99005Y119169D01*
X99518Y118500D01*
X99518Y118500D01*
X99300Y117685D01*
Y116315D01*
X99654Y114993D01*
X100339Y113807D01*
X101307Y112839D01*
X102493Y112154D01*
X103815Y111800D01*
X105185D01*
X106507Y112154D01*
X107693Y112839D01*
X108561Y113707D01*
X109080Y113518D01*
X109300Y113366D01*
Y112562D01*
X109635Y111754D01*
X110254Y111135D01*
X111062Y110800D01*
X111938D01*
X112746Y111135D01*
X113365Y111754D01*
X113700Y112562D01*
Y113438D01*
X113365Y114246D01*
X112746Y114865D01*
X111938Y115200D01*
X111062D01*
X110254Y114865D01*
X110137Y114895D01*
X109575Y115848D01*
X109700Y116315D01*
Y117685D01*
X109346Y119007D01*
X108661Y120193D01*
X107693Y121161D01*
X106507Y121846D01*
X105185Y122200D01*
X105028D01*
Y218863D01*
X105828Y219397D01*
X106062Y219300D01*
X106938D01*
X107746Y219635D01*
X108297Y220186D01*
X108750Y220223D01*
X109203Y220186D01*
X109754Y219635D01*
X110562Y219300D01*
X111438D01*
X112246Y219635D01*
X112865Y220254D01*
X113200Y221062D01*
Y221938D01*
X112865Y222746D01*
X112246Y223365D01*
X111438Y223700D01*
X110562D01*
X109754Y223365D01*
X109203Y222814D01*
X108750Y222777D01*
X108297Y222814D01*
X107746Y223365D01*
X106938Y223700D01*
X106062D01*
X105828Y223603D01*
X105028Y224137D01*
Y251863D01*
X105828Y252397D01*
X106062Y252300D01*
X106938D01*
X107746Y252635D01*
X108365Y253254D01*
X108456Y253272D01*
X108951Y252777D01*
X109760Y252442D01*
X110635D01*
X111443Y252777D01*
X112062Y253396D01*
X112397Y254204D01*
Y255079D01*
X112062Y255888D01*
X111443Y256507D01*
X110635Y256842D01*
X109760D01*
X108951Y256507D01*
X108332Y255888D01*
X108241Y255870D01*
X107746Y256365D01*
X106938Y256700D01*
X106062D01*
X105828Y256603D01*
X105028Y257137D01*
Y265963D01*
X115365Y276300D01*
X116685D01*
X118007Y276654D01*
X119193Y277339D01*
X120161Y278307D01*
X120846Y279493D01*
X121200Y280815D01*
Y282185D01*
X120846Y283507D01*
X120161Y284693D01*
X119193Y285661D01*
X118007Y286346D01*
X116685Y286700D01*
D02*
G37*
G36*
X184985Y230795D02*
X184110D01*
X183302Y230460D01*
X182683Y229841D01*
X182348Y229032D01*
Y228157D01*
X182683Y227348D01*
X183302Y226729D01*
X184110Y226395D01*
X184985D01*
X185794Y226729D01*
X186413Y227348D01*
X186748Y228157D01*
Y229032D01*
X186413Y229841D01*
X185794Y230460D01*
X184985Y230795D01*
D02*
G37*
G36*
X118438Y227700D02*
X117562D01*
X116754Y227365D01*
X116135Y226746D01*
X115800Y225938D01*
Y225062D01*
X116135Y224254D01*
X116754Y223635D01*
X117562Y223300D01*
X118438D01*
X119246Y223635D01*
X119865Y224254D01*
X120200Y225062D01*
Y225938D01*
X119865Y226746D01*
X119246Y227365D01*
X118438Y227700D01*
D02*
G37*
G36*
X208938Y227200D02*
X208062D01*
X207254Y226865D01*
X206635Y226246D01*
X206300Y225438D01*
Y224562D01*
X206635Y223754D01*
X207254Y223135D01*
X208062Y222800D01*
X208938D01*
X209746Y223135D01*
X210365Y223754D01*
X210700Y224562D01*
Y225438D01*
X210365Y226246D01*
X209746Y226865D01*
X208938Y227200D01*
D02*
G37*
G36*
X116685Y219369D02*
X115315D01*
X113993Y219014D01*
X112807Y218330D01*
X111839Y217361D01*
X111154Y216176D01*
X110800Y214853D01*
Y213484D01*
X111154Y212161D01*
X111839Y210976D01*
X112807Y210008D01*
X113993Y209323D01*
X115315Y208968D01*
X116685D01*
X118007Y209323D01*
X119193Y210008D01*
X120161Y210976D01*
X120846Y212161D01*
X121200Y213484D01*
Y214853D01*
X120846Y216176D01*
X120161Y217361D01*
X119193Y218330D01*
X118007Y219014D01*
X116685Y219369D01*
D02*
G37*
G36*
X204685Y219200D02*
X203315D01*
X201993Y218846D01*
X200807Y218161D01*
X199839Y217193D01*
X199154Y216007D01*
X198800Y214685D01*
Y213315D01*
X199154Y211993D01*
X199839Y210807D01*
X200807Y209839D01*
X201993Y209154D01*
X203315Y208800D01*
X204685D01*
X206007Y209154D01*
X207193Y209839D01*
X208161Y210807D01*
X208846Y211993D01*
X209200Y213315D01*
Y214685D01*
X208846Y216007D01*
X208161Y217193D01*
X207193Y218161D01*
X206007Y218846D01*
X204685Y219200D01*
D02*
G37*
G36*
X156653D02*
X155284D01*
X153961Y218846D01*
X152776Y218161D01*
X151807Y217193D01*
X151123Y216007D01*
X150768Y214685D01*
Y213315D01*
X151123Y211993D01*
X151807Y210807D01*
X152776Y209839D01*
X153961Y209154D01*
X155284Y208800D01*
X156653D01*
X157976Y209154D01*
X159161Y209839D01*
X160129Y210807D01*
X160814Y211993D01*
X161169Y213315D01*
Y214685D01*
X160814Y216007D01*
X160129Y217193D01*
X159161Y218161D01*
X157976Y218846D01*
X156653Y219200D01*
D02*
G37*
G36*
X156185Y199700D02*
X154815D01*
X153493Y199346D01*
X152307Y198661D01*
X151339Y197693D01*
X150654Y196507D01*
X150300Y195185D01*
Y193815D01*
X150654Y192493D01*
X151339Y191307D01*
X152307Y190339D01*
X153493Y189654D01*
X154815Y189300D01*
X156185D01*
X157507Y189654D01*
X158693Y190339D01*
X159661Y191307D01*
X160346Y192493D01*
X160700Y193815D01*
Y195185D01*
X160346Y196507D01*
X159661Y197693D01*
X158693Y198661D01*
X157507Y199346D01*
X156185Y199700D01*
D02*
G37*
G36*
X204685Y199432D02*
X203315D01*
X201993Y199077D01*
X200807Y198392D01*
X199839Y197424D01*
X199154Y196239D01*
X198800Y194916D01*
Y193547D01*
X199154Y192224D01*
X199839Y191039D01*
X200807Y190070D01*
X201993Y189386D01*
X203315Y189032D01*
X204685D01*
X206007Y189386D01*
X207193Y190070D01*
X208161Y191039D01*
X208846Y192224D01*
X209200Y193547D01*
Y194916D01*
X208846Y196239D01*
X208161Y197424D01*
X207193Y198392D01*
X206007Y199077D01*
X204685Y199432D01*
D02*
G37*
G36*
X116785Y199232D02*
X115415D01*
X114093Y198877D01*
X112907Y198193D01*
X111939Y197224D01*
X111254Y196039D01*
X110900Y194716D01*
Y193347D01*
X111254Y192024D01*
X111939Y190839D01*
X112907Y189871D01*
X114093Y189186D01*
X115415Y188831D01*
X116785D01*
X118107Y189186D01*
X119293Y189871D01*
X120261Y190839D01*
X120946Y192024D01*
X121300Y193347D01*
Y194716D01*
X120946Y196039D01*
X120261Y197224D01*
X119293Y198193D01*
X118107Y198877D01*
X116785Y199232D01*
D02*
G37*
G36*
X201938Y182700D02*
X201062D01*
X200254Y182365D01*
X199635Y181746D01*
X199300Y180938D01*
Y180062D01*
X199635Y179254D01*
X200254Y178635D01*
X201062Y178300D01*
X201938D01*
X202746Y178635D01*
X203365Y179254D01*
X203700Y180062D01*
Y180938D01*
X203365Y181746D01*
X202746Y182365D01*
X201938Y182700D01*
D02*
G37*
G36*
X150438Y179700D02*
X149562D01*
X148754Y179365D01*
X148135Y178746D01*
X147800Y177938D01*
Y177062D01*
X148135Y176254D01*
X148754Y175635D01*
X149562Y175300D01*
X150438D01*
X151246Y175635D01*
X151865Y176254D01*
X152200Y177062D01*
Y177938D01*
X151865Y178746D01*
X151246Y179365D01*
X150438Y179700D01*
D02*
G37*
G36*
X185385Y164700D02*
X184509D01*
X183701Y164365D01*
X183082Y163746D01*
X182747Y162938D01*
Y162062D01*
X183082Y161254D01*
X183701Y160635D01*
X184509Y160300D01*
X185385D01*
X186193Y160635D01*
X186812Y161254D01*
X187147Y162062D01*
Y162938D01*
X186812Y163746D01*
X186193Y164365D01*
X185385Y164700D01*
D02*
G37*
G36*
X95738Y164262D02*
X94862D01*
X94054Y163927D01*
X93435Y163309D01*
X93100Y162500D01*
Y161625D01*
X93435Y160816D01*
X94054Y160197D01*
X94862Y159862D01*
X95738D01*
X96546Y160197D01*
X97165Y160816D01*
X97500Y161625D01*
Y162500D01*
X97165Y163309D01*
X96546Y163927D01*
X95738Y164262D01*
D02*
G37*
G36*
X204685Y152100D02*
X203315D01*
X201993Y151746D01*
X200807Y151061D01*
X199839Y150093D01*
X199154Y148907D01*
X198800Y147585D01*
Y147347D01*
X193881Y142428D01*
X159981D01*
X159650Y143228D01*
X160129Y143707D01*
X160814Y144893D01*
X161169Y146215D01*
Y147585D01*
X160814Y148907D01*
X160129Y150093D01*
X159161Y151061D01*
X157976Y151746D01*
X156653Y152100D01*
X155284D01*
X153961Y151746D01*
X152776Y151061D01*
X151807Y150093D01*
X151123Y148907D01*
X150768Y147585D01*
Y146215D01*
X151123Y144893D01*
X151807Y143707D01*
X152287Y143228D01*
X151956Y142428D01*
X124937D01*
X121300Y146064D01*
Y147385D01*
X120946Y148707D01*
X120261Y149893D01*
X119293Y150861D01*
X118107Y151546D01*
X116785Y151900D01*
X115415D01*
X114093Y151546D01*
X112907Y150861D01*
X111939Y149893D01*
X111254Y148707D01*
X110900Y147385D01*
Y146015D01*
X111254Y144693D01*
X111939Y143507D01*
X112907Y142539D01*
X114093Y141854D01*
X115415Y141500D01*
X116735D01*
X121318Y136918D01*
X121986Y136405D01*
X122765Y136082D01*
X123600Y135972D01*
X195218D01*
X196053Y136082D01*
X196831Y136405D01*
X197500Y136918D01*
X202501Y141918D01*
X203315Y141700D01*
X204685D01*
X206007Y142054D01*
X207193Y142739D01*
X208161Y143707D01*
X208846Y144893D01*
X209200Y146215D01*
Y147585D01*
X208846Y148907D01*
X208161Y150093D01*
X207193Y151061D01*
X206007Y151746D01*
X204685Y152100D01*
D02*
G37*
G36*
X91938Y133200D02*
X91062D01*
X90254Y132865D01*
X89635Y132246D01*
X89300Y131438D01*
Y130562D01*
X89635Y129754D01*
X90254Y129135D01*
X91062Y128800D01*
X91938D01*
X92746Y129135D01*
X93365Y129754D01*
X93700Y130562D01*
Y131438D01*
X93365Y132246D01*
X92746Y132865D01*
X91938Y133200D01*
D02*
G37*
G36*
X119938Y129700D02*
X119062D01*
X118254Y129365D01*
X117635Y128746D01*
X117300Y127938D01*
Y127062D01*
X117635Y126254D01*
X118254Y125635D01*
X119062Y125300D01*
X119938D01*
X120746Y125635D01*
X121365Y126254D01*
X121700Y127062D01*
Y127938D01*
X121365Y128746D01*
X120746Y129365D01*
X119938Y129700D01*
D02*
G37*
G36*
X173441Y122200D02*
X172072D01*
X170750Y121846D01*
X169564Y121161D01*
X168596Y120193D01*
X167911Y119007D01*
X167557Y117685D01*
Y116315D01*
X167911Y114993D01*
X168596Y113807D01*
X169564Y112839D01*
X170750Y112154D01*
X172072Y111800D01*
X173441D01*
X174764Y112154D01*
X175950Y112839D01*
X176918Y113807D01*
X177603Y114993D01*
X177957Y116315D01*
Y117685D01*
X177603Y119007D01*
X176918Y120193D01*
X175950Y121161D01*
X174764Y121846D01*
X173441Y122200D01*
D02*
G37*
G36*
X194438Y121731D02*
X193069D01*
X191746Y121377D01*
X190560Y120693D01*
X189592Y119724D01*
X188908Y118539D01*
X188553Y117216D01*
Y115847D01*
X188908Y114524D01*
X189592Y113339D01*
X190560Y112371D01*
X191746Y111686D01*
X193069Y111331D01*
X194438D01*
X195760Y111686D01*
X196946Y112371D01*
X197914Y113339D01*
X198599Y114524D01*
X198953Y115847D01*
Y117216D01*
X198599Y118539D01*
X197914Y119724D01*
X196946Y120693D01*
X195760Y121377D01*
X194438Y121731D01*
D02*
G37*
G36*
X125841D02*
X124472D01*
X123150Y121377D01*
X121964Y120693D01*
X120996Y119724D01*
X120311Y118539D01*
X119957Y117216D01*
Y115847D01*
X120311Y114524D01*
X120996Y113339D01*
X121964Y112371D01*
X123150Y111686D01*
X124472Y111331D01*
X125841D01*
X127164Y111686D01*
X128350Y112371D01*
X129318Y113339D01*
X130002Y114524D01*
X130357Y115847D01*
Y117216D01*
X130002Y118539D01*
X129318Y119724D01*
X128350Y120693D01*
X127164Y121377D01*
X125841Y121731D01*
D02*
G37*
G36*
X93438Y110700D02*
X92562D01*
X91754Y110365D01*
X91135Y109746D01*
X90800Y108938D01*
Y108062D01*
X91135Y107254D01*
X91754Y106635D01*
X92562Y106300D01*
X93438D01*
X94246Y106635D01*
X94865Y107254D01*
X95200Y108062D01*
Y108938D01*
X94865Y109746D01*
X94246Y110365D01*
X93438Y110700D01*
D02*
G37*
G36*
X124938Y104200D02*
X124062D01*
X123254Y103865D01*
X122635Y103246D01*
X122300Y102438D01*
Y101562D01*
X122635Y100754D01*
X123254Y100135D01*
X124062Y99800D01*
X124938D01*
X125746Y100135D01*
X126365Y100754D01*
X126700Y101562D01*
Y102438D01*
X126365Y103246D01*
X125746Y103865D01*
X124938Y104200D01*
D02*
G37*
G36*
X88438Y99700D02*
X87562D01*
X86754Y99365D01*
X86135Y98746D01*
X85800Y97938D01*
Y97062D01*
X86135Y96254D01*
X86754Y95635D01*
X87562Y95300D01*
X88438D01*
X89246Y95635D01*
X90094Y95352D01*
X90135Y95254D01*
X90754Y94635D01*
X91562Y94300D01*
X92438D01*
X93246Y94635D01*
X93865Y95254D01*
X94200Y96062D01*
Y96938D01*
X93865Y97746D01*
X93246Y98365D01*
X92438Y98700D01*
X91562D01*
X90754Y98365D01*
X89906Y98648D01*
X89865Y98746D01*
X89246Y99365D01*
X88438Y99700D01*
D02*
G37*
G36*
X93438Y89700D02*
X92562D01*
X91754Y89365D01*
X91135Y88746D01*
X90800Y87938D01*
Y87062D01*
X91135Y86254D01*
X91754Y85635D01*
X92562Y85300D01*
X93438D01*
X94246Y85635D01*
X94865Y86254D01*
X95200Y87062D01*
Y87938D01*
X94865Y88746D01*
X94246Y89365D01*
X93438Y89700D01*
D02*
G37*
G36*
X104438Y79700D02*
X103562D01*
X102754Y79365D01*
X102135Y78746D01*
X101800Y77938D01*
Y77062D01*
X102135Y76254D01*
X102754Y75635D01*
X103562Y75300D01*
X104438D01*
X105246Y75635D01*
X105865Y76254D01*
X106200Y77062D01*
Y77938D01*
X105865Y78746D01*
X105246Y79365D01*
X104438Y79700D01*
D02*
G37*
G36*
X194438Y73700D02*
X193069D01*
X191746Y73346D01*
X190560Y72661D01*
X189592Y71693D01*
X188908Y70507D01*
X188553Y69185D01*
Y67815D01*
X188908Y66493D01*
X189592Y65307D01*
X190560Y64339D01*
X191746Y63654D01*
X193069Y63300D01*
X194438D01*
X195760Y63654D01*
X196946Y64339D01*
X197914Y65307D01*
X198599Y66493D01*
X198953Y67815D01*
Y69185D01*
X198599Y70507D01*
X197914Y71693D01*
X196946Y72661D01*
X195760Y73346D01*
X194438Y73700D01*
D02*
G37*
G36*
X173173D02*
X171804D01*
X170481Y73346D01*
X169296Y72661D01*
X168327Y71693D01*
X167643Y70507D01*
X167288Y69185D01*
Y67815D01*
X167643Y66493D01*
X168327Y65307D01*
X169296Y64339D01*
X170481Y63654D01*
X171804Y63300D01*
X173173D01*
X174495Y63654D01*
X175681Y64339D01*
X176649Y65307D01*
X177334Y66493D01*
X177688Y67815D01*
Y69185D01*
X177334Y70507D01*
X176649Y71693D01*
X175681Y72661D01*
X174495Y73346D01*
X173173Y73700D01*
D02*
G37*
G36*
X125841D02*
X124472D01*
X123150Y73346D01*
X121964Y72661D01*
X120996Y71693D01*
X120311Y70507D01*
X119957Y69185D01*
Y67815D01*
X120311Y66493D01*
X120996Y65307D01*
X121964Y64339D01*
X123150Y63654D01*
X124472Y63300D01*
X125841D01*
X127164Y63654D01*
X128350Y64339D01*
X129318Y65307D01*
X130002Y66493D01*
X130357Y67815D01*
Y69185D01*
X130002Y70507D01*
X129318Y71693D01*
X128350Y72661D01*
X127164Y73346D01*
X125841Y73700D01*
D02*
G37*
G36*
X104916Y73700D02*
X103547D01*
X102224Y73346D01*
X101039Y72661D01*
X100071Y71693D01*
X99386Y70507D01*
X99032Y69185D01*
Y67815D01*
X99386Y66493D01*
X100071Y65307D01*
X101039Y64339D01*
X102224Y63654D01*
X103547Y63300D01*
X104916D01*
X106239Y63654D01*
X107424Y64339D01*
X108393Y65307D01*
X109077Y66493D01*
X109432Y67815D01*
Y69185D01*
X109077Y70507D01*
X108393Y71693D01*
X107424Y72661D01*
X106239Y73346D01*
X104916Y73700D01*
D02*
G37*
G36*
X105011Y60773D02*
X104136D01*
X103327Y60439D01*
X102708Y59820D01*
X102373Y59011D01*
Y58136D01*
X102708Y57327D01*
X103327Y56708D01*
X104136Y56373D01*
X105011D01*
X105820Y56708D01*
X106439Y57327D01*
X106773Y58136D01*
Y59011D01*
X106439Y59820D01*
X105820Y60439D01*
X105011Y60773D01*
D02*
G37*
G36*
X218104Y65676D02*
X216734D01*
X215412Y65322D01*
X214226Y64637D01*
X213258Y63669D01*
X212573Y62483D01*
X212219Y61161D01*
Y59791D01*
X212573Y58469D01*
X213258Y57283D01*
X214226Y56315D01*
X215412Y55630D01*
X216734Y55276D01*
X218104D01*
X219426Y55630D01*
X220612Y56315D01*
X221580Y57283D01*
X222265Y58469D01*
X222619Y59791D01*
Y61161D01*
X222265Y62483D01*
X221580Y63669D01*
X220612Y64637D01*
X219426Y65322D01*
X218104Y65676D01*
D02*
G37*
G36*
X89438Y56700D02*
X88562D01*
X87754Y56365D01*
X87135Y55746D01*
X86800Y54938D01*
Y54062D01*
X87135Y53254D01*
X87754Y52635D01*
X88562Y52300D01*
X89438D01*
X90246Y52635D01*
X90865Y53254D01*
X91200Y54062D01*
Y54938D01*
X90865Y55746D01*
X90246Y56365D01*
X89438Y56700D01*
D02*
G37*
G36*
X374666Y26291D02*
X373365D01*
X372089Y26037D01*
X370887Y25539D01*
X369805Y24816D01*
X368885Y23896D01*
X368162Y22814D01*
X367664Y21612D01*
X367410Y20336D01*
Y19034D01*
X367664Y17758D01*
X368162Y16556D01*
X368885Y15474D01*
X369805Y14554D01*
X370887Y13831D01*
X372089Y13333D01*
X373365Y13080D01*
X374666D01*
X375942Y13333D01*
X377145Y13831D01*
X378226Y14554D01*
X379147Y15474D01*
X379870Y16556D01*
X380367Y17758D01*
X380621Y19034D01*
Y20336D01*
X380367Y21612D01*
X379870Y22814D01*
X379147Y23896D01*
X378226Y24816D01*
X377145Y25539D01*
X375942Y26037D01*
X374666Y26291D01*
D02*
G37*
%LPD*%
D16*
X99672Y348172D02*
X100000D01*
X143000Y354000D02*
X150500Y361500D01*
Y384911D01*
X100000Y348172D02*
X110328Y358500D01*
X143500D01*
X246888Y284289D02*
Y292888D01*
X244500Y214500D02*
Y282031D01*
X247600Y281423D02*
Y283577D01*
X244500Y282031D02*
X244969Y282500D01*
X245000D01*
X246888Y284289D02*
X247600Y283577D01*
X246888Y232112D02*
Y280711D01*
Y232112D02*
X251000Y228000D01*
X246888Y280711D02*
X247600Y281423D01*
X244500Y214500D02*
X251000Y208000D01*
X246888Y292888D02*
X247000Y293000D01*
X260212Y62394D02*
Y63000D01*
X270500Y51500D02*
Y52106D01*
X260212Y62394D02*
X270500Y52106D01*
D57*
X97500Y346000D02*
X99672Y348172D01*
X105500Y349500D02*
X212750D01*
X241500Y183053D02*
Y295164D01*
Y341828D01*
X127403Y343000D02*
X240328D01*
X241500Y341828D01*
Y295164D02*
X249048Y302712D01*
X241500Y128000D02*
Y183053D01*
X249048Y302712D02*
X295441D01*
X296229Y303500D02*
X320749D01*
X295441Y302712D02*
X296229Y303500D01*
X320749D02*
X323500Y306251D01*
X241500Y128000D02*
X243500D01*
X124024Y339621D02*
X127403Y343000D01*
X109500Y346000D02*
X109550Y345950D01*
X214450D01*
X241599Y373099D01*
X124024Y305166D02*
Y339621D01*
X212750Y349500D02*
X236714Y373464D01*
X241599Y377753D02*
X242014Y378168D01*
X241599Y373099D02*
Y377753D01*
X236714Y381714D02*
X242000Y387000D01*
X236714Y373464D02*
Y381714D01*
X242000Y387000D02*
Y388000D01*
D58*
X150500Y384911D02*
X202097D01*
X243500Y128000D02*
X245000D01*
X241553Y183000D02*
X252310D01*
X241500Y183053D02*
X241553Y183000D01*
X252310D02*
X257310Y188000D01*
X202097Y384911D02*
X205909Y381098D01*
X100000Y343000D02*
X127403D01*
X69000D02*
X100000D01*
Y348172D01*
X62500Y110000D02*
Y110406D01*
X62850Y110756D01*
Y136406D01*
X46500Y152755D02*
X62850Y136406D01*
X46500Y152755D02*
Y175500D01*
X61550Y173155D02*
X62973Y171732D01*
Y171527D02*
Y171732D01*
X61550Y173155D02*
Y335550D01*
X69000Y343000D01*
X256000Y330500D02*
Y339310D01*
X358500Y133500D02*
Y143500D01*
X377033Y270000D02*
X386500D01*
X374533Y272500D02*
X377033Y270000D01*
X348500Y272500D02*
X374533D01*
X380550Y280278D02*
Y313550D01*
X385000Y318000D02*
X386000D01*
X380550Y280278D02*
X383750Y277078D01*
X380550Y313550D02*
X385000Y318000D01*
X383750Y272250D02*
Y277078D01*
X237690Y355000D02*
X249152Y343538D01*
X251772D01*
X256000Y339310D01*
X228500Y355000D02*
X237690D01*
X205909Y358098D02*
Y381098D01*
X265000Y188000D02*
X290000D01*
X67500Y78500D02*
Y105000D01*
X62500Y110000D02*
X67500Y105000D01*
X257310Y188000D02*
X265000D01*
X290000D02*
X304000Y202000D01*
X71000Y45879D02*
Y75000D01*
X67500Y78500D02*
X71000Y75000D01*
X71879Y45000D02*
X122500D01*
X71000Y45879D02*
X71879Y45000D01*
D59*
X101800Y267300D02*
X116000Y281500D01*
X101800Y120782D02*
Y267300D01*
Y120782D02*
X104500Y118082D01*
Y117000D02*
Y118082D01*
X123600Y139200D02*
X195218D01*
X116100Y146700D02*
X123600Y139200D01*
X312486Y67876D02*
X326610Y82000D01*
X312486Y54832D02*
Y67876D01*
X195218Y139200D02*
X202918Y146900D01*
X204000D01*
X332493Y45007D02*
X332500Y45000D01*
X332486Y54832D02*
X332493Y54825D01*
Y45007D02*
Y54825D01*
X271058Y54557D02*
X275157Y58657D01*
X271058Y52057D02*
Y54557D01*
X275157Y58657D02*
X293598D01*
X312493Y45007D02*
Y54825D01*
Y45007D02*
X312500Y45000D01*
X312486Y54832D02*
X312493Y54825D01*
X297423Y54832D02*
X312486D01*
X293598Y58657D02*
X297423Y54832D01*
D60*
X117500Y386000D02*
D03*
X230000Y197839D02*
D03*
X371900D02*
D03*
X10000Y182815D02*
D03*
Y140315D02*
D03*
Y107500D02*
D03*
Y307657D02*
D03*
Y337657D02*
D03*
Y277657D02*
D03*
X9811Y224508D02*
D03*
D61*
X117500Y376000D02*
D03*
Y366000D02*
D03*
X229990Y237842D02*
D03*
Y227842D02*
D03*
Y217842D02*
D03*
Y207842D02*
D03*
X230000Y287839D02*
D03*
Y277839D02*
D03*
Y267839D02*
D03*
Y257839D02*
D03*
Y337839D02*
D03*
Y327839D02*
D03*
Y317839D02*
D03*
Y307839D02*
D03*
Y167839D02*
D03*
Y177839D02*
D03*
Y187839D02*
D03*
X371890Y237842D02*
D03*
Y227842D02*
D03*
Y217842D02*
D03*
Y207842D02*
D03*
X371900Y287839D02*
D03*
Y277839D02*
D03*
Y267839D02*
D03*
Y257839D02*
D03*
Y337839D02*
D03*
Y327839D02*
D03*
Y317839D02*
D03*
Y307839D02*
D03*
Y177839D02*
D03*
Y187839D02*
D03*
X230000Y157839D02*
D03*
X371900Y167839D02*
D03*
X351000Y158000D02*
D03*
X251000D02*
D03*
X371900Y157839D02*
D03*
X10000Y192657D02*
D03*
Y202500D02*
D03*
Y150157D02*
D03*
Y160000D02*
D03*
X386500Y200000D02*
D03*
Y210000D02*
D03*
Y220000D02*
D03*
Y230000D02*
D03*
Y240000D02*
D03*
Y250000D02*
D03*
Y260000D02*
D03*
X10000Y117343D02*
D03*
Y317500D02*
D03*
Y347500D02*
D03*
X386000Y308000D02*
D03*
Y318000D02*
D03*
Y328000D02*
D03*
Y338000D02*
D03*
X10000Y287500D02*
D03*
X9811Y234350D02*
D03*
X9711Y244250D02*
D03*
Y254050D02*
D03*
D62*
X39945Y380500D02*
D03*
X99000D02*
D03*
D63*
X71500Y371500D02*
D03*
X67500Y361500D02*
D03*
X75500D02*
D03*
X63500Y371500D02*
D03*
X79500D02*
D03*
X59500Y361500D02*
D03*
X83500D02*
D03*
X55500Y371500D02*
D03*
D65*
X229990Y247842D02*
D03*
X230000Y297839D02*
D03*
Y347839D02*
D03*
X371890Y247842D02*
D03*
X371900Y297839D02*
D03*
Y347839D02*
D03*
X386500Y270000D02*
D03*
X386000Y348000D02*
D03*
D67*
X251000D02*
D03*
Y338000D02*
D03*
Y328000D02*
D03*
Y318000D02*
D03*
Y308000D02*
D03*
Y298000D02*
D03*
Y288000D02*
D03*
Y278000D02*
D03*
Y268000D02*
D03*
Y258000D02*
D03*
Y248000D02*
D03*
Y238000D02*
D03*
Y228000D02*
D03*
Y218000D02*
D03*
Y208000D02*
D03*
Y198000D02*
D03*
Y188000D02*
D03*
Y178000D02*
D03*
Y168000D02*
D03*
X351000D02*
D03*
Y178000D02*
D03*
Y188000D02*
D03*
Y198000D02*
D03*
Y208000D02*
D03*
Y218000D02*
D03*
Y228000D02*
D03*
Y238000D02*
D03*
Y248000D02*
D03*
Y258000D02*
D03*
Y268000D02*
D03*
Y278000D02*
D03*
Y288000D02*
D03*
Y298000D02*
D03*
Y308000D02*
D03*
Y318000D02*
D03*
Y328000D02*
D03*
Y338000D02*
D03*
Y348000D02*
D03*
D68*
X301000Y63000D02*
D03*
X260212D02*
D03*
D70*
X258949Y19000D02*
D03*
X349500D02*
D03*
D71*
X67500Y329100D02*
D03*
X124024Y305166D02*
D03*
X67968Y281500D02*
D03*
X116000Y328832D02*
D03*
Y281500D02*
D03*
X155500Y261600D02*
D03*
X212024Y237666D02*
D03*
X155968Y214000D02*
D03*
X204000Y261332D02*
D03*
Y214000D02*
D03*
X116000Y214169D02*
D03*
Y261500D02*
D03*
X67968Y214169D02*
D03*
X124024Y237834D02*
D03*
X67500Y261769D02*
D03*
X56900Y68500D02*
D03*
X104232D02*
D03*
X56900Y116532D02*
D03*
X80566Y60476D02*
D03*
X104500Y117000D02*
D03*
X193753Y68500D02*
D03*
X241085D02*
D03*
X193753Y116532D02*
D03*
X217419Y60476D02*
D03*
X241353Y117000D02*
D03*
X204031Y281500D02*
D03*
Y328832D02*
D03*
X156000Y281500D02*
D03*
X212055Y305166D02*
D03*
X155532Y329100D02*
D03*
X125157Y68500D02*
D03*
X172488D02*
D03*
X125157Y116532D02*
D03*
X148823Y60476D02*
D03*
X172757Y117000D02*
D03*
X67600Y194300D02*
D03*
X124124Y170366D02*
D03*
X68068Y146700D02*
D03*
X116100Y194032D02*
D03*
Y146700D02*
D03*
X204000Y146900D02*
D03*
Y194231D02*
D03*
X155968Y146900D02*
D03*
X212024Y170566D02*
D03*
X155500Y194500D02*
D03*
D72*
X20000Y79685D02*
D03*
Y60000D02*
D03*
X154185Y20500D02*
D03*
X134500D02*
D03*
X90000Y20500D02*
D03*
X109685D02*
D03*
X137815Y372000D02*
D03*
X157500D02*
D03*
X218000Y19500D02*
D03*
X198315D02*
D03*
X372500Y71000D02*
D03*
Y51315D02*
D03*
X45500Y20500D02*
D03*
X65185D02*
D03*
D73*
X335573Y378011D02*
D03*
D74*
X325573D02*
D03*
X315573D02*
D03*
X305573D02*
D03*
X295573D02*
D03*
X285573D02*
D03*
X275573D02*
D03*
X265573D02*
D03*
X325500Y388000D02*
D03*
X315500D02*
D03*
X305500D02*
D03*
X295500D02*
D03*
X285500D02*
D03*
X275500D02*
D03*
X265500D02*
D03*
X335500D02*
D03*
X322486Y54832D02*
D03*
X332486D02*
D03*
X322500Y45000D02*
D03*
X332500D02*
D03*
X252014Y378168D02*
D03*
X242014D02*
D03*
X252000Y388000D02*
D03*
X242000D02*
D03*
D75*
X326610Y82000D02*
D03*
X340390D02*
D03*
X326720Y122000D02*
D03*
X340500D02*
D03*
D76*
X312486Y54832D02*
D03*
X312500Y45000D02*
D03*
X232014Y378168D02*
D03*
X232000Y388000D02*
D03*
D77*
X182287Y381098D02*
D03*
X194098D02*
D03*
X182287Y358098D02*
D03*
X194098D02*
D03*
D78*
X205909Y381098D02*
D03*
Y358098D02*
D03*
D80*
X290500Y51500D02*
D03*
X280500D02*
D03*
X270500D02*
D03*
D81*
X388500Y143500D02*
D03*
Y133500D02*
D03*
X358500D02*
D03*
Y143500D02*
D03*
D82*
X97500Y346000D02*
D03*
X147500Y379000D02*
D03*
X132500Y352700D02*
D03*
X130500Y366076D02*
D03*
X129000Y354000D02*
D03*
X143500Y358500D02*
D03*
X143000Y354000D02*
D03*
X69000Y389500D02*
D03*
X245000Y282500D02*
D03*
Y128000D02*
D03*
X238300Y222500D02*
D03*
X247000Y293000D02*
D03*
X274000Y309324D02*
D03*
X283500Y309241D02*
D03*
X275500Y277000D02*
D03*
X237066Y272500D02*
D03*
X264500Y292000D02*
D03*
X272510Y322510D02*
D03*
X268500Y277500D02*
D03*
X262000Y307000D02*
D03*
X106500Y221500D02*
D03*
Y254500D02*
D03*
X110197Y254642D02*
D03*
X111000Y221500D02*
D03*
X95300Y162062D02*
D03*
X62973Y171527D02*
D03*
X69500Y179000D02*
D03*
X46500Y179500D02*
D03*
Y175500D02*
D03*
X58418Y171527D02*
D03*
X296500Y303500D02*
D03*
X93000Y87500D02*
D03*
X228500Y355000D02*
D03*
X368000Y263000D02*
D03*
X379000Y258000D02*
D03*
X318000Y256000D02*
D03*
X286500D02*
D03*
X307500Y183000D02*
D03*
X323014Y185597D02*
D03*
X283000Y184500D02*
D03*
X349500Y90000D02*
D03*
X350000Y144000D02*
D03*
X88000Y97500D02*
D03*
X62500Y110000D02*
D03*
X341890Y101500D02*
D03*
X334000Y172500D02*
D03*
X93000Y108500D02*
D03*
X74000Y97500D02*
D03*
X314000Y316000D02*
D03*
X253919Y118758D02*
D03*
X257500Y119000D02*
D03*
X258500Y134000D02*
D03*
X304951Y145250D02*
D03*
X295000Y145000D02*
D03*
X275500Y150000D02*
D03*
X288653Y145459D02*
D03*
X272079Y145500D02*
D03*
X261757Y141000D02*
D03*
X281500Y132500D02*
D03*
X89000Y54500D02*
D03*
X327000Y73500D02*
D03*
X265000Y188000D02*
D03*
X304000Y202000D02*
D03*
X303000Y217000D02*
D03*
X298000Y216500D02*
D03*
X304000Y192500D02*
D03*
X241500Y128000D02*
D03*
X269500Y100000D02*
D03*
X272500Y97000D02*
D03*
X266500Y103000D02*
D03*
X257500Y100000D02*
D03*
X254500Y103000D02*
D03*
X260500D02*
D03*
X263500Y100000D02*
D03*
X260500Y97000D02*
D03*
X209000Y294000D02*
D03*
X219500Y293000D02*
D03*
X222450Y308050D02*
D03*
X324500Y289500D02*
D03*
X313500Y290000D02*
D03*
X323500Y306251D02*
D03*
X325231Y309521D02*
D03*
X283000Y321759D02*
D03*
X299414Y310914D02*
D03*
X296000Y314000D02*
D03*
X71000Y74241D02*
D03*
X122500Y45000D02*
D03*
X105500Y349500D02*
D03*
X109500Y346000D02*
D03*
X119500Y127500D02*
D03*
X111500Y113000D02*
D03*
X150000Y177500D02*
D03*
X225500Y283000D02*
D03*
X104000Y77500D02*
D03*
X96000Y229000D02*
D03*
X124500Y102000D02*
D03*
X201500Y180500D02*
D03*
X222000Y204000D02*
D03*
X257500Y203000D02*
D03*
X208500Y225000D02*
D03*
X118000Y225500D02*
D03*
X184548Y228594D02*
D03*
X120500Y294000D02*
D03*
X281500Y252500D02*
D03*
X223000Y232500D02*
D03*
X61819Y74985D02*
D03*
X104573Y58573D02*
D03*
X67500Y85000D02*
D03*
X46000Y60000D02*
D03*
X91500Y131000D02*
D03*
X37069Y100250D02*
D03*
X33000Y199000D02*
D03*
X29888Y291500D02*
D03*
X43703Y339337D02*
D03*
X266500Y97000D02*
D03*
X290000Y36000D02*
D03*
X342000Y32500D02*
D03*
X341500Y327595D02*
D03*
X341243Y332300D02*
D03*
X333443Y339512D02*
D03*
X323443D02*
D03*
X313443D02*
D03*
X303443D02*
D03*
X293443D02*
D03*
X283443D02*
D03*
X274537Y345989D02*
D03*
X350000Y362000D02*
D03*
X341500Y368500D02*
D03*
X358500Y362500D02*
D03*
X261495Y342479D02*
D03*
X300000Y229600D02*
D03*
X305000Y228500D02*
D03*
X293000Y234000D02*
D03*
X310000Y234800D02*
D03*
X317500Y245500D02*
D03*
X321800D02*
D03*
X337500Y241500D02*
D03*
X325500Y245500D02*
D03*
Y261000D02*
D03*
X334606Y249393D02*
D03*
X281000Y235000D02*
D03*
X336000Y209500D02*
D03*
X325000Y215759D02*
D03*
X259500Y169500D02*
D03*
X324868Y204946D02*
D03*
X313500Y216000D02*
D03*
X263500Y193000D02*
D03*
X267500Y168000D02*
D03*
X27000Y323000D02*
D03*
X50500Y101000D02*
D03*
X92000Y96500D02*
D03*
X184947Y162500D02*
D03*
X185829Y295426D02*
D03*
X97000Y295500D02*
D03*
X44500Y150000D02*
D03*
X44000Y192500D02*
D03*
Y275000D02*
D03*
X43366Y307000D02*
D03*
X364000Y193000D02*
D03*
X388000Y113500D02*
D03*
X357500Y111000D02*
D03*
X371282Y106771D02*
D03*
X379000Y89500D02*
D03*
X376282Y109271D02*
D03*
X371282Y111771D02*
D03*
X381282Y107271D02*
D03*
X381147Y111799D02*
D03*
X386000Y170000D02*
D03*
X235500Y172500D02*
D03*
X367500Y140000D02*
D03*
X295097Y184097D02*
D03*
X386000Y279000D02*
D03*
X292500Y217000D02*
D03*
X275500Y100000D02*
D03*
X254500Y97000D02*
D03*
X272500Y103000D02*
D03*
M02*
