G04*
G04 #@! TF.GenerationSoftware,Altium Limited,Altium Designer,24.9.1 (31)*
G04*
G04 Layer_Color=16711935*
%FSLAX25Y25*%
%MOIN*%
G70*
G04*
G04 #@! TF.SameCoordinates,2A645F15-B05F-45B5-8E7C-29DD8EA82903*
G04*
G04*
G04 #@! TF.FilePolarity,Negative*
G04*
G01*
G75*
%ADD27R,0.05918X0.07887*%
%ADD28R,0.07887X0.05918*%
%ADD33R,0.08800X0.06800*%
%ADD34O,0.08800X0.06800*%
%ADD35C,0.10091*%
%ADD36C,0.06619*%
%ADD37R,0.06619X0.06619*%
%ADD38R,0.07800X0.06800*%
%ADD39R,0.06824X0.06824*%
%ADD40C,0.06824*%
%ADD41C,0.07060*%
%ADD42R,0.07060X0.07060*%
%ADD43C,0.12800*%
%ADD44C,0.09800*%
%ADD45C,0.10249*%
%ADD46R,0.06800X0.07800*%
%ADD47O,0.06800X0.08800*%
%ADD48C,0.06800*%
%ADD49R,0.06800X0.08800*%
%ADD50C,0.05524*%
%ADD51R,0.05524X0.05524*%
%ADD52R,0.08713X0.08713*%
%ADD53C,0.08713*%
%ADD54C,0.00800*%
%ADD55C,0.05918*%
%ADD56C,0.03800*%
%ADD104R,0.06784X0.09855*%
G04:AMPARAMS|DCode=105|XSize=55.64mil|YSize=30.84mil|CornerRadius=6.85mil|HoleSize=0mil|Usage=FLASHONLY|Rotation=90.000|XOffset=0mil|YOffset=0mil|HoleType=Round|Shape=RoundedRectangle|*
%AMROUNDEDRECTD105*
21,1,0.05564,0.01713,0,0,90.0*
21,1,0.04193,0.03084,0,0,90.0*
1,1,0.01371,0.00856,0.02097*
1,1,0.01371,0.00856,-0.02097*
1,1,0.01371,-0.00856,-0.02097*
1,1,0.01371,-0.00856,0.02097*
%
%ADD105ROUNDEDRECTD105*%
G04:AMPARAMS|DCode=106|XSize=55.64mil|YSize=30.84mil|CornerRadius=6.85mil|HoleSize=0mil|Usage=FLASHONLY|Rotation=0.000|XOffset=0mil|YOffset=0mil|HoleType=Round|Shape=RoundedRectangle|*
%AMROUNDEDRECTD106*
21,1,0.05564,0.01713,0,0,0.0*
21,1,0.04193,0.03084,0,0,0.0*
1,1,0.01371,0.02097,-0.00856*
1,1,0.01371,-0.02097,-0.00856*
1,1,0.01371,-0.02097,0.00856*
1,1,0.01371,0.02097,0.00856*
%
%ADD106ROUNDEDRECTD106*%
G04:AMPARAMS|DCode=107|XSize=69.81mil|YSize=24.14mil|CornerRadius=6.02mil|HoleSize=0mil|Usage=FLASHONLY|Rotation=90.000|XOffset=0mil|YOffset=0mil|HoleType=Round|Shape=RoundedRectangle|*
%AMROUNDEDRECTD107*
21,1,0.06981,0.01211,0,0,90.0*
21,1,0.05778,0.02414,0,0,90.0*
1,1,0.01204,0.00605,0.02889*
1,1,0.01204,0.00605,-0.02889*
1,1,0.01204,-0.00605,-0.02889*
1,1,0.01204,-0.00605,0.02889*
%
%ADD107ROUNDEDRECTD107*%
%ADD108R,0.06942X0.01902*%
%ADD109R,0.01902X0.06942*%
%ADD110R,0.09147X0.06706*%
%ADD111R,0.06706X0.09147*%
%ADD112R,0.18300X0.05800*%
%ADD113R,0.05524X0.03950*%
%ADD114R,0.10800X0.08674*%
%ADD115R,0.09855X0.06784*%
%ADD116R,0.03950X0.04343*%
G04:AMPARAMS|DCode=117|XSize=55.64mil|YSize=31.23mil|CornerRadius=9.81mil|HoleSize=0mil|Usage=FLASHONLY|Rotation=180.000|XOffset=0mil|YOffset=0mil|HoleType=Round|Shape=RoundedRectangle|*
%AMROUNDEDRECTD117*
21,1,0.05564,0.01161,0,0,180.0*
21,1,0.03602,0.03123,0,0,180.0*
1,1,0.01961,-0.01801,0.00581*
1,1,0.01961,0.01801,0.00581*
1,1,0.01961,0.01801,-0.00581*
1,1,0.01961,-0.01801,-0.00581*
%
%ADD117ROUNDEDRECTD117*%
G04:AMPARAMS|DCode=118|XSize=31.62mil|YSize=52.88mil|CornerRadius=6.95mil|HoleSize=0mil|Usage=FLASHONLY|Rotation=0.000|XOffset=0mil|YOffset=0mil|HoleType=Round|Shape=RoundedRectangle|*
%AMROUNDEDRECTD118*
21,1,0.03162,0.03898,0,0,0.0*
21,1,0.01772,0.05288,0,0,0.0*
1,1,0.01391,0.00886,-0.01949*
1,1,0.01391,-0.00886,-0.01949*
1,1,0.01391,-0.00886,0.01949*
1,1,0.01391,0.00886,0.01949*
%
%ADD118ROUNDEDRECTD118*%
%ADD119R,0.13398X0.09068*%
%ADD120R,0.04343X0.09068*%
%ADD121R,0.16548X0.04737*%
%ADD122R,0.36233X0.28359*%
%ADD123R,0.36233X0.18517*%
G36*
X182455Y299363D02*
X176930D01*
Y303303D01*
X182455D01*
Y299363D01*
D02*
G37*
G36*
X94424Y299031D02*
X88899D01*
Y302971D01*
X94424D01*
Y299031D01*
D02*
G37*
G36*
X94568Y233032D02*
X89043D01*
Y236971D01*
X94568D01*
Y233032D01*
D02*
G37*
G36*
X181423Y232531D02*
X175899D01*
Y236471D01*
X181423D01*
Y232531D01*
D02*
G37*
G36*
X183068Y166532D02*
X177543D01*
Y170471D01*
X183068D01*
Y166532D01*
D02*
G37*
G36*
X95769Y166126D02*
X90244D01*
Y170066D01*
X95769D01*
Y166126D01*
D02*
G37*
D27*
X330500Y263500D02*
D03*
X342500D02*
D03*
X309000Y192500D02*
D03*
X297000D02*
D03*
X270417Y183500D02*
D03*
X259000D02*
D03*
X270500Y193000D02*
D03*
X258500D02*
D03*
X202500Y240000D02*
D03*
X190500D02*
D03*
Y228000D02*
D03*
X202500D02*
D03*
X103000Y307000D02*
D03*
X192031Y307331D02*
D03*
X101500Y241000D02*
D03*
X103000Y174500D02*
D03*
X189500Y174500D02*
D03*
X20500Y122500D02*
D03*
X32500D02*
D03*
X103000Y162500D02*
D03*
X115000D02*
D03*
X98000Y97500D02*
D03*
X110000D02*
D03*
Y87500D02*
D03*
X98000D02*
D03*
X109500Y128000D02*
D03*
X98083D02*
D03*
X98000Y107000D02*
D03*
X110000D02*
D03*
X201500Y174500D02*
D03*
X189500Y162500D02*
D03*
X201500D02*
D03*
X115000Y307000D02*
D03*
X115000Y295500D02*
D03*
X103000D02*
D03*
X342500Y254500D02*
D03*
X330500D02*
D03*
X342500Y245000D02*
D03*
X330500D02*
D03*
X330009Y309500D02*
D03*
X318009D02*
D03*
X266500D02*
D03*
X278500D02*
D03*
X328500Y192500D02*
D03*
X316500D02*
D03*
X289500Y193000D02*
D03*
X277500D02*
D03*
X367500Y134000D02*
D03*
X379500D02*
D03*
X20500Y291500D02*
D03*
X32500D02*
D03*
X20500Y322500D02*
D03*
X32500D02*
D03*
X20500Y352500D02*
D03*
X32500D02*
D03*
X20500Y207500D02*
D03*
X32500D02*
D03*
X20500Y165000D02*
D03*
X32500D02*
D03*
X113500Y241000D02*
D03*
X115000Y174500D02*
D03*
X204031Y295332D02*
D03*
X192031D02*
D03*
X204031Y307331D02*
D03*
X113500Y229000D02*
D03*
X101500D02*
D03*
X76500Y74500D02*
D03*
X88500D02*
D03*
X379500Y146000D02*
D03*
X367500D02*
D03*
X98000Y78000D02*
D03*
X110000D02*
D03*
X110500Y58000D02*
D03*
X99083D02*
D03*
D28*
X290500Y42500D02*
D03*
Y30500D02*
D03*
X349000Y357000D02*
D03*
Y369000D02*
D03*
X358500Y369000D02*
D03*
Y357000D02*
D03*
X259500Y163000D02*
D03*
Y175000D02*
D03*
X270000Y163000D02*
D03*
Y175000D02*
D03*
X265500Y333500D02*
D03*
Y345500D02*
D03*
X275500Y333500D02*
D03*
Y345500D02*
D03*
X285500Y333500D02*
D03*
Y345500D02*
D03*
X295500Y333500D02*
D03*
Y345500D02*
D03*
X305500Y333500D02*
D03*
Y345500D02*
D03*
X325500Y333500D02*
D03*
Y345500D02*
D03*
X335500Y333500D02*
D03*
Y345500D02*
D03*
X315500Y333500D02*
D03*
Y345500D02*
D03*
X68000Y98000D02*
D03*
Y110000D02*
D03*
Y79000D02*
D03*
Y91000D02*
D03*
X58000Y100500D02*
D03*
Y88500D02*
D03*
X68000Y117000D02*
D03*
Y129000D02*
D03*
X76500Y117000D02*
D03*
Y129000D02*
D03*
X335500Y367500D02*
D03*
Y355500D02*
D03*
X242000Y172500D02*
D03*
Y160500D02*
D03*
X386000Y174583D02*
D03*
Y186583D02*
D03*
X386000Y284000D02*
D03*
Y296000D02*
D03*
X276000Y264704D02*
D03*
Y252704D02*
D03*
X265500Y264704D02*
D03*
Y252704D02*
D03*
X265500Y355500D02*
D03*
Y367500D02*
D03*
X295500Y272500D02*
D03*
Y284500D02*
D03*
X325500Y272500D02*
D03*
Y284500D02*
D03*
X285500Y272500D02*
D03*
Y284500D02*
D03*
X305500Y272500D02*
D03*
Y284500D02*
D03*
X325500Y355500D02*
D03*
Y367500D02*
D03*
X315500Y272500D02*
D03*
Y284500D02*
D03*
X315500Y355500D02*
D03*
Y367500D02*
D03*
X295500Y355500D02*
D03*
Y367500D02*
D03*
X305500Y355500D02*
D03*
Y367500D02*
D03*
X335500Y272500D02*
D03*
Y284500D02*
D03*
X285500Y355500D02*
D03*
Y367500D02*
D03*
X275500Y272500D02*
D03*
Y284500D02*
D03*
X275500Y355500D02*
D03*
Y367500D02*
D03*
X265500Y272500D02*
D03*
Y284500D02*
D03*
X284000Y141000D02*
D03*
Y153000D02*
D03*
X274000Y122000D02*
D03*
Y134000D02*
D03*
X300000Y141000D02*
D03*
Y153000D02*
D03*
X264500Y122000D02*
D03*
Y134000D02*
D03*
X267500Y141000D02*
D03*
Y153000D02*
D03*
D33*
X117500Y386000D02*
D03*
X230000Y197839D02*
D03*
X371900D02*
D03*
X10000Y182815D02*
D03*
Y140315D02*
D03*
Y107500D02*
D03*
Y307657D02*
D03*
Y337657D02*
D03*
Y277657D02*
D03*
X9811Y224508D02*
D03*
D34*
X117500Y376000D02*
D03*
Y366000D02*
D03*
X229990Y237842D02*
D03*
Y227842D02*
D03*
Y217842D02*
D03*
Y207842D02*
D03*
X230000Y287839D02*
D03*
Y277839D02*
D03*
Y267839D02*
D03*
Y257839D02*
D03*
Y337839D02*
D03*
Y327839D02*
D03*
Y317839D02*
D03*
Y307839D02*
D03*
Y167839D02*
D03*
Y177839D02*
D03*
Y187839D02*
D03*
X371890Y237842D02*
D03*
Y227842D02*
D03*
Y217842D02*
D03*
Y207842D02*
D03*
X371900Y287839D02*
D03*
Y277839D02*
D03*
Y267839D02*
D03*
Y257839D02*
D03*
Y337839D02*
D03*
Y327839D02*
D03*
Y317839D02*
D03*
Y307839D02*
D03*
Y177839D02*
D03*
Y187839D02*
D03*
X230000Y157839D02*
D03*
X371900Y167839D02*
D03*
X351000Y158000D02*
D03*
X251000D02*
D03*
X371900Y157839D02*
D03*
X10000Y192657D02*
D03*
Y202500D02*
D03*
Y150157D02*
D03*
Y160000D02*
D03*
X386500Y200000D02*
D03*
Y210000D02*
D03*
Y220000D02*
D03*
Y230000D02*
D03*
Y240000D02*
D03*
Y250000D02*
D03*
Y260000D02*
D03*
X10000Y117343D02*
D03*
Y317500D02*
D03*
Y347500D02*
D03*
X386000Y308000D02*
D03*
Y318000D02*
D03*
Y328000D02*
D03*
Y338000D02*
D03*
X10000Y287500D02*
D03*
X9811Y234350D02*
D03*
X9711Y244250D02*
D03*
Y254050D02*
D03*
D35*
X39945Y380500D02*
D03*
X99000D02*
D03*
D36*
X71500Y371500D02*
D03*
X67500Y361500D02*
D03*
X75500D02*
D03*
X63500Y371500D02*
D03*
X79500D02*
D03*
X59500Y361500D02*
D03*
X83500D02*
D03*
D37*
X55500Y371500D02*
D03*
D38*
X229990Y247842D02*
D03*
X230000Y297839D02*
D03*
Y347839D02*
D03*
X371890Y247842D02*
D03*
X371900Y297839D02*
D03*
Y347839D02*
D03*
X386500Y270000D02*
D03*
X386000Y348000D02*
D03*
D39*
X251000D02*
D03*
D40*
Y338000D02*
D03*
Y328000D02*
D03*
Y318000D02*
D03*
Y308000D02*
D03*
Y298000D02*
D03*
Y288000D02*
D03*
Y278000D02*
D03*
Y268000D02*
D03*
Y258000D02*
D03*
Y248000D02*
D03*
Y238000D02*
D03*
Y228000D02*
D03*
Y218000D02*
D03*
Y208000D02*
D03*
Y198000D02*
D03*
Y188000D02*
D03*
Y178000D02*
D03*
Y168000D02*
D03*
X351000D02*
D03*
Y178000D02*
D03*
Y188000D02*
D03*
Y198000D02*
D03*
Y208000D02*
D03*
Y218000D02*
D03*
Y228000D02*
D03*
Y238000D02*
D03*
Y248000D02*
D03*
Y258000D02*
D03*
Y268000D02*
D03*
Y278000D02*
D03*
Y288000D02*
D03*
Y298000D02*
D03*
Y308000D02*
D03*
Y318000D02*
D03*
Y328000D02*
D03*
Y338000D02*
D03*
Y348000D02*
D03*
D41*
X301000Y63000D02*
D03*
D42*
X260212D02*
D03*
D43*
X258949Y19000D02*
D03*
X349500D02*
D03*
D44*
X67500Y329100D02*
D03*
X124024Y305166D02*
D03*
X67968Y281500D02*
D03*
X116000Y328832D02*
D03*
Y281500D02*
D03*
X155500Y261600D02*
D03*
X212024Y237666D02*
D03*
X155968Y214000D02*
D03*
X204000Y261332D02*
D03*
Y214000D02*
D03*
X116000Y214169D02*
D03*
Y261500D02*
D03*
X67968Y214169D02*
D03*
X124024Y237834D02*
D03*
X67500Y261769D02*
D03*
X56900Y68500D02*
D03*
X104232D02*
D03*
X56900Y116532D02*
D03*
X80566Y60476D02*
D03*
X104500Y117000D02*
D03*
X193753Y68500D02*
D03*
X241085D02*
D03*
X193753Y116532D02*
D03*
X217419Y60476D02*
D03*
X241353Y117000D02*
D03*
X204031Y281500D02*
D03*
Y328832D02*
D03*
X156000Y281500D02*
D03*
X212055Y305166D02*
D03*
X155532Y329100D02*
D03*
X125157Y68500D02*
D03*
X172488D02*
D03*
X125157Y116532D02*
D03*
X148823Y60476D02*
D03*
X172757Y117000D02*
D03*
X67600Y194300D02*
D03*
X124124Y170366D02*
D03*
X68068Y146700D02*
D03*
X116100Y194032D02*
D03*
Y146700D02*
D03*
X204000Y146900D02*
D03*
Y194231D02*
D03*
X155968Y146900D02*
D03*
X212024Y170566D02*
D03*
X155500Y194500D02*
D03*
D45*
X20000Y79685D02*
D03*
Y60000D02*
D03*
X154185Y20500D02*
D03*
X134500D02*
D03*
X90000Y20500D02*
D03*
X109685D02*
D03*
X137815Y372000D02*
D03*
X157500D02*
D03*
X218000Y19500D02*
D03*
X198315D02*
D03*
X372500Y71000D02*
D03*
Y51315D02*
D03*
X45500Y20500D02*
D03*
X65185D02*
D03*
D46*
X335573Y378011D02*
D03*
D47*
X325573D02*
D03*
X315573D02*
D03*
X305573D02*
D03*
X295573D02*
D03*
X285573D02*
D03*
X275573D02*
D03*
X265573D02*
D03*
X325500Y388000D02*
D03*
X315500D02*
D03*
X305500D02*
D03*
X295500D02*
D03*
X285500D02*
D03*
X275500D02*
D03*
X265500D02*
D03*
X335500D02*
D03*
X322486Y54832D02*
D03*
X332486D02*
D03*
X322500Y45000D02*
D03*
X332500D02*
D03*
X252014Y378168D02*
D03*
X242014D02*
D03*
X252000Y388000D02*
D03*
X242000D02*
D03*
D48*
X326610Y82000D02*
D03*
X340390D02*
D03*
X326720Y122000D02*
D03*
X340500D02*
D03*
D49*
X312486Y54832D02*
D03*
X312500Y45000D02*
D03*
X232014Y378168D02*
D03*
X232000Y388000D02*
D03*
D50*
X182287Y381098D02*
D03*
X194098D02*
D03*
X182287Y358098D02*
D03*
X194098D02*
D03*
D51*
X205909Y381098D02*
D03*
Y358098D02*
D03*
D52*
X290500Y51500D02*
D03*
D53*
X280500D02*
D03*
X270500D02*
D03*
D54*
X374016Y19685D02*
D03*
X19685D02*
D03*
X374016Y374016D02*
D03*
X19685D02*
D03*
D55*
X388500Y143500D02*
D03*
Y133500D02*
D03*
X358500D02*
D03*
Y143500D02*
D03*
D56*
X97500Y346000D02*
D03*
X147500Y379000D02*
D03*
X132500Y352700D02*
D03*
X130500Y366076D02*
D03*
X129000Y354000D02*
D03*
X143500Y358500D02*
D03*
X143000Y354000D02*
D03*
X69000Y389500D02*
D03*
X245000Y282500D02*
D03*
Y128000D02*
D03*
X238300Y222500D02*
D03*
X247000Y293000D02*
D03*
X274000Y309324D02*
D03*
X283500Y309241D02*
D03*
X275500Y277000D02*
D03*
X237066Y272500D02*
D03*
X264500Y292000D02*
D03*
X272510Y322510D02*
D03*
X268500Y277500D02*
D03*
X262000Y307000D02*
D03*
X106500Y221500D02*
D03*
Y254500D02*
D03*
X110197Y254642D02*
D03*
X111000Y221500D02*
D03*
X95300Y162062D02*
D03*
X62973Y171527D02*
D03*
X69500Y179000D02*
D03*
X46500Y179500D02*
D03*
Y175500D02*
D03*
X58418Y171527D02*
D03*
X296500Y303500D02*
D03*
X93000Y87500D02*
D03*
X228500Y355000D02*
D03*
X368000Y263000D02*
D03*
X379000Y258000D02*
D03*
X318000Y256000D02*
D03*
X286500D02*
D03*
X307500Y183000D02*
D03*
X323014Y185597D02*
D03*
X283000Y184500D02*
D03*
X349500Y90000D02*
D03*
X350000Y144000D02*
D03*
X88000Y97500D02*
D03*
X62500Y110000D02*
D03*
X341890Y101500D02*
D03*
X334000Y172500D02*
D03*
X93000Y108500D02*
D03*
X74000Y97500D02*
D03*
X314000Y316000D02*
D03*
X253919Y118758D02*
D03*
X257500Y119000D02*
D03*
X258500Y134000D02*
D03*
X304951Y145250D02*
D03*
X295000Y145000D02*
D03*
X275500Y150000D02*
D03*
X288653Y145459D02*
D03*
X272079Y145500D02*
D03*
X261757Y141000D02*
D03*
X281500Y132500D02*
D03*
X89000Y54500D02*
D03*
X327000Y73500D02*
D03*
X265000Y188000D02*
D03*
X304000Y202000D02*
D03*
X303000Y217000D02*
D03*
X298000Y216500D02*
D03*
X304000Y192500D02*
D03*
X241500Y128000D02*
D03*
X269500Y100000D02*
D03*
X272500Y97000D02*
D03*
X266500Y103000D02*
D03*
X257500Y100000D02*
D03*
X254500Y103000D02*
D03*
X260500D02*
D03*
X263500Y100000D02*
D03*
X260500Y97000D02*
D03*
X209000Y294000D02*
D03*
X219500Y293000D02*
D03*
X222450Y308050D02*
D03*
X324500Y289500D02*
D03*
X313500Y290000D02*
D03*
X323500Y306251D02*
D03*
X325231Y309521D02*
D03*
X283000Y321759D02*
D03*
X299414Y310914D02*
D03*
X296000Y314000D02*
D03*
X71000Y74241D02*
D03*
X122500Y45000D02*
D03*
X105500Y349500D02*
D03*
X109500Y346000D02*
D03*
X119500Y127500D02*
D03*
X111500Y113000D02*
D03*
X150000Y177500D02*
D03*
X225500Y283000D02*
D03*
X104000Y77500D02*
D03*
X96000Y229000D02*
D03*
X124500Y102000D02*
D03*
X201500Y180500D02*
D03*
X222000Y204000D02*
D03*
X257500Y203000D02*
D03*
X208500Y225000D02*
D03*
X118000Y225500D02*
D03*
X184548Y228594D02*
D03*
X120500Y294000D02*
D03*
X281500Y252500D02*
D03*
X223000Y232500D02*
D03*
X61819Y74985D02*
D03*
X104573Y58573D02*
D03*
X67500Y85000D02*
D03*
X46000Y60000D02*
D03*
X91500Y131000D02*
D03*
X37069Y100250D02*
D03*
X33000Y199000D02*
D03*
X29888Y291500D02*
D03*
X43703Y339337D02*
D03*
X266500Y97000D02*
D03*
X290000Y36000D02*
D03*
X342000Y32500D02*
D03*
X341500Y327595D02*
D03*
X341243Y332300D02*
D03*
X333443Y339512D02*
D03*
X323443D02*
D03*
X313443D02*
D03*
X303443D02*
D03*
X293443D02*
D03*
X283443D02*
D03*
X274537Y345989D02*
D03*
X350000Y362000D02*
D03*
X341500Y368500D02*
D03*
X358500Y362500D02*
D03*
X261495Y342479D02*
D03*
X300000Y229600D02*
D03*
X305000Y228500D02*
D03*
X293000Y234000D02*
D03*
X310000Y234800D02*
D03*
X317500Y245500D02*
D03*
X321800D02*
D03*
X337500Y241500D02*
D03*
X325500Y245500D02*
D03*
Y261000D02*
D03*
X334606Y249393D02*
D03*
X281000Y235000D02*
D03*
X336000Y209500D02*
D03*
X325000Y215759D02*
D03*
X259500Y169500D02*
D03*
X324868Y204946D02*
D03*
X313500Y216000D02*
D03*
X263500Y193000D02*
D03*
X267500Y168000D02*
D03*
X27000Y323000D02*
D03*
X50500Y101000D02*
D03*
X92000Y96500D02*
D03*
X184947Y162500D02*
D03*
X185829Y295426D02*
D03*
X97000Y295500D02*
D03*
X44500Y150000D02*
D03*
X44000Y192500D02*
D03*
Y275000D02*
D03*
X43366Y307000D02*
D03*
X364000Y193000D02*
D03*
X388000Y113500D02*
D03*
X357500Y111000D02*
D03*
X371282Y106771D02*
D03*
X379000Y89500D02*
D03*
X376282Y109271D02*
D03*
X371282Y111771D02*
D03*
X381282Y107271D02*
D03*
X381147Y111799D02*
D03*
X386000Y170000D02*
D03*
X235500Y172500D02*
D03*
X367500Y140000D02*
D03*
X295097Y184097D02*
D03*
X386000Y279000D02*
D03*
X292500Y217000D02*
D03*
X275500Y100000D02*
D03*
X254500Y97000D02*
D03*
X272500Y103000D02*
D03*
D104*
X100000Y353000D02*
D03*
X83189D02*
D03*
X20595Y339500D02*
D03*
X37405D02*
D03*
X304094Y73500D02*
D03*
X320905D02*
D03*
X171095Y214000D02*
D03*
X187906D02*
D03*
X101311D02*
D03*
X84500D02*
D03*
X37311Y108000D02*
D03*
X20500D02*
D03*
X188406Y147000D02*
D03*
X171595D02*
D03*
X84095Y281000D02*
D03*
X100906D02*
D03*
X171531Y280832D02*
D03*
X188342D02*
D03*
X37405Y275000D02*
D03*
X20595D02*
D03*
X37405Y307000D02*
D03*
X20595D02*
D03*
X37405Y192500D02*
D03*
X20595D02*
D03*
X37905Y150000D02*
D03*
X21094D02*
D03*
X83595Y146500D02*
D03*
X100406D02*
D03*
D105*
X139240Y347559D02*
D03*
X135500D02*
D03*
X131760D02*
D03*
X139240Y357441D02*
D03*
X135500D02*
D03*
X131760D02*
D03*
D106*
X52618Y175760D02*
D03*
Y179500D02*
D03*
Y183240D02*
D03*
X62500Y175760D02*
D03*
Y179500D02*
D03*
Y183240D02*
D03*
D107*
X309516Y298201D02*
D03*
X306957D02*
D03*
X304398D02*
D03*
X301838D02*
D03*
X299279D02*
D03*
X296721D02*
D03*
X294161D02*
D03*
X291602D02*
D03*
X289043D02*
D03*
X286484D02*
D03*
Y320799D02*
D03*
X289043D02*
D03*
X291602D02*
D03*
X294161D02*
D03*
X296721D02*
D03*
X299279D02*
D03*
X301838D02*
D03*
X304398D02*
D03*
X306957D02*
D03*
X309516D02*
D03*
D108*
X319457Y213173D02*
D03*
Y215142D02*
D03*
Y217110D02*
D03*
Y219079D02*
D03*
Y221047D02*
D03*
Y223016D02*
D03*
Y224984D02*
D03*
Y226953D02*
D03*
Y228921D02*
D03*
Y230890D02*
D03*
Y232858D02*
D03*
Y234827D02*
D03*
X286543D02*
D03*
Y232858D02*
D03*
Y230890D02*
D03*
Y228921D02*
D03*
Y226953D02*
D03*
Y224984D02*
D03*
Y223016D02*
D03*
Y221047D02*
D03*
Y219079D02*
D03*
Y217110D02*
D03*
Y215142D02*
D03*
Y213173D02*
D03*
D109*
X313827Y240457D02*
D03*
X311858D02*
D03*
X309890D02*
D03*
X307921D02*
D03*
X305953D02*
D03*
X303984D02*
D03*
X302016D02*
D03*
X300047D02*
D03*
X298079D02*
D03*
X296110D02*
D03*
X294142D02*
D03*
X292173D02*
D03*
Y207543D02*
D03*
X294142D02*
D03*
X296110D02*
D03*
X298079D02*
D03*
X300047D02*
D03*
X302016D02*
D03*
X303984D02*
D03*
X305953D02*
D03*
X307921D02*
D03*
X309890D02*
D03*
X311858D02*
D03*
X313827D02*
D03*
D110*
X36827Y92500D02*
D03*
X20173D02*
D03*
X350327Y32500D02*
D03*
X333673D02*
D03*
D111*
X50000Y193173D02*
D03*
Y209827D02*
D03*
X50500Y275673D02*
D03*
Y292327D02*
D03*
X50000Y308173D02*
D03*
Y324827D02*
D03*
Y355827D02*
D03*
Y339173D02*
D03*
X50500Y166827D02*
D03*
Y150173D02*
D03*
D112*
X320000Y176500D02*
D03*
X285000D02*
D03*
D113*
X91799Y229095D02*
D03*
Y240905D02*
D03*
X91655Y295094D02*
D03*
Y306906D02*
D03*
X179686Y295426D02*
D03*
Y307237D02*
D03*
X178655Y228594D02*
D03*
Y240406D02*
D03*
X93000Y162189D02*
D03*
Y174000D02*
D03*
X180299Y162594D02*
D03*
Y174406D02*
D03*
D114*
X80145Y235000D02*
D03*
X80000Y301000D02*
D03*
X168032Y301331D02*
D03*
X167000Y234500D02*
D03*
X81345Y168095D02*
D03*
X168644Y168500D02*
D03*
D115*
X89500Y32189D02*
D03*
Y49000D02*
D03*
X241500Y134094D02*
D03*
Y150906D02*
D03*
X124500Y96906D02*
D03*
Y80094D02*
D03*
X46000Y51000D02*
D03*
Y34189D02*
D03*
D116*
X72740Y377563D02*
D03*
X65260D02*
D03*
X69000Y385437D02*
D03*
X143760Y382937D02*
D03*
X151240D02*
D03*
X147500Y375063D02*
D03*
X120240Y350063D02*
D03*
X112760D02*
D03*
X116500Y357937D02*
D03*
D117*
X78559Y92240D02*
D03*
Y84760D02*
D03*
X88441D02*
D03*
Y88500D02*
D03*
Y92240D02*
D03*
Y109240D02*
D03*
Y105500D02*
D03*
Y101760D02*
D03*
X78559D02*
D03*
Y109240D02*
D03*
D118*
X84260Y126185D02*
D03*
X91740D02*
D03*
X88000Y116815D02*
D03*
D119*
X265000Y89500D02*
D03*
D120*
X274055Y112728D02*
D03*
X265000D02*
D03*
X255945D02*
D03*
D121*
X331945Y88114D02*
D03*
Y94807D02*
D03*
Y101500D02*
D03*
Y108193D02*
D03*
Y114886D02*
D03*
D122*
X372260Y101500D02*
D03*
D123*
X302525Y125575D02*
D03*
Y94866D02*
D03*
M02*
