M48
;Layer_Color=9474304
;FILE_FORMAT=2:5
INCH,LZ
;TYPE=PLATED
T01F00S00C0.02000
T02F00S00C0.03000
T03F00S00C0.03150
T04F00S00C0.03543
T05F00S00C0.03819
T06F00S00C0.04000
T07F00S00C0.04016
T08F00S00C0.04173
T09F00S00C0.05276
T10F00S00C0.05512
T11F00S00C0.06000
;TYPE=NON_PLATED
T12F00S00C0.09291
T13F00S00C0.11811
%
T01
X0089Y00545
X01225Y0045
X029Y0036
X0342Y00325
X0327Y00735
X03495Y009
X034189Y01015
X03575Y0111
X0371282Y0111771
Y0106771
X0376282Y0109271
X0381282Y0107271
X0381147Y0111799
X0388Y01135
X0379Y00895
X03675Y014
X035Y0144
X0334Y01725
X0323014Y0185597
X03075Y0183
X0304Y01925
Y0202
X0324868Y0204946
X0336Y02095
X0364Y0193
X0386Y017
X0295097Y0184097
X0283Y01845
X0288653Y0145459
X0295Y0145
X0304951Y014525
X0272079Y01455
X02755Y015
X0261757Y0141
X02585Y0134
X02575Y0119
X0253919Y0118758
X02545Y0103
X02575Y01
X02605Y0103
X02665
X02695Y01
X02725Y0097
X02665
X02635Y01
X02605Y0097
X02545
X02755Y01
X02725Y0103
X02815Y01325
X0245Y0128
X02415
X02355Y01725
X02595Y01695
X02675Y0168
X0265Y0188
X02635Y0193
X02575Y0203
X0222Y0204
X02015Y01805
X0184947Y01625
X015Y01775
X00953Y0162062
X00915Y0131
X0093Y01085
X0092Y00965
X0088Y00975
X0074
X00675Y0085
X0071Y0074241
X0061819Y0074985
X0046Y006
X00505Y0101
X0037069Y010025
X00625Y011
X01115Y0113
X01195Y01275
X01245Y0102
X0104Y00775
X0104573Y0058573
X0093Y00875
X00445Y015
X00465Y01755
Y01795
X0044Y01925
X0033Y0199
X0058418Y0171527
X0062973
X00695Y0179
X0096Y0229
X01065Y02215
X0111
X0118Y02255
X0110197Y0254642
X01065Y02545
X0097Y02955
X01205Y0294
X01095Y0346
X01055Y03495
X00975Y0346
X0043703Y0339337
X0043366Y0307
X0029888Y02915
X0044Y0275
X0027Y0323
X0129Y0354
X01325Y03527
X0143Y0354
X01435Y03585
X01305Y0366076
X02285Y0355
X0261495Y0342479
X0274537Y0345989
X027251Y032251
X0274Y0309324
X0262Y0307
X02645Y0292
X0247Y0293
X0245Y02825
X0237066Y02725
X02255Y0283
X02195Y0293
X0209Y0294
X0185829Y0295426
X022245Y030805
X0223Y02325
X02085Y0225
X0184548Y0228594
X02383Y02225
X0281Y0235
X02815Y02525
X02755Y0277
X02685Y02775
X02865Y0256
X0293Y0234
X03Y02296
X0305Y02285
X031Y02348
X03175Y02455
X03218
X03255
X0334606Y0249393
X03375Y02415
X03255Y0261
X0318Y0256
X03135Y029
X03245Y02895
X03235Y0306251
X0325231Y0309521
X0314Y0316
X0299414Y0310914
X0296Y0314
X02965Y03035
X02835Y0309241
X0283Y0321759
X0283443Y0339512
X0293443
X0303443
X0313443
X0323443
X0333443
X0341243Y03323
X03415Y0327595
Y03685
X035Y0362
X03585Y03625
X0368Y0263
X0379Y0258
X0386Y0279
X0325Y0215759
X03135Y0216
X0303Y0217
X0298Y02165
X02925Y0217
X01475Y0379
X0069Y03895
T02
X032661Y0082
X034039
X03405Y0122
X032672
T03
X03585Y01335
Y01435
X03885
Y01335
T04
X0182287Y0358098
X0194098
X0205909
Y0381098
X0194098
X0182287
T05
X00595Y03615
X00675
X00755
X00835
X00795Y03715
X00715
X00635
X00555
T06
X03125Y0045
X0312486Y0054832
X0322486
X03225Y0045
X03325
X0332486Y0054832
X0351Y0158
X03719Y0157839
Y0167839
Y0177839
Y0187839
Y0197839
X037189Y0207842
X03865Y021
Y02
X023Y0197839
Y0187839
Y0177839
Y0167839
Y0157839
X0251Y0158
X022999Y0207842
X001Y02025
Y0192657
Y0182815
Y016
Y0150157
Y0140315
Y0117343
Y01075
X0009811Y0224508
Y023435
X0009711Y024425
Y025405
X001Y0277657
Y02875
Y0307657
Y03175
Y0337657
Y03475
X01175Y0366
X023Y0347839
Y0337839
Y0327839
Y0317839
Y0307839
Y0297839
Y0287839
Y0277839
Y0267839
Y0257839
X022999Y0247842
Y0237842
Y0227842
Y0217842
X037189
Y0227842
Y0237842
Y0247842
X03719Y0257839
Y0267839
Y0277839
Y0287839
Y0297839
Y0307839
Y0317839
Y0327839
Y0337839
Y0347839
X0386Y0348
Y0338
Y0328
Y0318
Y0308
X03865Y027
Y026
Y025
Y024
Y023
Y022
X0335573Y0378011
X0325573
X0315573
X0305573
X0295573
X0285573
X02855Y0388
X02955
X03055
X03155
X03255
X03355
X02755
X02655
X0265573Y0378011
X0275573
X0252014Y0378168
X0252Y0388
X0242
X0242014Y0378168
X0232014
X0232Y0388
X01175Y0386
Y0376
T07
X0351Y0168
Y0178
Y0188
Y0198
Y0208
X0251
Y0198
Y0188
Y0178
Y0168
Y0218
Y0228
Y0238
Y0248
Y0258
Y0268
Y0278
Y0288
Y0298
Y0308
Y0318
Y0328
Y0338
Y0348
X0351
Y0338
Y0328
Y0318
Y0308
Y0298
Y0288
Y0278
Y0268
Y0258
Y0248
Y0238
Y0228
Y0218
T08
X0301Y0063
X0260212
T09
X02705Y00515
X02805
X02905
T10
X00455Y00205
X0065185
X009
X0109685
X01345Y00205
X0154185
X0198315Y00195
X0218
X03725Y0051315
Y0071
X0241085Y00685
X0217419Y0060476
X0193753Y00685
X0172488
X0148823Y0060476
X0172757Y0117
X0193753Y0116532
X0204Y01469
X0212024Y0170566
X0204Y0194231
Y0214
X0155968
X01555Y01945
X0155968Y01469
X0241353Y0117
X0125157Y0116532
X01045Y0117
X01161Y01467
X0124124Y0170366
X01161Y0194032
X00676Y01943
X0068068Y01467
X00569Y0116532
Y00685
X0080566Y0060476
X0104232Y00685
X0125157Y00685
X002Y006
Y0079685
X0067968Y0214169
X0116
X0124024Y0237834
X0116Y02615
Y02815
X0124024Y0305166
X0116Y0328832
X00675Y03291
X0067968Y02815
X00675Y0261769
X01555Y02616
X0156Y02815
X0204031
X0204Y0261332
X0212024Y0237666
X0212055Y0305166
X0204031Y0328832
X0155532Y03291
X01575Y0372
X0137815
T11
X0258949Y0019
X03495
T12
X0039945Y03805
X0099
T13
X0019685Y0019685
X0374016
Y0374016
X0019685
M30
